<svg xmlns="http://www.w3.org/2000/svg" width="20" height="20" xmlns:v="https://vecta.io/nano"><path d="M6.182 11.588l.202.008c.53.043.99.257 1.375.643.434.434.65.96.65 1.578h0v2.968l-.008.2c-.043.523-.257.978-.643 1.364-.434.434-.96.65-1.578.65h0H3.23l-.202-.008c-.53-.043-.99-.257-1.375-.643A2.13 2.13 0 0 1 1 16.785h0v-2.968l.008-.202c.043-.53.257-.99.643-1.375.434-.434.96-.65 1.578-.65h2.953zm10.588 0l.202.008c.53.043.99.257 1.375.643.434.434.65.96.65 1.578h0v2.968l-.008.2c-.043.523-.257.978-.643 1.364-.434.434-.96.65-1.578.65h0-2.968l-.2-.008c-.523-.043-.978-.257-1.364-.643a2.13 2.13 0 0 1-.651-1.563h0v-2.968l.008-.202c.043-.53.257-.99.643-1.375a2.13 2.13 0 0 1 1.563-.651h2.968zM6.182 1l.202.008c.53.043.99.257 1.375.643.434.434.65.96.65 1.578h0v2.968l-.008.2c-.043.523-.257.978-.643 1.364-.434.434-.96.65-1.578.65h0H3.23l-.202-.008c-.53-.043-.99-.257-1.375-.643A2.13 2.13 0 0 1 1 6.197h0V3.23l.008-.202c.043-.53.257-.99.643-1.375.434-.434.96-.65 1.578-.65h2.953zM16.77 1l.202.008c.53.043.99.257 1.375.643.434.434.65.96.65 1.578h0v2.968l-.008.2c-.043.523-.257.978-.643 1.364-.434.434-.96.65-1.578.65h0-2.968l-.2-.008c-.523-.043-.978-.257-1.364-.643a2.13 2.13 0 0 1-.651-1.563h0V3.23l.008-.202c.043-.53.257-.99.643-1.375A2.13 2.13 0 0 1 13.803 1h2.968z" stroke="#0074fc" stroke-width="1.65" fill="none"/></svg>