<svg xmlns="http://www.w3.org/2000/svg" width="18" height="12"  xmlns:v="https://vecta.io/nano"><path d="M6.7 11a.53.53 0 0 0 .165-.026c.054-.018.1-.046.14-.086a.35.35 0 0 0 0-.541L2.541 6.387h14.127c.124 0 .229-.038.313-.113a.35.35 0 0 0 .127-.27c0-.11-.042-.203-.127-.278s-.189-.113-.313-.113H2.541l4.464-3.959a.35.35 0 0 0 .127-.27.35.35 0 0 0-.127-.27C6.92 1.038 6.818 1 6.7 1s-.22.038-.305.113L1.186 5.726c-.085.075-.127.167-.127.274s.042.199.127.274l5.209 4.613c.04.04.086.069.14.086A.53.53 0 0 0 6.7 11z" fill="#0070f0" stroke="#0070f0" stroke-width=".5"/></svg>