<svg xmlns="http://www.w3.org/2000/svg" width="16" height="12" xmlns:v="https://vecta.io/nano"><path d="M10.08 11c.05 0 .097-.01.144-.026s.087-.046.122-.086l4.544-4.613C14.963 6.2 15 6.108 15 6s-.037-.2-.11-.274l-4.544-4.613A.36.36 0 0 0 10.08 1a.36.36 0 0 0-.266.113.37.37 0 0 0-.111.27.37.37 0 0 0 .111.27l3.893 3.96H1.384c-.108 0-.2.038-.273.113A.38.38 0 0 0 1 6.004a.37.37 0 0 0 .111.27c.074.075.165.113.273.113h12.323l-3.893 3.96a.37.37 0 0 0-.111.27.37.37 0 0 0 .111.27c.034.04.075.07.122.086s.095.026.144.026z" fill="#0074fc" stroke="#0074fc" stroke-width=".769"/></svg>