<svg xmlns="http://www.w3.org/2000/svg" width="14" height="14" xmlns:v="https://vecta.io/nano"><path d="M7 13.5c1.177 0 2.271-.297 3.281-.891.979-.573 1.755-1.349 2.328-2.328.594-1.01.891-2.104.891-3.281 0-.771-.115-1.453-.344-2.047l-.812.797c.104.417.156.833.156 1.25a5.41 5.41 0 0 1-.75 2.781 5.25 5.25 0 0 1-1.969 1.969A5.41 5.41 0 0 1 7 12.5a5.41 5.41 0 0 1-2.781-.75A5.25 5.25 0 0 1 2.25 9.781 5.41 5.41 0 0 1 1.5 7a5.41 5.41 0 0 1 .75-2.781A5.25 5.25 0 0 1 4.219 2.25 5.41 5.41 0 0 1 7 1.5a5.37 5.37 0 0 1 2.109.422 5.1 5.1 0 0 1 1.688 1.125l.703-.703c-.583-.583-1.263-1.036-2.039-1.359A6.34 6.34 0 0 0 7 .5c-1.177 0-2.271.297-3.281.891-.979.573-1.755 1.349-2.328 2.328C.797 4.729.5 5.823.5 7s.297 2.271.891 3.281c.573.979 1.349 1.755 2.328 2.328 1.01.594 2.104.891 3.281.891zm0-3.797l.359-.344 6-6-.719-.719L7 8.281 4.859 6.141l-.719.719 2.5 2.5.359.344z" fill="#0074fc" stroke="#0074fc" stroke-width=".2"/></svg>