<svg xmlns="http://www.w3.org/2000/svg" width="52" height="41" fill="#6f6cac" fill-rule="evenodd"><path d="M8.98 4.93a4.5 4.5 0 0 1 3.31-.9 4.5 4.5 0 0 1 2.99 1.67l10.77 13.6c1.52 1.92 1.17 4.7-.78 6.2l-7.24 5.55a4.5 4.5 0 0 1-2.75.93 4.5 4.5 0 0 1-3.55-1.7L.95 16.7c-.74-.93-1.06-2.1-.9-3.26s.75-2.22 1.7-2.94zM7.1 8.53l-4.3 3.3a2.7 2.7 0 0 0-1.04 1.8c-.1.7.1 1.43.56 2l10.77 13.6a2.8 2.8 0 0 0 3.87.47l4.3-3.3L7.1 8.53zm4.97-2.8c-.62-.07-1.22.06-1.74.37l14.12 17.84c.97-.95 1.1-2.48.23-3.57L13.9 6.75c-.45-.57-1.1-.94-1.83-1.03zm-5.6 5.95l.18.01c.47.06.9.3 1.18.66l1.42 1.8a1.7 1.7 0 0 1 .36 1.3c-.06.47-.3.87-.67 1.16l-.83.64c-.3.24-.7.37-1.1.37-.07 0-.15-.01-.22-.01-.47-.06-.9-.3-1.18-.66l-1.42-1.8c-.3-.37-.42-.82-.36-1.3s.3-.87.67-1.16l.83-.64c.37-.3.84-.4 1.3-.35zm-.01 1.72l-.9.63L7 15.87c.01.01.04.02.05.01l.83-.64-1.4-1.84zM36.06 0c4.82 0 8.75 3.92 8.75 8.75s-3.92 8.75-8.75 8.75-8.75-3.92-8.75-8.75S31.24 0 36.06 0zm0 1.66a7.1 7.1 0 0 0-7.09 7.09 7.1 7.1 0 0 0 7.09 7.09 7.1 7.1 0 0 0 7.09-7.09 7.1 7.1 0 0 0-7.09-7.09zm.78 3.08a.7.7 0 0 1 .6-.02c.2.08.36.22.45.42s.1.4.02.6l-.15.4 1.55.58c.2.08.36.22.45.42s.1.4.02.62c-.08.2-.22.36-.42.45s-.4.1-.6.02L34.9 6.8l-.3.8 3.86 1.44c.2.08.36.22.45.42s.1.4.02.6l-.86 2.3c-.08.2-.22.36-.42.45s-.4.1-.6.02l-1.55-.58-.15.4c-.08.2-.22.35-.42.45-.1.05-.22.07-.33.07-.1 0-.2-.02-.28-.05-.2-.08-.35-.22-.45-.42a.7.7 0 0 1-.02-.6l.15-.4-1.55-.58c-.2-.08-.36-.22-.45-.42s-.1-.4-.02-.6.22-.36.42-.45.4-.1.6-.02l3.84 1.44.3-.8L33.3 8.8c-.2-.08-.36-.22-.45-.42s-.1-.4-.02-.62l.86-2.3c.08-.2.22-.37.42-.46s.4-.1.6-.02l1.55.58.15-.4c.08-.2.22-.36.42-.45zm1.9 23.62c.23 0 .43.08.6.24s.24.36.24.58v10.78a.8.8 0 0 1-.24.58c-.16.16-.36.24-.6.24H35.5a.8.8 0 0 1-.82-.82V29.18a.8.8 0 0 1 .82-.82zm-5.77 3.23c.23 0 .43.08.6.24a.8.8 0 0 1 .24.58v7.55a.8.8 0 0 1-.24.58c-.16.16-.36.24-.6.24h-3.23a.8.8 0 0 1-.82-.82V32.4a.8.8 0 0 1 .82-.82zm11.72-2.16c.23 0 .43.08.6.24s.24.36.24.6v9.7a.8.8 0 0 1-.24.58c-.16.16-.36.24-.6.24h-3.23a.8.8 0 0 1-.82-.82v-9.7c0-.23.08-.43.24-.6s.36-.24.58-.24zm6.14-4.3c.23 0 .43.08.6.24a.8.8 0 0 1 .24.58v14a.8.8 0 0 1-.24.58c-.16.16-.36.24-.6.24H47.6a.8.8 0 0 1-.82-.82v-14a.8.8 0 0 1 .82-.82zM37.9 30h-1.6v9.14h1.6V30zm-5.77 3.24h-1.6v5.9h1.6v-5.9zm11.72-2.16h-1.6v8.05h1.6v-8.05zm6.14-4.3h-1.6v12.37H50V26.77zm.88-9.55c.2 0 .4.08.55.23s.23.34.23.55v2.66c0 .43-.35.77-.77.77h-.1c-.38-.05-.67-.38-.67-.77v-.5l-8.78 7.32c-.3.24-.72.24-1-.01L36.6 24.2l-6.13 5.6c-.15.13-.33.2-.52.2-.2 0-.42-.1-.57-.25-.3-.32-.27-.8.05-1.1l6.64-6.06c.3-.26.74-.27 1.03-.01l3.74 3.3 8.5-7.1h-1.02c-.43 0-.77-.35-.77-.77s.35-.77.77-.77z"/></svg>