<svg xmlns="http://www.w3.org/2000/svg" width="14" height="12"  xmlns:v="https://vecta.io/nano"><path d="M10.426 11c.385 0 .748-.065 1.089-.195a2.83 2.83 0 0 0 .891-.535c.254-.227.454-.492.602-.794s.222-.626.222-.971v-.073c-.008-.312-.055-.65-.14-1.013s-.193-.73-.322-1.101l-.429-1.101-.465-1.013-.508-.995-.517-.907-.465-.727c-.142-.207-.262-.357-.359-.45-.146-.15-.324-.242-.532-.277S9.128.796 9.026.796s-.257.017-.465.052-.386.127-.532.277c-.073.073-.147.213-.222.42s-.135.592-.179 1.156l-.012.152-.012.158c-.089-.037-.185-.064-.286-.082S7.11 2.901 7 2.901s-.215.009-.316.027-.197.046-.286.082l-.012-.158-.012-.152c-.045-.564-.104-.949-.179-1.156s-.149-.347-.222-.42c-.146-.15-.324-.242-.532-.277S5.075.796 4.974.796s-.257.017-.465.052-.386.127-.532.277c-.097.093-.217.243-.359.45l-.465.727-.517.907-.508.995-.465 1.013-.429 1.101c-.13.371-.237.738-.322 1.101s-.132.701-.14 1.013v.073c0 .345.074.668.222.971s.349.567.602.794a2.83 2.83 0 0 0 .891.535c.341.13.704.195 1.089.195a3.01 3.01 0 0 0 1.086-.195 2.87 2.87 0 0 0 .888-.532 2.56 2.56 0 0 0 .602-.788c.148-.3.224-.623.228-.967l.003-.119.009-.265c.032-.057.101-.113.207-.167s.239-.082.402-.082.296.027.402.082.174.111.207.167l.009.265.003.119c.004.341.08.662.228.964s.349.566.602.791a2.87 2.87 0 0 0 .888.532 3.01 3.01 0 0 0 1.086.195zM8.193 7.002l-.015-.858-.009-.937.003-.7.012-.633.024-.566.033-.499c.041-.515.086-.849.137-1.001l.088-.246c.097-.093.284-.14.56-.14s.462.047.56.14c.061.065.151.183.271.353l.414.636.502.87.542 1.056.265.563.237.538.207.514.173.484c-.239-.174-.51-.311-.812-.411a3.05 3.05 0 0 0-.958-.149c-.227 0-.447.023-.66.07a3.11 3.11 0 0 0-.605.198c-.191.085-.367.189-.529.31a2.79 2.79 0 0 0-.438.408zm-2.385 0a2.79 2.79 0 0 0-.438-.408c-.162-.122-.339-.225-.529-.31a3.11 3.11 0 0 0-.605-.198c-.213-.047-.433-.07-.66-.07a3.05 3.05 0 0 0-.958.149c-.302.099-.573.236-.812.411l.173-.484.207-.514.237-.538.265-.563.542-1.056.502-.87.414-.636.271-.353c.093-.093.279-.14.557-.14s.465.047.563.14c.008.012.038.094.088.246s.096.486.137 1.001l.033.496.024.566.012.636.003.7-.009.934-.015.861zm1.771.365a1.59 1.59 0 0 0-.274-.076A1.65 1.65 0 0 0 7 7.264a1.65 1.65 0 0 0-.304.027 1.59 1.59 0 0 0-.274.076l.012-.493.009-.542.006-.575.003-.599-.003-.758-.015-.678c.049-.053.123-.099.222-.14s.214-.061.344-.061c.138 0 .256.02.353.061s.168.087.213.14l-.015.678-.003.758.003.599.006.575.009.542.012.493zm-4.004 3.012c-.3 0-.583-.05-.849-.149a2.29 2.29 0 0 1-.694-.402 1.92 1.92 0 0 1-.469-.593c-.116-.227-.173-.471-.173-.73v-.024c0-.008.002-.016.006-.024a1.54 1.54 0 0 1 .183-.709c.118-.221.275-.414.472-.578a2.28 2.28 0 0 1 .688-.389c.262-.095.541-.143.837-.143a2.38 2.38 0 0 1 .846.149 2.34 2.34 0 0 1 .694.402c.199.168.355.366.469.593s.17.469.17.724a1.61 1.61 0 0 1-.17.73c-.114.227-.27.425-.469.593a2.34 2.34 0 0 1-.694.402 2.38 2.38 0 0 1-.846.149zm6.851 0a2.38 2.38 0 0 1-.846-.149 2.34 2.34 0 0 1-.694-.402c-.199-.168-.355-.366-.469-.593a1.61 1.61 0 0 1-.17-.73c0-.256.057-.497.17-.724s.27-.425.469-.593a2.34 2.34 0 0 1 .694-.402 2.38 2.38 0 0 1 .846-.149c.296 0 .575.048.837.143a2.28 2.28 0 0 1 .688.389c.197.164.354.357.472.578a1.54 1.54 0 0 1 .183.709c.004.008.006.016.006.024v.024c0 .26-.058.503-.173.73a1.92 1.92 0 0 1-.469.593 2.29 2.29 0 0 1-.694.402c-.266.099-.549.149-.849.149zm-6.851-.627a.3.3 0 0 0 .219-.091.3.3 0 0 0 .091-.219.3.3 0 0 0-.091-.219.3.3 0 0 0-.219-.091c-.268 0-.491-.067-.669-.201s-.268-.276-.268-.426a.3.3 0 0 0-.091-.219.3.3 0 0 0-.219-.091.3.3 0 0 0-.219.091.3.3 0 0 0-.091.219c0 .17.043.335.128.493a1.26 1.26 0 0 0 .365.414c.146.11.31.194.493.253s.373.088.572.088zm6.851 0a.3.3 0 0 0 .31-.31.3.3 0 0 0-.31-.31c-.268 0-.49-.067-.666-.201s-.265-.276-.265-.426a.3.3 0 0 0-.091-.219c-.061-.061-.136-.091-.225-.091a.3.3 0 0 0-.31.31c0 .17.044.335.131.493a1.32 1.32 0 0 0 .362.414 1.66 1.66 0 0 0 .496.253c.185.059.374.088.569.088zm0 1.247c.385 0 .748-.065 1.089-.195a2.83 2.83 0 0 0 .891-.535c.254-.227.454-.492.602-.794s.222-.626.222-.971v-.073c-.008-.312-.055-.65-.14-1.013s-.193-.73-.322-1.101l-.429-1.101-.465-1.013-.508-.995-.517-.907-.465-.727c-.142-.207-.262-.357-.359-.45-.146-.15-.324-.242-.532-.277S9.128.796 9.026.796s-.257.017-.465.052-.386.127-.532.277c-.073.073-.147.213-.222.42s-.135.592-.179 1.156l-.012.152-.012.158c-.089-.037-.185-.064-.286-.082S7.11 2.901 7 2.901s-.215.009-.316.027-.197.046-.286.082l-.012-.158-.012-.152c-.045-.564-.104-.949-.179-1.156s-.149-.347-.222-.42c-.146-.15-.324-.242-.532-.277S5.075.796 4.974.796s-.257.017-.465.052-.386.127-.532.277c-.097.093-.217.243-.359.45l-.465.727-.517.907-.508.995-.465 1.013-.429 1.101c-.13.371-.237.738-.322 1.101s-.132.701-.14 1.013v.073c0 .345.074.668.222.971s.349.567.602.794a2.83 2.83 0 0 0 .891.535c.341.13.704.195 1.089.195a3.01 3.01 0 0 0 1.086-.195 2.87 2.87 0 0 0 .888-.532 2.56 2.56 0 0 0 .602-.788c.148-.3.224-.623.228-.967l.003-.119.009-.265c.032-.057.101-.113.207-.167s.239-.082.402-.082.296.027.402.082.174.111.207.167l.009.265.003.119c.004.341.08.662.228.964s.349.566.602.791a2.87 2.87 0 0 0 .888.532 3.01 3.01 0 0 0 1.086.195zM8.193 7.002l-.015-.858-.009-.937.003-.7.012-.633.024-.566.033-.499c.041-.515.086-.849.137-1.001l.088-.246c.097-.093.284-.14.56-.14s.462.047.56.14c.061.065.151.183.271.353l.414.636.502.87.542 1.056.265.563.237.538.207.514.173.484c-.239-.174-.51-.311-.812-.411a3.05 3.05 0 0 0-.958-.149c-.227 0-.447.023-.66.07a3.11 3.11 0 0 0-.605.198c-.191.085-.367.189-.529.31a2.79 2.79 0 0 0-.438.408zm-2.385 0a2.79 2.79 0 0 0-.438-.408c-.162-.122-.339-.225-.529-.31a3.11 3.11 0 0 0-.605-.198c-.213-.047-.433-.07-.66-.07a3.05 3.05 0 0 0-.958.149c-.302.099-.573.236-.812.411l.173-.484.207-.514.237-.538.265-.563.542-1.056.502-.87.414-.636.271-.353c.093-.093.279-.14.557-.14s.465.047.563.14c.008.012.038.094.088.246s.096.486.137 1.001l.033.496.024.566.012.636.003.7-.009.934-.015.861zm1.771.365a1.59 1.59 0 0 0-.274-.076A1.65 1.65 0 0 0 7 7.264a1.65 1.65 0 0 0-.304.027 1.59 1.59 0 0 0-.274.076l.012-.493.009-.542.006-.575.003-.599-.003-.758-.015-.678c.049-.053.123-.099.222-.14s.214-.061.344-.061c.138 0 .256.02.353.061s.168.087.213.14l-.015.678-.003.758.003.599.006.575.009.542.012.493zm-4.004 3.012c-.3 0-.583-.05-.849-.149a2.29 2.29 0 0 1-.694-.402 1.92 1.92 0 0 1-.469-.593c-.116-.227-.173-.471-.173-.73v-.024c0-.008.002-.016.006-.024a1.54 1.54 0 0 1 .183-.709c.118-.221.275-.414.472-.578a2.28 2.28 0 0 1 .688-.389c.262-.095.541-.143.837-.143a2.38 2.38 0 0 1 .846.149 2.34 2.34 0 0 1 .694.402c.199.168.355.366.469.593s.17.469.17.724a1.61 1.61 0 0 1-.17.73c-.114.227-.27.425-.469.593a2.34 2.34 0 0 1-.694.402 2.38 2.38 0 0 1-.846.149zm6.851 0a2.38 2.38 0 0 1-.846-.149 2.34 2.34 0 0 1-.694-.402c-.199-.168-.355-.366-.469-.593a1.61 1.61 0 0 1-.17-.73c0-.256.057-.497.17-.724s.27-.425.469-.593a2.34 2.34 0 0 1 .694-.402 2.38 2.38 0 0 1 .846-.149c.296 0 .575.048.837.143a2.28 2.28 0 0 1 .688.389c.197.164.354.357.472.578a1.54 1.54 0 0 1 .183.709c.004.008.006.016.006.024v.024c0 .26-.058.503-.173.73a1.92 1.92 0 0 1-.469.593 2.29 2.29 0 0 1-.694.402c-.266.099-.549.149-.849.149zm-6.851-.627a.3.3 0 0 0 .219-.091.3.3 0 0 0 .091-.219.3.3 0 0 0-.091-.219.3.3 0 0 0-.219-.091c-.268 0-.491-.067-.669-.201s-.268-.276-.268-.426a.3.3 0 0 0-.091-.219.3.3 0 0 0-.219-.091.3.3 0 0 0-.219.091.3.3 0 0 0-.091.219c0 .17.043.335.128.493a1.26 1.26 0 0 0 .365.414c.146.11.31.194.493.253s.373.088.572.088zm6.851 0a.3.3 0 0 0 .31-.31.3.3 0 0 0-.31-.31c-.268 0-.49-.067-.666-.201s-.265-.276-.265-.426a.3.3 0 0 0-.091-.219c-.061-.061-.136-.091-.225-.091a.3.3 0 0 0-.31.31c0 .17.044.335.131.493a1.32 1.32 0 0 0 .362.414 1.66 1.66 0 0 0 .496.253c.185.059.374.088.569.088z" fill="#0074fc" stroke="#0074fc" stroke-width=".2"/></svg>