<svg xmlns="http://www.w3.org/2000/svg" width="14" height="14"  xmlns:v="https://vecta.io/nano"><path d="M8.25 13a1.46 1.46 0 0 0 .875-.281c.24-.177.438-.417.594-.719h.031c.385 0 .742-.091 1.07-.273s.596-.432.805-.75a2.2 2.2 0 0 0 .359-1.039H12l-.016-.094L12 9.75c0-.094-.026-.219-.078-.375l-.031-.141c.344-.292.609-.62.797-.984.208-.396.313-.812.313-1.25 0-.583-.177-1.135-.531-1.656A2.32 2.32 0 0 0 12.5 5c0-.604-.198-1.13-.594-1.578a2.5 2.5 0 0 0-1.484-.828c-.094-.458-.32-.839-.68-1.141S8.969 1 8.5 1a1.89 1.89 0 0 0-.828.188c-.26.125-.484.297-.672.516-.187-.219-.411-.391-.672-.516A1.89 1.89 0 0 0 5.5 1c-.469 0-.883.151-1.242.453s-.586.682-.68 1.141a2.5 2.5 0 0 0-1.484.828C1.698 3.87 1.5 4.396 1.5 5a2.32 2.32 0 0 0 .031.344C1.177 5.865 1 6.417 1 7c0 .427.099.839.297 1.234.188.354.448.677.781.969-.052.208-.078.391-.078.547a2.17 2.17 0 0 0 .305 1.125c.203.344.477.617.82.82A2.17 2.17 0 0 0 4.25 12h.031c.156.302.354.542.594.719A1.46 1.46 0 0 0 5.75 13a1.67 1.67 0 0 0 .68-.141c.214-.094.404-.224.57-.391.167.167.357.297.57.391a1.67 1.67 0 0 0 .68.141zm-2.5-1c-.187 0-.349-.057-.484-.172a.72.72 0 0 1-.25-.437l-.094-.484-.484.078A1.14 1.14 0 0 1 4.25 11c-.344 0-.638-.122-.883-.367S3 10.094 3 9.75a1.21 1.21 0 0 1 .078-.437l.016-.031c.073-.198.19-.362.352-.492s.346-.216.555-.258l-.203-.984c-.531.104-.964.365-1.297.781C2.167 7.953 2 7.51 2 7c0-.458.146-.87.438-1.234l.156-.187-.047-.25C2.516 5.193 2.5 5.083 2.5 5c0-.417.146-.771.438-1.062S3.583 3.5 4 3.5h.5V3c0-.281.096-.518.289-.711S5.219 2 5.5 2s.518.096.711.289.289.43.289.711v1c0 .417-.146.771-.437 1.063S5.417 5.5 5 5.5v1c.552 0 1.052-.172 1.5-.516v5.266c0 .208-.073.385-.219.531S5.958 12 5.75 12zm2.5 0c-.208 0-.385-.073-.531-.219s-.219-.323-.219-.531V5.984c.448.344.948.516 1.5.516v-1c-.417 0-.771-.146-1.062-.437S7.5 4.417 7.5 4V3c0-.281.096-.518.289-.711S8.219 2 8.5 2s.518.096.711.289.289.43.289.711v.5h.5c.417 0 .771.146 1.063.438S11.5 4.583 11.5 5c0 .083-.016.193-.047.328l-.047.25.156.188C11.854 6.13 12 6.542 12 7a1.96 1.96 0 0 1-.18.828 2.04 2.04 0 0 1-.492.672c-.375-.333-.797-.5-1.266-.5s-.88.151-1.234.453l.641.766A.93.93 0 0 1 10.078 9c.229 0 .43.078.602.234a.94.94 0 0 1 .305.594 1.22 1.22 0 0 1-.383.836c-.234.224-.518.336-.852.336a1.14 1.14 0 0 1-.187-.016l-.484-.078-.094.484a.72.72 0 0 1-.25.438c-.135.115-.297.172-.484.172z" fill="#0074fc" stroke="#0074fc" stroke-width=".2"/></svg>