<svg xmlns="http://www.w3.org/2000/svg" xmlns:xlink="http://www.w3.org/1999/xlink" viewBox="0 0 25 22"><use xlink:href="#A" fill="#6f6cac"/><use xlink:href="#A" fill="none" stroke="#6f6cac" stroke-width=".5"/><defs><path id="A" d="M22.7 4.2c.5 0 .9.2 1.3.5s.5.8.5 1.3v13.2c0 .5-.2.9-.5 1.3s-.8.5-1.3.5H2.3c-.5 0-.9-.2-1.3-.5s-.5-.8-.5-1.3V6c0-.5.2-.9.5-1.3s.8-.5 1.3-.5h5.4V2.4c0-.5.2-.9.5-1.3S9 .6 9.5.6h6c.5 0 .9.2 1.3.5s.5.8.5 1.3v1.8h5.4zM2.3 5.4c-.2 0-.3.1-.4.2s-.2.3-.2.4v9h2.4v-.6c0-.2.1-.3.2-.4s.3-.2.4-.2h2.4c.2 0 .3.1.4.2s.2.3.2.4v.6h9.6v-.6c0-.2.1-.3.2-.4s.3-.2.4-.2h2.4c.2 0 .3.1.4.2s.2.3.2.4v.6h2.4V6c0-.2-.1-.3-.2-.4s-.3-.2-.4-.2H2.3zm20.4 14.4c.2 0 .3-.1.4-.2s.2-.3.2-.4v-3h-2.4v.6c0 .2-.1.3-.2.4s-.3.2-.4.2h-2.4c-.2 0-.3-.1-.4-.2s-.2-.3-.2-.4v-.6H7.7v.6c0 .2-.1.3-.2.4s-.3.2-.4.2H4.7c-.2 0-.3-.1-.4-.2s-.2-.3-.2-.4v-.6H1.7v3c0 .2.1.3.2.4s.3.2.4.2h20.4zM6.5 15H5.3v1.2h1.2V15zM8.9 2.4v1.8h7.2V2.4c0-.2-.1-.3-.2-.4s-.3-.2-.4-.2h-6c-.2 0-.3.1-.4.2s-.2.2-.2.4zM19.7 15h-1.2v1.2h1.2V15z"/></defs></svg>