<svg xmlns="http://www.w3.org/2000/svg" xmlns:xlink="http://www.w3.org/1999/xlink" viewBox="0 0 25 22"><use xlink:href="#A" fill="#a0afb8"/><use xlink:href="#A" fill="none" stroke="#a0afb8" stroke-width=".5"/><defs><path id="A" d="M.7 20.9c-.1-.1-.2-.2-.2-.3v-.4c0-.2.1-.2.3-.3.5-.3.9-.6 1.3-1s.7-.7.9-1.1.5-.7.6-1 .3-.6.3-.8c-.5-.4-1-.9-1.5-1.4s-.8-1-1.1-1.6l-.7-1.7c-.2-.6-.2-1.2-.2-1.8a11 11 0 0 1 .2-1.8c.1-.6.4-1.2.7-1.7.1-.3.3-.5.5-.8s.4-.5.6-.7.4-.5.7-.7.5-.4.8-.6c.5-.4 1.1-.8 1.7-1.1s1.3-.6 1.9-.8S8.9.9 9.6.8l2.2-.2 2 .1 1.9.4c.6.2 1.2.4 1.8.7l1.7.9c.6.3 1 .7 1.4 1.2s.8.9 1.1 1.3.6 1 .8 1.5.4 1 .5 1.6c0 .2 0 .3-.1.4s0 .3-.2.3-.3 0-.4-.1-.3-.2-.3-.4c-.1-.5-.2-.9-.4-1.3s-.4-.9-.7-1.3-.6-.8-1-1.1-.8-.7-1.2-1c-.5-.3-1-.6-1.5-.8s-1.1-.5-1.7-.6-1.2-.3-1.8-.4-1.2-.1-1.8-.1c-1.4 0-2.7.2-4 .6s-2.3 1-3.2 1.7S3 5.7 2.5 6.7s-.8 2-.8 3c0 .5.1 1.1.2 1.6s.4 1 .6 1.5.6 1 1 1.4.9.8 1.4 1.2c.1.1.2.2.2.3v.4c0 .1-.1.3-.2.6s-.2.5-.3.8-.3.6-.6 1l-.8 1c.4-.1.8-.3 1.2-.5l2.3-1.2c.3-.2.7-.4 1-.7.1-.1.2-.1.2-.1h.3c.6.2 1.2.3 1.7.4s1.2.1 1.8.1c.2 0 .3.1.4.2s.2.3.2.4-.1.3-.2.4-.3.2-.4.2c-.6 0-1.2 0-1.8-.1l-1.8-.3L7 19c-.5.3-1 .6-1.5.8l-1.3.6c-.4.2-.8.3-1.2.4l-1.1.3c-.4.1-.7.1-1 .1.1-.2-.1-.2-.2-.3zm22-1.3c-.4-.1-.8-.2-1.1-.4s-.7-.3-.9-.5-.5-.3-.6-.4c-.3.1-.7.1-1 .2s-.7.1-1.1.1-.9 0-1.3-.1-.8-.1-1.2-.3-.8-.3-1.1-.4-.7-.4-1-.6-.6-.5-.9-.7-.5-.5-.7-.8-.3-.6-.4-.9-.1-.6-.1-1c0-.3 0-.7.1-1l.4-.9c.2-.3.4-.6.6-.8s.5-.5.9-.7c.3-.2.6-.4 1-.6s.7-.3 1.1-.4l1.2-.3c.4-.1.8-.1 1.3-.1s.9 0 1.3.1.8.1 1.2.3.8.3 1.1.4.7.4 1 .6.6.5.9.7.5.5.6.8.3.6.4.9.1.6.1 1c0 .6-.1 1.1-.4 1.7s-.7 1-1.2 1.5c.1.1.2.4.4.7s.5.7 1 1.2c.1.1.1.1.1.2s.1.2.1.2c0 .2-.1.3-.2.4s-.3.2-.4.2l-1.2-.3zm-2.4-2.5c.1 0 .1.1.2.1 0 0 .2.1.5.4s.8.5 1.3.7l-.6-1.1c-.1-.2-.1-.5 0-.6 0-.1 0-.1.1-.2l.1-.1c.4-.3.8-.7 1-1.1s.4-.8.4-1.3-.1-.9-.4-1.3-.6-.8-1.1-1.1L21 11c-.3-.2-.6-.3-.9-.4s-.7-.2-1-.2-.7-.1-1.1-.1l-1.1.1c-.4.1-.7.1-1 .2s-.6.2-.9.4-.6.3-.8.5c-.5.3-.9.7-1.1 1.1s-.4.9-.4 1.3.1.9.4 1.3.6.8 1.1 1.1c.3.2.5.3.8.5s.6.3.9.4.7.2 1 .2.7.1 1.1.1.7 0 1-.1.7-.1 1-.2h.2c0-.1.1-.1.1-.1z"/></defs></svg>