<svg xmlns="http://www.w3.org/2000/svg" xmlns:xlink="http://www.w3.org/1999/xlink" width="320" height="578" xmlns:v="https://vecta.io/nano"><g fill-rule="evenodd"><path fill="#0070f0" d="M0 0h320v578H0z"/><g fill="#fff"><path d="M186.776 150.528c6.398 0 11.202 4.871 11.202 10.973 0 6.074-4.775 10.916-11.171 10.916-6.455 0-11.202-4.814-11.202-10.916 0-6.131 4.805-10.973 11.171-10.973zm-69.709 0c3.952 0 7.293 1.722 9.208 4.189l-3.456 3.586c-1.395-1.492-3.224-2.639-5.402-2.639-3.255 0-5.811 2.467-5.811 5.881 0 3.328 2.529 5.766 5.781 5.766 2.15 0 4.126-1.09 5.52-2.724l3.602 3.413c-1.859 2.438-5.317 4.418-9.47 4.418-6.188 0-11.039-4.359-11.039-10.843 0-6.542 4.995-11.046 11.067-11.046zM142.86 150l9.602 21.16c.208.458.132.744-.367.729-1.194-.039-2.389-.043-3.585-.052-.367-2.788-1.521-5.376-3.46-7.764a14.94 14.94 0 0 0-1.901-1.955l-2.566-5.436-1.31 3.11c-2.073-.813-3.969-.974-5.195-.987l3.844-8.786 4.94-.019zm-8.952 18.844a4.96 4.96 0 0 0 1.702-.302l-1.373 3.319-5.864-.014 1.963-4.489c.911.918 2.175 1.486 3.572 1.486zM216 151.153v4.832h-10.471v3.044h9.682v4.804h-9.682v3.127h10.439v4.831h-14.562c-.864 0-1.564-.7-1.564-1.564v-19.075H216zm-57.741-.625l9.661 11.539v-7.786c0-2.072 1.669-3.752 3.729-3.752h1.469v21.264h-3.982l-9.493-11.395v8.268c0 1.727-1.391 3.127-3.107 3.127h-2.062v-21.264h3.785zm28.516 5.3c-3.066 0-5.586 2.378-5.586 5.644 0 3.296 2.489 5.644 5.586 5.644 3.184 0 5.616-2.407 5.616-5.644-.028-3.353-2.576-5.644-5.616-5.644z" fill-rule="nonzero"/><path d="M134.071 168.02c.594 0 1.152-.13 1.662-.356.244-.108 3.844-1.367 7.158.409 2.21 1.184 3.815 2.458 4.816 3.822-.855-2.956-2.379-5.663-4.575-8.122-2.952-3.307-7.202-3.869-9.061-3.869-2.259 0-4.09 1.817-4.09 4.057s1.831 4.057 4.09 4.057z"/></g><path d="M158.48 505.066c4.577 0 .858 11.372 11.442 8.529s11.728-11.656 16.591-11.656 19.166 4.264 24.601-1.421 4.291-19.9 8.582-19.9 11.728 5.686 14.589-.853-2.861-8.244 0-13.646 8.009-10.803 4.577-16.204-7.151-1.99-9.154-5.686-2.002-15.636-8.296-15.636-10.298 9.097-16.305 7.392-8.868-10.519-13.731-9.666-5.721 4.549-9.154 3.411-8.868-13.077-18.307-8.813-9.154 13.646-7.151 28.145-31.466 0-36.901 17.057 16.591 17.91 16.591 23.312-15.419 15.996-7.437 23.027c12.586 11.087 24.887-7.392 29.463-7.392z" fill="#0057bd"/><path d="M226.569 495.618c-13.231-1.499-26.431-2.49-39.553.786-2.531.632-4.987 1.574-7.628 1.758-4.256.296-6.722-1.97-6.352-6.088.368-4.099 1.575-8.041 3.604-11.632 3.31-5.858 9.865-7.405 15.659-3.785 2.271 1.419 4.326 3.161 6.509 4.715 5.342 3.802 8.725 3.752 13.962-.165l1.245-.933c5.917-4.547 9.981-4.377 15.438.646 1.458 1.342 2.853 2.759 4.39 4.01 3.862 3.145 8.315 3.001 12.074-.306 1.569-1.38 2.725-3.087 3.945-4.743.813-1.104 1.603-2.229 2.485-3.28 5.663-6.752 14.279-5.986 18.376 1.737 2.318 4.369 2.852 9.089 1.663 13.883-1.089 4.393-3.722 6.46-8.337 6.726-1.913.11-3.839.018-5.759.018-10.683-.076-21.152-2.149-31.722-3.346z" fill="#dfeefe"/><path d="M89.305 390.17c11.655 1.814 7.059 14.35 11.655 16.494s7.715-6.928 13.297-2.474c7.3 5.825-6.238 23.092-.657 26.721s18.057-15.34 25.116-7.422-1.313 14.02-2.134 20.123S142 455.322 142 458.951s-5.417 6.763-5.417 15.34 7.223 20.288 0 29.195-15.103 4.783-22.326 6.268-5.91 15.505-15.431 11.546 2.134-13.36-5.581-20.453-15.595 8.082-23.146-2.639 3.611-14.845 1.149-20.948-14.774 2.804-21.341-11.051 4.761-14.515 2.462-24.081-12.804-5.938-9.85-16.494 11.984.825 24.46-11.711 10.67-25.566 22.326-23.752z" fill="#3f96fc"/><path d="M194.931 465.858c-5.24-9.072-10.964-6.714-17.461-3.255-12.969 6.906-26.809 6.315-40.584 3.054-6.811-1.613-11.97-6.246-16.691-11.359-1.784-1.933-1.467-3.178.269-4.841 12.458-11.933 27.061-12.325 42.328-7.755s12.884 6.501 18.542 11.075c4.913 3.972 5.117 4.054 10.353.234l6.313-4.706-3.069 17.553z" fill="#fff"/><path d="M186.872 511.421c-2.233 7.783-9.89 12.23-40.838 10.006s-49.133-19.695-44.029-24.301 19.143 7.624 19.143 2.382-20.1-16.36-25.843-27.478S88.446 449 98.974 449s14.995 17.472 19.781 27.478 7.976 14.136 11.645 12.23-6.062-15.248 1.436-15.248 6.062 17.63 17.867 26.049 39.402 4.13 37.169 11.912z" fill="#231f20"/><g fill="#dfeefe"><path d="M309.913 318.003c-.147.846 3.751 2.987 4.001 4.267.083.341-6.168-3.584-8.084-3.584-1.5 0-13.835 6.315-23.087 6.315-3.053 0-8.251-1.195-10.752-2.731-.975-.599-7.501-4.267-5.667-6.144.26-.266 38.172.341 40.672.341 1.417-.597 7.168-3.925 7.001-3.413-.333.853-3.91 3.946-4.084 4.949zm-29.277-13.59c-.164.639 2.601 2.546 2.705 3.545.04.268-4.363-3.169-5.791-3.299-1.117-.102-10.71 3.903-17.6 3.274-2.274-.208-6.068-1.478-7.832-2.826-.688-.526-5.312-3.783-3.826-5.099.211-.187 28.407 2.858 30.27 3.028 1.094-.362 5.591-2.524 5.434-2.142-.303.632-3.166 2.761-3.36 3.519z"/><use xlink:href="#B"/><use xlink:href="#C"/><use xlink:href="#B" x="-129" y="3"/><use xlink:href="#D"/><use xlink:href="#D" x="26" y="-13"/><use xlink:href="#E"/><use xlink:href="#E" x="71" y="-24"/><use xlink:href="#E" x="-54" y="5"/><use xlink:href="#C" x="-187" y="3"/><use xlink:href="#D" x="-121" y="16"/><use xlink:href="#E" x="-83" y="-15"/><path d="M82.013 348.11c-.153.615 2.656 2.396 2.777 3.351.045.256-4.435-2.963-5.871-3.064-1.124-.079-10.685 3.921-17.613 3.434-2.287-.161-6.118-1.313-7.912-2.576-.7-.492-5.399-3.535-3.93-4.821.208-.182 28.57 2.259 30.443 2.391 1.092-.365 5.569-2.513 5.418-2.144-.293.611-3.13 2.699-3.312 3.429z"/></g></g><defs ><path id="B" d="M323.385 329.316c-.127.479 2.024 1.909 2.105 2.658.031.201-3.394-2.376-4.505-2.475-.869-.077-8.329 2.923-13.688 2.45-1.769-.156-4.72-1.109-6.092-2.12-.535-.394-4.133-2.837-2.977-3.823.164-.14 22.095 2.15 23.544 2.278.851-.271 4.348-1.89 4.226-1.604-.236.474-2.462 2.069-2.612 2.637z"/><path id="C" d="M219.934 320.752c-.11.634 2.813 2.24 3 3.2.063.256-4.626-2.688-6.063-2.688-1.125 0-10.376 4.736-17.315 4.736-2.29 0-6.188-.896-8.064-2.048-.731-.449-5.626-3.2-4.251-4.608.195-.2 28.629.256 30.504.256 1.063-.448 5.376-2.944 5.251-2.56-.25.64-2.932 2.959-3.063 3.712z"/><path id="D" d="M186.358 311.021c-.017.469 2.395 1.327 2.641 2 .075.178-3.833-1.463-4.936-1.314-.863.116-7.458 4.489-12.78 5.205-1.757.236-4.842-.008-6.403-.646-.609-.249-4.655-1.729-3.749-2.887.128-.164 21.988-2.769 23.426-2.963.768-.433 3.812-2.68 3.756-2.39-.124.488-1.936 2.439-1.956 2.995z"/><path id="E" d="M158.846 330.815c-.077.624 2.917 2.038 3.153 2.965.075.246-4.745-2.381-6.177-2.307-1.121.058-10.091 5.155-17.001 5.514-2.281.119-6.21-.553-8.137-1.579-.752-.4-5.768-2.829-4.471-4.273.184-.205 28.527-1.232 30.394-1.33 1.035-.492 5.202-3.149 5.098-2.768-.216.637-2.768 3.037-2.859 3.778z"/></defs></svg>