<svg xmlns="http://www.w3.org/2000/svg" width="22" height="25"><path d="M19.3 5c.5 0 .9.2 1.3.5s.5.8.5 1.3v15.6c0 .5-.2.9-.5 1.3s-.8.5-1.3.5h-12c-.5 0-.9-.2-1.3-.5s-.5-.8-.5-1.3v-.6h-.6c-.5 0-.9-.2-1.3-.5s-.5-.8-.5-1.3v-.6h-.6c-.5 0-.9-.2-1.3-.5s-.5-.8-.5-1.3V4.8s.1-.1.1-.2L5 .4c.1-.1.1-.1.2-.1h9.2c.5 0 .9.2 1.3.5s.5.8.5 1.3v.6h.6c.5 0 .9.2 1.3.5s.5.8.5 1.3V5h.7zM1.9 17.6c0 .2.1.3.2.4s.3.2.4.2h12c.2 0 .3-.1.4-.2s.2-.3.2-.4V2c0-.2-.1-.3-.2-.4s-.3-.2-.4-.2H6.7v3c0 .5-.2.9-.5 1.3s-.8.5-1.3.5h-3v11.4zm3.6-16L2.1 5h2.8c.2 0 .3-.1.4-.2s.2-.3.2-.4V1.6zM4.3 20c0 .2.1.3.2.4s.3.2.4.2h12c.2 0 .3-.1.4-.2s.2-.3.2-.4V4.4c0-.2-.1-.3-.2-.4s-.3-.2-.4-.2h-.6v13.8c0 .5-.2.9-.5 1.3s-.8.5-1.3.5H4.3v.6zm15.6 2.4V6.8c0-.2-.1-.3-.2-.4s-.3-.2-.4-.2h-.6V20c0 .5-.2.9-.5 1.3s-.8.5-1.3.5H6.7v.6c0 .2.1.3.2.4s.3.2.4.2h12c.2 0 .3-.1.4-.2s.2-.2.2-.4z" fill="#a0afb8" stroke="#a0afb8" stroke-width=".5" fill-rule="evenodd"/></svg>