<svg xmlns="http://www.w3.org/2000/svg" xmlns:xlink="http://www.w3.org/1999/xlink" viewBox="0 0 24 24"><use xlink:href="#A" fill="#04788e"/><use xlink:href="#A" fill="none" stroke="#04788e" stroke-width=".5"/><defs><path id="A" d="M9.7 23c-.7-.1-1.4-.4-2.1-.6s-1.3-.6-2-1-1.2-.9-1.7-1.4-1-1.1-1.4-1.7-.8-1.3-1-2-.5-1.4-.6-2.1L.7 12a15 15 0 0 1 .2-2.2c.1-.7.4-1.4.6-2.1s.6-1.3 1-2S3.4 4.5 3.9 4 5 3 5.6 2.6s1.3-.8 2-1L9.7 1l2.2-.2a15 15 0 0 1 2.2.2c.7.1 1.4.4 2.1.6s1.3.6 2 1 1.2.9 1.7 1.4 1 1.1 1.4 1.7.8 1.3 1 2 .5 1.4.6 2.1.2 1.5.2 2.2c0 .8-.1 1.5-.2 2.2s-.4 1.4-.6 2.1-.6 1.3-1 2-.9 1.2-1.4 1.7-1.1 1-1.7 1.4-1.3.8-2 1-1.4.5-2.1.6-1.5.2-2.2.2c-.8 0-1.5-.1-2.2-.2zM7.9 2.4c-1.2.5-2.3 1.3-3.2 2.2S3 6.6 2.5 7.8s-.8 2.6-.8 4a11 11 0 0 0 .8 4c.5 1.3 1.3 2.3 2.2 3.2s2 1.7 3.2 2.2 2.6.8 4 .8a11 11 0 0 0 4-.8c1.3-.5 2.3-1.3 3.2-2.2s1.7-2 2.2-3.2.8-2.6.8-4a11 11 0 0 0-.8-4c-.5-1.3-1.3-2.3-2.2-3.2s-2-1.7-3.2-2.2-2.6-.8-4-.8a11 11 0 0 0-4 .8zm1.4 14.2c-.1 0-.1-.1-.2-.1l-3.6-3.6c-.1-.1-.2-.3-.2-.4s.1-.3.2-.4.3-.2.4-.2.3.1.4.2l3.2 3.2 8-8c.1-.1.3-.2.4-.2s.3.1.4.2.2.3.2.4-.1.3-.2.4l-8.4 8.4c-.1.1-.1.1-.2.1h-.4z"/></defs></svg>