<svg xmlns="http://www.w3.org/2000/svg" width="12" height="13"  xmlns:v="https://vecta.io/nano"><path d="M8.178 3.274l.064-.006a.3.3 0 0 0 .161-.086.3.3 0 0 0 .091-.219h0v-.018a1.61 1.61 0 0 0-.21-.809c-.136-.231-.332-.412-.587-.542a1.98 1.98 0 0 0-.253-.1c-.083-.026-.157-.046-.222-.058a1.64 1.64 0 0 0-.192-.502C6.94.779 6.827.643 6.691.527a1.56 1.56 0 0 0-.459-.271A1.51 1.51 0 0 0 5.69.159c-.191 0-.372.032-.545.097a1.51 1.51 0 0 0-.459.271c-.134.116-.247.252-.341.408a1.49 1.49 0 0 0-.189.502c-.069.012-.144.031-.225.058a2.07 2.07 0 0 0-.249.1c-.26.13-.457.312-.593.548s-.204.509-.204.821a.3.3 0 0 0 .091.219.3.3 0 0 0 .219.091h4.983zm-.347-.621H3.548c.028-.11.075-.206.14-.289s.15-.151.256-.204c.122-.061.235-.097.341-.11l.158-.018a.3.3 0 0 0 .219-.091c.061-.061.091-.136.091-.225 0-.256.091-.475.274-.657S5.43.786 5.69.786s.475.091.657.274.274.402.274.657c0 .089.03.164.091.225a.3.3 0 0 0 .219.091c.004 0 .059.006.164.018s.219.049.341.11c.101.053.186.121.253.204a.76.76 0 0 1 .143.289h0zM5.69 2.033c.041 0 .08-.008.119-.024a.31.31 0 0 0 .1-.067.41.41 0 0 0 .067-.103c.016-.037.024-.077.024-.122s-.008-.08-.024-.119a.31.31 0 0 0-.167-.167c-.039-.016-.078-.024-.119-.024s-.08.008-.119.024a.31.31 0 0 0-.1.067c-.032.028-.056.062-.07.1a.34.34 0 0 0-.021.119c0 .045.007.085.021.122s.038.071.07.103a.31.31 0 0 0 .1.067c.039.016.078.024.119.024zm4.363 10.587c.256 0 .475-.091.657-.274s.274-.402.274-.657h0V2.964c0-.256-.091-.475-.274-.657s-.402-.274-.657-.274h0-.627a.3.3 0 0 0-.219.091.3.3 0 0 0-.091.219.3.3 0 0 0 .091.219.3.3 0 0 0 .219.091h.627a.3.3 0 0 1 .219.091.3.3 0 0 1 .091.219h0v8.726a.3.3 0 0 1-.31.31h0-8.726a.3.3 0 0 1-.219-.091.3.3 0 0 1-.091-.219h0V2.964a.3.3 0 0 1 .091-.219.3.3 0 0 1 .219-.091h.621c.089 0 .164-.03.225-.091a.3.3 0 0 0 .091-.219.3.3 0 0 0-.091-.219c-.061-.061-.136-.091-.225-.091h0-.621c-.26 0-.481.091-.663.274s-.274.402-.274.657h0v8.726c0 .256.091.475.274.657s.404.274.663.274h8.726zm-7.134-1.868c.01 0 .019-.002.027-.006h0l1.558-.31a.24.24 0 0 0 .085-.03c.028-.016.053-.034.073-.055h0l4.052-4.052a.3.3 0 0 0 .091-.219.3.3 0 0 0-.091-.219h0L7.466 4.613a.3.3 0 0 0-.219-.091.3.3 0 0 0-.219.091h0L2.976 8.666c-.02.02-.039.045-.055.073a.24.24 0 0 0-.03.085h0l-.31 1.558c-.012.053-.01.103.006.152s.043.091.079.128a.31.31 0 0 0 .1.067c.039.016.078.024.119.024h.033zm.362-.706l.201-1.01 3.766-3.76.803.803-3.76 3.766-1.01.201zm4.898-6.772l.064-.006a.3.3 0 0 0 .161-.086.3.3 0 0 0 .091-.219h0v-.018a1.61 1.61 0 0 0-.21-.809c-.136-.231-.332-.412-.587-.542a1.98 1.98 0 0 0-.253-.1c-.083-.026-.157-.046-.222-.058a1.64 1.64 0 0 0-.192-.502C6.94.779 6.827.643 6.691.527a1.56 1.56 0 0 0-.459-.271A1.51 1.51 0 0 0 5.69.159c-.191 0-.372.032-.545.097a1.51 1.51 0 0 0-.459.271c-.134.116-.247.252-.341.408a1.49 1.49 0 0 0-.189.502c-.069.012-.144.031-.225.058a2.07 2.07 0 0 0-.249.1c-.26.13-.457.312-.593.548s-.204.509-.204.821a.3.3 0 0 0 .091.219.3.3 0 0 0 .219.091h4.983zm-.347-.621H3.548c.028-.11.075-.206.14-.289s.15-.151.256-.204c.122-.061.235-.097.341-.11l.158-.018a.3.3 0 0 0 .219-.091c.061-.061.091-.136.091-.225 0-.256.091-.475.274-.657S5.43.786 5.69.786s.475.091.657.274.274.402.274.657c0 .089.03.164.091.225a.3.3 0 0 0 .219.091c.004 0 .059.006.164.018s.219.049.341.11c.101.053.186.121.253.204a.76.76 0 0 1 .143.289h0zM5.69 2.033c.041 0 .08-.008.119-.024a.31.31 0 0 0 .1-.067.41.41 0 0 0 .067-.103c.016-.037.024-.077.024-.122s-.008-.08-.024-.119a.31.31 0 0 0-.167-.167c-.039-.016-.078-.024-.119-.024s-.08.008-.119.024a.31.31 0 0 0-.1.067c-.032.028-.056.062-.07.1a.34.34 0 0 0-.021.119c0 .045.007.085.021.122s.038.071.07.103a.31.31 0 0 0 .1.067c.039.016.078.024.119.024zm4.363 10.587c.256 0 .475-.091.657-.274s.274-.402.274-.657h0V2.964c0-.256-.091-.475-.274-.657s-.402-.274-.657-.274h0-.627a.3.3 0 0 0-.219.091.3.3 0 0 0-.091.219.3.3 0 0 0 .091.219.3.3 0 0 0 .219.091h.627a.3.3 0 0 1 .219.091.3.3 0 0 1 .091.219h0v8.726a.3.3 0 0 1-.31.31h0-8.726a.3.3 0 0 1-.219-.091.3.3 0 0 1-.091-.219h0V2.964a.3.3 0 0 1 .091-.219.3.3 0 0 1 .219-.091h.621c.089 0 .164-.03.225-.091a.3.3 0 0 0 .091-.219.3.3 0 0 0-.091-.219c-.061-.061-.136-.091-.225-.091h0-.621c-.26 0-.481.091-.663.274s-.274.402-.274.657h0v8.726c0 .256.091.475.274.657s.404.274.663.274h8.726zm-7.134-1.868c.01 0 .019-.002.027-.006h0l1.558-.31a.24.24 0 0 0 .085-.03c.028-.016.053-.034.073-.055h0l4.052-4.052a.3.3 0 0 0 .091-.219.3.3 0 0 0-.091-.219h0L7.466 4.613a.3.3 0 0 0-.219-.091.3.3 0 0 0-.219.091h0L2.976 8.666c-.02.02-.039.045-.055.073a.24.24 0 0 0-.03.085h0l-.31 1.558c-.012.053-.01.103.006.152s.043.091.079.128a.31.31 0 0 0 .1.067c.039.016.078.024.119.024h.033zm.362-.706l.201-1.01 3.766-3.76.803.803-3.76 3.766-1.01.201z" fill="#0074fc" stroke="#0074fc" stroke-width=".2"/></svg>