<svg xmlns="http://www.w3.org/2000/svg" width="21" height="25" xmlns:v="https://vecta.io/nano"><path d="M15.195 6.195l.1-.007a.58.58 0 0 0 .334-.169c.117-.117.176-.258.176-.422h0v-.035c-.008-.594-.143-1.113-.404-1.56s-.64-.793-1.13-1.043c-.164-.078-.326-.143-.486-.193s-.303-.088-.428-.11c-.07-.344-.193-.666-.37-.967a3.03 3.03 0 0 0-.656-.785c-.262-.223-.557-.396-.885-.52S10.77.195 10.402.195a2.95 2.95 0 0 0-1.049.188 2.91 2.91 0 0 0-.885.521 3.19 3.19 0 0 0-.656.785 2.87 2.87 0 0 0-.363.967 3.23 3.23 0 0 0-.434.111c-.156.05-.316.115-.48.193a2.65 2.65 0 0 0-1.143 1.055C5.13 4.47 5 4.996 5 5.598c0 .164.06.305.176.422s.258.176.422.176h9.598zM14.527 5h-8.25a1.51 1.51 0 0 1 .27-.557c.125-.16.29-.29.492-.393.234-.117.453-.187.656-.21L8 3.805c.164 0 .305-.06.422-.176a.59.59 0 0 0 .176-.434c0-.492.176-.914.527-1.266a1.74 1.74 0 0 1 1.277-.527c.492 0 .914.176 1.266.527s.527.773.527 1.266a.59.59 0 0 0 .176.434c.117.117.258.176.422.176.008 0 .113.012.316.035s.422.094.656.21c.195.102.357.232.486.393a1.46 1.46 0 0 1 .275.557h0zm-4.125-1.195c.078 0 .154-.016.23-.047a.6.6 0 0 0 .193-.129.79.79 0 0 0 .129-.199.57.57 0 0 0 .047-.234c0-.078-.016-.154-.047-.23a.6.6 0 0 0-.322-.322c-.074-.03-.15-.047-.23-.047s-.154.016-.23.047a.6.6 0 0 0-.193.129.47.47 0 0 0-.135.193c-.027.074-.04.15-.04.23a.64.64 0 0 0 .041.234.58.58 0 0 0 .135.199.6.6 0 0 0 .193.129c.074.03.15.047.23.047zm8.402 20.39c.492 0 .914-.176 1.266-.527s.527-.773.527-1.266h0V5.598c0-.492-.176-.914-.527-1.266s-.773-.527-1.266-.527h0-1.207c-.164 0-.305.06-.422.176S17 4.238 17 4.402s.06.305.176.422.258.176.422.176h1.207c.164 0 .305.06.422.176s.176.258.176.422h0v16.805c0 .164-.06.305-.176.422s-.258.176-.422.176h0H2c-.164 0-.305-.06-.422-.176s-.176-.258-.176-.422h0V5.598c0-.164.06-.305.176-.422S1.836 5 2 5h1.195a.59.59 0 0 0 .434-.176c.117-.117.176-.258.176-.422s-.06-.305-.176-.422a.59.59 0 0 0-.434-.176h0H2a1.74 1.74 0 0 0-1.277.527c-.352.352-.527.773-.527 1.266h0v16.805c0 .492.176.914.527 1.266A1.74 1.74 0 0 0 2 24.195h16.805zM8.598 17c.078 0 .154-.014.23-.04a.47.47 0 0 0 .193-.135h0l5.402-5.402c.117-.117.176-.258.176-.422s-.06-.305-.176-.422-.258-.176-.422-.176-.305.06-.422.176h0l-4.98 4.97-1.37-1.37A.58.58 0 0 0 6.799 14a.58.58 0 0 0-.428.176c-.117.117-.176.258-.176.422s.06.305.176.422h0l1.805 1.805a.47.47 0 0 0 .193.135c.074.027.15.04.23.04z" fill="#04788e" fill-rule="nonzero"/></svg>