<svg xmlns="http://www.w3.org/2000/svg" width="19" height="22" xmlns:v="https://vecta.io/nano"><path d="M13.5 6l.103-.01a.48.48 0 0 0 .258-.137.48.48 0 0 0 .146-.352h0v-.03c-.007-.495-.12-.928-.337-1.3s-.532-.66-.942-.87c-.137-.065-.272-.12-.405-.16a3.07 3.07 0 0 0-.356-.093 2.63 2.63 0 0 0-.308-.806c-.146-.25-.33-.47-.547-.654s-.464-.33-.737-.435A2.42 2.42 0 0 0 9.505 1a2.46 2.46 0 0 0-.874.156c-.277.104-.522.25-.737.435a2.66 2.66 0 0 0-.547.654c-.15.25-.25.52-.303.806a2.69 2.69 0 0 0-.361.093 3.32 3.32 0 0 0-.4.161c-.417.208-.734.5-.952.88S5.003 5 5.003 5.502a.48.48 0 0 0 .146.352.48.48 0 0 0 .352.146H13.5zm-.557-.996H6.068c.046-.176.12-.33.225-.464a1.18 1.18 0 0 1 .41-.327c.195-.098.378-.156.547-.176l.254-.03a.48.48 0 0 0 .352-.146.49.49 0 0 0 .146-.361c0-.4.146-.762.44-1.055a1.45 1.45 0 0 1 1.064-.439c.4 0 .762.146 1.055.44S11 3.1 11 3.5a.49.49 0 0 0 .146.361.48.48 0 0 0 .352.146 12.81 12.81 0 0 1 .264.029c.17.02.352.078.547.176.163.085.298.194.405.327s.184.288.23.464h0zm-3.437-.996c.065 0 .13-.013.2-.04a.5.5 0 0 0 .161-.107c.046-.052.08-.107.107-.166s.04-.124.04-.195c0-.065-.013-.13-.04-.2a.5.5 0 0 0-.269-.269c-.062-.026-.125-.04-.2-.04s-.13.013-.2.04a.5.5 0 0 0-.161.107.39.39 0 0 0-.112.161c-.023.062-.034.125-.034.2 0 .072.01.137.034.195s.06.114.112.166a.5.5 0 0 0 .161.107c.062.026.125.04.2.04zm7 16.992c.4 0 .762-.146 1.055-.44s.44-.645.44-1.055h0V5.502c0-.4-.146-.762-.44-1.055s-.644-.44-1.055-.44h0H15.5a.48.48 0 0 0-.352.146.48.48 0 0 0-.146.352.48.48 0 0 0 .146.352.48.48 0 0 0 .352.146h1.006a.48.48 0 0 1 .352.146.48.48 0 0 1 .146.352h0v14.004a.48.48 0 0 1-.498.498h0H2.504a.48.48 0 0 1-.352-.146.48.48 0 0 1-.146-.352h0V5.502a.48.48 0 0 1 .146-.352.48.48 0 0 1 .352-.146H3.5a.49.49 0 0 0 .361-.146.48.48 0 0 0 .146-.352.48.48 0 0 0-.146-.352.49.49 0 0 0-.361-.146h0-.996a1.45 1.45 0 0 0-1.064.439C1.146 4.74 1 5.092 1 5.502h0v14.004c0 .4.146.762.44 1.055A1.45 1.45 0 0 0 2.504 21h14.002zM8 15.004c.065 0 .13-.01.2-.034a.39.39 0 0 0 .161-.112h0l4.5-4.502a.48.48 0 0 0 .146-.352.48.48 0 0 0-.146-.352.48.48 0 0 0-.352-.146.48.48 0 0 0-.352.146h0L8 13.793 6.86 12.65c-.098-.098-.216-.146-.356-.146s-.26.05-.356.146a.48.48 0 0 0-.146.352.48.48 0 0 0 .146.352h0l1.504 1.504a.39.39 0 0 0 .161.112c.062.023.125.034.2.034z" fill="#82939e" stroke="#82939e" stroke-width=".4"/></svg>