<svg xmlns="http://www.w3.org/2000/svg" xmlns:xlink="http://www.w3.org/1999/xlink" width="45" height="48" xmlns:v="https://vecta.io/nano"><defs><path d="M227.32 29.696l.098-.01a.46.46 0 0 0 .245-.13c.093-.093.14-.204.14-.334h0v-.028c-.006-.47-.113-.88-.32-1.234s-.506-.628-.895-.826a3.02 3.02 0 0 0-.385-.153c-.127-.04-.24-.07-.34-.088a2.5 2.5 0 0 0-.292-.765 2.4 2.4 0 0 0-.52-.622 2.38 2.38 0 0 0-.7-.413 2.3 2.3 0 0 0-.826-.148c-.29 0-.567.05-.83.148s-.496.237-.7.413-.377.383-.52.622-.238.493-.288.765c-.105.02-.22.048-.343.088s-.25.09-.38.153c-.396.198-.697.476-.905.835s-.31.776-.31 1.252c0 .13.046.24.14.334s.204.14.334.14h7.598zm-.53-.946h-6.53c.043-.167.114-.314.213-.44a1.12 1.12 0 0 1 .39-.311 1.58 1.58 0 0 1 .52-.167l.24-.028c.13 0 .24-.046.334-.14s.14-.207.14-.343c0-.4.14-.724.417-1.002s.615-.417 1.01-.417c.4 0 .724.14 1.002.417s.417.612.417 1.002c0 .136.046.25.14.343s.204.14.334.14c.006 0 .1.01.25.028a1.58 1.58 0 0 1 .52.167c.155.08.283.184.385.31s.175.274.218.44h0zm-3.266-.946a.46.46 0 0 0 .181-.037c.06-.025.1-.06.153-.102.043-.05.077-.102.102-.158a.45.45 0 0 0 .037-.186.46.46 0 0 0-.037-.181c-.025-.06-.06-.1-.102-.153s-.094-.077-.153-.102a.46.46 0 0 0-.362 0c-.06.025-.1.06-.153.102-.05.043-.085.094-.107.153a.52.52 0 0 0-.032.181.51.51 0 0 0 .032.186.46.46 0 0 0 .107.158c.043.043.094.077.153.102a.46.46 0 0 0 .181.037zm6.652 16.143c.4 0 .724-.14 1.002-.417s.417-.612.417-1.002h0V29.223c0-.4-.14-.724-.417-1.002s-.612-.417-1.002-.417h0-.956c-.13 0-.24.046-.334.14s-.14.204-.14.334.046.24.14.334.204.14.334.14h.956c.13 0 .24.046.334.14s.14.204.14.334h0v13.304c0 .13-.046.24-.14.334s-.204.14-.334.14h0-13.304c-.13 0-.24-.046-.334-.14s-.14-.204-.14-.334h0V29.223c0-.13.046-.24.14-.334s.204-.14.334-.14h.946c.136 0 .25-.046.343-.14s.14-.204.14-.334-.046-.24-.14-.334-.207-.14-.343-.14h0-.946c-.396 0-.733.14-1.01.417s-.417.612-.417 1.002h0v13.304c0 .4.14.724.417 1.002s.615.417 1.01.417h13.304zm-8.08-5.696a.52.52 0 0 0 .181-.032c.06-.022.1-.057.153-.107h0l4.277-4.277c.093-.093.14-.204.14-.334s-.046-.24-.14-.334-.204-.14-.334-.14-.24.046-.334.14h0l-3.943 3.934-1.085-1.085a.46.46 0 0 0-.339-.139.46.46 0 0 0-.339.139c-.093.093-.14.204-.14.334s.046.24.14.334h0l1.43 1.43c.043.05.094.085.153.107a.52.52 0 0 0 .181.032z" id="A"/><filter x="-171.8%" y="-93.4%" width="443.6%" height="392.1%" id="B"><feMorphology radius="0.25" operator="dilate" in="SourceAlpha"/><feOffset dy="10"/><feGaussianBlur stdDeviation="7.5"/><feComposite in2="SourceAlpha" operator="out"/><feColorMatrix values="0 0 0 0 0.016160666 0 0 0 0 0.470682071 0 0 0 0 0.557235054 0 0 0 0.3 0"/></filter></defs><g transform="translate(-201 -21)" fill-rule="nonzero"><use fill="#000" filter="url(#B)" xlink:href="#A"/><use stroke="#04788e" stroke-width=".5" fill="#04788e" xlink:href="#A"/></g></svg>