<svg xmlns="http://www.w3.org/2000/svg" width="24" height="24"><path d="M5.8 2.3a7.5 7.5 0 0 1 2-1c.7-.2 1.4-.5 2.1-.6s1.5-.2 2.2-.2c.8 0 1.5.1 2.2.2s1.4.4 2.1.6 1.3.6 2 1 1.2.9 1.7 1.4a11.5 11.5 0 0 1 1.4 1.7 7.5 7.5 0 0 1 1 2c.2.7.5 1.4.6 2.1s.2 1.5.2 2.2c0 .8-.1 1.5-.2 2.2s-.4 1.4-.6 2.1-.6 1.3-1 2-.9 1.2-1.4 1.7a11.5 11.5 0 0 1-1.7 1.4 7.5 7.5 0 0 1-2 1c-.7.2-1.4.5-2.1.6l-2.2.2c-.8 0-1.5-.1-2.2-.2s-1.4-.4-2.1-.6-1.3-.6-2-1-1.2-.9-1.7-1.4A11.5 11.5 0 0 1 2.7 18a7.5 7.5 0 0 1-1-2c-.2-.7-.5-1.4-.6-2.1s-.2-1.5-.2-2.2c0-.8.1-1.5.2-2.2s.4-1.4.6-2.1.6-1.3 1-2 .9-1.2 1.4-1.7a11.5 11.5 0 0 1 1.7-1.4zm10.3 18.9c1.2-.5 2.3-1.3 3.2-2.2s1.7-2 2.2-3.2.8-2.6.8-4-.3-2.7-.8-4-1.3-2.3-2.2-3.2-2-1.7-3.2-2.2-2.6-.8-4-.8-2.7.3-4 .8-2.3 1.3-3.2 2.2-1.7 2-2.2 3.2-.8 2.6-.8 4 .3 2.7.8 4S4 18.1 4.9 19s2 1.7 3.2 2.2 2.6.8 4 .8 2.7-.3 4-.8zM6.65 9.03l6.13 3.57 4.47-3.17c.1-.1.25-.13.45-.13s.3.14.34.17c.1.1.14.25.1.34s-.17.32-.27.42l-4.9 3.4L6.23 9.7c-.24-.27-.17-.53-.16-.54.03-.02.02-.1.16-.14.1-.03.33-.04.42 0z" fill="#a0afb8" stroke="#a0afb8" stroke-width=".5" fill-rule="evenodd"/></svg>