<svg xmlns="http://www.w3.org/2000/svg" width="20" height="20"  xmlns:v="https://vecta.io/nano"><path d="M16.32 17.113C18.049 15.331 19 12.989 19 10.5a9.43 9.43 0 0 0-2.438-6.355l.688-.688.647.646c.098.098.226.146.353.146a.5.5 0 0 0 .353-.853l-2-2a.5.5 0 0 0-.707.707l.647.646-.688.688A9.43 9.43 0 0 0 9.5.999a9.43 9.43 0 0 0-6.355 2.438l-.688-.688.646-.646a.5.5 0 0 0-.707-.707l-2 2a.5.5 0 0 0 .354.853.5.5 0 0 0 .354-.146l.646-.646.688.688A9.43 9.43 0 0 0 0 10.5c0 2.489.951 4.831 2.68 6.613L.646 19.147a.5.5 0 1 0 .708.707l2.06-2.059c1.705 1.428 3.836 2.206 6.087 2.206s4.382-.778 6.087-2.206l2.059 2.059a.5.5 0 0 0 .354.147c.128 0 .256-.049.353-.147a.5.5 0 0 0 0-.707l-2.034-2.034zM1 10.5A8.51 8.51 0 0 1 9.5 2a8.51 8.51 0 0 1 8.5 8.5A8.51 8.51 0 0 1 9.5 19 8.51 8.51 0 0 1 1 10.5zm14.129-3.25a.5.5 0 0 0-.683-.183l-4.92 2.841-3.835-2.685a.5.5 0 0 0-.696.123.5.5 0 0 0 .123.696l4.125 2.887.033.019.037.017c.006.003.013.005.019.007l.034.011.034.008.033.005.033.004c.009.001.018.001.027.001l.063-.003c.021-.002.039-.005.057-.01l.055-.016.054-.023.027-.014 5.196-3a.5.5 0 0 0 .183-.683z"/></svg>