<svg xmlns="http://www.w3.org/2000/svg" width="20" height="20"  xmlns:v="https://vecta.io/nano"><path d="M7.631 19.702c-.041 0-.083-.005-.125-.016a9.95 9.95 0 0 1-2.564-1.059.5.5 0 0 1-.186-.671c.159-.292.243-.622.243-.957 0-1.103-.897-2-2-2-.334 0-.665.084-.957.243a.5.5 0 0 1-.671-.186C.899 14.252.543 13.39.312 12.492a.5.5 0 0 1 .325-.598 2 2 0 0 0 0-3.79.5.5 0 0 1-.325-.598 9.95 9.95 0 0 1 1.059-2.564.5.5 0 0 1 .671-.186 2 2 0 0 0 .957.243c1.103 0 2-.897 2-2 0-.334-.084-.665-.243-.957a.5.5 0 0 1 .186-.671C5.746.899 6.608.543 7.506.312a.5.5 0 0 1 .598.325 2 2 0 0 0 3.79 0 .5.5 0 0 1 .598-.325 9.95 9.95 0 0 1 2.564 1.059.5.5 0 0 1 .186.671c-.159.292-.243.622-.243.957 0 1.103.897 2 2 2 .334 0 .665-.084.957-.243a.5.5 0 0 1 .671.186c.472.804.828 1.666 1.059 2.564a.5.5 0 0 1-.325.598 2 2 0 0 0 0 3.79.5.5 0 0 1 .325.598 9.95 9.95 0 0 1-1.059 2.564.5.5 0 0 1-.671.186c-.292-.159-.622-.243-.957-.243-1.103 0-2 .897-2 2 0 .334.084.665.243.957a.5.5 0 0 1-.186.671c-.804.472-1.666.828-2.564 1.059a.5.5 0 0 1-.598-.325 2 2 0 0 0-3.79 0 .5.5 0 0 1-.474.341zM10 17a3 3 0 0 1 2.655 1.602 9.02 9.02 0 0 0 1.51-.622c-.108-.314-.164-.646-.164-.98 0-1.654 1.346-3 3-3 .334 0 .666.056.98.164a8.9 8.9 0 0 0 .622-1.51 3 3 0 0 1 0-5.31 9.02 9.02 0 0 0-.622-1.51c-.314.108-.646.164-.98.164-1.654 0-3-1.346-3-3 0-.334.056-.666.164-.98a8.9 8.9 0 0 0-1.51-.622 3 3 0 0 1-5.31 0c-.52.16-1.026.369-1.51.622.108.314.164.646.164.98 0 1.654-1.346 3-3 3-.334 0-.666-.056-.98-.164a8.9 8.9 0 0 0-.622 1.51 3 3 0 0 1 0 5.31c.16.52.369 1.026.622 1.51.314-.108.646-.164.98-.164 1.654 0 3 1.346 3 3 0 .334-.056.666-.164.98a8.9 8.9 0 0 0 1.51.622A3 3 0 0 1 10 17zm0-4c-1.654 0-3-1.346-3-3s1.346-3 3-3 3 1.346 3 3-1.346 3-3 3zm0-5c-1.103 0-2 .897-2 2s.897 2 2 2 2-.897 2-2-.897-2-2-2z"/></svg>