<svg xmlns="http://www.w3.org/2000/svg" xmlns:xlink="http://www.w3.org/1999/xlink" width="52" height="53"><defs><path d="M22.8 28.4l-1.7-.5c-.6-.2-1-.5-1.5-.7-.1-.1-.2-.2-.3-.4s0-.3.1-.4c.1-.2.2-.4.2-.6s.1-.4.1-.6c0-.3-.1-.6-.2-.9s-.3-.5-.5-.8-.5-.4-.8-.5-.6-.2-.9-.2c-.2 0-.4 0-.6.1s-.4.1-.6.2c-.1.1-.3.1-.4.1s-.3-.1-.4-.3c-.3-.5-.5-1-.8-1.5s-.4-1-.5-1.6c0-.2 0-.3.1-.4l.3-.3c.5-.2.9-.5 1.2-.9s.5-.9.5-1.4-.2-1-.5-1.4-.7-.7-1.2-.9c-.1 0-.3-.1-.3-.3s-.1-.3-.1-.4c.1-.5.3-1.1.5-1.6s.5-1 .8-1.5c.1-.1.2-.2.4-.3s.3 0 .4 0c.2.1.4.2.6.2s.4.1.6.1c.3 0 .6-.1.9-.2s.5-.3.8-.5.4-.5.5-.8.2-.6.2-.9c0-.2 0-.4-.1-.6s-.1-.4-.2-.6c-.1-.1-.1-.3-.1-.5s.1-.3.3-.4c.5-.3 1-.5 1.5-.7s1-.4 1.6-.5c.1 0 .3 0 .4.1l.3.3c.2.5.5.9.9 1.2s.9.5 1.4.5 1-.2 1.4-.5.7-.7.9-1.2c0-.1.1-.3.3-.3s.3-.1.4-.1c.5.1 1.1.3 1.6.5s1 .5 1.5.7c.1.1.2.2.3.4s0 .3-.1.5-.2.4-.2.6-.1.4-.1.6c0 .3.1.6.2.9s.3.5.5.8.5.4.8.5.6.2.9.2c.2 0 .4 0 .6-.1s.4-.1.6-.2c.1-.1.3-.1.4 0s.3.1.4.3c.3.5.5 1 .8 1.5s.4 1 .5 1.6c0 .2 0 .3-.1.4l-.3.3c-.5.2-.9.5-1.2.9s-.5.9-.5 1.4.2 1 .5 1.4.7.7 1.2.9c.1.1.3.2.3.3s.1.3.1.4c-.1.5-.3 1.1-.5 1.6s-.5 1-.8 1.5c-.1.1-.2.2-.4.3s-.3 0-.4-.1c-.2-.1-.4-.2-.6-.2s-.4-.1-.6-.1c-.3 0-.6.1-.9.2s-.5.3-.8.5-.4.5-.5.8-.2.6-.2.9c0 .2 0 .4.1.6s.1.4.2.6c.1.1.1.3.1.4s-.1.3-.3.4c-.5.3-1 .5-1.5.7l-1.6.5c-.1 0-.3 0-.4-.1L28 28c-.2-.5-.5-.9-.9-1.2s-.9-.4-1.4-.4-1 .1-1.4.4-.7.7-.9 1.2c0 .1-.1.2-.2.3s-.2.1-.4.1zm3.9-3.1c.3.1.6.2.9.4s.5.4.8.6.4.5.6.8l.9-.3c.3-.1.6-.3.9-.4-.1-.2-.1-.4-.1-.6v-.6c0-.5.1-1 .3-1.4s.4-.8.8-1.1.7-.6 1.1-.8.9-.3 1.4-.3c.2 0 .4 0 .6.1s.4.1.6.1c.2-.3.3-.6.4-.9l.3-.9c-.3-.1-.6-.3-.8-.6l-.6-.8c-.2-.3-.3-.6-.4-.9s-.1-.6-.1-1c0-.3 0-.7.1-1l.4-.9c.2-.3.4-.5.6-.8s.5-.4.8-.6l-.3-.9c-.1-.3-.3-.6-.4-.9-.2.1-.4.1-.6.1s-.4.1-.6.1c-.5 0-1-.1-1.4-.3s-.8-.4-1.1-.8-.6-.7-.8-1.1-.3-.9-.3-1.4v-.6c0-.2.1-.4.1-.6-.3-.1-.6-.3-.9-.4s-.7 0-1-.1c-.2.3-.3.6-.6.8s-.5.4-.8.6-.6.3-.9.4-.6.1-1 .1-.7 0-1-.1-.6-.2-.9-.4-.5-.4-.8-.6-.4-.5-.6-.8l-.9.3c-.3.1-.6.3-.9.4.1.2.1.4.1.6v.6c0 .5-.1 1-.3 1.4s-.1.8-.5 1.1-.7.6-1.1.8-.9.3-1.4.3c-.2 0-.4 0-.6-.1s-.4-.1-.6-.1c-.2.3-.3.6-.4.9l-.3.9c.3.1.6.3.8.6s.4.5.6.8.3.6.4.9.1.6.1 1c0 .3 0 .7-.1 1s-.2.6-.4.9l-.6.8c-.2.3-.5.4-.8.6l.3.9c.1.3.3.6.4.9.2-.1.4-.1.6-.1s.4-.1.6-.1c.5 0 1 .1 1.4.3s.8.4 1.1.8l.8 1.1c.2.4.3.9.3 1.4v.6c0 .2-.1.4-.1.6.3.1.6.3.9.4l.9.3c.2-.3.3-.6.6-.8s.5-.4.8-.6.6-.3.9-.4.6-.1 1-.1.5-.2.8-.1zm-2.4-5.2c-.4-.2-.8-.4-1.1-.8s-.6-.7-.8-1.1-.3-.9-.3-1.4.1-1 .3-1.4.4-.8.8-1.1.7-.6 1.1-.8.9-.3 1.4-.3 1 .1 1.4.3.8.4 1.1.8l.8 1.1c.2.4.3.9.3 1.4s-.1 1-.3 1.4-.4.8-.8 1.1-.7.6-1.1.8-.9.3-1.4.3-1-.1-1.4-.3zm.5-5.5c-.3.1-.5.3-.8.5s-.4.5-.5.8-.2.6-.2.9.1.6.2.9.3.5.5.8.5.4.8.5.6.2.9.2.6-.1.9-.2.5-.3.8-.5.4-.5.5-.8.2-.6.2-.9-.1-.6-.2-.9-.3-.5-.5-.8-.5-.4-.8-.5-.6-.2-.9-.2-.6.1-.9.2z" id="A"/><filter x="-118.6%" y="-75.8%" width="337.2%" height="337.2%" id="B"><feMorphology radius="0.25" operator="dilate" in="SourceAlpha"/><feOffset dy="10"/><feGaussianBlur stdDeviation="7.5"/><feComposite in2="SourceAlpha" operator="out"/><feColorMatrix values="0 0 0 0 1 0 0 0 0 1 0 0 0 0 1 0 0 0 0.5 0"/></filter></defs><g fill-rule="evenodd"><use fill="#000" filter="url(#B)" xlink:href="#A"/><use stroke="#fff" stroke-width=".5" fill="#fff" xlink:href="#A"/></g></svg>