<svg xmlns="http://www.w3.org/2000/svg" width="48" height="42" fill="#6f6cac" fill-rule="evenodd"><path d="M12.22 35.13L9.7 28.3l8.6-7.5 5.33 14.4-11.42-.08zm-1.12 3.2a1.5 1.5 0 0 1-.8.75c-.35.15-.75.12-1.1-.04-.3-.13-.52-.36-.67-.65l2.66-.98c.07.3.05.63-.1.93zm-3.26-1.7L5.37 30l2.6-.96 2.46 6.64-2.6.96zM2.1 35c-.6-1.62.07-3.43 1.53-4.28l2.42 6.53A3.6 3.6 0 0 1 2.1 35zm17.86-15.14c-.16-.43-.45-.77-.83-.96-.38-.2-.82-.2-1.24-.06-.2.08-.4.2-.58.35l-8.68 7.6-5.1 1.88C.74 29.72-.7 32.85.34 35.65a5.4 5.4 0 0 0 2.82 3.04 5.4 5.4 0 0 0 2.26.5 5.2 5.2 0 0 0 1.3-.17 3.3 3.3 0 0 0 1.68 1.75 3.4 3.4 0 0 0 1.4.3c.4 0 .78-.07 1.16-.2a3.3 3.3 0 0 0 2.07-3.9l10.92.12c.23 0 .46-.04.66-.1.43-.16.75-.47.9-.88a1.7 1.7 0 0 0-.01-1.24l-5.56-15zm25.44.54a4.5 4.5 0 0 1-.87 2.13 6.2 6.2 0 0 1-1.87 1.64 8.4 8.4 0 0 1-2.63.96c-.98.2-2.03.22-3.1.08a10.5 10.5 0 0 1-1.38-.27c-.44-.12-.88-.27-1.3-.46-.12-.05-.25-.08-.4-.08-.16 0-.3.04-.43.1l-.86.4-.94.4-.33.12.2-.27c.16-.24.3-.46.4-.66l.22-.46c.07-.18.1-.37.05-.57s-.14-.37-.3-.5a6.5 6.5 0 0 1-.94-1.04 5.7 5.7 0 0 1-.64-1.14 5.2 5.2 0 0 1-.33-1.18 4.4 4.4 0 0 1-.01-1.2c.1-.77.4-1.5.87-2.13.5-.65 1.12-1.2 1.88-1.64.77-.45 1.65-.77 2.63-.95a9.3 9.3 0 0 1 1.76-.16c.44 0 .9.03 1.34.1a9.8 9.8 0 0 1 2.98.86c.9.43 1.68.96 2.3 1.6a6.2 6.2 0 0 1 1.4 2.06c.3.74.4 1.5.3 2.28m1.9-1.36a6.8 6.8 0 0 0-.4-1.58 7.5 7.5 0 0 0-.33-.73 7.4 7.4 0 0 0-.41-.7l-.5-.66a7.9 7.9 0 0 0-.57-.63c-.4-.4-.86-.78-1.34-1.12a10.3 10.3 0 0 0-1.55-.9 11.7 11.7 0 0 0-1.71-.64 12.2 12.2 0 0 0-1.83-.38 12.4 12.4 0 0 0-1.88-.1 10.9 10.9 0 0 0-1.82.2 10.7 10.7 0 0 0-1.72.47c-.56.2-1.1.46-1.58.75a5.3 5.3 0 0 0-.7.46l-.65.52a8.8 8.8 0 0 0-.57.56 5.9 5.9 0 0 0-.5.63c-.32.45-.6.93-.8 1.42a5.9 5.9 0 0 0-.4 1.55 6.1 6.1 0 0 0 0 1.6 6.4 6.4 0 0 0 .4 1.56 7.6 7.6 0 0 0 .76 1.47 8.6 8.6 0 0 0 .85 1.07l-.16.25a4.8 4.8 0 0 1-.53.66 6.8 6.8 0 0 1-.8.71 5.2 5.2 0 0 1-1.05.61 1 1 0 0 0-.46.4c-.1.2-.14.4-.1.58.02.22.12.42.28.57.15.15.34.24.55.27a5.2 5.2 0 0 0 .7.04h.18c.3-.01.63-.04.96-.1l1.05-.23 1.13-.34 1.36-.54.77-.35 1.25.4a12.2 12.2 0 0 0 1.53.3 12 12 0 0 0 1.88.1 11.6 11.6 0 0 0 1.82-.19 9.7 9.7 0 0 0 1.72-.47c.56-.2 1.1-.46 1.58-.75l.7-.46c.22-.16.44-.34.64-.52a7.4 7.4 0 0 0 .57-.57 8.1 8.1 0 0 0 .51-.62 6.8 6.8 0 0 0 .79-1.43c.2-.5.34-1.02.4-1.56a6.6 6.6 0 0 0 0-1.6m-23.14-7.62c-.45 0-.82-.37-.82-.82s.37-.82.82-.82.82.37.82.82-.37.82-.82.82zM16.2 8.65c-.45 0-.82-.37-.82-.82 0-.3.16-.55.4-.7.13-.08.27-.12.43-.12.26 0 .5.13.65.32.1.14.18.3.18.5 0 .45-.37.82-.82.82zm-5.66 6.54c-.45 0-.82-.37-.82-.82 0-.04.01-.08.01-.12.04-.3.25-.54.52-.65.1-.03.18-.05.3-.05.45 0 .82.37.82.82s-.37.82-.82.82zM28.8 1.9c.28 0 .54.15.68.37.1.13.14.3.14.46 0 .45-.37.82-.82.82-.42 0-.76-.3-.8-.72 0-.03-.01-.07-.01-.1 0-.45.37-.82.82-.82zm-.15 3.53l.15.01c1.5 0 2.73-1.22 2.73-2.73S30.3 0 28.8 0s-2.73 1.22-2.73 2.73c0 .76.32 1.45.82 1.94L24.9 8c-.23-.07-.48-.1-.73-.1A2.7 2.7 0 0 0 22.01 9l-3.1-.98c0-.05.01-.1.01-.15 0-1.5-1.22-2.73-2.73-2.73s-2.73 1.22-2.73 2.73a2.7 2.7 0 0 0 .37 1.35l-2.2 2.7a2.7 2.7 0 0 0-1.11-.24c-1.5 0-2.73 1.22-2.73 2.73s1.22 2.73 2.73 2.73 2.73-1.22 2.73-2.73a2.7 2.7 0 0 0-.26-1.14l2.3-2.84a2.7 2.7 0 0 0 .89.16c.76 0 1.45-.32 1.94-.82l3.33 1.05c.1 1.42 1.27 2.54 2.7 2.54 1.5 0 2.73-1.22 2.73-2.73a2.7 2.7 0 0 0-.45-1.49l2.18-3.67z"/></svg>