<?xml version="1.0" encoding="UTF-8"?>
<svg width="179px" height="188px" viewBox="0 0 179 188" version="1.1" xmlns="http://www.w3.org/2000/svg" xmlns:xlink="http://www.w3.org/1999/xlink">
    <!-- Generator: Sketch 63.1 (92452) - https://sketch.com -->
    <title>Confetti</title>
    <desc>Created with Sketch.</desc>
    <defs>
        <filter x="-22.6%" y="-11.8%" width="145.2%" height="127.7%" filterUnits="objectBoundingBox" id="filter-1">
            <feOffset dx="0" dy="10" in="SourceAlpha" result="shadowOffsetOuter1"></feOffset>
            <feGaussianBlur stdDeviation="7.5" in="shadowOffsetOuter1" result="shadowBlurOuter1"></feGaussianBlur>
            <feColorMatrix values="0 0 0 0 0   0 0 0 0 0   0 0 0 0 0  0 0 0 0.1 0" type="matrix" in="shadowBlurOuter1" result="shadowMatrixOuter1"></feColorMatrix>
            <feMerge>
                <feMergeNode in="shadowMatrixOuter1"></feMergeNode>
                <feMergeNode in="SourceGraphic"></feMergeNode>
            </feMerge>
        </filter>
        <filter x="-16.4%" y="-17.6%" width="132.7%" height="135.3%" filterUnits="objectBoundingBox" id="filter-2">
            <feOffset dx="0" dy="10" in="SourceAlpha" result="shadowOffsetOuter1"></feOffset>
            <feGaussianBlur stdDeviation="2" in="shadowOffsetOuter1" result="shadowBlurOuter1"></feGaussianBlur>
            <feColorMatrix values="0 0 0 0 0.165   0 0 0 0 0.224   0 0 0 0 0.259  0 0 0 0.1 0" type="matrix" in="shadowBlurOuter1" result="shadowMatrixOuter1"></feColorMatrix>
            <feMerge>
                <feMergeNode in="shadowMatrixOuter1"></feMergeNode>
                <feMergeNode in="SourceGraphic"></feMergeNode>
            </feMerge>
        </filter>
    </defs>
    <g id="Canoe-" stroke="none" stroke-width="1" fill="none" fill-rule="evenodd">
        <g id="Complete-Card-(course)" transform="translate(0.000000, -60.000000)">
            <g id="Carousel-Content" transform="translate(0.000000, -20.000000)">
                <g transform="translate(8.000000, 82.000000)" id="Lesson">
                    <g filter="url(#filter-1)">
                        <g id="Confetti">
                            <g filter="url(#filter-2)" transform="translate(77.500000, 69.500000) scale(-1, 1) rotate(13.000000) translate(-77.500000, -69.500000) translate(-5.000000, -7.000000)">
                                <path d="M138.548431,59.3778462 C138.629662,59.4246154 138.70679,59.4681026 138.783097,59.5083077 C140.849969,60.6110769 143.28279,60.7284103 144.703097,59.7954872 C145.456328,59.2990769 145.798482,58.5671795 145.720533,57.6178462 C145.5712,55.7995897 143.620021,54.857641 141.841969,54.5835897 C139.706174,54.2545641 137.210174,54.7558974 135.496944,56.2065641 C136.361764,57.8525128 137.599097,58.8289231 138.548431,59.3778462 M136.603815,48.841641 C139.979405,50.7928205 142.889764,49.5070769 143.866174,48.9507692 C145.727097,47.8914872 146.708431,46.2192821 146.426174,45.3798974 C146.006072,44.136 143.417354,43.1070769 140.580841,43.5862564 C139.183508,43.8233846 136.400328,44.6808205 135.121969,47.7872821 C135.622482,48.2139487 136.118072,48.5610256 136.603815,48.841641 M138.076636,37.3774359 C140.085251,38.5384615 142.155405,38.5409231 143.659405,38.0248205 C145.041969,37.5497436 145.979815,36.6332308 146.047097,35.6904615 C146.116021,34.7255385 145.262687,33.7327179 143.654482,32.9146667 C140.550482,31.3269744 137.321764,32.4970256 135.089969,34.5778462 C135.338585,34.918359 135.620021,35.2646154 135.933456,35.6141538 C136.618585,36.3764103 137.343918,36.9540513 138.076636,37.3774359 M140.077046,24.2984615 L140.077046,24.2984615 C140.118072,24.7579487 139.8112,25.161641 139.364021,25.2707692 C137.460431,25.7327179 134.858585,27.2449231 134.000328,29.4233846 C133.565456,30.5294359 133.616328,31.7101538 134.149662,32.9556923 C136.864738,30.5909744 140.721149,29.3528205 144.490585,31.2810256 C147.596226,32.872 147.949867,34.8100513 147.876841,35.8209231 C147.755405,37.5251282 146.367918,39.0340513 144.255097,39.7602051 C141.646687,40.6570256 137.733662,40.358359 134.568123,36.8408205 C134.303918,36.5462564 134.061867,36.2557949 133.84279,35.9710769 C131.720123,38.8231795 130.861046,43.0578462 133.656533,46.3161026 C133.681149,46.3448205 133.706585,46.3735385 133.7312,46.4022564 C135.519918,42.9052308 138.965251,41.9985641 140.27479,41.7786667 C143.919508,41.161641 147.385354,42.4867692 148.164021,44.7940513 C148.781867,46.6213333 147.322995,49.0951795 144.773662,50.5458462 C142.124226,52.0539487 138.287508,52.4363077 134.593559,49.7048205 C134.496738,50.3070769 134.446687,50.9700513 134.453251,51.6962051 C134.462277,52.710359 134.589456,53.606359 134.798687,54.3973333 C136.934482,52.8506667 139.757867,52.4059487 142.120944,52.7694359 C145.271713,53.257641 147.350892,55.0545641 147.549456,57.4668718 C147.6832,59.0890256 147.030892,60.4601026 145.710687,61.3282051 C143.724226,62.6344615 140.593149,62.5540513 137.919918,61.128 C136.376533,60.3099487 135.1392,59.1308718 134.246482,57.6892308 C134.116021,57.9115897 133.999508,58.1470769 133.898585,58.3940513 C132.866379,60.9171282 132.893456,63.112 133.979815,64.7390769 C135.158072,66.5064615 137.533456,67.558359 140.719508,67.7405128 C141.214277,67.7692308 141.607303,68.1638974 141.6032,68.6586667 L141.6032,68.6676923 C141.599097,69.1969231 141.147815,69.6030769 140.619405,69.5727179 C136.840123,69.3552821 133.960123,68.0203077 132.452841,65.7565128 C131.014482,63.5993846 130.926687,60.8129231 132.199303,57.6990769 C132.494687,56.9778462 132.877046,56.3427692 133.326687,55.7872821 C132.873764,54.5483077 132.631713,53.1772308 132.616944,51.7134359 C132.606277,50.4235897 132.749867,49.2994872 133.006687,48.3181538 C132.757251,48.0662564 132.511097,47.7971282 132.264944,47.5107692 C128.716226,43.3770256 129.862482,38.0535385 132.572636,34.6114872 C132.6432,34.5220513 132.714585,34.4342564 132.78761,34.3464615 C131.546995,31.9965128 131.772636,30.0724103 132.292841,28.7513846 C133.436636,25.8508718 136.597251,24.0605128 138.934892,23.4894359 C139.486277,23.3548718 140.027815,23.7339487 140.077046,24.2984615" id="Fill-1" fill="#FF694D"></path>
                                <path d="M98.3273026,16.4436103 C98.2657641,16.4083282 98.2075077,16.3738667 98.1517128,16.3385846 C96.6436103,15.3974564 95.6442256,13.8409436 95.7197128,12.553559 C95.7607385,11.8700718 96.1127385,11.3670974 96.7666872,11.0594051 C98.0196103,10.4678154 99.3783795,11.3949949 100.232533,12.460841 C101.258995,13.7400205 101.8752,15.5722256 101.569969,17.2485333 C100.158687,17.3043282 99.0477128,16.8604308 98.3273026,16.4436103 M105.995815,13.7293538 C103.432533,12.2491487 103.175713,9.84586667 103.17079,8.99335385 C103.162585,7.36709744 103.890379,6.08873846 104.550072,5.9566359 C105.527303,5.76053333 107.185559,7.07417436 107.945354,9.12135385 C108.319508,10.1305846 108.810174,12.2868923 107.2512,14.3053538 C106.780226,14.1371487 106.364226,13.9426872 105.995815,13.7293538 M112.9792,8.41571282 C111.453867,7.53448205 110.667815,6.17325128 110.437251,4.98843077 C110.225559,3.89878974 110.473354,2.93468718 111.067405,2.53345641 C111.677046,2.12237949 112.653456,2.30699487 113.800533,3.05530256 C116.020841,4.49448205 116.475405,7.06268718 115.951918,9.31909744 C115.634379,9.2846359 115.300431,9.23130256 114.951713,9.1566359 C114.190277,8.99499487 113.535508,8.73653333 112.9792,8.41571282 M120.824944,2.14207179 L120.824944,2.14207179 C120.507405,2.2897641 120.358072,2.64422564 120.455713,2.97981538 C120.873354,4.40750769 120.864328,6.69181538 119.756636,8.08340513 C119.194585,8.78740513 118.397867,9.2017641 117.376328,9.3232 C117.902277,6.64094359 117.254892,3.63458462 114.557867,1.88525128 C112.334277,0.445251282 110.925456,0.947405128 110.287918,1.37899487 C109.213867,2.10432821 108.746174,3.58945641 109.070277,5.25345641 C109.468226,7.30966154 111.147815,9.7712 114.661251,10.5195077 C114.956636,10.5818667 115.238072,10.6319179 115.508841,10.6680205 C114.437251,13.1451487 111.977354,15.3154051 108.773251,14.7115077 C108.745354,14.7057641 108.716636,14.7000205 108.689559,14.6942769 C110.310892,12.1925333 109.601969,9.58330256 109.249969,8.63725128 C108.2752,6.00586667 106.090174,4.2286359 104.277662,4.59048205 C102.840123,4.87684103 101.766072,6.77386667 101.777559,9.00155897 C101.789867,11.3154051 102.993559,13.9845333 106.190277,15.3794051 C105.830072,15.6723282 105.413251,15.9554051 104.933251,16.2261744 C104.262072,16.6044308 103.624533,16.8612513 103.025559,17.0228923 C103.233149,15.0315077 102.455303,13.0064821 101.319713,11.5886359 C99.8050462,9.7006359 97.8341744,9.01468718 96.1734564,9.79827692 C95.0550974,10.3250462 94.4003282,11.2743795 94.3297641,12.4715077 C94.2230974,14.2725333 95.4628923,16.3024821 97.4140718,17.5201231 C98.5373538,18.2265846 99.7812513,18.5933538 101.068636,18.6343795 C100.971815,18.8042256 100.861046,18.9699692 100.737149,19.1291487 C99.4678154,20.7652513 98.0138667,21.5792 96.5320205,21.481559 C94.9221744,21.3765333 93.3312,20.2122256 92.0027897,18.1847385 C91.796841,17.8704821 91.3882256,17.7613538 91.0641231,17.9517128 L91.0583795,17.9558154 C90.7121231,18.1584821 90.6161231,18.6097641 90.8360205,18.9453538 C92.4114051,21.3494564 94.3798154,22.7377641 96.4409436,22.8715077 C98.4060718,22.9995077 100.271918,22.0009436 101.837456,19.9841231 C102.200123,19.5164308 102.474174,19.0241231 102.668636,18.5178667 C103.654892,18.345559 104.648533,17.9861744 105.617559,17.4405333 C106.470072,16.9597128 107.1552,16.4386872 107.703303,15.8979692 C107.963405,15.9660718 108.234174,16.0259692 108.51561,16.0801231 C112.580431,16.8473026 115.647508,14.0756103 116.884021,10.988841 C116.916841,10.9084308 116.9472,10.8272 116.976738,10.7459692 C118.993559,10.6713026 120.173456,9.79417436 120.845456,8.95068718 C122.320738,7.09961026 122.300226,4.34186667 121.790687,2.58678974 C121.670072,2.17325128 121.215508,1.96073846 120.824944,2.14207179" id="Fill-3" fill="#10B584"></path>
                                <path d="M118.52841,41.2793026 L114.785231,40.1437128 C114.129641,39.9451487 113.700513,39.3067897 113.882667,38.7988923 L118.242872,26.5748923 C118.382359,26.1835077 118.84841,25.9972513 119.357128,26.1301744 L120.06359,26.3147897 C120.660923,26.4706872 121.106462,27.0056615 121.05641,27.5069949 L119.732103,40.6811487 C119.68041,41.1923282 119.133949,41.4639179 118.52841,41.2793026" id="Fill-5" fill="#F67C36"></path>
                                <path d="M153.347282,88.6351179 L149.476923,89.2045538 C148.799179,89.3046564 148.139487,88.9099897 148.086974,88.3741949 L146.814359,75.4576821 C146.773333,75.0441436 147.114667,74.6765538 147.63159,74.5805538 L148.350359,74.4459897 C148.955897,74.3319385 149.587692,74.6265026 149.755897,75.100759 L154.180923,87.5799385 C154.35159,88.064041 153.973333,88.5432205 153.347282,88.6351179" id="Fill-7" fill="#10B584"></path>
                                <path d="M159.506708,121.264944 L156.072041,119.391713 C155.471426,119.062687 155.181785,118.350482 155.4624,117.890995 L162.219323,106.809969 C162.435938,106.453867 162.929067,106.366892 163.400041,106.600738 L164.05481,106.924841 C164.607836,107.198892 164.9344,107.814277 164.784246,108.294277 L160.807221,120.92361 C160.652144,121.413456 160.063015,121.567713 159.506708,121.264944" id="Fill-9" fill="#10B584"></path>
                                <path d="M83.732759,42.8530462 L83.2076308,38.9753026 C83.1157333,38.297559 83.5177846,37.6419692 84.0552205,37.5960205 L96.9848615,36.4752 C97.3992205,36.4390974 97.7627077,36.7845333 97.8529641,37.3014564 L97.9793231,38.0218667 C98.0859897,38.6298667 97.784041,39.257559 97.3081436,39.4200205 L84.7772718,43.6973538 C84.2923487,43.8630974 83.8180923,43.4799179 83.732759,42.8530462" id="Fill-11" fill="#10B584"></path>
                                <path d="M65.230359,57.4267487 L68.8365128,55.9088 C69.4674872,55.6437744 70.2043077,55.8612103 70.3897436,56.3674667 L74.8434872,68.5570051 C74.9862564,68.9483897 74.7474872,69.3890051 74.2707692,69.6121846 L73.6086154,69.9215179 C73.0498462,70.182441 72.3647179,70.0552615 72.0841026,69.638441 L64.6871795,58.6558769 C64.4,58.2300308 64.6469744,57.6720821 65.230359,57.4267487" id="Fill-13" fill="#04788E"></path>
                                <path d="M55.0155487,55.0950154 L52.2217026,52.3569641 C51.7326769,51.8777846 51.6473436,51.1130667 52.0436513,50.7471179 L61.5624205,41.9257846 C61.8684718,41.6427077 62.3665231,41.692759 62.7562667,42.0464 L63.2978051,42.5370667 C63.7540103,42.9514256 63.9017026,43.6324513 63.6260103,44.0525538 L56.3595487,55.1212718 C56.0772923,55.5504 55.4676513,55.5380923 55.0155487,55.0950154" id="Fill-15" fill="#F67C36"></path>
                                <path d="M82.4250256,108.343426 L79.3653333,105.983631 C78.8295385,105.570913 78.5431795,104.895631 78.7614359,104.562503 L84.0266667,96.5214769 C84.1956923,96.2630154 84.6174359,96.2958359 85.0358974,96.5994256 L85.617641,97.0211692 C86.1083077,97.3780923 86.4225641,97.9770667 86.3167179,98.3561436 L83.5302564,108.3344 C83.4219487,108.721682 82.9206154,108.725785 82.4250256,108.343426" id="Fill-17" fill="#FFAC51"></path>
                                <path d="M38.6469744,102.265723 L39.8112821,98.5808 C40.0147692,97.9358769 40.5497436,97.4345436 40.9386667,97.5256205 L50.2990769,99.7065436 C50.5993846,99.7762872 50.7142564,100.183262 50.5723077,100.680492 L50.3762051,101.372185 C50.2112821,101.955569 49.7550769,102.456082 49.3636923,102.488082 L39.0350769,103.30039 C38.6346667,103.331569 38.4590769,102.862236 38.6469744,102.265723" id="Fill-19" fill="#FF694D"></path>
                                <path d="M116.098133,137.228021 L118.709826,134.380021 C119.166851,133.881969 119.333415,133.167303 119.061005,132.8752 L112.498544,125.854072 C112.287672,125.628431 111.878236,125.732636 111.518031,126.102687 L111.016697,126.617969 C110.594133,127.053662 110.386544,127.698585 110.555569,128.053046 L115.007672,137.408533 C115.1808,137.7712 115.674749,137.689149 116.098133,137.228021" id="Fill-23" fill="#6F6CAC"></path>
                                <path d="M131.913764,152.897928 L134.9472,151.71721 C135.478072,151.510441 135.869456,151.032903 135.771815,150.710441 L133.423508,142.963159 C133.348021,142.714544 133.000123,142.640697 132.589046,142.787569 L132.01961,142.990236 C131.537969,143.161723 131.142482,143.571979 131.137559,143.903467 L131.023463,152.6288 C131.018585,152.966851 131.423097,153.089108 131.913764,152.897928" id="Fill-25" fill="#FF694D"></path>
                                <path d="M107.410626,67.2681436 L109.1296,63.7538872 C109.429908,63.1385026 110.128985,62.8168615 110.600779,63.0777846 L121.972267,69.3317333 C122.337395,69.5319385 122.446523,70.0209641 122.23401,70.5017846 L121.939446,71.1705026 C121.69001,71.7341949 121.090215,72.0894769 120.604472,71.9598359 L107.809395,68.5514256 C107.313805,68.4193231 107.132472,67.836759 107.410626,67.2681436" id="Fill-29" fill="#6F6CAC"></path>
                                <path d="M115.200656,107.611856 L116.91881,104.0976 C117.219118,103.482215 117.918195,103.161395 118.39081,103.421497 L129.762297,109.675446 C130.126605,109.876472 130.235733,110.364677 130.023221,110.845497 L129.728656,111.514215 C129.479221,112.077908 128.880246,112.43319 128.393682,112.303549 L115.598605,108.895138 C115.103836,108.763036 114.922503,108.180472 115.200656,107.611856" id="Fill-31" fill="#F67C36"></path>
                                <path d="M103.603692,44.1781327 C104.270769,44.1660308 104.823795,44.7075692 104.823795,45.3787487 C104.822974,46.2140308 104.810667,47.4973128 104.760615,49.2901333 C104.676103,52.3276718 101.653333,53.7922872 99.4469744,54.8614154 C98.752,55.1978256 97.8010256,55.6581333 97.6131282,55.9026462 C97.4892308,56.0815179 97.4441026,56.790441 97.4121026,57.3090051 C97.3029744,59.0632615 97.1208205,61.9990564 93.7485128,63.475159 C90.2047179,65.0251077 90.2047179,65.0251077 89.5942564,70.3215179 C89.1241026,74.3929026 86.6724103,76.2521846 84.6957949,76.9217231 C83.9540513,77.1736205 83.169641,76.6501333 83.1146667,75.8616205 L83.0449231,74.8491077 L83.1269744,76.0380308 L83.1163077,75.8960821 C83.0744615,75.3512615 83.392,74.8326974 83.9072821,74.6669538 C85.0387692,74.3010051 86.8701538,73.2187487 87.2393846,70.0203897 C87.9195897,64.1291077 88.2715897,63.2618256 92.7819487,61.2884923 C94.8438974,60.3859282 94.9431795,58.8056205 95.0465641,57.1334154 C95.1081026,56.1619282 95.1647179,55.2445949 95.6668718,54.5209026 C96.1739487,53.7906462 97.1561026,53.3155692 98.3975385,52.7124923 C100.157538,51.8608 102.346667,50.7990564 102.391795,49.1965949 C102.441026,47.4357744 102.454154,46.1705436 102.454154,45.3533128 C102.454154,44.7083897 102.962872,44.1906462 103.603692,44.1781327" id="Fill-35" fill="#FF694D"></path>
                                <path d="M85.8585436,12.9932718 C85.8757744,12.3261949 85.3375179,11.7690667 84.6663385,11.7649641 C83.8302359,11.760041 82.5477744,11.7649641 80.7541333,11.8035282 C77.7165949,11.8691692 76.2331077,14.8820923 75.1492103,17.0818872 C74.8086974,17.7744 74.3418256,18.7220923 74.0964923,18.9083487 C73.9159795,19.0314256 73.2070564,19.0716308 72.6893128,19.1003487 C70.9342359,19.1979897 67.9968,19.3629128 66.4993641,22.7245538 C64.926441,26.2593231 64.926441,26.2593231 59.6259282,26.8353231 C55.5512615,27.2792205 53.6772103,29.7194256 52.9945436,31.6911179 C52.7385436,32.4312205 53.2571077,33.2197333 54.0456205,33.2796308 L55.0573128,33.3551179 L53.8683897,33.2656821 L54.0103385,33.2779897 C54.555159,33.3222974 55.0753641,33.0088615 55.2443897,32.4944 C55.6185436,31.3653744 56.7131077,29.5397333 59.9122872,29.1918359 C65.8076718,28.5493744 66.6774154,28.2031179 68.6794667,23.7058872 C69.5959795,21.6488615 71.1754667,21.5594256 72.8501333,21.4667077 C73.8208,21.4125538 74.7389538,21.3608615 75.4651077,20.8636308 C76.1994667,20.3606564 76.6802872,19.3826051 77.2915692,18.1436308 C78.1539282,16.3901949 79.2296205,14.2068103 80.8320821,14.1723487 C82.5937231,14.1354256 83.8597744,14.1305026 84.6770051,14.1354256 C85.3211077,14.1387077 85.8421333,13.6340923 85.8585436,12.9932718" id="Fill-37" fill="#FF694D"></path>
                                <path d="M25.3128205,60.0285128 C25.3259487,59.5148718 24.9124103,59.0873846 24.3963077,59.0849231 C23.7546667,59.0808205 22.7675897,59.0849231 21.3891282,59.113641 C19.0539487,59.1636923 17.9134359,61.4808205 17.0806154,63.1710769 C16.8180513,63.7035897 16.4603077,64.4322051 16.2715897,64.5749744 C16.1329231,64.6701538 15.5872821,64.7005128 15.1893333,64.7234872 C13.8412308,64.7981538 11.5831795,64.9245128 10.4311795,67.5091282 C9.22338462,70.2258462 9.22338462,70.2258462 5.14871795,70.6689231 C2.016,71.0102564 0.576,72.8851282 0.0508717949,74.4014359 C-0.146051282,74.9708718 0.251897436,75.5764103 0.85825641,75.6215385 L1.63692308,75.6797949 L0.722051282,75.6116923 L0.831179487,75.6207179 C1.25046154,75.6551795 1.65005128,75.4139487 1.78051282,75.0192821 C2.06687179,74.1511795 2.90871795,72.7472821 5.36779487,72.4806154 C9.90030769,71.9858462 10.5682051,71.72 12.1074872,68.262359 C12.8114872,66.6812308 14.0266667,66.6131282 15.3124103,66.5417436 C16.0598974,66.4998974 16.7647179,66.4605128 17.3243077,66.0781538 C17.888,65.6916923 18.2580513,64.9392821 18.7273846,63.9874872 C19.390359,62.6402051 20.2174359,60.9622564 21.4490256,60.934359 C22.8028718,60.905641 23.776,60.902359 24.4045128,60.905641 C24.8992821,60.9089231 25.2996923,60.5208205 25.3128205,60.0285128" id="Fill-39" fill="#FF694D"></path>
                                <path d="M143.850503,96.4139077 C144.556964,95.9831385 145.487426,96.2161641 145.906708,96.9349333 C146.429374,97.8284718 147.217067,99.2077538 148.284554,101.157292 C150.092964,104.459036 147.776656,107.915856 146.085579,110.439754 C145.552246,111.23319 144.823631,112.320369 144.775221,112.698626 C144.754708,112.968574 145.150195,113.754626 145.439836,114.328164 C146.420349,116.272779 148.060554,119.527754 145.376656,123.214318 C142.556554,127.088779 142.556554,127.088779 145.215836,133.135138 C147.258913,137.784164 145.799221,141.304985 144.104862,143.257805 C143.468144,143.990523 142.301374,143.9216 141.74999,143.111754 L141.042708,142.072164 L141.873887,143.293908 L141.773785,143.148677 C141.388144,142.591549 141.403733,141.838318 141.850092,141.338626 C142.832246,140.239959 144.113887,137.935959 142.508964,134.285497 C139.552656,127.558933 139.386913,126.411856 142.976656,121.480574 C144.618503,119.225805 143.73481,117.47401 142.801067,115.619651 C142.258708,114.543959 141.745887,113.525703 141.829579,112.438523 C141.915733,111.339856 142.668144,110.217395 143.620759,108.797087 C144.968862,106.78519 146.64681,104.280985 145.693374,102.539036 C144.644759,100.623959 143.866913,99.2635487 143.355733,98.3888821 C142.952862,97.6996513 143.172759,96.8274462 143.850503,96.4139077" id="Fill-41" fill="#FF694D"></path>
                                <path d="M65.1597949,94.3346462 C65.7292308,93.9867487 66.4808205,94.1754667 66.8188718,94.7555692 C67.2406154,95.4768 67.8773333,96.5902359 68.7388718,98.163159 C70.1985641,100.828185 68.3286154,103.617928 66.9632821,105.655262 C66.5333333,106.296082 65.9450256,107.17321 65.905641,107.479262 C65.8892308,107.696697 66.2084103,108.331774 66.4414359,108.794544 C67.2332308,110.364185 68.5575385,112.990646 66.3922051,115.966646 C64.1152821,119.094441 64.1152821,119.094441 66.2617436,123.974851 C67.9109744,127.726236 66.7327179,130.568492 65.3641026,132.144697 C64.8504615,132.737108 63.9093333,132.680492 63.4646154,132.027364 L62.8927179,131.187979 L63.5638974,132.173415 L63.4826667,132.056903 C63.1716923,131.608082 63.1848205,131.000082 63.5450256,130.595569 C64.337641,129.709415 65.3723077,127.849313 64.0767179,124.903672 C61.6898462,119.474338 61.5561026,118.547979 64.4541538,114.566851 C65.7792821,112.746954 65.0670769,111.334031 64.3122051,109.837415 C63.8748718,108.968492 63.4605128,108.147159 63.5286154,107.26921 C63.598359,106.383056 64.2055385,105.47639 64.9735385,104.330133 C66.062359,102.705518 67.4170256,100.684595 66.6465641,99.2782359 C65.7997949,97.7332103 65.1721026,96.6345436 64.7602051,95.9289026 C64.4352821,95.3725949 64.6125128,94.6685949 65.1597949,94.3346462" id="Fill-43" fill="#10B584"></path>
                                <path d="M127.330462,79.8626872 C128.78359,77.3486359 131.999179,76.4887385 134.514051,77.9410462 C137.027282,79.3949949 137.888,82.6105846 136.435692,85.1246359 C134.981744,87.6395077 131.765333,88.4985846 129.252103,87.0462769 C126.737231,85.5923282 125.877333,82.3767385 127.330462,79.8626872" id="Fill-45" fill="#04788E"></path>
                                <path d="M60.6669949,77.3739077 C61.6040205,75.7525744 63.6774564,75.1987282 65.2987897,76.1357538 C66.9193026,77.0727795 67.4739692,79.1462154 66.5369436,80.7675487 C65.6007385,82.3880615 63.5264821,82.9427282 61.9059692,82.0065231 C60.2846359,81.0686769 59.7299692,78.9960615 60.6669949,77.3739077" id="Fill-47" fill="#04788E"></path>
                                <path d="M79.3601641,126.038113 C80.0518564,124.840164 81.5837538,124.430728 82.7808821,125.123241 C83.9788308,125.814933 84.3882667,127.346831 83.6965744,128.543959 C83.0040615,129.741908 81.4721641,130.151344 80.2750359,129.459651 C79.0770872,128.767138 78.6676513,127.235241 79.3601641,126.038113" id="Fill-49" fill="#04788E"></path>
                                <path d="M94.0772923,85.1952 C94.7698051,83.9972513 96.3008821,83.5878154 97.4988308,84.2803282 C98.695959,84.972841 99.1062154,86.5039179 98.4137026,87.7018667 C97.7211897,88.8989949 96.1901128,89.3092513 94.9921641,88.6167385 C93.7950359,87.9242256 93.3847795,86.3923282 94.0772923,85.1952" id="Fill-51" fill="#10B584"></path>
                                <path d="M45.1021128,84.3289846 C45.7938051,83.1310359 47.3257026,82.7216 48.5228308,83.4141128 C49.7207795,84.1066256 50.1302154,85.6377026 49.4385231,86.8356513 C48.7460103,88.0327795 47.2141128,88.4422154 46.0169846,87.7505231 C44.8190359,87.0580103 44.4096,85.5261128 45.1021128,84.3289846" id="Fill-53" fill="#10B584"></path>
                                <path d="M117.278359,51.8842667 C117.970872,50.6863179 119.502769,50.2768821 120.699897,50.9693949 C121.897846,51.6610872 122.307282,53.1929846 121.614769,54.3901128 C120.922256,55.5880615 119.391179,55.9974974 118.193231,55.3058051 C116.996103,54.6132923 116.585846,53.0813949 117.278359,51.8842667" id="Fill-55" fill="#FFAC51"></path>
                                <path d="M83.7287385,25.1174974 C84.4212513,23.9195487 85.9523282,23.5101128 87.1502769,24.2026256 C88.3474051,24.8943179 88.7576615,26.4262154 88.0651487,27.6241641 C87.3726359,28.8212923 85.841559,29.2307282 84.6436103,28.5390359 C83.4464821,27.8465231 83.0362256,26.3146256 83.7287385,25.1174974" id="Fill-57" fill="#10B584"></path>
                                <path d="M149.7792,128.877087 C150.471713,127.679959 152.00279,127.269703 153.200738,127.962215 C154.397867,128.654728 154.808123,130.185805 154.11561,131.383754 C153.423097,132.580882 151.8912,132.991138 150.694072,132.298626 C149.496123,131.606113 149.086687,130.074215 149.7792,128.877087" id="Fill-59" fill="#04788E"></path>
                                <path d="M117.345723,118.154297 C118.037415,116.957169 119.569313,116.547733 120.766441,117.239426 C121.96439,117.931938 122.373826,119.463836 121.681313,120.660964 C120.989621,121.858913 119.457723,122.268349 118.260595,121.575836 C117.062646,120.884144 116.65321,119.352246 117.345723,118.154297" id="Fill-61" fill="#FFAC51"></path>
                                <path d="M57.3176615,13.4075487 C58.0101744,12.2096 59.5420718,11.8001641 60.7392,12.4926769 C61.9371487,13.1843692 62.3465846,14.7162667 61.6540718,15.9133949 C60.9623795,17.1113436 59.4304821,17.5207795 58.2325333,16.8282667 C57.0354051,16.1365744 56.6259692,14.6046769 57.3176615,13.4075487" id="Fill-63" fill="#FFAC51"></path>
                                <path d="M125.025149,17.4067282 C125.962174,15.7853949 128.03561,15.2307282 129.656944,16.1677538 C131.277456,17.1047795 131.832123,19.1782154 130.895097,20.7995487 C129.958072,22.4200615 127.884636,22.9747282 126.264123,22.0385231 C124.641969,21.1014974 124.087303,19.0280615 125.025149,17.4067282" id="Fill-67" fill="#04788E"></path>
                                <path d="M30.7912205,46.9949128 C31.9095795,45.0601436 34.3850667,44.3979897 36.3190154,45.5163487 C38.2546051,46.6347077 38.9159385,49.1093744 37.7984,51.0449641 C36.680041,52.9789128 34.2045538,53.6410667 32.2706051,52.5227077 C30.3350154,51.4043487 29.6736821,48.9288615 30.7912205,46.9949128" id="Fill-69" fill="#FFAC51"></path>
                                <path d="M58.6084923,71.0926359 C58.6084923,71.0926359 50.5559795,72.2790974 46.0054154,66.9219692 C41.2365949,61.308841 38.5198769,80.0600205 29.0856205,78.908841 C19.6505436,77.7576615 21.1168,82.6192 21.1168,82.6192 L18.0062359,81.0864821 C18.0062359,81.0864821 17.7469538,73.9701744 28.9354667,75.4503795 C36.0140308,76.3865846 36.6474667,75.1254564 38.2852103,70.6274051 C39.9229538,66.1285333 44.4029538,60.8477128 47.2722872,64.5113026 C52.9387487,71.7465846 58.6084923,71.0926359 58.6084923,71.0926359" id="Fill-81" fill="#6F6CAC"></path>
                                <path d="M33.7294769,77.7561026 C39.6068103,73.8996923 42.1282462,62.3575385 46.0051692,66.9220513 C50.5557333,72.2791795 58.6082462,71.0927179 58.6082462,71.0927179 C58.6082462,71.0927179 52.9385026,71.7466667 47.272041,64.5105641 C44.4027077,60.8477949 39.9227077,66.1286154 38.2857846,70.6274872 C37.896041,71.6957949 37.5637333,72.5794872 37.1879385,73.2966154 C37.1879385,73.2966154 36.2369641,75.7581538 33.7294769,77.7561026" id="Fill-83" fill="#6F6CAC"></path>
                                <path d="M28.9354667,75.4499692 C17.7469538,73.9697641 18.0062359,81.0860718 18.0062359,81.0860718 L21.1168,82.6187897 C21.1168,82.6187897 19.6505436,77.7580718 29.0856205,78.9092513 C30.8489026,79.1242256 32.3775179,78.6434051 33.7297231,77.7564308 C36.2363897,75.7584821 37.1881846,73.2969436 37.1881846,73.2969436 C35.9828513,75.5993026 34.3319795,76.1638154 28.9354667,75.4499692" id="Fill-85" fill="#6F6CAC"></path>
                                <path d="M41.2743385,65.5405538 C40.0189538,66.9608615 38.9309538,68.8537846 38.2852103,70.6269128 C37.8962872,71.696041 37.5639795,72.5797333 37.1881846,73.2968615 C37.1881846,73.2968615 36.2363897,75.7584 33.7297231,77.7563487 C39.6070564,73.8999385 42.1284923,62.3577846 46.0054154,66.9222974 C43.9853128,63.5179897 42.1112615,64.7003487 41.2743385,65.5405538" id="Fill-87" fill="#5C5A7F"></path>
                                <path d="M58.6084923,71.0926359 C58.6084923,71.0926359 52.9387487,71.7465846 47.2722872,64.5113026 C45.5328,62.2909949 43.2050051,63.356841 41.2743385,65.5402256 C42.1112615,64.7000205 43.9853128,63.5184821 46.0054154,66.9219692 C50.5559795,72.2790974 58.6084923,71.0926359 58.6084923,71.0926359" id="Fill-89" fill="#6F6CAC"></path>
                                <path d="M103.393805,108.752123 C105.443446,122.076431 96.9388308,121.945994 96.9388308,121.945994 L95.0294974,118.270892 C95.0294974,118.270892 100.872369,119.89879 99.259241,108.660226 C98.9581128,106.558892 99.4930872,104.720944 100.517908,103.084021 C102.8416,100.039918 105.756882,98.8419692 105.756882,98.8419692 C103.038523,100.339405 102.405087,102.324226 103.393805,108.752123" id="Fill-95" fill="#04788E"></path>
                                <path d="M114.917005,93.7648821 C113.253005,95.3008821 111.019569,96.6481641 108.917415,97.4637538 C107.651364,97.9544205 106.603569,98.3745231 105.7568,98.8413949 C105.7568,98.8413949 102.841518,100.039344 100.517826,103.083446 C104.976492,95.9671385 118.696287,92.6645744 113.1488,88.1501128 C117.263672,90.4762667 115.899979,92.7458051 114.917005,93.7648821" id="Fill-97" fill="#226E80"></path>
                                <path d="M107.849682,73.2039795 C107.849682,73.2039795 107.212144,79.990441 115.995733,86.5766974 C118.690297,88.5968 117.475938,91.4045949 114.916759,93.7652103 C115.900554,92.7453128 117.264246,90.4765949 113.148554,88.150441 C106.636144,82.8507487 107.849682,73.2039795 107.849682,73.2039795" id="Fill-99" fill="#04788E"></path>
                            </g>
                        </g>
                    </g>
                </g>
            </g>
        </g>
    </g>
</svg>