<svg xmlns="http://www.w3.org/2000/svg" xmlns:xlink="http://www.w3.org/1999/xlink" width="179" height="188"><style><![CDATA[.B{fill:#04788e}.C{fill:#10b584}.D{fill:#ff694d}.E{fill:#ffac51}.F{fill:#6f6cac}.G{fill:#f67c36}]]></style><defs><filter x="-22.6%" y="-11.8%" width="145.2%" height="127.7%" id="A"><feOffset dy="10" in="SourceAlpha"/><feGaussianBlur stdDeviation="7.5"/><feColorMatrix values="0 0 0 0 0 0 0 0 0 0 0 0 0 0 0 0 0 0 0.1 0" result="C"/><feMerge><feMergeNode in="C"/><feMergeNode in="SourceGraphic"/></feMerge></filter><filter x="-16.4%" y="-17.6%" width="132.7%" height="135.3%" id="B"><feOffset dy="10" in="SourceAlpha"/><feGaussianBlur stdDeviation="2"/><feColorMatrix values="0 0 0 0 0.165 0 0 0 0 0.224 0 0 0 0 0.259 0 0 0 0.1 0" result="C"/><feMerge><feMergeNode in="C"/><feMergeNode in="SourceGraphic"/></feMerge></filter><path id="C" d="M94.077 85.195c.693-1.198 2.224-1.607 3.422-.915s1.607 2.224.915 3.422-2.224 1.607-3.422.915-1.607-2.224-.915-3.422"/></defs><g filter="url(#A)" transform="translate(8 2)" fill="none" fill-rule="evenodd"><g filter="url(#B)" transform="matrix(-.97437 .224951 .224951 .97437 140.676775 -23.597772)"><path d="M138.548 59.378l.235.13c2.067 1.103 4.5 1.22 5.92.287.753-.496 1.095-1.228 1.017-2.178-.15-1.818-2.1-2.76-3.88-3.034-2.136-.33-4.632.172-6.345 1.623.865 1.646 2.102 2.622 3.05 3.17m-1.945-10.536c3.376 1.95 6.286.665 7.262.11 1.86-1.06 2.842-2.73 2.56-3.57-.42-1.244-3.01-2.273-5.845-1.794-1.397.237-4.18 1.095-5.46 4.2.5.427.996.774 1.482 1.054m1.473-11.464c2.01 1.16 4.08 1.163 5.583.647 1.383-.475 2.32-1.392 2.388-2.334.07-.965-.784-1.958-2.393-2.776-3.104-1.588-6.333-.418-8.565 1.663a13.35 13.35 0 0 0 .843 1.036 8.83 8.83 0 0 0 2.143 1.763m2-13.08h0c.04.46-.266.863-.713.972-1.904.462-4.505 1.974-5.364 4.153-.435 1.106-.384 2.287.15 3.532 2.715-2.365 6.57-3.603 10.34-1.675 3.106 1.59 3.46 3.53 3.386 4.54-.12 1.704-1.51 3.213-3.622 3.94-2.608.897-6.52.598-9.687-2.92-.264-.295-.506-.585-.725-.87-2.123 2.852-2.982 7.087-.186 10.345l.075.086c1.79-3.497 5.234-4.404 6.544-4.624 3.645-.617 7.11.708 7.89 3.015.618 1.827-.84 4.3-3.4 5.752-2.65 1.508-6.486 1.9-10.18-.84-.097.602-.147 1.265-.14 1.99.01 1.014.136 1.9.345 2.7 2.136-1.547 4.96-1.99 7.322-1.628 3.15.488 5.23 2.285 5.43 4.697.134 1.622-.52 2.993-1.84 3.86-1.986 1.306-5.118 1.226-7.79-.2-1.543-.818-2.78-1.997-3.673-3.44-.13.222-.247.458-.348.705-1.032 2.523-1.005 4.718.08 6.345 1.178 1.767 3.554 2.82 6.74 3 .495.03.888.423.884.918v.01a.92.92 0 0 1-.984.905c-3.78-.217-6.66-1.552-8.167-3.816-1.438-2.157-1.526-4.944-.254-8.057a7.6 7.6 0 0 1 1.127-1.912c-.453-1.24-.695-2.6-.7-4.074-.01-1.3.133-2.414.4-3.395a15.57 15.57 0 0 1-.742-.807c-3.55-4.134-2.402-9.457.308-12.9l.215-.265c-1.24-2.35-1.015-4.274-.495-5.595 1.144-2.9 4.304-4.69 6.642-5.262a.92.92 0 0 1 1.142.809" class="D"/><path d="M98.327 16.444l-.176-.105c-1.508-.94-2.507-2.498-2.432-3.785.04-.683.393-1.186 1.047-1.494 1.253-.592 2.612.336 3.466 1.4 1.026 1.28 1.643 3.11 1.337 4.788a5.98 5.98 0 0 1-3.243-.805m7.67-2.714c-2.563-1.48-2.82-3.883-2.825-4.736-.008-1.626.72-2.905 1.38-3.037.977-.196 2.635 1.118 3.395 3.165.374 1.01.865 3.166-.694 5.184-.47-.168-.887-.363-1.255-.576m6.983-5.314c-1.525-.88-2.31-2.242-2.542-3.427-.212-1.1.036-2.054.63-2.455.6-.41 1.586-.226 2.733.522 2.22 1.44 2.675 4.007 2.15 6.264-.318-.034-.65-.088-1-.162-.76-.162-1.416-.42-1.973-.74m7.846-6.274h0c-.318.148-.467.502-.37.838.418 1.428.41 3.712-.7 5.104-.562.704-1.36 1.118-2.38 1.24.526-2.682-.12-5.69-2.818-7.438-2.224-1.44-3.632-.938-4.27-.506-1.074.725-1.542 2.2-1.218 3.874.398 2.056 2.078 4.518 5.59 5.266l.848.15c-1.072 2.477-3.53 4.647-6.736 4.043l-.084-.017c1.62-2.502.912-5.11.56-6.057-.975-2.63-3.16-4.41-4.972-4.047-1.438.286-2.512 2.183-2.5 4.41.012 2.314 1.216 4.983 4.413 6.378-.36.293-.777.576-1.257.847-.67.378-1.31.635-1.908.797.208-1.99-.57-4.016-1.706-5.434-1.515-1.888-3.486-2.574-5.146-1.8-1.118.527-1.773 1.476-1.844 2.673-.107 1.8 1.133 3.83 3.084 5.05 1.123.706 2.367 1.073 3.655 1.114-.097.17-.208.336-.33.495-1.27 1.636-2.723 2.45-4.205 2.352-1.6-.105-3.2-1.27-4.53-3.297-.206-.314-.615-.423-.94-.233l-.006.004c-.346.203-.442.654-.222 1 1.575 2.404 3.544 3.792 5.605 3.926 1.965.128 3.83-.87 5.397-2.887.363-.468.637-.96.83-1.466.986-.172 1.98-.532 2.95-1.077.853-.48 1.538-1.002 2.086-1.543l.812.182c4.065.767 7.132-2.005 8.368-5.09l.093-.243c2.017-.075 3.197-.952 3.87-1.795 1.475-1.85 1.455-4.61.945-6.364a.7.7 0 0 0-.966-.445" class="C"/><path d="M118.528 41.28l-3.743-1.136c-.656-.2-1.085-.837-.903-1.345l4.36-12.224c.14-.39.606-.578 1.114-.445l.706.185c.597.156 1.043.69.993 1.192l-1.324 13.174c-.052.51-.598.783-1.204.598" class="G"/><g class="C"><path d="M153.347 88.635l-3.87.57c-.678.1-1.337-.295-1.4-.83l-1.273-12.917c-.04-.414.3-.78.817-.877l.72-.135c.606-.114 1.237.18 1.406.655l4.425 12.48c.17.484-.208.963-.834 1.055"/><path d="M159.507 121.265l-3.435-1.873c-.6-.33-.9-1.04-.6-1.5l6.757-11.08c.217-.356.7-.443 1.18-.21l.655.324c.553.274.88.89.73 1.37l-3.977 12.63c-.155.5-.744.644-1.3.34"/><path d="M83.733 42.853l-.525-3.878c-.092-.678.3-1.333.848-1.38l12.93-1.12c.414-.036.778.31.868.826l.126.72c.107.608-.195 1.236-.67 1.398l-12.53 4.277c-.485.166-.96-.217-1.045-.844"/></g><path d="M65.23 57.427l3.606-1.518c.63-.265 1.368-.048 1.553.46l4.454 12.2c.143.39-.096.832-.573 1.055l-.662.31c-.56.26-1.244.134-1.525-.283l-7.397-10.983c-.287-.426-.04-.984.543-1.23" class="B"/><path d="M55.016 55.095l-2.794-2.738c-.49-.48-.574-1.244-.178-1.6l9.52-8.82c.306-.283.804-.233 1.194.12l.542.49c.456.414.604 1.095.328 1.515L56.36 55.12c-.282.43-.892.417-1.344-.026" class="G"/><path d="M82.425 108.343l-3.06-2.36c-.536-.413-.822-1.088-.604-1.42l5.265-8.04c.17-.258.59-.226 1.01.078l.582.422c.49.357.805.956.7 1.335l-2.786 9.978c-.108.387-.6.39-1.105.01" class="E"/><path d="M38.647 102.266l1.164-3.685c.203-.645.738-1.146 1.127-1.055l9.36 2.18c.3.07.415.477.273.974l-.196.692c-.165.583-.62 1.084-1.013 1.116l-10.33.812c-.4.03-.576-.438-.388-1.035" class="D"/><path d="M116.098 137.228l2.612-2.848c.457-.498.624-1.213.35-1.505l-6.562-7.02c-.21-.226-.62-.12-.98.25l-.5.515c-.423.436-.63 1.08-.46 1.435l4.452 9.355c.173.363.667.28 1.1-.18" class="F"/><path d="M131.914 152.898l3.033-1.18c.53-.207.922-.684.825-1.007l-2.348-7.747c-.075-.25-.423-.322-.834-.176l-.57.203c-.482.17-.877.582-.882.913l-.114 8.725c-.005.338.4.46.9.27" class="D"/><path d="M107.41 67.268l1.72-3.514c.3-.615 1-.937 1.47-.676l11.37 6.254c.365.2.474.69.262 1.17l-.295.67c-.25.564-.85.92-1.335.79L107.81 68.55c-.496-.132-.677-.715-.4-1.283" class="F"/><path d="M115.2 107.612l1.718-3.514c.3-.615 1-.936 1.472-.676l11.37 6.254c.364.2.473.69.26 1.17l-.295.67c-.25.564-.848.92-1.335.79l-12.795-3.408c-.495-.132-.676-.715-.398-1.283" class="G"/><g class="D"><path d="M103.604 44.178c.667-.012 1.22.53 1.22 1.2l-.063 3.91c-.085 3.038-3.107 4.502-5.314 5.57-.695.336-1.646.797-1.834 1.04-.124.18-.17.888-.2 1.406-.11 1.754-.29 4.7-3.664 6.166-3.544 1.55-3.544 1.55-4.154 6.846-.47 4.07-2.922 5.93-4.898 6.6-.742.252-1.526-.272-1.58-1.06l-.07-1.013.082 1.19-.01-.142c-.042-.545.276-1.063.79-1.23 1.13-.366 2.963-1.448 3.332-4.647.68-5.89 1.032-6.76 5.543-8.732 2.062-.903 2.16-2.483 2.265-4.155.062-.97.118-1.89.62-2.613.507-.73 1.49-1.205 2.73-1.808 1.76-.852 3.95-1.913 3.994-3.516l.062-3.843a1.17 1.17 0 0 1 1.15-1.175"/><path d="M85.86 12.993a1.2 1.2 0 0 0-1.192-1.228c-.836-.005-2.12 0-3.912.04-3.038.066-4.52 3.08-5.605 5.278-.34.693-.807 1.64-1.053 1.826-.18.123-.89.163-1.407.192-1.755.098-4.693.263-6.2 3.624-1.573 3.535-1.573 3.535-6.873 4.11-4.075.444-5.95 2.884-6.63 4.856-.256.74.263 1.53 1.05 1.59l1.012.075-1.19-.09.142.012c.545.044 1.065-.27 1.234-.784.374-1.13 1.47-2.955 4.668-3.303 5.895-.642 6.765-.99 8.767-5.486.917-2.057 2.496-2.146 4.17-2.24.97-.054 1.89-.106 2.615-.603.734-.503 1.215-1.48 1.826-2.72.862-1.753 1.938-3.937 3.54-3.97l3.845-.037a1.17 1.17 0 0 0 1.182-1.142"/><path d="M25.313 60.03a.92.92 0 0 0-.917-.944c-.642-.004-1.63 0-3.007.03-2.335.05-3.476 2.367-4.31 4.057-.263.533-.62 1.26-.81 1.404-.14.095-.684.126-1.082.15-1.348.075-3.606.2-4.758 2.786-1.208 2.717-1.208 2.717-5.282 3.16C2.016 71 .576 72.885.05 74.4c-.197.57.2 1.175.807 1.22l.78.058-.915-.068.11.01c.42.034.82-.207.95-.6.286-.868 1.128-2.272 3.587-2.54 4.533-.495 5.2-.76 6.74-4.218.704-1.58 1.92-1.65 3.205-1.72.747-.042 1.452-.08 2.012-.464s.934-1.14 1.403-2.09c.663-1.347 1.5-3.025 2.722-3.053l2.955-.03a.9.9 0 0 0 .908-.877"/><path d="M143.85 96.414a1.49 1.49 0 0 1 2.056.521l2.378 4.222c1.808 3.302-.508 6.76-2.2 9.282-.533.793-1.262 1.88-1.3 2.26-.02.27.375 1.056.665 1.63.98 1.945 2.62 5.2-.063 8.886-2.82 3.874-2.82 3.874-.16 9.92 2.043 4.65.583 8.17-1.11 10.123-.637.733-1.803.664-2.355-.146l-.707-1.04.83 1.222-.1-.145c-.386-.557-.37-1.3.076-1.8.982-1.1 2.264-3.403.66-7.053-2.956-6.727-3.122-7.874.468-12.805 1.642-2.255.758-4.007-.176-5.86-.542-1.076-1.055-2.094-.97-3.18.086-1.1.84-2.22 1.79-3.64 1.348-2.012 3.026-4.516 2.073-6.258l-2.338-4.15a1.45 1.45 0 0 1 .495-1.975"/></g><path d="M65.16 94.335a1.2 1.2 0 0 1 1.659.421l1.92 3.408c1.46 2.665-.4 5.455-1.776 7.492-.43.64-1.018 1.518-1.058 1.824-.016.217.303.853.536 1.315.792 1.57 2.116 4.196-.05 7.172-2.277 3.128-2.277 3.128-.13 8.008 1.65 3.75.47 6.594-.898 8.17-.514.592-1.455.536-1.9-.117l-.572-.84.67.985-.08-.117c-.31-.45-.298-1.057.062-1.46.793-.886 1.827-2.746.532-5.692-2.387-5.43-2.52-6.356.377-10.337 1.325-1.82.613-3.233-.142-4.73-.437-.87-.852-1.7-.784-2.568.07-.886.677-1.793 1.445-2.94 1.09-1.625 2.443-3.646 1.673-5.052l-1.886-3.35a1.17 1.17 0 0 1 .4-1.594" class="C"/><g class="B"><path d="M127.33 79.863a5.26 5.26 0 0 1 7.184-1.922 5.26 5.26 0 0 1 1.922 7.184 5.26 5.26 0 0 1-7.184 1.922 5.26 5.26 0 0 1-1.922-7.184"/><path d="M60.667 77.374a3.39 3.39 0 0 1 5.87 3.394 3.39 3.39 0 0 1-5.87-3.394"/><path d="M79.36 126.038c.692-1.198 2.224-1.607 3.42-.915s1.607 2.224.916 3.42-2.224 1.607-3.422.916-1.607-2.224-.915-3.422"/></g><g class="C"><use xlink:href="#C"/><path d="M45.102 84.33c.692-1.198 2.224-1.607 3.42-.915s1.607 2.224.916 3.422-2.224 1.607-3.422.915-1.607-2.224-.915-3.422"/></g><path d="M117.278 51.884c.693-1.198 2.224-1.607 3.422-.915s1.607 2.224.915 3.42-2.224 1.607-3.422.916-1.607-2.224-.915-3.422" class="E"/><use xlink:href="#C" x="-10.347" y="-60.078" class="C"/><path d="M149.78 128.877c.693-1.197 2.224-1.607 3.422-.915s1.607 2.224.915 3.422-2.224 1.607-3.422.915-1.607-2.224-.915-3.422" class="B"/><g class="E"><path d="M117.346 118.154c.692-1.197 2.224-1.607 3.42-.915s1.607 2.224.915 3.422-2.224 1.607-3.42.915-1.607-2.224-.915-3.422"/><path d="M57.318 13.408C58 12.2 59.542 11.8 60.74 12.493s1.607 2.224.915 3.42-2.224 1.607-3.422.915-1.607-2.224-.915-3.42"/></g><path d="M125.025 17.407a3.39 3.39 0 1 1 5.87 3.393 3.39 3.39 0 0 1-5.87-3.393" class="B"/><path d="M30.79 46.995c1.118-1.935 3.594-2.597 5.528-1.48a4.05 4.05 0 0 1 1.479 5.529 4.05 4.05 0 0 1-5.528 1.478 4.05 4.05 0 0 1-1.479-5.528" class="E"/><g class="F"><path d="M58.608 71.093s-8.053 1.186-12.603-4.17c-4.77-5.613-7.486 13.138-16.92 11.987s-7.97 3.7-7.97 3.7l-3.11-1.533s-.26-7.116 10.93-5.636c7.08.936 7.712-.325 9.35-4.823s6.118-9.78 8.987-6.116c5.666 7.235 11.336 6.58 11.336 6.58"/><path d="M33.73 77.756c5.877-3.856 8.4-15.4 12.276-10.834 4.55 5.357 12.603 4.17 12.603 4.17s-5.67.654-11.336-6.582c-2.87-3.663-7.35 1.618-8.986 6.117-.4 1.068-.722 1.952-1.098 2.67 0 0-.95 2.462-3.458 4.46"/><path d="M28.935 75.45c-11.19-1.48-10.93 5.636-10.93 5.636l3.11 1.533s-1.466-4.86 7.97-3.7c1.763.215 3.292-.266 4.644-1.153 2.507-1.998 3.458-4.46 3.458-4.46-1.205 2.302-2.856 2.867-8.253 2.153"/></g><path d="M41.274 65.54c-1.255 1.42-2.343 3.313-2.99 5.086l-1.097 2.67s-.952 2.462-3.458 4.46c5.877-3.856 8.4-15.4 12.276-10.834-2.02-3.404-3.894-2.222-4.73-1.382" fill="#5c5a7f"/><path d="M58.608 71.093s-5.67.654-11.336-6.58c-1.74-2.22-4.067-1.154-5.998 1.03.837-.84 2.71-2.022 4.73 1.382 4.55 5.357 12.603 4.17 12.603 4.17" class="F"/><path d="M103.394 108.752c2.05 13.324-6.455 13.194-6.455 13.194l-1.91-3.675s5.843 1.628 4.23-9.61c-.3-2.1.234-3.94 1.26-5.576 2.324-3.044 5.24-4.242 5.24-4.242-2.718 1.497-3.352 3.482-2.363 9.9" class="B"/><path d="M114.917 93.765c-1.664 1.536-3.897 2.883-6 3.7l-3.16 1.378s-2.915 1.198-5.24 4.242c4.46-7.116 18.178-10.42 12.63-14.933 4.115 2.326 2.75 4.596 1.768 5.615" fill="#226e80"/><path d="M107.85 73.204s-.638 6.786 8.146 13.373c2.695 2.02 1.48 4.828-1.08 7.19.984-1.02 2.347-3.29-1.768-5.615-6.512-5.3-5.3-14.946-5.3-14.946" class="B"/></g></g></svg>