<svg xmlns="http://www.w3.org/2000/svg" width="40" height="40"  fill-rule="evenodd" xmlns:v="https://vecta.io/nano"><rect fill="#00d2a8" width="40" height="40" rx="20"/><path d="M17.524 25.098c.039 0 .077-.007.114-.021s.069-.036.097-.067l8.402-8.396a.29.29 0 0 0 .088-.214.29.29 0 0 0-.088-.214c-.059-.059-.129-.088-.211-.088s-.152.029-.211.088l-8.191 8.191-2.789-2.789c-.059-.059-.129-.088-.211-.088s-.152.029-.211.088-.088.129-.088.211.029.152.088.211l3 3c.027.031.06.054.097.067s.075.021.114.021z" stroke="#fff" fill="#fff" fill-rule="nonzero"/></svg>