<svg xmlns="http://www.w3.org/2000/svg" viewBox="0 0 47 49" xmlns:v="https://vecta.io/nano"><g transform="matrix(-.996195 -.087156 -.087156 .996195 46.87919 3.959468)"><g fill-rule="evenodd" fill="#10b584"><path d="M26.1 43.6l2.9-8.2-8.7 1.8z"/><path d="M7.3 7.9l22.4-4.5A4.57 4.57 0 0 1 35.1 7l4.5 22.4a4.57 4.57 0 0 1-3.6 5.4l-22.4 4.5a4.57 4.57 0 0 1-5.4-3.6L3.7 13.3c-.5-2.4 1.1-4.9 3.6-5.4"/></g><path d="M24.5 28.8c.5-.2 1-.4 1.4-.7s.9-.6 1.2-1a6.42 6.42 0 0 0 1-1.3c.3-.4.6-.9.8-1.4s.4-1 .5-1.5.2-1 .2-1.6c0-.5-.1-1.1-.2-1.6a9.83 9.83 0 0 0-.5-1.6c-.2-.5-.4-1-.7-1.4s-.6-.9-1-1.2c-.4-.4-.8-.7-1.2-1-.5-.3-.9-.6-1.4-.8s-1-.4-1.5-.5-1-.2-1.6-.2c-.5 0-1.1.1-1.6.2s-1.1.3-1.5.5c-.5.2-1 .5-1.4.7-.4.3-.9.6-1.2 1-.4.4-.7.8-1 1.2-.3.5-.6.9-.8 1.4s-.4 1-.5 1.5-.2 1-.2 1.6c0 .5 0 1.1.2 1.6.1.5.3 1.1.5 1.5.2.5.5 1 .7 1.4.3.4.6.9 1 1.2.4.4.8.7 1.2 1 .5.3.9.6 1.4.8s1 .4 1.5.5 1 .2 1.6.2c.5 0 1.1-.1 1.6-.2.5 0 1-.1 1.5-.3zM22.9 14c.9.2 1.8.6 2.6 1.1s1.4 1.2 2 2c.5.8.9 1.7 1.1 2.7s.2 2 0 2.9-.6 1.8-1.1 2.6-1.2 1.4-2 2c-.8.5-1.7.9-2.7 1.1s-2 .2-2.9 0-1.8-.6-2.6-1.1-1.4-1.2-2-2c-.5-.8-.9-1.7-1.1-2.7s-.2-2 0-2.9.6-1.8 1.1-2.6 1.2-1.4 2-2c.8-.5 1.7-.9 2.7-1.1s2-.2 2.9 0zm1 10.2l.1-.1 2-3c.1-.1.1-.2.1-.3s-.1-.2-.2-.3-.2-.1-.3-.1-.2.1-.3.2l-1.8 2.7-6.7-4.5c-.1-.1-.2-.1-.3-.1s-.2.1-.3.2-.1.2-.1.3.1.2.2.3l7.1 4.8s.1.1.2.1h.2c0-.2.1-.2.1-.2z" fill="#fff" enable-background="new"/></g></svg>