<svg xmlns="http://www.w3.org/2000/svg" xmlns:xlink="http://www.w3.org/1999/xlink" width="52" height="53"><defs><path d="M16.5 11.2c-.5 0-1-.2-1.3-.5s-.5-.7-.5-1.3V7c0-.5.2-1 .5-1.3s.8-.5 1.3-.5H19c.5 0 1 .2 1.3.5s.5.8.5 1.3v2.4c0 .5-.2 1-.5 1.3s-.8.5-1.3.5h-2.5zm0 8.4c-.5 0-1-.2-1.3-.5s-.5-.8-.5-1.3v-2.4c0-.5.2-1 .5-1.3s.8-.5 1.3-.5H19c.5 0 1 .2 1.3.5s.5.8.5 1.3v2.4c0 .5-.2 1-.5 1.3s-.8.5-1.3.5h-2.5zm0 8.4c-.5 0-1-.2-1.3-.5s-.5-.8-.5-1.3v-2.4c0-.5.2-1 .5-1.3s.8-.5 1.3-.5H19c.5 0 1 .2 1.3.5s.5.8.5 1.3v2.4c0 .5-.2 1-.5 1.3s-.8.5-1.3.5h-2.5zM19 6.4h-2.5c-.2 0-.3.1-.4.2S16 7 16 7v2.4c0 .2.1.3.2.4s.3.2.4.2H19c.2 0 .3-.1.4-.2s.2-.3.2-.4V7c0-.2-.1-.3-.2-.4s-.4-.2-.4-.2zm0 8.4h-2.5c-.2 0-.3.1-.4.2s-.2.3-.2.4v2.4c0 .2.1.3.2.4s.3.2.4.2H19c.2 0 .3-.1.4-.2s.2-.3.2-.4v-2.4c0-.2-.1-.3-.2-.4s-.4-.2-.4-.2zm0 8.4h-2.5c-.2 0-.3.1-.4.2s-.2.3-.2.4v2.4c0 .2.1.3.2.4s.3.2.4.2H19c.2 0 .3-.1.4-.2s.2-.3.2-.4v-2.4c0-.2-.1-.3-.2-.4s-.2-.2-.4-.2zm6-12c-.5 0-1-.2-1.3-.5S23 10 23 9.4V7c0-.5.2-1 .5-1.3s.8-.5 1.3-.5h2.4c.5 0 1 .2 1.3.5s.5.8.5 1.3v2.4c0 .5-.2 1-.5 1.3s-.8.5-1.3.5H25zm0 8.4c-.5 0-1-.2-1.3-.5s-.5-.8-.5-1.3v-2.4c0-.5.2-1 .5-1.3s.8-.5 1.3-.5h2.4c.5 0 1 .2 1.3.5s.5.8.5 1.3v2.4c0 .5-.2 1-.5 1.3s-.8.5-1.3.5H25zm0 8.4c-.5 0-1-.2-1.3-.5s-.5-.8-.5-1.3v-2.4c0-.5.2-1 .5-1.3s.8-.5 1.3-.5h2.4c.5 0 1 .2 1.3.5s.5.8.5 1.3v2.4c0 .5-.2 1-.5 1.3s-.8.5-1.3.5H25zm2.4-21.6H25c-.2 0-.3.1-.4.2s-.2.3-.2.4v2.4c0 .2.1.3.2.4s.3.2.4.2h2.4c.2 0 .3-.1.4-.2s.2-.3.2-.4V7c0-.2-.1-.3-.2-.4s-.2-.2-.4-.2zm0 8.4H25c-.2 0-.3.1-.4.2s-.2.3-.2.4v2.4c0 .2.1.3.2.4s.3.2.4.2h2.4c.2 0 .3-.1.4-.2s.2-.3.2-.4v-2.4c0-.2-.1-.3-.2-.4s-.2-.2-.4-.2zm0 8.4H25c-.2 0-.3.1-.4.2s-.2.3-.2.4v2.4c0 .2.1.3.2.4s.3.2.4.2h2.4c.2 0 .3-.1.4-.2s.2-.3.2-.4v-2.4c0-.2-.1-.3-.2-.4s-.2-.2-.4-.2zm6-12c-.5 0-1-.2-1.3-.5s-.5-.8-.5-1.3V7c0-.5.2-1 .5-1.3s.8-.5 1.3-.5h2.4c.5 0 1 .2 1.3.5s.5.8.5 1.3v2.4c0 .5-.2 1-.5 1.3s-.8.5-1.3.5h-2.4zm0 8.4c-.5 0-1-.2-1.3-.5s-.5-.8-.5-1.3v-2.4c0-.5.2-1 .5-1.3s.8-.5 1.3-.5h2.4c.5 0 1 .2 1.3.5s.5.8.5 1.3v2.4c0 .5-.2 1-.5 1.3s-.8.5-1.3.5h-2.4zm0 8.4c-.5 0-1-.2-1.3-.5s-.5-.8-.5-1.3v-2.4c0-.5.2-1 .5-1.3s.8-.5 1.3-.5h2.4c.5 0 1 .2 1.3.5s.5.8.5 1.3v2.4c0 .5-.2 1-.5 1.3s-.8.5-1.3.5h-2.4zm2.4-21.6h-2.4c-.2 0-.3.1-.4.2s-.2.3-.2.4v2.4c0 .2.1.3.2.4s.3.2.4.2h2.4c.2 0 .3-.1.4-.2s.2-.3.2-.4V7c0-.2-.1-.3-.2-.4s-.2-.2-.4-.2zm0 8.4h-2.4c-.2 0-.3.1-.4.2s-.2.3-.2.4v2.4c0 .2.1.3.2.4s.3.2.4.2h2.4c.2 0 .3-.1.4-.2s.2-.3.2-.4v-2.4c0-.2-.1-.3-.2-.4s-.2-.2-.4-.2zm0 8.4h-2.4c-.2 0-.3.1-.4.2s-.2.3-.2.4v2.4c0 .2.1.3.2.4s.3.2.4.2h2.4c.2 0 .3-.1.4-.2s.2-.3.2-.4v-2.4c0-.2-.1-.3-.2-.4s-.2-.2-.4-.2z" id="A"/><filter x="-121.2%" y="-77.9%" width="342.4%" height="343.4%" id="B"><feMorphology radius="0.25" operator="dilate" in="SourceAlpha"/><feOffset dy="10"/><feGaussianBlur stdDeviation="7.5"/><feComposite in2="SourceAlpha" operator="out"/><feColorMatrix values="0 0 0 0 0.0156862745 0 0 0 0 0.470588235 0 0 0 0 0.556862745 0 0 0 0.3 0"/></filter></defs><g fill-rule="nonzero"><use fill="#000" filter="url(#B)" xlink:href="#A"/><use stroke="#04788e" stroke-width=".5" fill="#04788e" xlink:href="#A"/></g></svg>