<svg xmlns="http://www.w3.org/2000/svg" width="13" height="13" xmlns:v="https://vecta.io/nano"><path d="M11.858 12.66a.49.49 0 0 0 .171-.031c.056-.02.107-.054.154-.1a.43.43 0 0 0 .132-.316.43.43 0 0 0-.132-.316l-5.09-5.08 5.09-5.09a.43.43 0 0 0 .132-.316.43.43 0 0 0-.132-.316c-.088-.088-.195-.132-.32-.132s-.233.044-.32.132l-5.08 5.08-5.08-5.08c-.088-.088-.195-.132-.32-.132s-.233.044-.32.132a.43.43 0 0 0-.132.316.43.43 0 0 0 .132.316l5.09 5.09-5.09 5.08a.43.43 0 0 0-.132.316.43.43 0 0 0 .132.316c.047.047.098.08.154.1a.49.49 0 0 0 .171.031.47.47 0 0 0 .163-.031c.056-.02.107-.054.154-.1l5.08-5.08 5.08 5.08c.047.047.098.08.154.1a.47.47 0 0 0 .163.031z" fill="#596973" fill-rule="nonzero" stroke="#596973" stroke-width=".5"/></svg>