<svg xmlns="http://www.w3.org/2000/svg" width="14" height="14"  xmlns:v="https://vecta.io/nano"><path d="M10.578 13.484l.344-.359 2.203-2.203.359-.344L9.906 7l2.469-2.469a2.01 2.01 0 0 0 .531-.922 2.04 2.04 0 0 0 0-1.062 2.01 2.01 0 0 0-.531-.922 2.07 2.07 0 0 0-.672-.453 2.01 2.01 0 0 0-.781-.156 2.01 2.01 0 0 0-.781.156 2.07 2.07 0 0 0-.672.453L7 4.094 3.406.5l-.344.359L.859 3.063.5 3.406 4.094 7l-2.5 2.5-.578 2.906-.156.734.734-.156 2.906-.578 2.5-2.5 3.578 3.578zM4.797 6.297L1.906 3.406l1.5-1.484.969.984-.734.734.719.719.734-.734 1.188 1.188-1.484 1.484zm6.547-2.156L9.859 2.656l.328-.328c.229-.229.474-.344.734-.344.271 0 .521.115.75.344s.344.477.344.742-.115.513-.344.742l-.328.328zm-6.75 6.75a3.3 3.3 0 0 0-1.484-1.484l6.047-6.047 1.484 1.484-6.047 6.047zm5.969 1.172L7.703 9.203l1.5-1.5 1.188 1.188-.75.75.719.719.75-.75.953.953-1.5 1.5zm-8.422-.203l.328-1.656a2.43 2.43 0 0 1 .797.531 2.43 2.43 0 0 1 .531.797l-1.656.328z" fill="#0074fc" stroke="#0074fc" stroke-width=".2"/></svg>