<svg xmlns="http://www.w3.org/2000/svg" width="32" height="32"  xmlns:v="https://vecta.io/nano"><defs><filter x="-74.2%" y="-76.7%" width="248.4%" height="253.3%" id="A"><feOffset dy="4" in="SourceAlpha"/><feGaussianBlur stdDeviation="4"/><feColorMatrix values="0 0 0 0 0   0 0 0 0 0   0 0 0 0 0  0 0 0 0.25 0" result="C"/><feMerge><feMergeNode in="C"/><feMergeNode in="SourceGraphic"/></feMerge></filter></defs><g filter="url(#A)" transform="translate(0 -2)" fill="#fff" stroke="#fff"><path d="M17.875 12.753c.049 0 .096-.01.143-.029s.087-.046.121-.081l4.614-4.614v2.849a.36.36 0 0 0 .374.374.36.36 0 0 0 .374-.374v-3.75c0-.107-.037-.198-.11-.271a.36.36 0 0 0-.264-.11h-3.75a.36.36 0 0 0-.264.11c-.073.073-.11.164-.11.271a.36.36 0 0 0 .11.264.36.36 0 0 0 .264.11h2.842l-4.607 4.607c-.073.073-.11.162-.11.267s.037.194.11.267c.034.034.074.061.121.081s.094.029.143.029zm-5.251 8.994a.36.36 0 0 0 .374-.374.36.36 0 0 0-.374-.374H9.782l4.607-4.607c.073-.073.11-.162.11-.267s-.037-.194-.11-.267a.36.36 0 0 0-.264-.11.36.36 0 0 0-.264.11l-4.614 4.614v-2.849a.36.36 0 0 0-.11-.264.36.36 0 0 0-.264-.11.36.36 0 0 0-.264.11.36.36 0 0 0-.11.264v3.75a.36.36 0 0 0 .11.264.36.36 0 0 0 .264.11h3.75z" stroke-width=".5"/></g></svg>