<svg xmlns="http://www.w3.org/2000/svg" width="20" height="13" xmlns:v="https://vecta.io/nano"><path d="M4.146 12.198c.06 0 .114-.01.167-.03s.1-.048.14-.083l1.802-1.67.17.08.163.07.875.32.866.23.848.14a7.14 7.14 0 0 0 .822.048 7.14 7.14 0 0 0 .822-.048l.848-.14.866-.23.875-.32.694-.32.703-.37.708-.426.708-.483 1.085-.83.83-.734.536-.527.21-.22A.45.45 0 0 0 19 6.349a.45.45 0 0 0-.114-.303l-.21-.22-.536-.523-.83-.73-1.085-.84-.81-.545-.81-.475 1.547-1.433a.45.45 0 0 0 .149-.316.43.43 0 0 0-.123-.325c-.082-.088-.186-.135-.312-.14s-.233.035-.32.123l-1.802 1.66-.17-.075-.163-.075-.875-.32-.866-.23-.848-.14A7.14 7.14 0 0 0 10 1.396a7.14 7.14 0 0 0-.822.048l-.848.14-.866.23-.875.32-.694.32-.703.374-.708.426-.708.48-1.085.84-.83.73-.536.523-.21.22A.45.45 0 0 0 1 6.349a.45.45 0 0 0 .114.303l.21.22.536.527.83.734 1.085.83.81.545.81.475-1.547 1.433a.45.45 0 0 0-.149.316.43.43 0 0 0 .123.325c.04.047.09.082.15.105a.47.47 0 0 0 .176.035zM7.504 8.04a3.84 3.84 0 0 1-.461-.536 3.29 3.29 0 0 1-.347-.62c-.094-.22-.167-.45-.22-.7s-.08-.49-.08-.747a3.52 3.52 0 0 1 .088-.782c.06-.258.142-.504.25-.738s.243-.456.404-.664a3.81 3.81 0 0 1 .541-.567 8.59 8.59 0 0 1 1.143-.29A6.57 6.57 0 0 1 10 2.302a6.57 6.57 0 0 1 1.178.105 8.59 8.59 0 0 1 1.143.29l.242.224.224.242L7.504 8.04zm-1.406 1.3l-.954-.545-.83-.554-.73-.55-.628-.523-.5-.457-.374-.36.374-.37.5-.457.628-.52.73-.554.778-.52.892-.5c-.158.31-.278.636-.36.976A4.44 4.44 0 0 0 5.5 5.448a4.5 4.5 0 0 0 .092.918c.062.296.15.58.268.848a4.78 4.78 0 0 0 .422.769c.164.243.352.467.563.672l-.747.686zM10 10.396c-.264 0-.524-.015-.782-.044s-.514-.073-.77-.132l-.747-.207-.716-.268.563-.52c.357.23.743.406 1.156.532A4.42 4.42 0 0 0 10 9.948a4.38 4.38 0 0 0 1.749-.352 4.53 4.53 0 0 0 1.428-.962c.407-.407.73-.885.967-1.433s.356-1.132.356-1.753a4.44 4.44 0 0 0-.123-1.046c-.082-.34-.202-.665-.36-.976l.892.5.778.52.73.554.628.52.5.457.374.37-.374.36-.5.457-.628.523-.73.55-1.165.75c-.43.255-.89.486-1.375.694s-.995.378-1.525.5-1.07.198-1.622.198zm0-1.345c-.322 0-.63-.04-.927-.123s-.573-.196-.83-.343l5.027-4.64c.105.23.188.47.246.725a3.46 3.46 0 0 1 .088.778c0 .498-.095.965-.286 1.402a3.68 3.68 0 0 1-.773 1.143 3.68 3.68 0 0 1-1.143.773c-.437.2-.904.286-1.402.286z" fill="#596973" stroke="#596973" stroke-width=".3"/></svg>