<svg xmlns="http://www.w3.org/2000/svg" width="20" height="11" xmlns:v="https://vecta.io/nano"><path d="M10 10.302a7.14 7.14 0 0 0 .822-.048l.848-.14.866-.23.875-.32.694-.32.703-.37.708-.426.708-.483 1.085-.83.83-.734.536-.527.21-.22A.45.45 0 0 0 19 5.349a.45.45 0 0 0-.114-.303l-.21-.22-.536-.523-.83-.73-1.085-.84-.708-.48-.708-.426-.703-.374-.694-.32-.875-.32-.866-.23-.848-.14A7.14 7.14 0 0 0 10 .396a7.14 7.14 0 0 0-.822.048l-.848.14-.866.23-.875.32-.694.32-.703.374-.708.426-.708.48-1.085.84-.83.73-.536.523-.21.22A.45.45 0 0 0 1 5.349a.45.45 0 0 0 .114.303l.21.22.536.527.83.734 1.085.83.708.483.708.426.703.37.694.32.875.32.866.23.848.14a7.14 7.14 0 0 0 .822.048zm0-2.25c-.498 0-.965-.095-1.402-.286a3.68 3.68 0 0 1-1.143-.773 3.68 3.68 0 0 1-.773-1.143c-.2-.437-.286-.904-.286-1.402a3.52 3.52 0 0 1 .088-.782c.06-.258.142-.504.25-.738s.243-.456.404-.664a3.81 3.81 0 0 1 .541-.567 8.59 8.59 0 0 1 1.143-.29A6.57 6.57 0 0 1 10 1.302a6.57 6.57 0 0 1 1.178.105 8.59 8.59 0 0 1 1.143.29 3.81 3.81 0 0 1 .541.567c.16.208.296.43.404.664s.192.48.25.738a3.52 3.52 0 0 1 .088.782c0 .498-.095.965-.286 1.402a3.68 3.68 0 0 1-.773 1.143 3.68 3.68 0 0 1-1.143.773c-.437.2-.904.286-1.402.286zm0 1.345c-.55 0-1.09-.066-1.622-.198s-1.04-.302-1.525-.5-.945-.44-1.375-.694l-1.165-.75-.73-.55-.628-.523-.5-.457-.374-.36.374-.37.5-.457.628-.52.73-.554.778-.52.892-.5c-.158.31-.278.636-.36.976A4.44 4.44 0 0 0 5.5 4.448c0 .62.12 1.206.356 1.753s.56 1.025.967 1.433a4.53 4.53 0 0 0 1.428.962A4.38 4.38 0 0 0 10 8.948a4.38 4.38 0 0 0 1.749-.352 4.53 4.53 0 0 0 1.428-.962c.407-.407.73-.885.967-1.433s.356-1.132.356-1.753a4.44 4.44 0 0 0-.123-1.046c-.082-.34-.202-.665-.36-.976l.892.5.778.52.73.554.628.52.5.457.374.37-.374.36-.5.457-.628.523-.73.55-1.165.75c-.43.255-.89.486-1.375.694s-.995.378-1.525.5-1.07.198-1.622.198z" fill="#596973" stroke="#596973" stroke-width=".3"/></svg>