<svg xmlns="http://www.w3.org/2000/svg" width="20" height="20"><path d="M19.872 10.166c-.047-.053-1.182-1.305-2.956-2.572-1.047-.748-2.1-1.344-3.13-1.773C12.48 5.277 11.207 5 10 5s-2.48.276-3.786.82c-1.03.43-2.083 1.026-3.13 1.773C1.3 8.86.175 10.114.128 10.166a.5.5 0 0 0 0 .669c.047.053 1.182 1.305 2.956 2.572 1.047.748 2.1 1.344 3.13 1.773 1.305.544 2.58.82 3.786.82s2.48-.276 3.786-.82c1.03-.43 2.083-1.026 3.13-1.773 1.774-1.267 2.91-2.52 2.956-2.572a.5.5 0 0 0 0-.669zm-7.298-3.728C13.48 7.2 14 8.31 14 9.5c0 2.206-1.794 4-4 4s-4-1.794-4-4c0-1.188.52-2.3 1.426-3.062C8.248 6.17 9.117 6 10 6s1.752.17 2.574.438zm3.743 6.168C14.784 13.698 12.444 15 10 15s-4.784-1.302-6.317-2.394c-1.157-.824-2.042-1.658-2.49-2.106a20.1 20.1 0 0 1 2.489-2.106 16.19 16.19 0 0 1 1.85-1.145C5.186 7.937 5 8.704 5 9.5c0 2.757 2.243 5 5 5s5-2.243 5-5c0-.796-.186-1.563-.533-2.25.694.365 1.32.768 1.85 1.145 1.157.824 2.042 1.658 2.49 2.106a20.1 20.1 0 0 1-2.489 2.106z"/></svg>