<svg xmlns="http://www.w3.org/2000/svg" width="20" height="20" xmlns:v="https://vecta.io/nano"><path d="M3 12c-1.122 0-2-1.322-2-3s.878-3 2-3S5 7.3 5 9s-.878 3-2 3zm0-5.022c-.472 0-1 .86-1 2S2.528 11 3 11s1-.86 1-2-.528-2-1-2zM6.998 8C5.878 8 5 6.682 5 5s.878-3 1.998-3 1.998 1.318 1.998 3-.878 3-1.998 3zm0-5C6.527 3 6 3.855 6 5s.527 2 .998 2 .998-.855.998-2-.527-2-.998-2zM12 8c-1.122 0-2-1.318-2-3s.878-3 2-3 2 1.318 2 3-.878 3-2 3zm0-5c-.472 0-1 .855-1 2s.528 2 1 2 1-.855 1-2-.528-2-1-2zm4 9c-1.122 0-2-1.322-2-3s.878-3 2-3 2 1.322 2 3-.878 3-2 3zm0-5.022c-.472 0-1 .86-1 2S15.528 11 16 11s1-.86 1-2-.528-2-1-2zM13 18c-.868 0-1.455-.294-1.972-.553-.48-.24-.894-.447-1.528-.447s-1.045.207-1.525.447C7.456 17.706 6.868 18 6 18c-.556 0-1.08-.303-1.437-.83-.627-.926-.637-2.33-.028-3.855C5.632 10.572 7.44 9 9.5 9s3.868 1.572 4.964 4.314c.6 1.524.6 2.93-.028 3.855-.357.528-.88.83-1.437.83zm-3.5-2c.87 0 1.457.294 1.975.553.48.24.893.447 1.525.447.218 0 .44-.143.6-.4.432-.637.404-1.73-.073-2.923C12.6 11.344 11.128 10 9.5 10s-3.1 1.343-4.036 3.686c-.477 1.193-.504 2.286-.073 2.923.168.25.4.4.6.4.632 0 1.047-.207 1.528-.448.517-.258 1.105-.55 1.97-.55z"/></svg>