<svg xmlns="http://www.w3.org/2000/svg" width="14" height="13"  xmlns:v="https://vecta.io/nano"><path d="M8.558 4.522a.3.3 0 0 0 .219-.091.3.3 0 0 0 .091-.219v-.018c0-.021-.002-.054-.006-.099l-.018-.171-.013-.113c-.024-.203-.085-.42-.183-.651a1.98 1.98 0 0 0-.237-.435 1.7 1.7 0 0 0-.316-.332 1.08 1.08 0 0 0-.091-.07c-.032-.022-.065-.042-.097-.058.105-.114.189-.243.249-.389s.091-.302.091-.469A1.22 1.22 0 0 0 8.15.923C8.085.771 7.996.639 7.882.527S7.636.326 7.484.26A1.19 1.19 0 0 0 7 .159a1.19 1.19 0 0 0-.484.1c-.152.067-.285.156-.399.268s-.203.243-.268.396a1.22 1.22 0 0 0-.097.484c0 .166.03.322.091.469s.144.276.249.389c-.032.016-.065.035-.097.058a1.08 1.08 0 0 0-.091.07 1.7 1.7 0 0 0-.316.332 1.98 1.98 0 0 0-.237.435 2.37 2.37 0 0 0-.192.712l-.027.341a.3.3 0 0 0 .091.219.3.3 0 0 0 .219.091h3.115zM7 2.033c-.17 0-.316-.061-.438-.183s-.183-.27-.183-.444.061-.316.183-.438S6.83.786 7 .786s.316.061.438.183.183.268.183.438-.061.322-.183.444-.268.183-.438.183zm1.217 1.868H5.783l.052-.24c.022-.087.052-.175.088-.265.105-.252.246-.438.423-.56s.394-.183.654-.183c.223 0 .409.044.557.131a1.15 1.15 0 0 1 .359.322c.091.128.16.264.207.408s.078.273.094.386zm3.286 2.805c.016 0 .031-.001.046-.003s.027-.005.04-.009c.081-.024.143-.074.186-.149s.054-.153.033-.234a5.27 5.27 0 0 0-.329-.864 4.87 4.87 0 0 0-.475-.782c-.183-.245-.386-.473-.612-.681s-.47-.397-.733-.563c-.073-.045-.151-.058-.234-.04a.31.31 0 0 0-.198.137c-.045.073-.058.151-.04.234a.31.31 0 0 0 .137.198 4.38 4.38 0 0 1 .642.493 4.39 4.39 0 0 1 .535.596c.16.215.299.443.417.685a4.48 4.48 0 0 1 .286.751c.02.069.059.125.116.167s.118.064.183.064zm-9.005 0c.065 0 .126-.021.183-.064s.095-.098.116-.167a4.48 4.48 0 0 1 .286-.751c.118-.241.257-.47.417-.685a4.39 4.39 0 0 1 .535-.596 4.38 4.38 0 0 1 .642-.493.31.31 0 0 0 .137-.198c.018-.083.005-.161-.04-.234a.31.31 0 0 0-.198-.137c-.083-.018-.161-.005-.234.04-.264.166-.508.354-.733.563s-.429.436-.612.681a4.87 4.87 0 0 0-.475.782 5.27 5.27 0 0 0-.329.864c-.02.081-.009.159.033.234s.104.125.186.149c.012.004.025.007.04.009s.029.003.046.003zm1.698 4.673a.3.3 0 0 0 .219-.091c.061-.061.091-.136.091-.225v-.018c0-.053-.012-.179-.037-.38a2.52 2.52 0 0 0-.183-.654c-.065-.158-.144-.302-.237-.432a1.66 1.66 0 0 0-.316-.335c-.028-.024-.059-.047-.091-.067l-.097-.061c.105-.114.189-.243.249-.389a1.19 1.19 0 0 0 .091-.462c0-.174-.032-.337-.097-.487a1.26 1.26 0 0 0-.663-.663c-.15-.065-.312-.097-.487-.097a1.22 1.22 0 0 0-.484.097c-.152.065-.284.154-.396.268s-.201.245-.268.396a1.18 1.18 0 0 0-.1.487 1.19 1.19 0 0 0 .091.462c.061.146.144.276.249.389l-.094.061-.094.067a1.66 1.66 0 0 0-.316.335c-.093.13-.172.274-.237.432-.11.26-.173.498-.192.715l-.027.338c0 .089.03.164.091.225a.3.3 0 0 0 .219.091h3.115zm8.726 0a.3.3 0 0 0 .219-.091c.061-.061.091-.136.091-.225v-.018c0-.053-.012-.179-.037-.38a2.52 2.52 0 0 0-.183-.654c-.065-.158-.144-.302-.237-.432a1.66 1.66 0 0 0-.316-.335l-.094-.067-.094-.061c.105-.114.189-.243.249-.389a1.19 1.19 0 0 0 .091-.462 1.18 1.18 0 0 0-.1-.487c-.067-.15-.156-.282-.268-.396s-.243-.203-.396-.268a1.22 1.22 0 0 0-.484-.097c-.174 0-.337.032-.487.097a1.26 1.26 0 0 0-.663.663c-.065.15-.097.312-.097.487a1.19 1.19 0 0 0 .091.462c.061.146.144.276.249.389l-.097.061c-.032.02-.063.043-.091.067a1.66 1.66 0 0 0-.316.335c-.093.13-.172.274-.237.432-.11.26-.173.498-.192.715l-.027.338c0 .089.03.164.091.225a.3.3 0 0 0 .219.091h3.115zM2.637 8.885c-.17 0-.316-.061-.438-.183s-.183-.268-.183-.438.061-.322.183-.444.268-.183.438-.183.322.061.444.183.183.27.183.444-.061.316-.183.438-.27.183-.444.183zm8.726 0c-.174 0-.322-.061-.444-.183s-.183-.268-.183-.438.061-.322.183-.444.27-.183.444-.183.316.061.438.183.183.27.183.444-.061.316-.183.438-.268.183-.438.183zm-7.509 1.868H1.426c.008-.073.023-.153.046-.24s.052-.175.088-.265c.105-.247.247-.433.426-.557s.396-.186.651-.186c.223 0 .409.044.557.131a1.15 1.15 0 0 1 .359.322c.091.128.16.264.207.408s.078.273.094.386zm8.726 0h-2.434l.052-.24c.022-.087.052-.175.088-.265.105-.247.246-.433.423-.557s.394-.186.654-.186c.223 0 .409.044.557.131a1.15 1.15 0 0 1 .359.322c.091.128.159.264.204.408a3.26 3.26 0 0 1 .097.386zM7 12.621c.203 0 .405-.012.605-.037a4.85 4.85 0 0 0 .593-.11 5.24 5.24 0 0 0 .575-.179c.189-.071.372-.153.551-.246.077-.041.129-.102.155-.186s.019-.161-.021-.234-.102-.129-.186-.155a.3.3 0 0 0-.24.021 3.78 3.78 0 0 1-.478.222 3.93 3.93 0 0 1-.505.155 5.09 5.09 0 0 1-.52.094 4.17 4.17 0 0 1-1.059 0 5.09 5.09 0 0 1-.52-.094 3.93 3.93 0 0 1-.505-.155 3.78 3.78 0 0 1-.478-.222.3.3 0 0 0-.24-.021c-.083.026-.145.078-.186.155s-.048.151-.021.234.078.145.155.186c.178.093.362.175.551.246a5.24 5.24 0 0 0 .575.179 4.85 4.85 0 0 0 .593.11c.201.024.403.037.605.037zm1.558-8.099a.3.3 0 0 0 .219-.091.3.3 0 0 0 .091-.219v-.018c0-.021-.002-.054-.006-.099l-.018-.171-.013-.113c-.024-.203-.085-.42-.183-.651a1.98 1.98 0 0 0-.237-.435 1.7 1.7 0 0 0-.316-.332 1.08 1.08 0 0 0-.091-.07c-.032-.022-.065-.042-.097-.058.105-.114.189-.243.249-.389s.091-.302.091-.469A1.22 1.22 0 0 0 8.15.923C8.085.771 7.996.639 7.882.527S7.636.326 7.484.26A1.19 1.19 0 0 0 7 .159a1.19 1.19 0 0 0-.484.1c-.152.067-.285.156-.399.268s-.203.243-.268.396a1.22 1.22 0 0 0-.097.484c0 .166.03.322.091.469s.144.276.249.389c-.032.016-.065.035-.097.058a1.08 1.08 0 0 0-.091.07 1.7 1.7 0 0 0-.316.332 1.98 1.98 0 0 0-.237.435 2.37 2.37 0 0 0-.192.712l-.027.341a.3.3 0 0 0 .091.219.3.3 0 0 0 .219.091h3.115zM7 2.033c-.17 0-.316-.061-.438-.183s-.183-.27-.183-.444.061-.316.183-.438S6.83.786 7 .786s.316.061.438.183.183.268.183.438-.061.322-.183.444-.268.183-.438.183zm1.217 1.868H5.783l.052-.24c.022-.087.052-.175.088-.265.105-.252.246-.438.423-.56s.394-.183.654-.183c.223 0 .409.044.557.131a1.15 1.15 0 0 1 .359.322c.091.128.16.264.207.408s.078.273.094.386zm3.286 2.805c.016 0 .031-.001.046-.003s.027-.005.04-.009c.081-.024.143-.074.186-.149s.054-.153.033-.234a5.27 5.27 0 0 0-.329-.864 4.87 4.87 0 0 0-.475-.782c-.183-.245-.386-.473-.612-.681s-.47-.397-.733-.563c-.073-.045-.151-.058-.234-.04a.31.31 0 0 0-.198.137c-.045.073-.058.151-.04.234a.31.31 0 0 0 .137.198 4.38 4.38 0 0 1 .642.493 4.39 4.39 0 0 1 .535.596c.16.215.299.443.417.685a4.48 4.48 0 0 1 .286.751c.02.069.059.125.116.167s.118.064.183.064zm-9.005 0c.065 0 .126-.021.183-.064s.095-.098.116-.167a4.48 4.48 0 0 1 .286-.751c.118-.241.257-.47.417-.685a4.39 4.39 0 0 1 .535-.596 4.38 4.38 0 0 1 .642-.493.31.31 0 0 0 .137-.198c.018-.083.005-.161-.04-.234a.31.31 0 0 0-.198-.137c-.083-.018-.161-.005-.234.04-.264.166-.508.354-.733.563s-.429.436-.612.681a4.87 4.87 0 0 0-.475.782 5.27 5.27 0 0 0-.329.864c-.02.081-.009.159.033.234s.104.125.186.149c.012.004.025.007.04.009s.029.003.046.003zm1.698 4.673a.3.3 0 0 0 .219-.091c.061-.061.091-.136.091-.225v-.018c0-.053-.012-.179-.037-.38a2.52 2.52 0 0 0-.183-.654c-.065-.158-.144-.302-.237-.432a1.66 1.66 0 0 0-.316-.335c-.028-.024-.059-.047-.091-.067l-.097-.061c.105-.114.189-.243.249-.389a1.19 1.19 0 0 0 .091-.462c0-.174-.032-.337-.097-.487a1.26 1.26 0 0 0-.663-.663c-.15-.065-.312-.097-.487-.097a1.22 1.22 0 0 0-.484.097c-.152.065-.284.154-.396.268s-.201.245-.268.396a1.18 1.18 0 0 0-.1.487 1.19 1.19 0 0 0 .091.462c.061.146.144.276.249.389l-.094.061-.094.067a1.66 1.66 0 0 0-.316.335c-.093.13-.172.274-.237.432-.11.26-.173.498-.192.715l-.027.338c0 .089.03.164.091.225a.3.3 0 0 0 .219.091h3.115zm8.726 0a.3.3 0 0 0 .219-.091c.061-.061.091-.136.091-.225v-.018c0-.053-.012-.179-.037-.38a2.52 2.52 0 0 0-.183-.654c-.065-.158-.144-.302-.237-.432a1.66 1.66 0 0 0-.316-.335l-.094-.067-.094-.061c.105-.114.189-.243.249-.389a1.19 1.19 0 0 0 .091-.462 1.18 1.18 0 0 0-.1-.487c-.067-.15-.156-.282-.268-.396s-.243-.203-.396-.268a1.22 1.22 0 0 0-.484-.097c-.174 0-.337.032-.487.097a1.26 1.26 0 0 0-.663.663c-.065.15-.097.312-.097.487a1.19 1.19 0 0 0 .091.462c.061.146.144.276.249.389l-.097.061c-.032.02-.063.043-.091.067a1.66 1.66 0 0 0-.316.335c-.093.13-.172.274-.237.432-.11.26-.173.498-.192.715l-.027.338c0 .089.03.164.091.225a.3.3 0 0 0 .219.091h3.115zM2.637 8.885c-.17 0-.316-.061-.438-.183s-.183-.268-.183-.438.061-.322.183-.444.268-.183.438-.183.322.061.444.183.183.27.183.444-.061.316-.183.438-.27.183-.444.183zm8.726 0c-.174 0-.322-.061-.444-.183s-.183-.268-.183-.438.061-.322.183-.444.27-.183.444-.183.316.061.438.183.183.27.183.444-.061.316-.183.438-.268.183-.438.183zm-7.509 1.868H1.426c.008-.073.023-.153.046-.24s.052-.175.088-.265c.105-.247.247-.433.426-.557s.396-.186.651-.186c.223 0 .409.044.557.131a1.15 1.15 0 0 1 .359.322c.091.128.16.264.207.408s.078.273.094.386zm8.726 0h-2.434l.052-.24c.022-.087.052-.175.088-.265.105-.247.246-.433.423-.557s.394-.186.654-.186c.223 0 .409.044.557.131a1.15 1.15 0 0 1 .359.322c.091.128.159.264.204.408a3.26 3.26 0 0 1 .097.386zM7 12.621c.203 0 .405-.012.605-.037a4.85 4.85 0 0 0 .593-.11 5.24 5.24 0 0 0 .575-.179c.189-.071.372-.153.551-.246.077-.041.129-.102.155-.186s.019-.161-.021-.234-.102-.129-.186-.155a.3.3 0 0 0-.24.021 3.78 3.78 0 0 1-.478.222 3.93 3.93 0 0 1-.505.155 5.09 5.09 0 0 1-.52.094 4.17 4.17 0 0 1-1.059 0 5.09 5.09 0 0 1-.52-.094 3.93 3.93 0 0 1-.505-.155 3.78 3.78 0 0 1-.478-.222.3.3 0 0 0-.24-.021c-.083.026-.145.078-.186.155s-.048.151-.021.234.078.145.155.186c.178.093.362.175.551.246a5.24 5.24 0 0 0 .575.179 4.85 4.85 0 0 0 .593.11c.201.024.403.037.605.037z" fill="#0074fc" stroke="#0074fc" stroke-width=".2"/></svg>