<svg xmlns="http://www.w3.org/2000/svg" xmlns:xlink="http://www.w3.org/1999/xlink" viewBox="0 0 24 21"><use xlink:href="#B" fill="#6f6cac" enable-background="new"/><use xlink:href="#B" fill="none" stroke="#6f6cac" stroke-width=".5" enable-background="new"/><defs ><path id="B" d="M22.8 15.6c.2.2.3.4.4.6s.2.4.2.7c0 .2 0 .5-.1.7s-.2.4-.4.6l-1.3 1.3c-.2.2-.4.3-.6.4s-.4.1-.7.1c-.2 0-.5 0-.7-.1s-.4-.2-.6-.4L8.7 7.9c-.1-.1-.1-.1-.2-.1h-.4c-.1 0-.1.1-.2.1l-.9.9c-.1.1-.1.1-.2.1H6v.8s-.2.3-.3.3l-1.2 1.2c-.1.1-.3.2-.4.2s-.3-.1-.4-.2L1.3 8.8c-.1-.1-.2-.3-.2-.4s.1-.3.2-.4l1.2-1.2c.1-.1.1-.1.2-.1h.8v-.9s.1-.1.1-.2l4.2-4.2c.1-.1.4-.3.8-.4S9.8.8 11.1.7c.6 0 1.2-.1 1.7-.1h.8c.1 0 .2 0 .3.1s.2.2.2.3.1.2 0 .3-.1.2-.2.3l-2.8 2.7c-.1.1-.1.1-.1.2v.4s.1.1.1.2l11.7 10.5zM8.3 6.5c.2 0 .5.1.7.2s.4.2.6.4l1 1L11.7 7l-1-1c-.2-.2-.3-.4-.4-.6S10 5 10 4.8s0-.5.1-.7.2-.4.4-.6l1.7-1.7h-.8c-1.1.1-1.8.1-2.1.2s-.5.1-.6.2l-4 4v.9c0 .2-.1.3-.2.4s-.3.2-.4.2h-.9l-.6.6 1.5 1.5.6-.6v-.9c0-.2.1-.3.2-.4s.3-.2.4-.2h.9L7 7c.2-.2.4-.3.6-.4s.4-.1.7-.1zM22 17.2c.1-.1.1-.1.1-.2v-.4s-.1-.1-.1-.2l-9.5-8.6L11.3 9l8.6 9.5c0 .1.1.1.2.1h.4c.1 0 .1-.1.2-.1l1.3-1.3z"/></defs></svg>