<svg xmlns="http://www.w3.org/2000/svg" width="22" height="21" xmlns:v="https://vecta.io/nano"><path d="M20.472 12.028c.137.006.257-.036.36-.127a.47.47 0 0 0 .166-.346c.007-.14-.036-.258-.127-.355h0l-8.828-9.734c-.137-.15-.295-.264-.474-.346A1.37 1.37 0 0 0 11 1h0l-.15.008c-.147.015-.288.053-.422.114-.18.08-.337.196-.474.346h0L1.128 11.2c-.09.097-.133.216-.127.355a.47.47 0 0 0 .166.346c.046.045.098.078.156.097s.117.03.176.03a.55.55 0 0 0 .205-.039c.065-.026.12-.068.166-.127h0l8.828-9.724c.046-.045.093-.08.142-.102s.103-.034.16-.034.112.01.16.034.096.057.142.102h0l8.828 9.724c.09.104.205.16.342.165zM16.498 20a1.45 1.45 0 0 0 1.064-.438 1.43 1.43 0 0 0 .439-1.051h0V10.54a.49.49 0 0 0-.146-.36.48.48 0 0 0-.352-.146.49.49 0 0 0-.508.506h0v7.972c0 .136-.05.253-.146.35a.48.48 0 0 1-.352.146h0H5.502a.48.48 0 0 1-.352-.146c-.098-.097-.146-.214-.146-.35h0V10.54a.49.49 0 0 0-.146-.36.49.49 0 0 0-.361-.146.48.48 0 0 0-.352.146.49.49 0 0 0-.146.36h0v7.972a1.43 1.43 0 0 0 .439 1.051A1.45 1.45 0 0 0 5.502 20h10.995z" fill="#0074fc" stroke="#0074fc" stroke-width=".75"/></svg>