<svg xmlns="http://www.w3.org/2000/svg" width="400" height="286.765" viewBox="0 0 400 NaN" fill-rule="evenodd" xmlns:v="https://vecta.io/nano"><path d="M114.634 4.479c-2.012.294-4.876 1.093-6.19 1.726l-1.577.682c-.35 0-2.922 1.888-4.43 3.251-3.36 3.037-5.314 6.3-6.617 11.042-.64 2.326-.446 2.232-3.134 1.524-15.47-4.073-23.592 17.688-9.187 24.612l2.152 1.034 55.805.152 1.856-.842c8.283-3.756 8.285-15.524.002-19.279-1.012-.459-2.1-.834-2.44-.834-1.357 0-1.71-.483-1.71-2.344 0-4.526-2.5-10.332-6.072-14.049-4.55-4.749-12.35-7.569-18.462-6.675m212.482 176.68c-.394.21-1.62.938-2.726 1.62l-2.87 1.738-3.444 2.009c-9.972 5.829-23.545 11.407-36.298 14.916l-6.887 1.804-2.726.62-3.443.752-2.726.551c-7.043 1.451-17.25 2.745-29.412 3.729-5.41.437-21.308.641-29.08.372-3.685-.127-6.748-.153-6.807-.058s1.807 3.066 4.145 6.6l15.333 23.284c.578.908 1.13 1.65 1.23 1.65.645 0 6.122-4.412 9.924-7.995 4.07-3.834 5.274-3.7 9.99 1.111 8.93 9.11 16.3 12.659 29.034 13.982 14.336 1.489 26.87-3.038 37.266-13.457 5.36-5.373 6.3-5.522 10.6-1.679 3.135 2.801 9.718 7.762 10.276 7.745.45-.014 4.42-7.573 5.754-10.959 4.676-11.864 5.21-20.309 2.13-33.655-2.572-11.146-5.922-16.453-9.266-14.68m-254.62 1.423c-1.272 1.198-2.914 4.711-4.264 9.119l-.402 1.313 4.033 2.382c6 3.544 7.124 4.346 7.764 5.538l.574 1.069-.65 1.223c-1.42 2.67-2.85 2.57-7.75-.543-.83-.529-1.57-.961-1.638-.961s-.937-.513-1.928-1.139l-1.8-1.139-.365 1.497c-.838 3.439-.812 11.31.047 14.144l1.22 4.14c.243.868.554 1.901.69 2.296.582 1.677 1.445 5.495 1.314 5.818-.08.199-.152.132-.165-.155a2.95 2.95 0 0 0-.276-1.004c-.436-.857-.84-1.891-1.208-3.081-.195-.631-.405-.996-.468-.809-.144.428.454 2.435 1.64 5.501.966 2.496 1.72 4.098 1.722 3.662.004-.445 1.03 1.078 1.43 2.119.478 1.248 1.34 3.231 2.05 4.717.296.622.54 1.275.54 1.452 0 1.278.76 1.417 2.33.427 2.658-1.675 5.727-4.055 8.927-6.922 4.725-4.234 5.52-4.212 10.502.288 4.584 4.14 5.17 4.609 8.8 7.054 9.816 6.611 19.81 8.973 28.407 6.717 8.395-2.203 14.276-5.782 21.94-13.35 4.935-4.873 5.842-4.965 10.63-1.077 18.387 14.935 33.623 18.696 48.246 11.91l1.617-.751-3.626-5.455-19.695-29.83-3.587-.339-9.326-.802-8.177-.746-15.782-1.986-9.04-1.437-4.017-.728-4.735-.904-2.87-.578c-.682-.125-4.85-1.009-7.317-1.552-4.1-.899-11.787-2.894-15.926-4.128l-2.44-.692c-1.417-.366-5.123-1.5-5.74-1.756-.315-.131-1.67-.575-3.013-.986s-2.697-.86-3.013-1-1.606-.605-2.87-1.035c-5.03-1.713-16.19-6.236-16.48-6.678-1.172-1.784-4.366-2.233-5.86-.823m16.277 22.471c6.24 3.147 7.192 4.46 4.952 6.835-1.5 1.59-2.572 1.461-7.036-.848-5.174-2.677-6.182-4.373-3.934-6.621 1.378-1.378 2.198-1.292 6.018.634m17.253 7.155c2.278.754 7.146 1.901 10.76 2.535 2.264.397 3.36.553 9.182 1.307 1.184.153 3.38.361 4.878.462 3.965.267 5.807 1.862 4.9 4.241-.754 1.976-1.698 2.265-6.27 1.917-5.647-.43-14.904-1.747-18.14-2.581a80.98 80.98 0 0 0-2.439-.57c-6.814-1.482-9.325-2.837-9.325-5.033 0-3.046 2.003-3.753 6.456-2.278m125.097 46.709c-2.825 1.093-3.817 3.787-2.248 6.108.6.901 3.22 4.1 3.837 4.702.08.079.855.983 1.72 2.009l1.73 2.009c.084.079 1.18 1.37 2.436 2.869l2.644 3.104c.298.31.67.162 2.085-.831 1.69-1.186 1.975-1.599 1.472-2.144-.14-.15-.572-.853-.964-1.564l-6.784-11.992c-.493-.836-.896-1.587-.896-1.669 0-.859-3.656-3.472-4.14-2.96-.01.012-.413.174-.892.359" fill="#fafbfb"/><path d="M109.828.193c-.434.073-.79.238-.79.367s-.614.328-1.363.44-1.428.29-1.507.394-.886.559-1.793 1.01-1.65.935-1.65 1.074-.194.252-.43.252-.43.127-.43.282-.308.359-.686.453-.952.453-1.277.795l-.884.909-1.05 1.044-1.02 1.005c-.656.617-1.7 2.015-1.847 2.471-.09.276-.282.502-.43.502s-.267.194-.267.43-.097.431-.216.432c-.288.003-1.22 1.662-1.22 2.174 0 .224-.13.407-.287.407s-.287.323-.287.718-.115.717-.256.717-.337.323-.436.717c-.183.73-1.107 1.002-1.46.431-.216-.349-2.726-.387-2.726-.042 0 .135-.886.32-1.97.41-1.726.145-4.483 1.074-4.918 1.657-.08.106-.464.293-.857.416-1.26.394-4.882 3.577-4.882 4.292 0 .221-.258.484-.573.584s-.574.431-.574.736-.127.555-.282.555-.362.323-.46.717-.296.718-.436.718-.256.322-.256.717-.123.717-.273.717-.36.775-.467 1.722-.308 1.722-.445 1.722-.25 1.42-.25 3.156.11 3.157.247 3.157.316.753.4 1.675c.134 1.475.577 2.761 1.103 3.203.094.078.25.468.348.866s.44 1.006.762 1.351.585.703.585.796c0 .188.53.858 1.09 1.376l.718.717c.96 1.036 1.798 1.78 2.004 1.78.126 0 .512.263.858.585s.953.665 1.35.762.787.253.866.347c.442.527 1.728.97 3.203 1.103.92.084 1.675.264 1.675.399s12.525.248 27.977.248l27.977-.248c0-.137.61-.332 1.352-.434 1.407-.192 2.952-.758 2.952-1.079 0-.102.323-.267.718-.366s.717-.307.717-.461.128-.282.285-.282c.29 0 1.543-.982 2.124-1.664l.857-.917c.51-.515 1.05-1.335 1.508-2.297.113-.237.28-.495.37-.574.476-.415.933-1.637 1.082-2.891.092-.777.278-1.413.414-1.413s.247-1.356.247-3.013c0-1.817-.114-3.013-.287-3.013-.158 0-.287-.385-.287-.855 0-.829-.776-3.158-1.15-3.449-.1-.079-.277-.337-.4-.574-.46-.962-.997-1.781-1.508-2.297l-.857-.917c-.58-.682-1.835-1.664-2.124-1.664-.157 0-.285-.12-.285-.268s-.3-.358-.645-.469-.71-.281-.8-.378c-.3-.371-1.45-.894-1.963-.894-.465 0-.563-.316-.733-2.367-.108-1.302-.32-2.41-.47-2.463s-.276-.407-.276-.789-.13-.693-.287-.693-.287-.258-.287-.572c0-.707-.916-2.872-1.215-2.872-.12 0-.22-.193-.22-.43s-.12-.43-.268-.43-.36-.291-.472-.646a2.91 2.91 0 0 0-.736-1.11c-.293-.255-.533-.602-.533-.77 0-.476-4.978-5.411-5.685-5.635-.345-.11-.628-.32-.628-.467s-.134-.268-.3-.268-.584-.267-.932-.593-.99-.666-1.423-.754-.79-.241-.79-.34c0-.23-1.316-.802-2.44-1.062-.474-.11-1.042-.343-1.263-.518-.403-.32-13.902-.553-15.595-.27m13.4 4.721c8.52 2.526 14.702 9.504 15.938 17.993l.457 3.116c.125.835.28.955 1.777 1.379 10.91 3.085 11.35 17.673.636 21.108-1.834.588-54.608.621-56.384.035-10.372-3.42-13.398-15.567-5.706-22.906 3.494-3.333 9.4-4.621 13.7-2.986 1.235.47 1.25.453 2.062-2.206C99.4 8.379 111.625 1.474 123.23 4.914M86.657 116.747c0 .136-.705.33-1.567.431-1.617.19-2.136.36-4.63 1.514-.805.372-1.612.677-1.793.677s-.33.129-.33.287-.194.287-.43.287-.432.096-.433.215-.516.461-1.143.761-1.212.777-1.302 1.061-.43.6-.752.702c-.587.187-2.826 2.197-2.826 2.538 0 .099-.387.585-.86 1.081s-.86 1.001-.86 1.124-.166.395-.37.603c-.436.448-1.352 2.338-1.352 2.79 0 .174-.13.315-.287.315s-.287.259-.287.574-.113.574-.25.574c-.25 0-.726 1.534-.692 2.224.01.197-.097.359-.237.359s-.255.379-.255.844-.13.923-.287 1.021-.287.854-.287 1.681-.138 1.642-.307 1.811c-.463.463.05 8.436.587 9.133.122.158.3.898.418 1.644s.318 1.431.467 1.523.27.392.27.667c0 .603.64 2.043.9 2.046.106.002.273.373.373.825s.432 1.092.74 1.423.56.679.56.775c0 .977 5.87 6.736 6.868 6.736.168 0 .306.109.306.243s.55.486 1.22.781 1.284.606 1.363.69c.424.448 1.596.902 2.732 1.057.707.097 1.285.288 1.285.424s.387.248.86.248.86.129.86.287.574.287 1.275.287 1.354.129 1.45.287c.106.17 1.91.287 4.448.287s4.342-.117 4.448-.287c.097-.158.75-.287 1.45-.287s1.275-.129 1.275-.287.452-.287 1.004-.287 1.004-.112 1.004-.25.522-.334 1.16-.436c1.08-.173 2.236-.654 2.57-1.071.078-.099.563-.27 1.076-.382s.934-.289.935-.394.514-.437 1.14-.736 1.392-.784 1.706-1.077.648-.532.74-.532c.482 0 4.733-4.62 4.733-5.144 0-.327-.12-.595-.264-.595s-2.096-1.808-4.338-4.017c-4.616-4.551-4.444-4.475-6.172-2.697-1.32 1.357-3.1 2.697-3.586 2.697-.15 0-.275.129-.275.287s-.142.287-.315.287c-.473 0-2.38.931-2.615 1.276-.313.461-9.18.408-9.336-.057-.066-.197-.432-.358-.814-.358s-.693-.127-.693-.282-.323-.362-.717-.461-.718-.295-.718-.436-.146-.256-.325-.256c-.408 0-3.118-2.729-3.118-3.14 0-.167-.127-.303-.28-.303s-.363-.323-.462-.718-.295-.717-.436-.717-.256-.248-.256-.55-.16-.604-.358-.669c-.266-.089-.36-1.242-.36-4.457 0-3.088.103-4.441.36-4.697.197-.197.358-.591.358-.875s.13-.517.287-.517.287-.242.287-.538a1.33 1.33 0 0 1 .431-.896c.236-.197.43-.455.43-.575 0-.365 2.165-2.472 3.12-3.036.494-.292.898-.621.898-.733s.386-.287.858-.39.93-.308 1.02-.454.48-.264.864-.264.7-.13.7-.287c0-.176 1.34-.287 3.443-.287 1.894 0 3.443.114 3.443.254s.355.319.79.398c1.207.219 2.736.87 3.354 1.428.306.276.73.502.942.502s.46.194.55.431.344.43.562.43.944.581 1.613 1.291c1.096 1.166 2.52 1.759 2.52 1.05 0-.132 1.808-2.067 4.017-4.299 4.234-4.276 4.417-4.573 3.346-5.415-.37-.291-.826-.817-1.015-1.169s-.523-.64-.743-.64-.483-.258-.583-.574-.275-.574-.388-.574c-.195 0-1.128-.694-2.413-1.793-.323-.277-.76-.503-.973-.503s-.387-.098-.387-.219c0-.23-2.094-1.215-2.584-1.215-.157 0-.285-.129-.285-.287s-.323-.287-.718-.287-.717-.098-.717-.217c0-.32-2.214-.959-3.946-1.141-.828-.086-1.506-.268-1.506-.404s-2.518-.247-5.595-.247-5.596.112-5.596.248m55.237.122c-.31.377-.68 1.141-1.42 2.93-.26.631-.596 1.372-.746 1.646s-.273.694-.273.933-.115.434-.255.434-.34.452-.444 1.004-.31 1.005-.462 1.005-.274.258-.274.574-.13.573-.287.573-.287.225-.287.498c0 .547-1.454 3.607-1.784 3.756-.113.051-.29.535-.39 1.076s-.3.983-.44.983-.255.194-.255.431c0 .504-2.997.634-3.3.143-.1-.163-1.533-.287-3.317-.287-1.902 0-3.14.113-3.14.287 0 .158-.452.287-1.005.287s-1.004.129-1.004.287-.323.287-.717.287-.718.115-.718.255-.424.334-.942.432-1.127.434-1.354.749-.554.573-.726.573c-.382 0-1.856 1.5-1.856 1.889 0 .154-.26.468-.58.699-.325.234-.658.897-.755 1.504-.096.597-.286 1.155-.423 1.239-.355.219-.318 5.859.038 5.859.157 0 .287.314.287.697s.193.891.43 1.127.43.569.43.738.13.308.287.308.287.262.287.583.194.657.43.748.43.289.43.442c0 .32.724 1.096 1.022 1.096.11 0 .412.226.67.502.722.777 1.548 1.154 3.002 1.372.733.11 1.333.314 1.333.454s.323.255.717.255.718.103.718.229c0 .394-.708 1.775-.9 1.777-.106.001-.284.422-.395.935s-.3.997-.396 1.076c-.36.265-1.17 2.233-1.17 2.841 0 .331-.13.602-.287.602s-.287.194-.287.431-.13.43-.287.43-.287.258-.287.574-.13.574-.287.574-.286.142-.286.315c0 .289-.46 1.439-1.216 3.037-.706 1.496-.56 1.526 7.52 1.526 7.28 0 7.47-.015 7.47-.574 0-.316.13-.574.287-.574s.287-.194.287-.43.115-.431.255-.431.34-.452.443-1.004.312-1.004.463-1.004.273-.323.273-.718.122-.717.27-.717.356-.581.463-1.291.308-1.292.448-1.292.254-.193.254-.43.13-.43.287-.43.287-.244.287-.541.193-.911.43-1.363.43-1.113.43-1.468.1-.646.22-.646c.282 0 .867-1.332 1.103-2.512l.186-.931h2.26c1.315 0 2.26.12 2.26.287 0 .158.444.287.987.287s1.057.112 1.142.25.576.334 1.09.437c1.186.237 2.52.822 2.52 1.105 0 .119.25.217.553.217s.747.193.984.43.57.43.738.43.307.109.307.242.452.485 1.004.783 1.005.64 1.005.762.138.222.307.222.478.161.686.359.74.617 1.185.932c1.335.951 6.663 6.408 6.86 7.027.1.318.304.577.45.577s.268.194.268.431.13.43.287.43.287.258.287.574c0 .401.19.574.636.574.35 0 .927.338 1.282.751.725.844 1.525.755 1.525-.168 0-.559.17-.583 4.18-.583 3.24 0 4.274-.092 4.59-.41.462-.461.563-2.173.13-2.173-.155 0-.363-.322-.462-.717s-.295-.717-.436-.717-.255-.194-.255-.431-.13-.43-.287-.43-.287-.258-.287-.574-.124-.574-.274-.574-.36-.453-.463-1.007-.304-1.079-.444-1.165-.254-.408-.254-.714-.13-.557-.287-.557-.287-.128-.287-.285c0-.49-.985-2.585-1.215-2.585-.12 0-.22-.322-.22-.717s-.114-.717-.255-.717-.34-.452-.443-1.005-.28-1.004-.395-1.004c-.222 0-1.202-2.111-1.202-2.588 0-.317-.612-1.488-.897-1.716-.098-.079-.27-.563-.38-1.076s-.32-.933-.467-.933-.264-.323-.264-.717-.13-.717-.287-.717-.287-.259-.287-.574-.123-.574-.274-.574-.358-.452-.462-1.005-.303-1.004-.443-1.004-.255-.323-.255-.717-.13-.718-.287-.718-.287-.128-.287-.285c0-.49-.985-2.584-1.216-2.584-.12 0-.22-.323-.22-.717s-.115-.718-.255-.718-.34-.452-.443-1.004-.312-1.004-.463-1.004-.274-.179-.274-.398-.193-.767-.428-1.219-.43-1.048-.43-1.325-.13-.502-.29-.502-.287-.193-.287-.43-.13-.431-.286-.431-.287-.322-.287-.717-.115-.717-.255-.717-.34-.452-.444-1.005-.312-1.004-.462-1.004-.274-.258-.274-.574-.123-.574-.274-.574-.36-.453-.463-1.007-.303-1.078-.443-1.165-.255-.408-.255-.714-.13-.557-.287-.557-.287-.128-.287-.285c0-.49-.985-2.584-1.215-2.584-.12 0-.22-.153-.22-.339s-.282-.961-.625-1.722l-.626-1.383-6.333.011c-4.6.008-6.412.106-6.62.359m39.742 25.312v25.681h3.55c4.114 0 5.086-.147 5.886-.892.32-.299.696-.542.837-.542.37 0 1.5-1.022 1.5-1.362 0-.159.194-.451.43-.647s.43-.664.43-1.04.13-.682.287-.682c.186 0 .287-3.634.287-10.33l.143-10.33c.237 0 1.292 1.13 1.292 1.383 0 .13.3.513.645.851 1.127 1.075 1.937 2.041 1.937 2.311 0 .143.423.632.94 1.086s1.184 1.213 1.482 1.686.972 1.272 1.498 1.775.958.991.958 1.088c0 .193.3.57 1.578 1.974a42.9 42.9 0 0 1 1.634 1.929l1.435 1.826c.364.464.987 1.174 1.384 1.578s1.108 1.247 1.578 1.874 1.276 1.553 1.79 2.057.932 1.025.932 1.158c0 .318 1.392 1.815 1.687 1.815.127 0 .377.322.557.717l.326.717h10.63v-51.363h-3.444c-2.104 0-3.443.112-3.443.287 0 .158-.294.287-.653.287-.997 0-4.225 2.614-4.225 3.421 0 .17-.097.31-.215.312-.907.009-1.066 1.618-1.156 11.69-.05 5.564-.167 10.115-.26 10.115-.222 0-1.526-1.52-1.526-1.78 0-.11-.646-.847-1.435-1.636s-1.435-1.539-1.435-1.666c0-.326-1.404-1.804-1.714-1.804-.14 0-.335-.251-.432-.556s-.816-1.237-1.598-2.07-1.42-1.599-1.42-1.704-.58-.796-1.29-1.537-1.29-1.441-1.29-1.554-.614-.884-1.363-1.714a93.56 93.56 0 0 1-2.081-2.375c-1.15-1.391-1.46-1.69-1.742-1.69-.146 0-.266-.204-.266-.453s-.517-.964-1.148-1.589-1.148-1.239-1.148-1.365-.496-.766-1.104-1.423l-1.103-1.196h-10.13v25.682m72.596-25.436c0 .136-.8.33-1.78.433s-1.9.314-2.066.471-.583.285-.946.285-.66.129-.66.287-.193.287-.43.287-.43.115-.43.255-.452.34-1.005.443-1.004.312-1.004.463-.244.274-.543.274-.618.193-.708.43-.343.43-.56.43-.628.259-.914.574-.638.574-.782.574c-.36 0-3.745 3.429-4.408 4.467-.297.463-.757 1.003-1.023 1.201s-.57.746-.674 1.219-.292.861-.418.861-.4.419-.607.932-.49 1.011-.63 1.107-.325.709-.413 1.363-.27 1.189-.408 1.189-.25.312-.25.693-.16.748-.358.813c-.274.092-.36 1.8-.36 7.246s.085 7.154.36 7.245c.197.066.358.432.358.813s.13.693.287.693.287.258.287.572c0 .708.916 2.872 1.216 2.872.12 0 .22.193.22.43s.113.431.25.431.326.355.418.789.56 1.241 1.04 1.793.874 1.084.874 1.181c.001.325 3.536 3.697 3.875 3.697.093 0 .492.323.886.717s.905.718 1.135.718.417.129.417.287.194.287.43.287.43.104.43.231c0 .255 2 1.203 2.536 1.203.183 0 .334.122.334.27s.58.356 1.29.463 1.29.308 1.29.448.452.254 1.004.254 1.005.116 1.005.258c0 .605 10.717 1.191 11.3.618.166-.166.857-.302 1.536-.302s1.234-.129 1.234-.287.452-.287 1.004-.287 1.005-.129 1.005-.287.257-.287.57-.287c.692 0 2.872-.913 2.872-1.202 0-.114.452-.291 1.004-.395s1.005-.303 1.005-.443.193-.255.43-.255.43-.109.43-.241.296-.376.658-.541c1.66-.757 6.27-5.513 7.29-7.522.285-.562.615-1.065.733-1.118s.216-.267.216-.478.137-.428.305-.484.38-.648.468-1.315.275-1.214.412-1.214.25-.193.25-.43.13-.431.287-.431.287-.426.287-.947.162-1.108.36-1.305c.265-.265.36-1.998.36-6.643s-.094-6.378-.36-6.643c-.197-.197-.36-.72-.36-1.162s-.13-.803-.287-.803-.287-.323-.287-.718-.114-.717-.255-.717-.34-.452-.443-1.004-.312-1.005-.462-1.005-.274-.258-.274-.573-.116-.574-.256-.574-.337-.323-.436-.718-.307-.717-.462-.717-.28-.135-.28-.3-.323-.623-.717-1.017-.718-.832-.718-.973c0-.365-3.084-3.449-3.45-3.449-.168 0-.618-.311-.998-.692s-1.215-.986-1.852-1.344-1.16-.752-1.16-.873-.452-.306-1.005-.41-1.004-.303-1.004-.443-.323-.255-.717-.255-.718-.129-.718-.287-.25-.287-.557-.287-.633-.123-.726-.274-.94-.361-1.882-.467-1.713-.306-1.713-.444-2.518-.25-5.595-.25-5.596.111-5.596.246m36.155 26.153v24.964h39.886v-12.051h-25.25v-6.887h23.53v-12.339h-23.53v-6.312h25.538v-12.339h-40.173v24.964m-29.268-12.912c0 .157.432.287.96.287s1.335.177 1.794.394 1.253.572 1.765.788.933.49.933.609.184.217.4.217.58.176.79.391c1.375 1.416 2.53 2.775 2.53 2.977 0 .13.262.424.582.655.325.234.658.897.755 1.504.095.597.286 1.155.423 1.24s.25.533.25.998.13.844.287.844c.164 0 .287.86.287 2.008s-.123 2.009-.287 2.009c-.158 0-.287.452-.287 1.004s-.115 1.004-.255 1.004-.34.452-.444 1.005-.28 1.004-.392 1.004-.38.401-.598.89c-.4.901-2.72 3.414-3.152 3.414-.13 0-.462.251-.74.558s-.878.64-1.336.74-.83.301-.83.447-.38.264-.843.264-.924.129-1.022.287-1.485.287-3.173.287c-1.806 0-2.996-.114-2.996-.287 0-.158-.323-.287-.717-.287s-.718-.124-.718-.274-.452-.359-1.004-.463-1.004-.303-1.004-.443-.145-.255-.323-.255c-.408 0-3.982-3.59-3.982-4 0-.167-.13-.304-.286-.304s-.288-.226-.29-.502-.195-.872-.43-1.324-.428-1.13-.428-1.507-.13-.684-.287-.684c-.17 0-.287-.999-.287-2.422 0-1.333.13-2.502.287-2.6s.287-.549.287-1.004.12-.901.265-.991.35-.549.453-1.021.307-.858.452-.858.264-.134.264-.299c0-.492 3.228-4.005 3.68-4.005.126 0 .48-.233.786-.518.68-.633 3.217-1.49 4.412-1.49.483 0 .88-.13.88-.287s.58-.287 1.29-.287 1.29.129 1.29.287m-111.566 5.452c.128 0 .232.258.232.573s.13.574.287.574.287.142.287.316c0 .467.93 2.379 1.268 2.61.16.11.206.287.1.393s-.402-.016-.658-.272-.65-.464-.874-.464-.4-.129-.4-.287-.258-.287-.574-.287-.574-.098-.574-.217-.37-.38-.82-.58c-.79-.35-1.028-1.786-.294-1.786.14 0 .253-.193.253-.43s.114-.43.254-.43.345-.291.458-.646c.2-.636.208-.634.52.143.173.434.42.79.546.79m-15.51 1.446c12.65 2.493 22.126 9.146 27.06 18.999 1.038 2.072.78 2.37-.78.901-8.046-7.576-14.356-9.398-25.747-7.435-11.334 1.953-16.662.203-16.637-5.465.027-6.011 6.608-8.871 16.104-7m-63.886 33.274c-.098.158-.374.287-.613.287-.56 0-2.113 1.547-2.113 2.106 0 .236-.097.471-.215.524-.335.149-1.22 2.202-1.22 2.831 0 .311-.13.565-.287.565s-.287.193-.287.43-.114.43-.254.43-.342.581-.448 1.292-.315 1.291-.463 1.291-.27.323-.27.717-.13.718-.287.718-.288.29-.29.645-.195 1.016-.43 1.468-.428 1.13-.428 1.506-.13.685-.287.685-.287.315-.287.7-.12.775-.267.866-.356.874-.464 1.742-.31 1.648-.45 1.734-.254.529-.254.984-.114.897-.253.983-.343 1.126-.455 2.312-.32 2.157-.464 2.157-.263.645-.263 1.434-.13 1.435-.286 1.435-.287.62-.287 1.377-.137 1.515-.305 1.682c-.444.444-.676 13.13-.298 16.31.52 4.366.652 5.155.92 5.437.142.15.257.562.257.916s.115.713.254.8.342.868.45 1.738.317 1.582.464 1.582.266.323.266.718.12.717.264.717.356.42.467.932.283.998.38 1.077c.34.272.897 1.428.897 1.861 0 .239.126.434.28.434s.363.323.462.717.295.718.436.718.256.258.256.574.12.574.267.574.36.29.472.645.41.841.665 1.08c.477.451 1.036 1.26 1.38 2.004.1.236.492.722.85 1.079.773.773.595 1.504-.365 1.504-.378 0-.687.129-.687.287s-.387.287-.86.287-.86.12-.86.267-.712.355-1.582.463-1.652.312-1.738.452-.655.253-1.264.253-1.15.127-1.202.282c-.075.221-7.94.901-9.996.864-3.195-.057-9.628-.62-9.705-.85-.054-.163-.604-.296-1.222-.296s-1.124-.117-1.124-.26-.646-.349-1.435-.457-1.435-.315-1.435-.458-.236-.26-.525-.26-1.16-.322-1.937-.716-1.52-.717-1.654-.717-.585-.243-1.004-.538-1.085-.635-1.48-.756-.782-.3-.86-.398c-.27-.336-2.257-1.753-2.458-1.753-.11 0-.4-.229-.665-.51s-1.045-.959-1.755-1.507c-1.49-1.148-3.444-3.071-3.444-3.387 0-.118-.42-.662-.934-1.208a21.99 21.99 0 0 1-1.582-1.902c-.374-.526-1-.991-1.505-1.099-.47-.104-.857-.307-.857-.453s-.774-.264-1.72-.264-1.722.119-1.722.264-.386.349-.857.453c-1.006.221-2.012 1.498-2.012 2.556 0 .409-.13.744-.287.744s-.287.388-.287.861.13.861.287.861.287.254.287.564c0 .885.9 2.569 1.486 2.752.287.091.522.355.522.586 0 .487 6.955 7.576 7.433 7.576.175 0 .6.323.942.717s.74.718.88.718.435.161.655.358c.95.852 1.274 1.076 1.556 1.076.164 0 .3.115.3.256s.323.337.717.436.718.307.718.462.193.281.43.281.43.115.43.255.443.338.984.439 1.025.284 1.076.405c.148.35 2.834 1.522 3.877 1.691.522.085.95.267.95.404s.25.249.557.249.633.123.726.274.94.361 1.882.467 1.713.307 1.713.444.452.25 1.004.25 1.005.129 1.005.287.62.287 1.377.287 1.502.125 1.655.278c.437.436 11.607.658 15.19.301 5.795-.577 6.17-.631 6.17-.893 0-.143.51-.26 1.13-.26s1.203-.116 1.29-.259.934-.348 1.882-.458 1.722-.317 1.722-.459.323-.259.717-.259.718-.114.718-.254.578-.341 1.284-.447 1.36-.314 1.452-.463.418-.27.724-.27.557-.13.557-.287.323-.287.717-.287.718-.129.718-.287.128-.287.284-.287c.5 0 2.585-.985 2.585-1.216 0-.12.142-.219.315-.219.453 0 2.343-.916 2.8-1.352.21-.203.564-.37.79-.37s.4-.129.4-.287.17-.286.376-.286.654-.259.993-.574.74-.574.894-.574.45-.164.658-.365 1.09-.878 1.957-1.506 1.85-1.432 2.185-1.787.754-.646.933-.646.325-.098.325-.218c0-.845 1.167-.881 2.06-.064.515.47 1.02.855 1.124.855s.68.452 1.283 1.005 1.18 1.004 1.285 1.004.594.387 1.09.861 1.065.861 1.265.861.525.258.722.574.55.574.787.574.428.12.428.267.28.357.623.466.89.445 1.214.747.883.624 1.24.714.652.278.652.419.258.256.574.256.574.127.574.281.322.363.717.462.717.295.717.436.26.256.574.256.574.129.574.287.196.287.434.287.66.122.933.273 1.015.483 1.646.741 1.355.576 1.608.707 1.06.329 1.793.439 1.334.315 1.334.455.45.254 1.004.254 1.004.129 1.004.287.49.287 1.09.287 1.25.159 1.444.354c.51.511 13.64.515 14.15.005.197-.198.914-.359 1.593-.359s1.233-.129 1.233-.287.38-.287.844-.287.916-.117 1.005-.26.806-.349 1.595-.457 1.434-.315 1.434-.458.18-.26.398-.26.768-.193 1.22-.428 1.047-.43 1.324-.431.502-.131.502-.288.193-.287.43-.287.43-.13.43-.287.258-.287.573-.287.574-.119.574-.264.388-.35.86-.454.862-.275.864-.381.514-.437 1.14-.736 1.392-.783 1.706-1.076.65-.533.746-.533c.214 0 2.03-1.345 3.003-2.223.393-.356.828-.646.967-.646s.81-.581 1.5-1.291 1.346-1.292 1.48-1.292.67-.451 1.19-1.004c1.155-1.225 1.43-1.24 2.577-.143.495.473 1.025.86 1.177.86s.6.323.994.718.853.717 1.018.717.3.121.3.268.3.359.645.471a2.81 2.81 0 0 1 1.076.696c.237.27.72.583 1.076.696s.646.324.646.471.194.268.43.268.43.109.43.243.548.487 1.22.785 1.452.753 1.736 1.011 1.1.705 1.793.995 1.278.619 1.278.732.42.296.932.408.997.283 1.076.381c.272.34 1.428.897 1.86.897.24 0 .435.121.435.269s.58.356 1.29.463 1.29.308 1.29.448.25.254.557.254.63.117.718.26.806.349 1.595.458 1.434.314 1.434.457.452.26 1.005.26 1.004.129 1.004.287.555.287 1.234.287 1.394.161 1.59.357c.265.265 2.126.357 7.218.357s6.953-.092 7.218-.357c.197-.196.84-.357 1.43-.357s1.153-.129 1.25-.287.492-.287.877-.287.7-.111.7-.247.668-.326 1.484-.423 1.617-.308 1.78-.47.527-.295.81-.295.517-.112.517-.25.516-.333 1.148-.434 1.147-.311 1.147-.467.194-.283.43-.283.43-.13.43-.287.248-.287.55-.287.626-.162.718-.359c.133-.285.202-.284.336.005.093.2.35.546.574.769s.405.543.405.712.097.308.215.309c.834.007 1.55 2.966.79 3.259-.237.09-.43.492-.43.891s-.13.726-.287.726-.287.509-.287 1.131-.13 1.211-.287 1.308-.287.679-.287 1.292.13 1.193.287 1.291.287.686.287 1.308.12 1.131.264 1.131.345.37.445.822.432 1.092.74 1.423.56.681.56.778.517.69 1.148 1.315 1.148 1.237 1.148 1.36.7.975 1.578 1.893 1.578 1.771 1.578 1.894.55.801 1.22 1.505c1.684 1.766 3.56 3.934 4.146 4.792.27.394 1.045 1.261 1.723 1.926s1.233 1.323 1.233 1.462c0 1.164 4.65 1.739 6.312.781a22.4 22.4 0 0 1 1.292-.687c.315-.15.798-.543 1.073-.873s.693-.6.93-.6.592-.259.79-.574.572-.574.833-.574.548-.194.64-.431.334-.43.54-.43c.467 0 2.04-1.416 2.475-2.227.4-.748.43-3.225.037-3.225-.158 0-.287-.194-.287-.43s-.13-.431-.287-.431-.287-.183-.287-.407c0-.512-.93-2.171-1.22-2.174-.118-.001-.215-.195-.215-.432s-.115-.43-.255-.43-.34-.452-.443-1.004-.297-1.005-.428-1.005-.61-.742-1.063-1.65-.92-1.693-1.04-1.745-.215-.224-.215-.379-.194-.478-.43-.714-.43-.68-.43-.984-.13-.554-.287-.554-.287-.193-.287-.43-.115-.43-.256-.43-.337-.323-.436-.718-.306-.717-.46-.717-.282-.258-.282-.574-.13-.574-.287-.574-.286-.194-.286-.43-.116-.431-.256-.431-.337-.323-.436-.717-.307-.717-.462-.717-.28-.259-.28-.574-.13-.574-.287-.574-.287-.192-.287-.427c0-.656-2.92-3.42-4.304-4.073-1.52-.717-5.165-1.419-5.165-.995 0 .105-.58.144-1.29.088s-1.292-.236-1.292-.399-.226-.505-.502-.76c-1.476-1.364-1.693-3.19-.38-3.19.17 0 .307-.102.307-.225s.416-.471.925-.772 1.2-.844 1.54-1.209.703-.664.8-.664.52-.323.913-.717.832-.718.972-.718.333-.245.428-.545c.415-1.309 1.502-1.008 3.498.968 1.04 1.03 2.038 1.873 2.218 1.873s.568.323.865.717.748.718 1.004.718.7.311.984.691a3.86 3.86 0 0 0 1.36 1.039c.462.191.84.461.84.6s.194.252.43.252.43.119.43.264.42.357.932.469 1.134.437 1.38.721.797.604 1.223.711.846.309.932.45.41.255.715.255.557.129.557.287.258.287.574.287.574.129.574.287.27.286.602.286c.543 0 1.91.498 3.167 1.154.258.135 1.26.335 2.224.444s1.754.311 1.754.448.452.25 1.004.25 1.005.117 1.005.26c0 1.312 22.852 1.311 24.232-.001.15-.142.7-.259 1.22-.259s.947-.112.947-.25.774-.337 1.72-.445 1.722-.317 1.722-.467.323-.273.717-.273.718-.114.718-.254.578-.341 1.284-.447 1.36-.314 1.452-.463.418-.27.724-.27.557-.13.557-.287.194-.287.43-.287.43-.115.43-.255.452-.34 1.004-.444 1.004-.311 1.004-.462.194-.274.43-.274.43-.113.43-.251.355-.323.79-.411 1.058-.411 1.385-.718.877-.647 1.22-.756.623-.319.623-.466.193-.267.428-.267.6-.259.787-.574.505-.574.684-.574.818-.452 1.42-1.005 1.198-1.004 1.322-1.004.923-.71 1.778-1.578c1.74-1.767 2.203-1.896 3.103-.861.343.395.776.717.962.717s.58.323.878.718.708.717.914.717.676.323 1.04.718.796.717.956.717.45.194.647.43.57.431.827.431.63.258.83.574.55.574.786.574.428.126.428.281.323.363.717.462.718.295.718.435.193.256.43.256.43.113.43.251.356.323.8.411a3.39 3.39 0 0 1 1.387.72c.328.308 1.006.65 1.506.76s.91.318.91.464.322.264.717.264.717.098.717.219c0 .299 2.164 1.215 2.872 1.215.314 0 .572.13.572.287s.322.287.717.287.717.123.717.273.775.36 1.722.467 1.722.308 1.722.445.452.25 1.004.25 1.004.116 1.004.258c0 .271.878.413 5.596.91 3.202.338 11.9.113 12.32-.319.152-.151.76-.275 1.35-.275s1.153-.129 1.25-.287.62-.287 1.165-.287.987-.114.987-.254.7-.342 1.578-.451 1.578-.317 1.578-.463.323-.267.718-.267.717-.114.717-.255.452-.339 1.004-.443 1.005-.312 1.005-.462.322-.274.717-.274.717-.103.717-.229.58-.467 1.292-.76 1.29-.642 1.29-.776.193-.244.43-.244.43-.097.432-.215.58-.454 1.29-.746 1.3-.647 1.3-.789.138-.259.306-.259c.306 0 1.925-1.131 2.976-2.08.306-.276.65-.502.767-.502s.732-.517 1.37-1.148 1.244-1.148 1.348-1.148.688-.484 1.3-1.076l1.473-1.393c.2-.175.646-.627.993-1.005a32.81 32.81 0 0 1 2.05-2.063c.834-.782 1.48-1.992 1.48-2.77 0-.323.13-.588.287-.588s.287-.387.287-.861-.13-.861-.287-.861-.287-.335-.287-.744c0-1.058-1.006-2.335-2.012-2.556-.47-.104-.857-.307-.857-.453s-.775-.264-1.722-.264-1.72.115-1.72.256-.324.337-.72.436-2.265 1.696-4.154 3.547c-3.948 3.868-4.187 4.083-4.56 4.083-.15 0-.318.105-.37.233-.144.35-3.326 2.636-3.67 2.636-.165 0-.3.129-.3.287s-.193.287-.43.287-.43.127-.43.281-.322.363-.717.462-.717.295-.717.436-.258.256-.574.256-.574.129-.574.287-.128.286-.285.286c-.5 0-2.584.986-2.584 1.216 0 .121-.323.219-.718.219s-.717.121-.717.27-.583.356-1.295.463-1.365.308-1.452.448-.46.254-.833.254-.72.125-.772.279c-.32.931-15.493.938-16.423.008-.158-.158-.64-.287-1.073-.287s-.857-.114-.943-.253-.87-.343-1.74-.452-1.582-.317-1.582-.463-.194-.267-.43-.267-.43-.129-.43-.287-.232-.287-.517-.287c-1.732 0-2.36-.88-1.348-1.891.394-.394.717-.877.717-1.071s.26-.54.574-.768.574-.579.574-.781.115-.367.256-.367.337-.323.436-.717.307-.717.46-.717.282-.248.282-.55.097-.593.215-.646c.312-.139 1.22-1.936 1.22-2.414 0-.224.13-.408.286-.408s.287-.193.287-.43.115-.43.255-.43.34-.452.444-1.005.312-1.004.462-1.004.274-.251.274-.557.122-.632.27-.724.358-.745.463-1.452.308-1.284.447-1.284.255-.323.255-.718.13-.717.287-.717.287-.441.287-.98.134-1.026.298-1.08.376-1.034.472-2.176.284-2.077.42-2.077.245-.767.245-1.705.13-1.784.287-1.882c.176-.108.287-2.388.287-5.882s-.11-5.774-.287-5.882c-.157-.098-.287-1.009-.287-2.026s-.115-1.848-.257-1.848-.348-1.034-.46-2.297-.32-2.369-.46-2.456-.257-.531-.257-.986-.13-.907-.287-1.004-.287-.557-.287-1.021-.113-.844-.25-.844-.335-.641-.44-1.423-.314-1.501-.467-1.595-.28-.488-.28-.873-.112-.7-.25-.7-.333-.517-.434-1.148-.31-1.148-.467-1.148-.284-.315-.284-.7-.13-.781-.287-.878-.286-.428-.286-.735-.115-.556-.255-.556-.34-.452-.444-1.005-.312-1.004-.462-1.004-.274-.196-.274-.434c0-.438-.083-.645-.956-2.387-.263-.526-.48-1.139-.48-1.363s-.13-.407-.287-.407-.287-.194-.287-.431-.113-.43-.25-.43-.322-.356-.41-.79c-.167-.833-1.91-2.836-2.994-3.442-1.12-.626-4.083-.21-4.09.573-.001.119-.215.216-.474.216-.54 0-2.97 1.467-2.97 1.793 0 .118-.185.215-.41.215s-.583.174-.795.386-.964.748-1.67 1.19-1.35.884-1.43.981-.636.432-1.24.746-1.322.781-1.6 1.038-.785.556-1.128.665-.624.318-.624.466-.194.267-.43.267-.43.129-.43.287-.244.287-.543.287-.617.194-.708.43-.428.431-.748.431-.583.129-.583.287-.194.287-.43.287-.43.113-.43.251-.355.323-.79.411a3.31 3.31 0 0 0-1.365.699c-.317.297-1.253.783-2.08 1.08s-1.505.645-1.505.772-.258.23-.574.23-.574.129-.574.287-.142.287-.315.287c-.387 0-2.356.901-2.554 1.168-.08.107-.563.286-1.076.397s-.933.321-.933.466-.258.265-.574.265-.574.129-.574.286-.322.287-.717.287-.717.13-.717.287-.162.288-.36.288-.94.294-1.65.652-2.098.905-3.085 1.218-1.793.665-1.793.783-.323.216-.717.216-.718.127-.718.283-.516.366-1.147.467-1.148.297-1.148.434-.323.25-.718.25-.717.13-.717.287-.254.287-.564.287c-.52 0-2.513.574-3.884 1.118-1.404.557-3.57 1.178-4.1 1.178-.325 0-.67.129-.768.287s-.492.287-.877.287-.7.114-.7.253-.838.344-1.862.453-1.936.319-2.025.464-.544.265-1.008.265-.844.108-.844.24c0 .214-2.167.632-5.667 1.092-.67.088-1.22.276-1.22.418s-.58.258-1.292.258-1.29.119-1.29.264-1.29.356-2.87.467-2.87.316-2.87.454-.7.25-1.578.25-1.578.113-1.578.252-1.873.346-4.162.46-4.234.324-4.32.466-1.435.257-2.995.257c-1.58 0-2.914.127-3.013.286-.107.174-2.15.287-5.165.287s-5.058.114-5.165.287c-.112.182-3.488.287-9.182.287s-9.07-.105-9.182-.287c-.108-.174-2.252-.287-5.473-.287-5.953 0-6.88-.243-7.42-1.95-.1-.348-.32-.632-.468-.632s-.268-.194-.268-.43-.127-.431-.28-.431-.363-.323-.462-.717-.268-.718-.376-.718-.572-.645-1.033-1.434-.94-1.435-1.065-1.435-.226-.132-.226-.293c0-.26-1.34-2.491-1.72-2.863-.212-.208-.835-1.22-1.06-1.722-.106-.237-.4-.624-.674-.861s-.573-.721-.685-1.076-.325-.646-.472-.646-.267-.193-.267-.43-.117-.43-.26-.43-.395-.39-.56-.865-.5-.941-.745-1.035-.444-.415-.444-.714-.12-.543-.268-.543-.36-.29-.47-.645-.444-.855-.737-1.11-.533-.601-.533-.769-.207-.512-.46-.766c-.455-.455.78-2.162 1.563-2.162 1.442 0 2.526-3.173 1.696-4.963-.575-1.238-3.854-2.48-4.365-1.653-.104.167-.39.303-.64.303s-.66.24-.915.533a2.88 2.88 0 0 1-1.095.732c-.347.11-.706.436-.798.724-.126.398-.536.555-1.706.652-1.706.141-2.26.54-2.9 2.094-.242.581-.73 1.14-1.128 1.291-.385.146-.865.529-1.065.851s-.528.584-.727.584c-1.526 0-2.175 4.107-.883 5.593.907 1.044 3.748 1.045 5.284.002 1.16-.788 1.838-.917 1.838-.35 0 .202.258.553.574.781s.573.569.573.76.162.523.36.738c.487.531 1.02 1.381 1.36 2.168.156.359.478.728.717.82s.435.411.435.71.12.543.267.543.36.29.472.645.41.84.665 1.076.707.915 1.008 1.507.64 1.076.756 1.076.284.226.377.502c.23.69.805 1.551 1.405 2.11.276.257.502.663.502.901s.193.595.43.791.43.535.43.753.115.395.256.395.333.201.427.446c.193.502-8.56.348-9.722-.171-.316-.14-1.542-.322-2.726-.404-9.545-.656-11.765-.857-11.765-1.066 0-.132-.904-.24-2.008-.24s-2.01-.118-2.01-.262-.807-.335-1.793-.423c-5.514-.494-8.537-.879-8.537-1.088 0-.129-.646-.235-1.435-.235s-1.434-.118-1.434-.261-1.227-.352-2.726-.464-2.726-.318-2.726-.457-.517-.253-1.148-.253-1.148-.129-1.148-.287-.525-.287-1.167-.287-1.4-.131-1.708-.29-1.322-.372-2.277-.471-1.735-.292-1.735-.428-.452-.246-1.004-.246-1.004-.116-1.004-.258-.904-.348-2.01-.459-2.008-.318-2.008-.46-.38-.258-.844-.258-.918-.12-1.01-.266-.873-.356-1.74-.464-1.573-.311-1.573-.45-.388-.254-.86-.254-.86-.129-.86-.287-.387-.287-.86-.287-.86-.12-.86-.266-.7-.355-1.578-.464-1.578-.311-1.578-.451-.323-.254-.717-.254-.718-.117-.718-.26-.645-.349-1.435-.457-1.434-.315-1.434-.458-.26-.26-.574-.26-.574-.129-.574-.287-.315-.286-.7-.286-.772-.115-.858-.255-.61-.339-1.165-.443-1.007-.313-1.007-.463-.323-.274-.718-.274-.717-.121-.717-.27-.58-.356-1.29-.463-1.292-.308-1.292-.448-.193-.254-.43-.254-.43-.097-.43-.215-.775-.463-1.722-.766-1.722-.627-1.722-.721-.548-.404-1.22-.688l-2.01-.855c-.434-.186-.79-.43-.79-.542s-.452-.289-1.004-.393-1.005-.303-1.005-.443-.193-.255-.43-.255-.43-.101-.43-.224-.646-.474-1.435-.78-1.435-.658-1.435-.781-.258-.224-.574-.224-.574-.115-.574-.255-.322-.337-.717-.436-.717-.307-.717-.462-.194-.281-.43-.281-.43-.129-.43-.287-.258-.287-.574-.287-.574-.115-.574-.256-.323-.337-.717-.436-.718-.307-.718-.461-.193-.282-.43-.282-.43-.127-.43-.281-.323-.363-.718-.462-.717-.295-.717-.436-.2-.256-.443-.256-.725-.263-1.07-.585-.92-.658-1.28-.748-.65-.279-.65-.419-.25-.256-.557-.256-.637-.129-.735-.287-.743-.287-1.434-.287-1.338.129-1.435.287m259.622 10.725c1.242.531 2.315 1.745 3.076 3.479l.89 2.008c6.315 13.868 6.183 31.834-.333 45.684l-1.42 3.105c0 .048-.594 1.092-1.32 2.32s-1.433 2.531-1.572 2.896c-.384 1.011-4.6-1.801-10.697-7.152-4.565-4.001-5.42-3.884-10.77 1.465-6.754 6.754-12.224 9.938-21.266 12.377-4.718 1.273-16.655 1.51-21.377.425l-3.013-.693c-4.092-.945-10.95-4.164-14.2-6.666-1.716-1.32-4.67-3.987-6.173-5.573-3.303-3.484-3.642-3.766-4.74-3.944-2.217-.36-2.976.018-6.163 3.065-1.026.981-2.575 2.359-3.443 3.062s-1.643 1.351-1.722 1.44-1.025.784-2.102 1.547c-2.34 1.656-1.835 1.986-5.47-3.573l-2.983-4.461c-.144-.165-.314-.423-.377-.574-.11-.258-7.144-10.916-12.066-18.278-2.4-3.576-2.686-4.334-1.607-4.112 5.303 1.089 39.022.047 50.573-1.563l5.165-.714c1.736-.24 3.802-.557 4.592-.706l4.017-.736 3.73-.718 8.465-1.976 5.595-1.508c7.874-2.138 18.45-6.235 26.973-10.449 6.315-3.122 8.194-4.162 14.634-8.104 3.025-1.852 3.613-2.01 5.103-1.373m-252.466 1.398c1.795 1.208 2.6 1.657 4.334 2.418 2.39 1.048 10.78 4.306 12.757 4.954 1.026.336 2.123.725 2.44.864 1.107.489 7.324 2.484 13.916 4.466 2.44.734 13.713 3.661 15.926 4.135l3.3.742 3.3.71 4.16.822a268.14 268.14 0 0 0 12.769 2.327l3.587.599c1.925.34 6.277.901 14.204 1.831 5.85.687 12.725 1.317 20.65 1.891 2.204.16 4.09.385 4.194.501.19.216 6.694 10.062 14.733 22.305l5.402 8.178c.485.711 1.43 2.148 2.103 3.195l1.22 1.904-1.196.577c-3.213 1.55-5.656 2.359-9.35 3.096-2.707.54-10.652.451-12.792-.143l-2.296-.637c-7.803-2.164-15.952-6.747-24.533-13.801-4.772-3.922-5.592-3.83-10.76 1.2-11.615 11.303-22.95 15.685-34.517 13.344-4.702-.952-7.403-2.015-13.44-5.292-1.324-.719-7.226-5.085-8.914-6.594l-3.296-3.032c-3.54-3.301-4.95-3.244-8.905.363-3.978 3.628-10.1 8.116-11.053 8.116-.16 0-.458-.42-.66-.933s-.682-1.642-1.07-2.51-.902-2.095-1.147-2.726-.62-1.352-.832-1.602-.293-.547-.18-.661.017-.134-.215-.045c-.442.17-.49.085-1.872-3.288-1.083-2.646-1.166-2.864-1.638-4.304-1.198-3.651-2.037-7.768-1.802-8.839.106-.481-.002-1.363-.257-2.094-.8-2.3-.55-10.25.446-14.104.303-1.176.282-1.178 2.4.148 2.718 1.703 5.503 3.329 7.125 4.161 2.49 1.278 5.1-1.679 3.567-4.028-.23-.351-2.89-2.117-5.91-3.924-6.226-3.725-5.876-3.198-4.602-6.938 2.593-7.616 5.13-9.758 8.706-7.352m5.643 22.282c-2.19 2.046-1.117 3.686 4.156 6.344 4.64 2.338 5.56 2.403 6.74.469 1.304-2.138.53-3.142-4.33-5.62-4.473-2.28-5.25-2.421-6.564-1.193m18.168 7.443c-2.085 1.301-1.8 3.878.536 5.024 1.64.801 8.633 2.64 12.686 3.336l3.157.592c.63.136 2.955.451 5.165.7l6.312.732c3.358.409 4.4.352 5.298-.288 2.495-1.776 1.215-5.172-1.95-5.172-.72 0-2.414-.137-3.763-.304l-5.897-.726c-6.038-.74-12.17-2.028-17.647-3.706-2.477-.759-2.945-.782-3.897-.188m133.02 46.961c.913.472 1.84 1.604 2.94 3.587l7.632 13.567c.34.596.62 1.206.62 1.354 0 .296-2.73 2.373-3.5 2.655-.457.17-12.147-13.094-13.51-15.332-2.09-3.425 2.18-7.709 5.8-5.831" fill="#042c34"/><path d="M114.49 4.194c-1.33.162-4.63 1.027-4.484 1.174.064.064.937-.108 1.94-.381 7.184-1.957 15.833.65 21.45 6.466.852.882 1.28 1.208.95.724-3.506-5.162-12.702-8.859-19.86-7.983m-6.554 1.878c-.685.315-1.19.628-1.12.697.14.141 2.796-.986 2.796-1.187 0-.217-.374-.108-1.676.49M104.6 8.046c-3.895 2.728-9.425 10.047-8.38 11.091.094.094.246-.074.338-.373 1.137-3.698 5.183-8.729 8.835-10.986.925-.572 1.27-.891.958-.891-.052 0-.84.521-1.75 1.159m30.772 5.943c.306.434.912 1.472 1.347 2.307s.848 1.459.92 1.388-.288-.884-.8-1.805c-1.318-2.377-1.52-2.68-1.787-2.68-.13 0 .013.356.32.79m2.36 4.375c0 .237.125.625.278.861.247.383.278.383.278 0 0-.236-.125-.624-.278-.861-.247-.382-.278-.382-.278 0m-42.155 2.442c-.54 2.247-.562 2.262-2.437 1.717-.894-.26-1.78-.422-1.965-.36-.282.094 3.237 1.083 3.845 1.08.262-.001 1.157-3.12 1.015-3.541-.062-.183-.268.313-.458 1.104m42.92-.003c.095.632.284 1.406.42 1.722.156.364.18.102.068-.717-.097-.71-.286-1.485-.42-1.722-.144-.255-.17.036-.068.717m-53.57 1.763c-.7.245-1.42.571-1.578.726s.23.092.86-.14a38.37 38.37 0 0 1 2.152-.71c.56-.161.75-.296.43-.304s-1.155.184-1.866.428m-3.586 1.833c-2.467 1.833-4.683 4.983-5.15 7.32-.166.828-.162.831.152.132l1.067-2.374c.79-1.758 3.223-4.493 4.66-5.235.468-.242.85-.502.85-.576 0-.304-.49-.077-1.578.733m57.862.77c-.047 1.93.305 2.407 1.73 2.352.54-.021.49-.076-.256-.292-.948-.274-1.018-.433-1.328-2.982-.057-.474-.123-.059-.147.922m3.897 3.072c2.91 1.364 4.514 3.005 5.743 5.883.376.88.615 1.27.53.866-.653-3.117-3.978-6.549-7.057-7.282-.394-.094-.042.146.784.533m-67.434 5.977a12.13 12.13 0 0 0 .068 2.798c.19 1.079.232.832.262-1.507.04-3.095-.088-3.594-.33-1.291m73.893 3.802c.002 1.88.04 2.07.205 1.051.11-.684.11-1.717-.003-2.295-.152-.779-.204-.457-.202 1.244m-73.507.726c-.135 3.038 5.002 8.286 9.593 9.799 1.776.586 54.55.553 56.384-.035 3.554-1.139 8.074-5.943 7.375-7.839-.07-.196-.23.032-.35.505-.674 2.644-2.957 5.219-5.748 6.484l-1.856.842-55.805-.152-2.152-1.034c-3.382-1.626-5.34-3.904-7.13-8.292-.16-.394-.3-.52-.31-.278m48.02 97.979c-6.273 1.981-8.328 8.66-3.64 11.835 2.93 1.985 6.153 2.164 14.138.789 11.39-1.963 17.7-.141 25.747 7.435 3.7 3.475-.685-4.543-4.84-8.872-7.63-7.949-23.62-13.644-31.404-11.187m202.607 44.296c-4.347 2.641-5.326 3.276-5.218 3.383.068.069 1.4-.68 2.958-1.663 4-2.524 5.724-2.39 7.615.593.856 1.35 1.097 1.398.41.081-1.272-2.436-3.9-3.527-5.764-2.394m-254.138 1.185c-1.287 1.061-4.4 7.138-3.897 7.631.073.073.354-.483.624-1.237 2.278-6.347 4.552-8.178 7.703-6.204.668.418 1.28.851 1.358.961.207.29 1.13.75 2.9 1.443 1.997.783 1.473.291-.604-.566-.868-.358-1.836-.882-2.152-1.164-2.16-1.933-4.263-2.239-5.93-.864m246.4 3.483c-2.548 1.465-3.165 2.083-.8.811 1.632-.881 3.303-1.994 2.962-1.974-.08.005-1.047.528-2.152 1.163m13.917-.742c0 .104.192.596.426 1.093s1.004 2.647 1.7 4.778 1.3 3.666 1.296 3.412c.015-.597-2.273-7.487-2.605-7.845-.14-.15-.253-.498-.253-.773s-.13-.579-.287-.677-.287-.092-.287.012m-249.904.537c.228.226 4.64 1.913 4.74 1.812.055-.055-.906-.512-2.137-1.015-2.05-.839-2.913-1.102-2.604-.797m5.14 1.963c.224.257 4.65 1.972 4.773 1.85.06-.06-.764-.448-1.83-.862-2.608-1.012-3.112-1.181-2.943-.988m222.438 2.678c-2.89 1.465-6.728 3.277-8.53 4.027s-3.23 1.413-3.17 1.473c.34.34 16.29-7.049 17.226-7.98.55-.548-.36-.138-5.525 2.48M93.28 189.5c.253.249 3.53 1.304 3.655 1.177.073-.073-.11-.213-.4-.311s-1.03-.359-1.625-.581c-1.036-.385-1.873-.532-1.62-.285m-25.275 1.892c-.18.663-.26 1.27-.18 1.349s.29-.399.468-1.062.26-1.271.18-1.35-.3.4-.468 1.063m29.698-.378c.333.326 3.335 1.3 3.5 1.135.06-.06-.515-.315-1.28-.565l-1.948-.652c-.366-.13-.46-.102-.272.082m4.305 1.525c.315.136.767.247 1.004.247.27 0 .218-.091-.144-.247-.315-.135-.767-.246-1.004-.246-.27 0-.218.091.144.246m1.72.574c.098.158.37.287.604.287s1.456.333 2.713.74 2.446.676 2.64.597c.24-.097.214-.152-.075-.168-.237-.013-1.64-.411-3.12-.883-3.036-.97-3.004-.964-2.763-.573m-34.433 1.093c.947.598 3.448 2.11 5.557 3.359 4.107 2.432 4.67 2.982 4.716 4.617.026.945.058.986.316.407.72-1.612-.588-2.79-7.927-7.141-4.035-2.392-5.748-3.191-2.662-1.242m41.176.873c.237.139.818.336 1.292.439.55.119.706.095.43-.066-.237-.139-.818-.336-1.29-.439-.55-.119-.706-.095-.43.066m225.822-.077c-.005.367.86 4.385 1.17 5.428.196.662.217.529.092-.573-.232-2.052-1.246-5.953-1.26-4.855m-222.952.981c.237.153.69.271 1.004.262l.574-.016-.574-.246c-.858-.369-1.575-.369-1.004 0m183.215.325c-1.564.634-2.15 1.025-1.007.673 1.055-.325 3.06-1.244 2.727-1.249-.157-.003-.932.257-1.72.576m-181.206.206c.236.141.946.34 1.578.442.72.117.988.091.717-.07-.237-.141-.947-.34-1.578-.442-.722-.117-.988-.091-.717.07m3.3.904a3.51 3.51 0 0 0 1.148.246h.574l-.574-.246c-.315-.136-.832-.247-1.148-.247h-.574l.574.247m174.893 0c-.383.247-.383.278 0 .278.236 0 .624-.126.86-.278.382-.248.382-.279 0-.279-.237 0-.625.126-.86.279m-172.3.604c2.012.638 2.644.806 3.73.994 1.945.337.994-.082-1.617-.713-2.558-.618-3.625-.759-2.113-.281m168.642.628c-1.465.502-2.54.954-2.39 1.004.28.094 4.43-1.254 5.198-1.689.818-.462-.153-.226-2.807.685m-223.162.927c.872.706 1.7 1.121 1.452.737-.108-.175-.608-.517-1.11-.76-.85-.411-.873-.409-.34.023m59.972-.151c.315.136.896.247 1.29.247.654 0 .667-.022.144-.247-.316-.136-.897-.246-1.292-.246-.654 0-.666.021-.143.246m-60.848 1.275c-.108.576-.132 1.112-.053 1.191s.232-.328.34-.904.132-1.111.053-1.19-.232.328-.34.903m63.43-.739c.316.139 1.155.333 1.865.433.84.118 1.09.093.718-.07-.316-.139-1.155-.333-1.865-.433-.84-.118-1.09-.093-.718.07m156.282.08c-.53.153-.91.331-.845.397.145.145 2.24-.412 2.24-.596 0-.169-.228-.136-1.394.199m-216.396 1.106c.394.308.803.564.91.567s1.234.652 2.506 1.441 2.412 1.432 2.534 1.429c.276-.008-1.136-1.127-1.433-1.135-.12-.004-1.25-.652-2.508-1.441-2.325-1.458-3.312-1.88-2.008-.861m63.988-.287c1.053.337 2.363.337 1.578 0-.315-.136-.96-.243-1.434-.238-.84.008-.843.014-.144.238m149.785 0c-.57.368.146.368 1.004 0l.574-.247-.574-.016c-.316-.008-.767.11-1.004.263m-147.16.426c.233.233 6.304 1.356 6.465 1.196.082-.083-.348-.232-.955-.332s-1.97-.366-3.028-.592c-2.005-.429-2.717-.507-2.482-.272m144.648.182c-.513.148-.932.327-.932.397 0 .182 1.78-.176 2.295-.462.6-.334-.1-.3-1.363.065m-2.94.827c-.548.354.042.354 1.148 0l.717-.23-.717-.024c-.395-.014-.91.101-1.148.254m60.46 2.008c.088 1.342.208 2.493.266 2.559.202.226.04-3.278-.193-4.137-.138-.514-.168.122-.073 1.578m-194.462-1.435c.395.127 1.17.228 1.722.225l1.004-.006-.86-.219c-1.263-.321-2.868-.321-1.865 0m131.707 0l-.717.23.717.009c.395.004.976-.103 1.292-.239l.573-.246-.573.008c-.316.005-.897.112-1.292.238m-209.86 1.076c-.25 1.507-.22 9.327.036 9.727.116.181.21-2.175.21-5.237 0-6.124.006-6.015-.247-4.49m81.452-.539c.316.134 1.413.318 2.44.409 1.283.115 1.552.093.86-.071-1.574-.373-3.96-.617-3.3-.338m125.698.073c-1.588.372-1.68.603-.15.369 1.308-.199 2.608-.696 1.71-.654-.237.011-.94.139-1.562.285m-189.715.94c-1.21 1.209-1.336 2.744-.33 3.967.628.762 7.502 4.526 8.266 4.526.212 0-1.43-.916-3.645-2.037-4.285-2.166-4.98-2.803-4.98-4.563 0-1.193 1.415-2.582 2.632-2.582 1.54 0 8.72 3.888 9.252 5.011.747 1.575.206 3.072-1.357 3.751-.61.266-.735.402-.374.409 2.574.054 3.1-4.21.686-5.668-5.883-3.569-8.633-4.331-10.15-2.814m69.182-.115c1.263.322 2.87.322 1.865 0-.395-.126-1.17-.227-1.722-.224l-1.004.005.86.219m117.073 0l-.574.247.574-.009c.316-.004.897-.111 1.29-.238l.718-.23-.718-.008a3.81 3.81 0 0 0-1.291.238m-193.356.646c.073.118.57.215 1.104.215s1.03-.097 1.103-.215-.423-.215-1.103-.215-1.177.096-1.104.215m80.157-.105c.394.126 1.685.302 2.87.393 1.353.104 1.78.079 1.148-.065-1.414-.324-4.9-.608-4.017-.328m109.038.194c-1.025.216-2.362.469-2.97.564s-1.032.247-.94.337c.188.188 5.482-.703 6.35-1.068l.574-.242-.574.009c-.315.004-1.413.185-2.44.4M161 205.56c.065.06 1.023.183 2.128.274 1.268.104 1.744.075 1.29-.08-.702-.24-3.655-.407-3.42-.194m5.858.737c.864.236 4.074.397 3.85.194-.066-.06-1.153-.18-2.415-.268-1.408-.099-1.963-.07-1.435.074m89.24.188l-4.018.674-1.434.274 1.72-.132c3.438-.263 8.957-1.218 7.03-1.216-.394 0-1.88.18-3.3.4m-83.932.395c1.85.32 7.038.615 5.596.318-.63-.13-2.44-.305-4.017-.389-1.79-.095-2.383-.068-1.58.071m8.752.879c.947.117 2.56.207 3.587.201l1.865-.013-1.865-.21a37.62 37.62 0 0 0-3.587-.201l-1.72.009 1.72.214m65.567-.012l-1.29.201 1.29.022a16.17 16.17 0 0 0 2.582-.208l1.292-.23-1.292.008a21.19 21.19 0 0 0-2.582.207m-56.602.645l2.65.276 1.057 1.476c1.928 2.695 1.868 2.301-.108-.708-.734-1.117-1.944-1.448-4.96-1.358-.82.025-.32.14 1.36.314m48.597-.035c-1.956.132-3.632.315-3.724.407-.208.208 6.822-.16 8.573-.449l1.29-.213-1.29.007c-.71.005-2.892.116-4.85.248m-38.193.683c0 .237 1.014 1.948 2.253 3.802l12.043 18.363c.05.197.22.359.376.359.337 0 .516.299-2.922-4.878-9.7-14.604-11.313-17.125-11.25-17.576.037-.276-.06-.502-.215-.502s-.284.194-.284.432m10.265.251c5.5.146 12.616.146 16.786 0 6.45-.225 5.413-.252-9.547-.252-16.71 0-16.743.001-7.24.252m127.844 1.182c.002.947.055 1.3.12.784s.063-1.29-.003-1.721-.118-.009-.116.937m-237.988 1.844c-.46.461-.833 1.01-.827 1.219s.203.028.437-.402a3.53 3.53 0 0 1 1.208-1.208c.43-.234.61-.43.402-.437s-.758.366-1.22.828m3.18-.598c.237.147.882.352 1.435.456.667.125.86.099.573-.078-.236-.147-.882-.351-1.434-.455-.668-.126-.86-.1-.574.077m2.87.907a1.9 1.9 0 0 0 .861.278c.383 0 .383-.031 0-.278-.237-.153-.624-.279-.86-.279-.382 0-.382.031 0 .279m88.842.071c.638 1.087 2.45 3.659 2.578 3.659.194 0-.027-.373-1.408-2.367-1-1.459-1.74-2.267-1.17-1.292m-87.383.334c.18.18 5.018 1.32 5.467 1.289.215-.015-.835-.335-2.335-.712-2.72-.684-3.358-.801-3.132-.577m230.003 2.707c-.124 1.159-.162 2.171-.085 2.248.2.201.548-2.831.42-3.659-.06-.384-.2.251-.334 1.411m-272.056.413c.06 2.955.126 3.533.368 3.153.124-.197.24.337.26 1.205.036 1.53.62 3.341.65 2.016.01-.435.073-.479.26-.183.21.331.27.331.39 0 .078-.215.133.087.122.67-.018.954.173 1.567.987 3.168.14.274.254.715.254.98s.075.406.168.314c.294-.295-.476-3.392-.794-3.195-.186.115-.23-.031-.114-.392.1-.316-.001-1.14-.225-1.829s-.495-1.635-.602-2.1c-.155-.674-.254-.762-.484-.431-.216.309-.256.202-.156-.414.1-.682-.692-4.316-1.026-4.65-.052-.052-.078.707-.06 1.688m48.772-1.517c.316.136.96.243 1.435.238.84-.008.843-.014.143-.238-1.052-.337-2.362-.337-1.578 0m-15.054.574c.014.682 1.005 1.696 2.11 2.158 1.474.616 1.687.482.25-.156-.712-.316-1.455-.933-1.792-1.486-.318-.521-.573-.753-.57-.516m18.21-.034c.315.131 1.477.311 2.582.402 1.316.107 1.662.083 1.004-.069-1.532-.355-4.25-.607-3.586-.333m6.025.911c.632.131 1.665.23 2.296.221l1.148-.016-1.148-.238c-.63-.13-1.664-.23-2.296-.221l-1.147.017 1.147.237m5.452.556c.632.141 1.862.263 2.734.272 3.354.035 4.785 2.83 2.528 4.938-.953.891-.708 1.147.28.291 2.8-2.429.747-5.334-3.963-5.601-1.946-.111-2.397-.082-1.578.1m68.904.36c.797 1.333 5.076 7.676 5.178 7.676.175 0 .038-.22-2.715-4.376-1.333-2.012-2.48-3.658-2.55-3.658s-.03.161.088.358m-94.8.958c.092.093.598.278 1.124.412l3.107.831c1.184.323 2.4.577 2.726.565s-.588-.322-2.01-.689l-3.585-.977c-1.113-.345-1.62-.397-1.363-.142m233.938 1.697c-.114.631-.39 1.784-.6 2.563-.428 1.504-.504 2.082-.24 1.818.272-.272 1.31-4.843 1.182-5.197-.067-.183-.216.184-.33.816m-225.833.403c.813.372 6.153 1.287 6.35 1.089.09-.09-.333-.241-.94-.334s-1.75-.288-2.54-.432c-2.962-.541-3.474-.598-2.87-.323m-44.31 1.205c-.253.632-.276.639-.293.089-.01-.328.068-.683.173-.789.343-.342.4-.003.12.7m52.2.257c.394.126 1.298.226 2.008.222l1.292-.007-1.292-.23c-.7-.126-1.614-.226-2.008-.222l-.718.007.718.23m4.447.563c.632.129 2.375.306 3.874.394 1.787.104 2.28.079 1.435-.072-1.794-.322-6.793-.625-5.31-.322m8.25.782a2.33 2.33 0 0 0 1.004 0c.276-.072.05-.131-.502-.131s-.778.059-.502.131m-64.897.807c-.008.316.1.767.263 1.004.368.571.368-.146 0-1.004l-.247-.574-.016.574m268.204 2.794a100.03 100.03 0 0 1-1.331 3.59c-.332.829-.548 1.507-.48 1.507.333 0 2.9-6.808 2.67-7.049-.073-.073-.46.805-.86 1.952m-131.746-1.144c1.08 1.785 11.354 17.145 11.467 17.145.192 0 .006-.31-1.632-2.726l-5.543-8.393c-2.3-3.512-4.256-6.385-4.346-6.385s-.066.162.054.359m-135.732.645c.102.474.312.99.467 1.148.185.189.2.041.072-.43-.34-1.159-.75-1.705-.54-.718m.704 1.758c-.01.178.31 1.082.716 2.009l1.076 2.478c.196.457.498.731.714.649.206-.079.304-.031.22.107s.024.401.244.583.482.664.584 1.07.25.676.327.598c.204-.203-.75-2.53-1.367-3.336-.288-.377-.528-.57-.534-.431-.01.224-.304-.377-1.636-3.332-.178-.395-.332-.573-.343-.395m21.013 2.604c-.347.067-2.027 1.373-3.733 2.902-3.215 2.88-6.282 5.259-8.943 6.936-1.637 1.031-2.33.85-2.33-.608 0-.276-.13-.582-.286-.679-.39-.24-.365-.061.174 1.285.254.635.595 1.154.758 1.154.966 0 7.072-4.481 11.057-8.116 4.264-3.888 5.27-3.815 10.1.732 2.8 2.642 4.606 4.084 4.606 3.678 0-.171-.108-.311-.24-.311s-1.937-1.533-4.012-3.407c-4.128-3.727-4.738-4.032-7.14-3.566m69.85.171c-.438.19-2.246 1.775-4.017 3.522-3.566 3.517-6.53 5.978-9.467 7.86-1.068.685-1.885 1.301-1.816 1.371.158.158 3.16-1.85 5.623-3.762 1.026-.796 3.544-3.081 5.595-5.077 5.17-5.03 5.99-5.122 10.76-1.2 4.302 3.536 12.17 8.944 12.512 8.601.064-.064-.82-.674-1.965-1.354-2.756-1.638-6.843-4.576-10.525-7.565-3.433-2.789-4.73-3.252-6.7-2.396m75.115-.161c-.8.202-1.12.454-4.26 3.354-1.526 1.408-3.158 2.829-3.628 3.156s-.855.704-.858.836c-.007.341 2-1.286 4.602-3.75 3.468-3.272 3.56-3.329 5.407-3.329 1.966 0 2.47.307 4.764 2.899 1.796 2.03 5.838 5.766 6.684 6.179.27.131-.156-.309-.946-.978s-2.984-2.787-4.878-4.707c-3.787-3.838-4.556-4.247-6.886-3.66m77.366.082c-.376.16-2.38 1.999-4.454 4.088-5.273 5.311-11.115 9.134-16.8 10.993-.8.265-1.42.534-1.355.598.225.226 2.955-.822 6.075-2.333 4.47-2.164 7.736-4.589 12.227-9.08 5.353-5.353 6.21-5.469 10.77-1.456 2.704 2.379 7.186 5.866 8.227 6.401.892.458.393.031-2.385-2.041-2.228-1.662-5-3.925-6.455-5.268-2.08-1.922-4.188-2.607-5.85-1.902m-96.554 1.787c.915 1.527 4.475 6.815 4.59 6.815.186 0 .087-.161-2.42-3.945-1.177-1.776-2.194-3.228-2.262-3.228s-.025.161.093.358m116.925 1.588c-.728 1.491-3.236 6.039-3.646 6.614-.037.052-.337-.05-.666-.226-.834-.446-.75-.178.122.394.692.453.73.446.97-.185.137-.361.672-1.366 1.187-2.233 1.214-2.039 3.21-6.055 3.077-6.189-.056-.056-.527.765-1.045 1.825m-259.717 1.891c0 .316 1.215 2.791 1.32 2.687.14-.14-1-2.794-1.19-2.794-.072 0-.13.048-.13.107m28.805 2.423c.245.396 4.58 3.53 5.915 4.276 3.69 2.06 4.37 2.408 4.485 2.291.072-.072-.682-.551-1.675-1.065-2.08-1.077-5.05-2.959-7.335-4.645-.87-.644-1.497-1.03-1.4-.857m122.014 1.292l-1.98 1.45-.7-.842c-.42-.504-.58-.603-.404-.246.706 1.421 1.05 1.417 3.12-.041 2.367-1.667 2.208-1.538 2.063-1.666-.066-.058-1 .547-2.098 1.345m24.504.701c0 .464 7.908 4.881 8.206 4.583.065-.065-1.076-.721-2.537-1.458s-3.334-1.789-4.163-2.339-1.506-.904-1.506-.786m-68.764 2.012c.237.383 5.1 2.715 5.272 2.533.086-.086-.17-.281-.572-.434s-1.658-.745-2.794-1.317-1.993-.924-1.906-.782m-37.406 2.217c-1.025.537-1.764.983-1.64.99.305.019 3.65-1.681 3.65-1.855 0-.193.067-.222-2.01.865m-29.555.57c0 .165 1.62.862 2.608 1.122.38.1-.002-.143-.85-.54-1.63-.762-1.757-.804-1.757-.582m72.72.116c.108.175.422.318.696.318s.623.113.773.25.66.327 1.133.422c.732.146.688.093-.288-.352-1.73-.788-2.546-1.013-2.314-.638m71.755-.069c.39.368 3.293 1.351 3.47 1.175.077-.077-.485-.345-1.25-.595l-1.948-.653c-.356-.126-.454-.1-.272.073m-117.934.828c-.72.347-.744.386-.143.241.395-.095.84-.287 1-.427.372-.348.168-.303-.847.186m73.458 0c-.72.347-.744.386-.143.241.394-.095.84-.287 1-.427.372-.348.167-.303-.847.186m-96.27.707a1.9 1.9 0 0 0 .861.278c.383 0 .383-.031 0-.278a1.9 1.9 0 0 0-.861-.278c-.382 0-.382.031 0 .278m20.66 0c-.382.247-.382.278 0 .278a1.9 1.9 0 0 0 .861-.278c.383-.247.383-.278 0-.278a1.9 1.9 0 0 0-.861.278m52.224 0c.237.153.69.271 1.004.262l.574-.015-.574-.247c-.857-.369-1.574-.369-1.004 0m21.234 0c-.383.247-.383.278 0 .278a1.9 1.9 0 0 0 .861-.278c.382-.247.382-.278 0-.278a1.9 1.9 0 0 0-.861.278m50.79 0c.237.153.69.271 1.004.262l.574-.015-.574-.247c-.857-.369-1.574-.369-1.004 0m26.686 0c-.57.369.146.369 1.004 0l.574-.247-.574-.015c-.315-.009-.767.109-1.004.262m-169.584.542c.237.135.947.324 1.578.421.724.111.936.087.574-.064-.84-.349-2.673-.654-2.152-.357m16.413.028c-1.385.328-1.544.664-.2.423 1.243-.223 2.386-.707 1.58-.668-.237.011-.857.122-1.378.245m56.25-.121c.3.31 3.604.963 5.565 1.104l1.973.142-1.722-.281a79.64 79.64 0 0 1-3.628-.704c-2.088-.463-2.43-.504-2.188-.261m17.024.161c-.622.145-1.203.338-1.29.427-.23.233 2.053-.204 2.565-.491.53-.298.195-.281-1.274.064m55.507-.071c.236.138 1.076.329 1.865.426.876.107 1.21.082.86-.065-.827-.348-3.255-.669-2.726-.361m21.537.061c-1.93.378-2.07.542-.303.354 1.448-.154 3.156-.688 2.008-.627-.237.013-1.004.135-1.705.273m-162.857.851c.63.131 1.6.23 2.152.221l1.004-.016-1.148-.238c-.63-.13-1.6-.23-2.152-.221l-1.004.017 1.148.237m7.89-.016l-1.005.211 1.005.021c.552.012 1.52-.085 2.152-.216l1.148-.237-1.148.004c-.63.003-1.6.1-2.152.217m73.17 0l-1.004.211 1.004.021c.553.012 1.52-.085 2.153-.216l1.147-.237-1.147.004a12.88 12.88 0 0 0-2.153.217m64.993.013a21.15 21.15 0 0 0 2.87.208l1.434-.015-1.578-.218c-.868-.12-2.16-.214-2.87-.209l-1.29.01 1.434.224m10.76-.013l-1.292.2 1.435.022c.79.012 2.016-.081 2.726-.208l1.29-.229-1.434.007a22.12 22.12 0 0 0-2.726.208m-48.834 11.328c-1.863 1.266-2.525 3.793-1.453 5.55.5.821 12.974 15.546 13.168 15.546.202 0 .097-.252-.26-.625-.2-.208-1.4-1.606-2.645-3.105l-2.436-2.869c-.085-.079-.863-.983-1.73-2.009l-1.72-2.009c-.618-.602-3.227-3.801-3.837-4.702-1.57-2.321-.577-5.015 2.248-6.108.655-.253.728-.342.292-.359-.318-.012-1.05.299-1.626.69m3.64-.257c1.01.364 2.697 1.903 2.718 2.478.004.113.633 1.276 1.397 2.582l3.6 6.322c1.217 2.17 2.275 3.946 2.352 3.946.175 0 .01-.312-3.12-5.883l-3.294-5.882c-1.502-2.72-2.928-4.05-4.284-3.997-.284.011 0 .206.63.434m10.186 15.706c0 .114.323.718.718 1.343.95 1.506.956 1.487-.86 2.739-.868.598-1.524 1.142-1.457 1.208.18.179 3.322-2.198 3.322-2.512s-1.076-2.307-1.462-2.712c-.143-.15-.26-.179-.26-.066" fill="#4ba3d3"/></svg>