<svg xmlns="http://www.w3.org/2000/svg" xmlns:xlink="http://www.w3.org/1999/xlink" width="82" height="141"><defs><path d="M15.756 7.92C15.756 3.546 12.23 0 7.878 0S0 3.546 0 7.92s15.756 4.374 15.756 0z" id="A"/><path d="M26.4 13.01C26.4 5.825 20.5 0 13.2 0S0 5.825 0 13.01s26.4 7.186 26.4 0z" id="B"/><path id="C" d="M.327.32h28.02v43.186H.327z"/><path id="D" d="M0 .373h10.588V6.23H0z"/><path id="E" d="M.373.005H7.77v7.396H.373z"/><path id="F" d="M40.8 4.188c-1.548.357-2.513 1.9-2.155 3.45s1.9 2.513 3.45 2.155 2.513-1.9 2.155-3.45-1.902-2.513-3.45-2.155"/></defs><g fill="none" fill-rule="evenodd"><path d="M.21 29.88c-.707-1.69.333-4.73 3.828-4.475-.707-3.167 3.246-7.346 8.447-5.53 4.452-6.67 15.937-3.715 15.978 5.024 4.62-.802 6.117 3.59 4.535 4.982H.21z" fill-opacity=".35" fill="#e6e6e6"/><path d="M41.648 4.63a6.62 6.62 0 0 1 6.616 6.616 6.62 6.62 0 0 1-6.616 6.616 6.62 6.62 0 0 1-6.616-6.616 6.62 6.62 0 0 1 6.616-6.616m0-1c.546 0 .992-2.23.992-2.73s-.445-.9-.992-.9-.992.408-.992.9.447 2.73.992 2.73m-3.774.966c.44-.254-.317-2.417-.56-2.855-.26-.43-.804-.557-1.214-.284a.95.95 0 0 0-.307 1.206c.242.438 1.64 2.2 2.08 1.932M32.2 6.834c.452.273 2.55 1.107 2.8.63s-1.5-2.064-1.897-2.347c-.42-.294-.98-.157-1.248.305s-.143 1.076.278 1.37l.066.042m1.83 4.414c0-.546-2.23-.992-2.73-.992s-.9.445-.9.992.408.992.9.992 2.73-.447 2.73-.992m-1.832 4.412c-.442.255-.613.854-.382 1.34s.777.674 1.22.42l.066-.042c.452-.273 2.147-1.87 1.894-2.347s-2.4.357-2.797.63m3.585 4.16c-.226.452-.06 1 .373 1.245a.86.86 0 0 0 1.154-.322c.243-.438.984-2.602.56-2.855s-1.844 1.494-2.087 1.933m5.854-.965c-.546 0-.992 2.228-.992 2.73s.445.9.992.9.992-.408.992-.9-.447-2.73-.992-2.73m3.772-.956c-.44.254.317 2.416.56 2.854.26.43.804.557 1.214.284a.95.95 0 0 0 .307-1.206c-.242-.438-1.64-2.2-2.08-1.932m5.723-2.32c-.438-.242-2.602-.998-2.855-.56s1.494 1.838 1.933 2.08c.452.226 1 .06 1.245-.372.222-.405.082-.905-.322-1.15m.84-5.323c-.5 0-2.73.447-2.73.992s2.23.992 2.73.992.9-.445.9-.992-.408-.992-.9-.992m-.84-3.34c.43-.26.557-.804.284-1.214-.257-.386-.78-.52-1.206-.307-.438.242-2.2 1.64-1.932 2.08s2.416-.317 2.854-.56M47.78 2.722c.293-.424.156-.987-.304-1.257s-1.073-.144-1.366.28l-.042.066c-.272.4-1.123 2.544-.628 2.795s2.068-1.475 2.34-1.884" fill="#ffc100"/><g transform="matrix(-1 0 0 1 26 96.8)"><path stroke="#0c9b70" stroke-width="1.6" stroke-linecap="round" stroke-linejoin="round" d="M9.397 34.914v-28"/><path d="M10.45 9.803C12.1 8.167 11.85 5.27 9.6 3S.654 0 .654 0s.738 6.67 2.997 8.93 5.16 2.507 6.8.872m-.67 13.358c-1.036-.947-.883-2.624.543-3.933s5.644-1.742 5.644-1.742-.466 3.862-1.893 5.17-3.26 1.45-4.294.505" fill="#23d5a0"/></g><g transform="matrix(-1 0 0 1 48.8 121.6)"><use fill="#4d626e" xlink:href="#A" transform="translate(24.331 6.723)"/><use fill="#3f525e" xlink:href="#B" transform="translate(0 .245)"/></g><g transform="translate(29.6 19.2)"><path stroke="#494949" stroke-width=".747" stroke-linecap="square" d="M21.4 29.602l-4.602 7.516"/><g transform="translate(0 .528)"><path d="M26.305 61.473c-1.305 5.23 2.942 48.428 2.942 52.488l4.783-1.15v-27.2l-4.88-25.43-2.845 1.29z" fill="#744d4d"/><path d="M38.574 112.206c1.326 2.11 1.657 3.74.994 4.89s-5.717 1.63-15.164 1.438c-1.16-2.11-.663-3.547 1.49-4.314s5.386-1.534 9.695-2.3l2.983.287z" fill="#2a3942"/><path d="M38.557 113.674h4.18c.394-1.978 4.37-44.797 2.487-53.365S31.785 61.63 31.785 61.63c.35 3.5 6.076 49.275 6.772 52.043" fill="#744d4d"/><path d="M44.326 113.1c1.326 2.11 1.658 3.74.995 4.89s-5.717 1.63-15.164 1.438c-1.16-2.11-.663-3.547 1.492-4.314s5.386-1.534 9.695-2.3l2.983.288z" fill="#2a3942"/><path d="M35.897 99.852c12.626-13.595 8.16-36.923 8.39-38.446.43-2.836-19.017-1.765-19.017-1.765-.147.968-4.575 20.745-6.66 38.385 0 0 9.672 5.516 16.022 2.606 0 0 .803-.284 1.263-.78" fill="#dad5b2"/><g transform="translate(24 59.733)"><mask id="G" fill="#fff"><use xlink:href="#C"/></mask><path d="M7.218 42.183c-15.748-5.45.422-34.92.43-40.987C9.775.142 22.726-.406 23.515 2.214c.41 1.366 3.586 19.607 4.832 36.302 0 0-8.335 8.096-21.13 3.668" fill="#fefbe2" mask="url(#G)"/></g><path d="M39.014 23.4c-13.7 0-14.34 36.97-13.738 37.636s14.534 3.795 22.126.308c1.852-8.922.593-37.944-8.388-37.944" fill="#ee6c5d"/><path d="M25.715 49.224c-.9-.18-13.122-5.87-15.89-8.3s.54-4.29 1.582-3.668 11.9 5.392 14.13 6.09.18 5.87.18 5.87" fill="#744d4d"/><path d="M9.655 29.037l-8.34 3.9a1.15 1.15 0 0 0-.556 1.529L7.564 49.05a1.15 1.15 0 0 0 1.529.557l8.34-3.9a1.15 1.15 0 0 0 .556-1.529l-6.806-14.596a1.15 1.15 0 0 0-1.529-.557" fill="#fff"/><g transform="translate(0 27.2)"><mask id="H" fill="#fff"><use xlink:href="#D"/></mask><path d="M5.02 3.554a.82.82 0 1 1 0-1.643.82.82 0 0 1 0 1.643M10.507.87C10.306.44 9.792.253 9.36.454l-3.004 1.4c.01-.143-.01-.29-.074-.43C6.08 1 5.568.804 5.136 1.005l-1.564.73c-.432.2-.62.715-.418 1.146.066.14.166.25.283.335L.5 4.586C.067 4.788-.12 5.3.08 5.733s.715.62 1.147.417L10.1 2.017c.432-.202.62-.715.417-1.147" fill="#8c6629" mask="url(#H)"/></g><path d="M19.673 30.82c.815.06 1.78 3.032 2.354 3.628 1.756.84 13.086 7.55 13.983 8.23-.073-.676.36-2.124.937-3.492l7.193 3.188c-.38 2-3.816 7.64-5.457 7.903-4.308.7-14.854-9.65-17.555-12.444-1.144-.554-3.203-1.696-3.43-3.158-.9-.98.8-3.945 1.976-3.857" fill="#744d4d"/><path d="M44.68 43.275c-2.432.44-7.892-2.67-8.078-4.022s3.11-12.43 7.908-10.497c6.83 2.638 2.167 13.006.17 14.52" fill="#d75647"/><g fill="#744d4d"><path d="M38.056 5.304c-3.51-.163-6.61 3.447-6.924 8.063s2.277 8.49 5.788 8.652 6.61-3.447 6.925-8.063-2.278-8.49-5.788-8.652"/><path d="M44.166 12.857c-1.238.286-2.06 1.305-1.836 2.276s1.4 1.526 2.647 1.24 2.06-1.305 1.836-2.276-1.4-1.527-2.647-1.24m-3.363 13.04l.622-6.465-5.12-.4-1.078 7.07c-.025 2.415 4.865 3.566 5.575-.206"/></g><g fill="#000"><path d="M44.087 7.475c-1.547.357-2.513 1.9-2.155 3.45s1.9 2.513 3.45 2.155 2.513-1.9 2.155-3.45-1.902-2.513-3.45-2.155"/><use xlink:href="#F"/><use xlink:href="#F" x="2.466" y="-0.822"/></g><g transform="translate(35.733)"><mask id="I" fill="#fff"><use xlink:href="#E"/></mask><path d="M3.24.1A3.7 3.7 0 0 0 .468 4.535a3.7 3.7 0 0 0 4.435 2.771 3.7 3.7 0 0 0 2.771-4.434A3.7 3.7 0 0 0 3.24.101" fill="#000" mask="url(#I)"/></g><g fill="#000"><path d="M34.228.9c-1.548.357-2.513 1.9-2.155 3.45s1.9 2.513 3.45 2.155 2.513-1.9 2.155-3.45S35.775.544 34.228.9"/><path d="M32.266 4.177c-1.326.306-2.154 1.63-1.847 2.956s1.63 2.154 2.957 1.847 2.153-1.63 1.847-2.956-1.63-2.154-2.956-1.847m14.655 7.363a1.233 1.233 0 0 0 .555 2.402 1.23 1.23 0 0 0 .923-1.478c-.153-.663-.815-1.077-1.478-.924"/><path d="M42.687 11.934a1.233 1.233 0 1 0 .554 2.402 1.23 1.23 0 0 0 .924-1.478c-.153-.663-.815-1.076-1.478-.923M31.3 8.254a1.233 1.233 0 0 0 .555 2.402 1.233 1.233 0 0 0-.555-2.402"/></g><path d="M2.388 35.996c1.917-.575 2.876-.192 2.876 1.15s-.48 2.493-1.438 3.45c-.19.767-.67.287-1.438-1.438s-.766-2.78 0-3.163" fill="#744d4d"/></g></g></g></svg>