<svg xmlns="http://www.w3.org/2000/svg" width="22" height="21" xmlns:v="https://vecta.io/nano"><path d="M20.472 12.028c.137.006.257-.036.361-.127a.47.47 0 0 0 .166-.346c.007-.14-.036-.258-.127-.355h0l-8.828-9.734c-.137-.149-.295-.264-.474-.346A1.37 1.37 0 0 0 11 1h0l-.149.008c-.147.015-.288.053-.422.114-.179.081-.337.196-.474.346h0l-8.828 9.734c-.091.097-.133.216-.127.355a.47.47 0 0 0 .166.346c.046.045.098.078.156.097s.117.029.176.029a.55.55 0 0 0 .205-.039c.065-.026.12-.068.166-.127h0l8.828-9.724c.046-.045.093-.079.142-.102s.103-.034.161-.034.112.011.161.034.096.057.142.102h0l8.828 9.724c.091.104.205.159.342.165zM16.498 20a1.45 1.45 0 0 0 1.064-.438 1.43 1.43 0 0 0 .439-1.051h0v-7.972a.49.49 0 0 0-.146-.36.48.48 0 0 0-.352-.146.49.49 0 0 0-.508.506h0v7.972c0 .136-.049.253-.146.35a.48.48 0 0 1-.352.146h0H5.502a.48.48 0 0 1-.352-.146c-.098-.097-.146-.214-.146-.35h0v-7.972a.49.49 0 0 0-.146-.36.49.49 0 0 0-.361-.146.48.48 0 0 0-.352.146.49.49 0 0 0-.146.36h0v7.972a1.43 1.43 0 0 0 .439 1.051A1.45 1.45 0 0 0 5.502 20h0 10.995z" fill="#0070f0" stroke="#0070f0" stroke-width=".5"/></svg>