<svg xmlns="http://www.w3.org/2000/svg" viewBox="0 0 47 49" xmlns:v="https://vecta.io/nano"><g transform="matrix(.996195 -.087156 .087156 .996195 .12081 3.959468)" fill-rule="evenodd" fill="#ff694d"><path d="M26.1 43.6l2.9-8.2-8.7 1.8z"/><path d="M7.3 7.9l22.4-4.5A4.57 4.57 0 0 1 35.1 7l4.5 22.4a4.57 4.57 0 0 1-3.6 5.4l-22.4 4.5a4.57 4.57 0 0 1-5.4-3.6L3.7 13.3c-.5-2.4 1.1-4.9 3.6-5.4"/></g><path d="M24.2 22.7L30 26c.1.1.2.1.2.3v.3c0 .1-.1.1-.1.1l-.1.1h-.2c-.1 0-.1 0-.2-.1l-5.8-3.4-3.4 5.8c0 .1-.1.1-.1.1l-.1.1H20c-.1 0-.1 0-.2-.1s-.2-.1-.2-.3v-.3L23 23l-5.8-3.4c-.1-.1-.2-.1-.2-.3V19c.1-.1.1-.2.3-.2h.3l5.8 3.4 3.4-5.8c.1-.1.1-.2.3-.2h.3c.1.1.2.1.2.3v.3l-3.4 5.9z" fill="#e8eef1" enable-background="new"/></svg>