<svg xmlns="http://www.w3.org/2000/svg" width="40" height="40"  fill-rule="evenodd" xmlns:v="https://vecta.io/nano"><rect fill="#ed1e4f" width="40" height="40" rx="20"/><path d="M23.823 23.799c.039 0 .077-.007.114-.021s.071-.036.103-.067c.059-.059.088-.129.088-.211s-.029-.152-.088-.211l-3.393-3.387 3.393-3.393c.059-.059.088-.129.088-.211s-.029-.152-.088-.211a.29.29 0 0 0-.214-.088.29.29 0 0 0-.214.088l-3.387 3.387-3.387-3.387a.29.29 0 0 0-.214-.088.29.29 0 0 0-.214.088c-.059.059-.088.129-.088.211s.029.152.088.211l3.393 3.393-3.393 3.387c-.059.059-.088.129-.088.211s.029.152.088.211c.031.031.065.054.103.067s.075.021.114.021.071-.007.108-.021.071-.036.103-.067l3.387-3.387 3.387 3.387c.031.031.065.054.103.067s.073.021.108.021z" stroke="#fff" fill="#fff" fill-rule="nonzero"/></svg>