<svg xmlns="http://www.w3.org/2000/svg" xmlns:xlink="http://www.w3.org/1999/xlink" width="190" height="198" xmlns:v="https://vecta.io/nano"><style><![CDATA[.B{font-size:8.571px}.C{stroke-width:.577}.D{stroke-opacity:.5}.E{font-family:SFUIDisplay-Medium, SF UI Display}]]></style><defs><filter x="-38.7%" y="-36.7%" width="177.3%" height="173.4%" id="A"><feOffset dy="10" in="SourceAlpha"/><feGaussianBlur stdDeviation="10"/><feColorMatrix values="0 0 0 0 0   0 0 0 0 0   0 0 0 0 0  0 0 0 0.2 0" result="C"/><feMerge><feMergeNode in="C"/><feMergeNode in="SourceGraphic"/></feMerge></filter><path d="M14.377 0h121.246A14.38 14.38 0 0 1 150 14.377v31.148h0H0V14.377A14.38 14.38 0 0 1 14.377 0z" id="B"/><filter x="-0.3%" y="-1.1%" width="100.7%" height="102.2%" id="C"><feOffset dy="-1" in="SourceAlpha"/><feComposite in2="SourceAlpha" operator="arithmetic" k2="-1" k3="1"/><feColorMatrix values="0 0 0 0 0.505882353   0 0 0 0 0.576470588   0 0 0 0 0.623529412  0 0 0 0.5 0"/></filter><circle id="D" cx="86.981" cy="3.354" r="3.355"/><filter x="-38.4%" y="-23.5%" width="176.8%" height="176.8%" id="E"><feMorphology radius="0.576923077" operator="dilate" in="SourceAlpha"/><feOffset dy="1"/><feGaussianBlur stdDeviation=".5"/><feComposite in2="SourceAlpha" operator="out"/><feColorMatrix values="0 0 0 0 0   0 0 0 0 0   0 0 0 0 0  0 0 0 0.173629982 0"/></filter></defs><g filter="url(#A)" transform="translate(20 10)" fill="none" fill-rule="evenodd"><path d="M14.377 0h121.246A14.38 14.38 0 0 1 150 14.377v129.246A14.38 14.38 0 0 1 135.623 158H14.377A14.38 14.38 0 0 1 0 143.623V14.377A14.38 14.38 0 0 1 14.377 0z" fill="#000"/><use fill-opacity=".4" fill="#81939f" xlink:href="#B"/><use fill="#000" filter="url(#C)" xlink:href="#B"/><g stroke="#979797" class="C D"><path d="M10.982 71.502h127.5"/><path d="M10.982 102.566h127.5"/></g><text stroke="#fff" font-family="la-brands-400" font-size="12.857" fill="#fff"><tspan x="68.571" y="16.622" class="C"></tspan></text><g transform="translate(10.543 142.3)"><path d="M9.345 2.875h106.869a.72.72 0 0 1 .719.719.72.72 0 0 1-.719.719H9.345a.72.72 0 0 1-.719-.719.72.72 0 0 1 .719-.719z" fill="#000"/><g fill="#fff"><path d="M9.345 2.875h77.157a.72.72 0 0 1 .719.719.72.72 0 0 1-.719.719H9.345a.72.72 0 0 1-.719-.719.72.72 0 0 1 .719-.719z"/><path d="M127.937.539c.025.026 2.478 2.685.012 5.85-.038.048-.094.074-.151.074-.041 0-.083-.013-.118-.041-.083-.065-.098-.185-.033-.269 2.266-2.907.035-5.326.012-5.35-.072-.077-.069-.198.008-.271s.198-.069.271.008zm-2.692 1.12v3.651c0 .329-.24.389-.449.24l-1.575-1.212-.777.001a.24.24 0 0 1-.24-.24h0V2.856a.24.24 0 0 1 .24-.24h0 .794l1.557-1.198c.209-.149.449-.09.449.24zm1.703-.251c.018.019 1.745 1.89.012 4.113-.038.048-.094.074-.151.074-.041 0-.083-.013-.118-.041-.083-.065-.098-.185-.033-.269 1.533-1.966.075-3.547.012-3.614-.073-.077-.07-.198.007-.271s.199-.069.271.008zm-.89 1.003c.314.332.72 1.198.012 2.107-.038.048-.094.074-.151.074-.041 0-.083-.013-.118-.041-.083-.065-.098-.185-.033-.269a1.21 1.21 0 0 0 .011-1.608c-.071-.077-.068-.198.009-.27s.197-.069.27.007z"/><path d="M3.04 5.575c0 .329-.24.389-.449.24L1.016 4.603.24 4.604a.24.24 0 0 1-.24-.24h0V3.122a.24.24 0 0 1 .24-.24h0l.793.001 1.558-1.199c.209-.149.449-.09.449.24z"/></g><use fill="#000" filter="url(#E)" xlink:href="#D"/><circle stroke="#979797" fill="#fff" cx="86.981" cy="3.354" r="3.643" class="C D"/></g><g transform="translate(10.487 25.058)" fill="#fff"><text font-family="SFUIDisplay-Bold, SF UI Display" font-weight="bold" letter-spacing=".309" class="B"><tspan x="39.753" y="8">ScreenCast</tspan></text><text letter-spacing=".309" class="B E"><tspan x="20.436" y="64.221">MiraCast Projector</tspan></text><text stroke="#fff" font-family="la-solid-900" letter-spacing=".309" class="B"><tspan x="119.156" y="64.786" stroke-width="1.071"></tspan></text><g fill-rule="nonzero"><g transform="translate(1.607 58.007)"><path d="M10.703 2.159c.003-.014.006-.028.006-.044-.006-.396-.324-.712-.719-.715-.178-.001-.356.001-.534.001a2.95 2.95 0 0 0-.307-.434C8.78.535 8.264.219 7.714.082c-.61-.151-1.246-.091-1.821.156-.522.224-.965.623-1.263 1.105l-.036.064H.805c-.164 0-.322.011-.466.101-.231.144-.339.384-.339.649v3.619c0 .286.147.555.414.675.172.078.346.067.539.065v.402c0 .12-.005.236.088.33.086.086.19.091.303.091h.675c.069 0 .141.005.209-.007.119-.02.226-.124.246-.243.006-.038.009-.07.009-.108v-.459h5.737v.397c0 .12 0 .236.094.33.086.086.196.091.308.091h.676c.069 0 .141.005.209-.007.119-.02.22-.124.24-.243.006-.038.005-.07.005-.108v-.459h.088.146c.312-.001.58-.196.684-.49.043-.122.034-.249.034-.375V2.159zM3.197 5.192H1.412c-.19 0-.332-.156-.34-.341s.162-.341.34-.341h1.786c.19 0 .332.157.34.341s-.162.341-.34.341zm0-1.546H1.412c-.19 0-.332-.157-.34-.341s.162-.341.34-.341h1.786c.19 0 .332.156.34.341s-.162.341-.34.341zm5.954-.585l-.012.091a.5.5 0 0 0 .005-.041c-.029.185-.078.367-.147.541a2.39 2.39 0 0 1-.212.384l-.06.086-.032.04-.156.173-.176.16-.025.02-.096.069c-.12.082-.248.152-.38.211a2.46 2.46 0 0 1-.544.149 2.56 2.56 0 0 1-.575 0c-.186-.028-.368-.078-.543-.149-.133-.059-.261-.13-.381-.211l-.087-.063C5.71 4.51 5.7 4.5 5.693 4.495l-.003-.003-.171-.157-.16-.176-.02-.024-.069-.097a2.58 2.58 0 0 1-.212-.384 2.48 2.48 0 0 1-.147-.541l.005.041-.012-.091.007.049a2.58 2.58 0 0 1 0-.576c.029-.188.079-.371.15-.547a2.51 2.51 0 0 1 .231-.41l.057-.076.041-.05.151-.161.164-.148c.003-.003.009-.008.016-.013-.002.002.008-.007.019-.015l.094-.066a2.49 2.49 0 0 1 .366-.201c.176-.07.358-.119.544-.149a2.53 2.53 0 0 1 .571 0c.187.03.368.078.544.149a2.49 2.49 0 0 1 .366.201l.086.06.022.016c.003.003.015.013.022.017l.164.148.151.161.065.08-.025-.03c.002.005.045.059.057.075.09.13.167.267.231.41a2.53 2.53 0 0 1 .15.548c.01.095.016.191.016.286s-.006.193-.017.29l.007-.051z"/><path d="M5.417 2.82c.005.677.432 1.281 1.063 1.516.62.231 1.358.031 1.779-.482.215-.263.345-.577.372-.917a1.6 1.6 0 0 0-.226-.95 1.63 1.63 0 0 0-1.705-.749A1.62 1.62 0 0 0 5.44 2.553c-.014.088-.023.178-.023.267"/></g><g transform="translate(1.468 89.78)" fill-opacity=".4"><path d="M.529 3.183H9.7c.391 0 .356-.214.302-.307L8.596.479A1.03 1.03 0 0 0 7.76 0H2.469a1.03 1.03 0 0 0-.836.479L.228 2.876c-.055.093-.09.307.302.307zm9.663.212c-.101.079-.256.142-.492.142H.529c-.236 0-.39-.062-.492-.142A1.58 1.58 0 0 0 0 3.713v2.122c0 .39.317.707.705.707h8.818c.389 0 .705-.317.705-.707V3.713a1.58 1.58 0 0 0-.038-.318zm-1.726 1.91c-.195 0-.353-.158-.353-.354s.158-.354.353-.354.353.158.353.354-.158.354-.353.354z"/></g></g><text letter-spacing=".309" class="B E"><tspan x="20.436" y="95.292">AppleTV Foyer</tspan></text><text opacity=".4" font-family="SFUIDisplay-Semibold, SF UI Display" font-size="6.429" font-weight="500" letter-spacing=".231"><tspan y="36" x="0">DEVICES AND PROJECTORS</tspan></text></g></g></svg>