<svg xmlns="http://www.w3.org/2000/svg" width="16" height="17" xmlns:v="https://vecta.io/nano"><path d="M2.842 5.504a.35.35 0 0 0 .259-.11c.072-.073.108-.16.108-.264h0V1.38a.37.37 0 0 0-.108-.271.35.35 0 0 0-.259-.11.35.35 0 0 0-.259.11.37.37 0 0 0-.108.271h0v3.75c0 .103.036.2.108.264a.35.35 0 0 0 .259.11zM8 8.5a.35.35 0 0 0 .259-.11c.072-.073.108-.16.108-.264h0V1.38a.37.37 0 0 0-.108-.271A.35.35 0 0 0 8 1a.35.35 0 0 0-.259.11.37.37 0 0 0-.108.271h0v6.746c0 .103.036.2.108.264A.35.35 0 0 0 8 8.5zm5.158-4.497a.35.35 0 0 0 .259-.11c.072-.073.108-.16.108-.264h0V1.38a.37.37 0 0 0-.108-.271.35.35 0 0 0-.259-.11c-.106 0-.194.037-.266.1a.37.37 0 0 0-.108.271h0v2.25c0 .103.036.2.108.264s.16.1.266.1zm.734 3.003a1.06 1.06 0 0 0 .784-.33c.216-.22.324-.486.324-.798s-.108-.58-.324-.798a1.06 1.06 0 0 0-.784-.33h0-1.475a1.05 1.05 0 0 0-.777.33c-.216.22-.324.486-.324.798s.108.58.324.798a1.05 1.05 0 0 0 .777.33h1.475zm0-.754h-1.475a.35.35 0 0 1-.259-.11c-.072-.073-.108-.16-.108-.264s.036-.2.108-.264a.35.35 0 0 1 .259-.11h1.475a.35.35 0 0 1 .259.11c.072.073.108.16.108.264s-.036.2-.108.264a.35.35 0 0 1-.259.11h0zM3.576 8.5a1.06 1.06 0 0 0 .784-.33 1.09 1.09 0 0 0 .324-.791c0-.312-.108-.58-.324-.798a1.06 1.06 0 0 0-.784-.33h0-1.468a1.06 1.06 0 0 0-.784.33C1.108 6.8 1 7.067 1 7.38a1.09 1.09 0 0 0 .324.791 1.06 1.06 0 0 0 .784.33h1.468zm0-.747H2.108c-.106 0-.194-.037-.266-.1s-.108-.16-.108-.264.036-.2.108-.264.16-.1.266-.1h1.468c.106 0 .194.037.266.1s.108.16.108.264-.036.2-.108.264-.16.1-.266.1h0zM13.158 16a.35.35 0 0 0 .259-.11c.072-.073.108-.16.108-.264h0v-7.5c0-.103-.036-.2-.108-.264a.35.35 0 0 0-.259-.11c-.106 0-.194.037-.266.1s-.108.16-.108.264h0v7.5c0 .103.036.2.108.264s.16.1.266.1zM2.842 16a.35.35 0 0 0 .259-.11c.072-.073.108-.16.108-.264h0v-6c0-.103-.036-.2-.108-.264a.35.35 0 0 0-.259-.11.35.35 0 0 0-.259.11c-.072.073-.108.16-.108.264h0v6c0 .103.036.2.108.264a.35.35 0 0 0 .259.11zm5.892-4.497a1.06 1.06 0 0 0 .784-.33c.216-.22.324-.486.324-.798a1.09 1.09 0 0 0-.324-.791 1.06 1.06 0 0 0-.784-.33h0H7.26a1.05 1.05 0 0 0-.777.33 1.09 1.09 0 0 0-.324.791c0 .313.108.58.324.798a1.05 1.05 0 0 0 .777.33h1.475zm0-.747H7.26a.35.35 0 0 1-.259-.11.37.37 0 0 1-.108-.271c0-.103.036-.2.108-.264a.35.35 0 0 1 .259-.11h1.475a.35.35 0 0 1 .259.11c.072.073.108.16.108.264a.37.37 0 0 1-.108.271.35.35 0 0 1-.259.11h0zM8 16a.35.35 0 0 0 .259-.11c.072-.073.108-.16.108-.264h0V12.63a.37.37 0 0 0-.108-.271.35.35 0 0 0-.259-.11.35.35 0 0 0-.259.11.37.37 0 0 0-.108.271h0v2.996c0 .103.036.2.108.264A.35.35 0 0 0 8 16z" fill="#0074fc" stroke="#0074fc" stroke-width=".5"/></svg>