<svg xmlns="http://www.w3.org/2000/svg" xmlns:xlink="http://www.w3.org/1999/xlink" width="20" height="20" xmlns:v="https://vecta.io/nano"><path d="M19.5 16h-15a.5.5 0 1 1 0-1h15a.5.5 0 1 1 0 1zm0-5h-15a.5.5 0 1 1 0-1h15a.5.5 0 1 1 0 1zm0-5h-15a.5.5 0 1 1 0-1h15a.5.5 0 1 1 0 1z"/><use xlink:href="#B"/><use xlink:href="#B" y="5"/><use xlink:href="#B" y="10"/><defs ><path id="B" d="M1.5 7a1.5 1.5 0 1 1 0-3 1.5 1.5 0 1 1 0 3zm0-2a.5.5 0 1 0 0 1 .5.5 0 1 0 0-1z" stroke="#82939e" stroke-width=".6"/></defs></svg>
