<svg xmlns="http://www.w3.org/2000/svg" width="400" height="400" viewBox="0 0 400 NaN" fill-rule="evenodd" xmlns:v="https://vecta.io/nano"><path d="M130.47 56.91c-6.464 1.081-12.868 5.868-15.65 11.698-1.106 2.319-1.306 2.53-2.18 2.311-1.334-.335-5.435.464-7.342 1.43-10.857 5.499-10.565 20.841.496 26.026l2.217 1.039h23.242c26.207 0 24.84.15 28.454-3.116 6.24-5.637 4.356-17.426-3.223-20.167-1.124-.406-1.286-.675-1.69-2.806-2.005-10.549-13.4-18.241-24.32-16.415m8.863 4.223c5.694 1.691 11.178 7.822 12.046 13.466.63 4.102.518 3.871 2.093 4.295 8.78 2.365 8.395 14.954-.515 16.804-4.282.889-43.456.348-45.57-.629-12.37-5.721-4.303-25.083 8.29-19.893.513.211.786-.224 1.398-2.232 2.88-9.43 12.71-14.647 22.258-11.811m-31.715 89.596c-12.533 3.602-18.582 18.004-12.644 30.106 6.012 12.254 24.56 14.756 35.193 4.747 1.348-1.269 2.358-2.367 2.244-2.441s-1.73-1.613-3.6-3.422l-3.383-3.289-1.572 1.42c-7.793 7.041-19.18 3.629-19.866-5.952-.76-10.633 10.9-15.639 19.43-8.339l1.642 1.405 3.493-3.494 3.494-3.493-2.064-2.065c-5.057-5.058-14.886-7.335-22.376-5.183m45.65.705c-.876 2.097-3.828 8.682-4.657 10.391l-.716 1.473-3.362-.254c-4.002-.302-6.778.353-9.333 2.204-5.396 3.909-3.557 12.773 3.054 14.721l2.244.662-2.223 4.704c-1.222 2.587-2.348 5.1-2.5 5.583l-.28.879h11.667l1.164-2.637c.64-1.45 1.836-4.35 2.657-6.445l1.494-3.809 1.79.008c5.076.024 15.14 6.514 17.82 11.494.41.764.914 1.389 1.117 1.389s.7.291 1.083.646c.664.602.714.602.714 0 0-.553.503-.646 3.493-.646 4.372 0 4.344.066 2.034-4.769-1.544-3.232-10.795-23.853-15.604-34.782l-.988-2.246h-10.07l-.6 1.434m32.28 18.879v20.312h2.773c6.462 0 7.13-1.126 7.383-12.435l.195-8.724 17.58 21.117 8.007.042V150l-2.44.001c-2.94 0-4.647.774-6.32 2.866l-1.2 1.5-.4 16.823-17.86-21.19h-7.725v20.313m55.903-19.696c-20.775 5.588-20.214 35.632.758 40.575 16.194 3.817 30.076-9.643 26.33-25.531-2.662-11.293-15.182-18.246-27.09-15.044m30.816 20.281v19.727h31.25v-9.375h-19.922v-5.859h18.75v-9.375h-18.75v-5.469h20.312v-9.375h-31.64v19.726m-19.913-9.37c12.015 6.089 3.018 24.499-9.19 18.803-7.666-3.577-8.105-13.116-.857-18.601 2.263-1.712 6.882-1.805 10.046-.202m-91.647 4.789l1.422 2.841-2.256-1.249-2.38-1.338c-.068-.049.25-.826.71-1.727s.89-1.577.958-1.503.762 1.414 1.545 2.976m-10.51.288c7.217 1.931 14.313 7.009 17.676 12.651 2.238 3.756 2.107 3.943-.976 1.397-6.093-5.031-10.345-6.169-18.138-4.853-10.724 1.811-14.38.468-14.052-5.165.25-4.305 7.454-6.179 15.5-4.03M95.35 193.652c-2.645 2.646-7 16.73-8.22 26.65-1.388 11.189.98 21.284 6.782 28.913l1.748 2.298-2.425.807c-14.702 4.893-30.34 1.272-38.83-8.99-2.605-3.148-4.03-3.713-6.343-2.516-6.495 3.358 6.752 15.921 20.885 19.805 7.702 2.117 20.656 1.058 29.33-2.398 4.467-1.779 13.4-7.368 14.43-9.017.116-.187 1.646.819 3.4 2.235 16.9 13.636 33.896 13.814 49.707.521l3.58-3.01 2.902 2.128c15.884 11.649 28.18 13.462 44.308 6.533.214-.093.884.645 1.487 1.639l1.096 1.807-.803 1.868c-1.872 4.35-1.216 5.854 6.55 15.021 7.722 9.115 7.083 8.858 12.497 5.029 5.307-3.754 5.325-2.799-.23-12.662-6.26-11.116-7.62-12.461-12.145-12.027-1.875.18-1.893.171-2.992-1.565l-1.105-1.747 1.143-.827a113.24 113.24 0 0 0 3.292-2.546l2.64-2.102c.356-.277 1.065.154 2.54 1.545 14.956 14.1 42.103 14.314 57.462.452 3.044-2.748 2.217-2.799 6.48.402 18.727 14.063 38.878 13.03 55.412-2.839 4.424-4.246 5.02-6.691 2.015-8.245-2.36-1.221-3.34-.793-7.604 3.31-10.325 9.938-21.934 12.704-34.277 8.169-2.672-.982-2.644-.828-.694-3.748 9.6-14.374 9.815-31.336.648-50.689-3.202-6.759-3.782-6.777-13.45-.403-23.145 15.259-53.047 22.485-88.947 21.496-5.37-.148-9.975-.387-10.23-.53s-3.125-4.287-6.376-9.208l-5.91-8.948 1.6-1.454c3.555-3.249.492-6.725-3.426-3.887-.9.644-1.932 1.172-2.315 1.172-.907 0-2.434 1.075-2.434 1.713 0 .274-.79 1.066-1.758 1.76-1.85 1.33-2.45 3.491-1.29 4.652.723.723 3 .555 4.215-.31l1.093-.779 4.73 7.239 4.728 7.469c0 .268-3.357.014-14.257-1.078-31.332-3.138-52.538-9.39-72.67-21.422-5.195-3.105-6.304-3.34-7.958-1.686m208.895 8.122c2.3 1.936 5.338 11.806 5.826 18.929.594 8.684-.61 14.406-4.834 22.954l-2.56 5.181-1.166-.688c-1.21-.716-4.236-3.006-7.746-5.865-3.07-2.502-4.1-2.365-7.385.98-14.9 15.179-37.873 15.603-52.695.973-4.906-4.841-5.288-4.861-10.032-.529-4.73 4.322-6.354 5.408-7.018 4.696-.284-.304-4.123-6.028-8.53-12.719l-8.015-12.165 16.07-.191c34.915-.413 58.354-6.169 81.303-19.964 4.833-2.906 5.138-2.977 6.784-1.592m-201.743.704c1.52 1.151 10.348 4.69 18.1 7.254 19.812 6.555 41.427 10.687 66.485 12.709 4.934.398 7.293.739 7.488 1.082.157.275 4.343 6.648 9.303 14.161l9.018 13.661-1.272.684c-10.385 5.588-24.39 2.269-38.26-9.068-4.182-3.419-4.764-3.349-9.465 1.13-15.025 14.313-29.232 14.225-45.865-.285-4.76-4.153-5.097-4.17-9.366-.487-3.912 3.375-7.872 6.084-8.253 5.647-.16-.183-.875-1.776-1.59-3.539s-1.432-3.124-1.595-3.023c-.676.418-3.804-9.049-4.183-12.661-.345-3.284-.32-10.976.042-12.683.302-1.428.354-1.47 1.172-.937 6.323 4.116 8.252 4.705 9.446 2.882 1.067-1.629.366-2.462-4.538-5.394-2.55-1.526-4.64-2.933-4.64-3.127 0-.949 2.525-6.733 3.386-7.757 1.22-1.45 2.88-1.54 4.585-.249m4.14 17.444c-1.695 1.695-.902 2.934 3.243 5.07 3.574 1.841 4.243 1.913 5.3.569 1.368-1.739.588-2.82-3.532-4.892-3.485-1.752-3.94-1.819-5.01-.747m14.062 6.25c-3.102 3.102 3.802 5.822 19.334 7.616 6.53.755 7.074.742 8-.194 2.3-2.299.52-3.622-5.702-4.24-6.187-.613-12.262-1.702-16.564-2.969-4.03-1.187-4.1-1.19-5.078-.213m-27.29 3.906c0 .322.15.938.336 1.367.212.493.336.565.336.196 0-.323-.15-.938-.336-1.368-.212-.492-.336-.564-.336-.195m.782 2.735c0 .322.15.937.335 1.367.212.492.336.564.336.195 0-.322-.15-.937-.336-1.367-.21-.493-.335-.565-.335-.195m133.398 30.77c.85.687 8.344 13.652 8.344 14.438 0 .376-2.307 2.057-2.82 2.057-.18 0-3.62-3.938-8.623-9.868-2.714-3.218-2.953-4.687-1.027-6.308 1.387-1.167 2.93-1.286 4.127-.319" fill="#04343c"/><path d="M128.906 61.257c-5.86 1.959-9.972 6.082-11.75 11.786-.625 2.003-.748 2.144-1.784 2.037-4.61-.475-6.58-.272-8.707.899-7.652 4.211-7.207 15.311.758 18.912 2.4 1.085 44.634 1.269 47.18.205 7.242-3.024 6.74-13.284-.772-15.824l-2.072-.701-.29-2.274c-1.413-11.069-12.442-18.422-22.56-15.04m168.164 142.49c-23.136 13.785-48.342 19.828-82.873 19.869-9.03.011-13.66.151-13.52.407.118.215 3.83 5.873 8.247 12.573l8.033 12.181 1.095-.647c.602-.355 2.512-1.882 4.244-3.392 6.48-5.651 6.356-5.644 11.474-.659 14.85 14.463 36.818 14.304 52.02-.376 4.623-4.465 4.76-4.468 9.643-.266 6.95 5.983 6.883 5.982 9.782.118 6.29-12.718 6.524-26.157.682-39.041-1.897-4.184-2.942-4.275-8.828-.767m-198.342-1.761c-.84.489-2.082 2.848-3.26 6.195l-.886 2.516 4.174 2.485c5.646 3.362 6.546 4.563 4.76 6.349-1.195 1.195-2.193.968-6.165-1.403-4.246-2.533-3.867-2.606-4.366.841-.696 4.822-.514 6.565 1.35 12.888 1.953 6.622 2.162 7.779.774 4.276-.51-1.289-.938-2.133-.95-1.876-.037.849 2.39 7.153 2.685 6.972.158-.098 1.05 1.652 1.982 3.888 1.022 2.451 1.863 3.971 2.117 3.828 1.57-.884 5.84-4.132 7.953-6.046 3.927-3.559 4.61-3.519 8.975.527 15.79 14.641 30.9 14.828 46.043.573 4.918-4.629 5.137-4.647 9.912-.819 13.372 10.72 25.4 13.811 36.302 9.33 2.855-1.174 3.357-.043-6.96-15.664l-9.053-13.708-3.797-.267c-17.847-1.257-36.11-3.997-51.232-7.686-14.65-3.574-33.602-10.146-37.028-12.841-1.085-.853-2.264-.98-3.332-.358m13.403 18.728c4.22 2.122 5.244 4.906 2.095 5.696-2.096.526-8.367-3.091-8.367-4.826 0-2.764 1.964-3.036 6.272-.87m12.71 5.269c4.756 1.469 12.11 2.75 20.18 3.516 3.493.332 4.924 2.215 3.163 4.162-1.75 1.933-24.626-1.587-27.56-4.241-2.583-2.338.263-4.658 4.217-3.437m99.38 37.404c-3.16 1.629-2.58 3.34 3.568 10.512 5.968 6.963 5.296 6.468 6.92 5.108l1.287-1.077-3.77-6.641c-4.75-8.371-5.555-9.165-8.005-7.902" fill="#fbfbfb"/><path d="M350.195 248.97c-16.7 16.73-38.724 17.217-58.193 1.289l-1.163-.951-2.353 2.056c-16.57 14.477-42.51 14.208-58.585-.607l-1.66-1.532-.726.802c-.4.441-1.92 1.687-3.378 2.768-2.99 2.216-2.975 2.185-1.773 4.042.825 1.274 1 1.357 3.028 1.37 4.65.029 5.78 1.105 11.15 10.619l4.597 8.147c1.3 2.286.806 3.099-3.706 6.221-5.612 3.883-4.596 4.349-13.615-6.241-6.6-7.749-7.572-10.307-5.48-14.41l.76-1.489-1.015-1.523-1.118-1.654c-.056-.071-1.66.494-3.567 1.256-13.5 5.406-26.226 2.974-41.03-7.847-3.424-2.503-2.83-2.518-5.713.152-14.378 13.321-33.102 13.871-48.967 1.439l-3.668-2.855-1.02-.779-2.57 2.047c-18.363 14.634-45.582 14.155-59.967-1.054l-2.026-2.142v47.214l.614 47.828c.942.941 302.52.941 303.46 0 .534-.533 1.05-97.348.516-96.974-.053.038-1.328 1.302-2.832 2.808" fill="#24c4dc"/><path d="M133.105 60.432c.484.093 1.275.093 1.758 0s.088-.169-.88-.169-1.362.076-.88.169m12.99 4.998c.73.752 1.413 1.367 1.52 1.367s-.4-.615-1.13-1.367-1.413-1.367-1.52-1.367.4.615 1.13 1.367m-24.83.293l-1.147 1.269 1.27-1.147c1.183-1.07 1.45-1.392 1.147-1.392-.067 0-.638.571-1.27 1.27m-20.392 19.433c0 .752.08 1.06.18.684s.098-.991 0-1.367-.18-.069-.18.683m19.93 10.84H141.7c5.747-.061 1.045-.111-10.45-.111l-10.45.111m17.66 70.335c-4.873 2.3-5.2 7.708-.57 9.724 1.9.834 4.824.766 10.866-.255 7.793-1.316 12.045-.178 18.138 4.853 3.083 2.546 3.214 2.359.976-1.397-5.493-9.216-21.947-16.447-29.41-12.925m52.263 56.595c.376.098.99.098 1.367 0s.068-.179-.684-.179-1.06.08-.683.179m37.9.39c.376.098.99.098 1.367 0s.07-.178-.683-.178-1.06.08-.684.178m-17.968.413a170.38 170.38 0 0 0 8.398 0c2.3-.069.42-.126-4.2-.126s-6.51.057-4.2.126M92.97 230.055c0 .92.62 1.381 1 .75.188-.305.112-.352-.23-.14-.382.236-.456.102-.292-.526.12-.463.06-.842-.134-.842s-.354.341-.354.758m23.437 12.328c.73.752 1.413 1.367 1.52 1.367s-.4-.615-1.13-1.367-1.413-1.367-1.52-1.367.4.615 1.13 1.367m-7.25.293l-1.147 1.269 1.27-1.147c1.184-1.069 1.45-1.392 1.148-1.392-.068 0-.64.572-1.27 1.27m124.634 1.855c1.058 1.074 2.012 1.953 2.12 1.953s-.67-.879-1.728-1.953-2.012-1.953-2.12-1.953.67.879 1.728 1.953m116.782 4.004l-1.938 2.051 2.05-1.939c1.905-1.801 2.23-2.163 1.938-2.163-.062 0-.985.923-2.05 2.051m-299.594 2.246c1.275 1.289 2.407 2.344 2.514 2.344s-.848-1.055-2.124-2.344-2.407-2.343-2.514-2.343.848 1.054 2.124 2.343m178.71-.195c.728.752 1.413 1.367 1.52 1.367s-.4-.615-1.13-1.367-1.413-1.367-1.52-1.367.4.615 1.13 1.367m59.545-.098l-1.147 1.27 1.27-1.147c.7-.632 1.27-1.203 1.27-1.27 0-.302-.322-.036-1.392 1.147m-211 11.515c.805.085 2.124.085 2.93 0s.147-.153-1.464-.153-2.27.069-1.465.153m62.31-.001c.702.087 1.757.085 2.344-.004s.013-.16-1.276-.158-1.77.075-1.068.162m58.196-.001c.7.087 1.84.087 2.54 0s.126-.157-1.27-.157-1.968.071-1.27.157m59.18.002c.806.085 2.124.085 2.93 0s.146-.153-1.465-.153-2.27.069-1.465.153m62.305-.002c.698.087 1.84.087 2.54 0s.127-.157-1.27-.157-1.967.071-1.27.157" fill="#42a6d1"/></svg>