<svg xmlns="http://www.w3.org/2000/svg" xmlns:xlink="http://www.w3.org/1999/xlink" width="232" height="176"><style><![CDATA[.B{fill-rule:nonzero}.C{fill:#744d4d}.D{stroke-linejoin:round}]]></style><defs><path d="M58 16c.1.1.1.2.1.4s0 .3-.1.4l-6 6c0 .1-.1.1-.2.1s-.1 0-.2 0-.1 0-.2 0-.1-.1-.2-.1c-.1-.1-.1-.2-.1-.4s0-.3.1-.4l5-5H40c-.1 0-.3 0-.4-.1s-.1-.2-.1-.4c0-.1 0-.3.1-.4s.2-.1.4-.1h16.3l-5-5c-.1-.1-.1-.2-.1-.4s0-.3.1-.4.2-.1.4-.1.3 0 .4.1l6 6z" id="A"/><path id="B" d="M0 .5h34.4v32H0z"/><path d="M5 .4C2 1 0 4 .7 7s3.7 4.8 6.6 4.2 5-3.7 4.2-6.6C11 2 8.6.2 6 .2c-.4 0-.8 0-1.2.1h0z" id="C"/></defs><g fill="none" fill-rule="evenodd"><path d="M57 88c14.7 2.8 19 1 26.3-12.3 7.8-14.2 15.3-28.4 29-38.5a76 76 0 0 1 98.2 8c25.6 26 28.4 67.8 6.4 96.8-25.6 33.8-69 40.5-104.2 16.7-15.5-10.5-25-11-38 2.6a40 40 0 0 1-48 8.7A41 41 0 0 1 .9 124.4c.8-5.5 3.5-10.7 5.4-16C17 90.6 34 83.6 57 88h0z" fill="#e8eef1" class="B"/><g transform="translate(105 68)"><rect stroke="#c9d6de" stroke-width="2.3" x=".9" width="98" height="31" rx="15.5" class="D"/><g class="B"><use fill="#000" xlink:href="#A"/><use stroke="#c9d6de" fill="#c9d6de" xlink:href="#A"/></g></g><g class="B"><path d="M106.8 31.3c-1-2.4.5-6.8 5.5-6.5-1-4.6 4.7-10.6 12.2-8 6.4-9.6 23-5.4 23 7.3 6.7-1.2 8.8 5.2 6.5 7.2h-47.4z" fill-opacity=".8" fill="#d9e2e7"/><path d="M189.8 6.7c5.3 0 9.6 4.3 9.6 9.6S195 26 189.8 26s-9.6-4.3-9.6-9.6 4.3-9.6 9.6-9.6m0-1.4c.8 0 1.4-3.2 1.4-4s-.6-1.3-1.4-1.3-1.4.6-1.4 1.3.6 4 1.4 4m-5.5 1.4c.6-.4-.5-3.5-.8-4-.4-.6-1.2-.8-1.7-.4-.6.4-.7 1-.4 1.7.3.6 2.4 3.2 3 2.8M176 10c.6.4 3.7 1.6 4 1s-2.2-3-2.7-3.4c-.6-.4-1.4-.2-1.8.4s-.2 1.6.4 2v.1m2.6 6.4c0-.8-3.2-1.4-4-1.4s-1.3.6-1.3 1.4.6 1.4 1.3 1.4 4-.7 4-1.4m-2.6 6.4c-.6.4-1 1.2-.6 2s1 1 1.8.6l.1-.1c.7-.4 3-2.7 2.7-3.4s-3.5.5-4 1m5.2 6c-.3.6-.1 1.5.5 1.8.6.3 1.3.1 1.7-.5.3-.6 1.4-3.8.8-4s-2.7 2.2-3 2.8m8.4-1.4c-.8 0-1.4 3.2-1.4 4s.6 1.3 1.4 1.3 1.4-.6 1.4-1.3-.7-4-1.4-4m5.4-1.4c-.6.4.5 3.5.8 4 .4.6 1.2.8 1.8.4.6-.4.8-1 .4-1.7-.3-.6-2.4-3.2-3-2.8m8.3-3.3c-.6-.3-3.8-1.4-4-.8s2.2 2.7 2.8 3c.7.3 1.5.1 1.8-.5.3-.6.1-1.3-.5-1.7m1.2-7.7c-.7 0-4 .7-4 1.4s3.2 1.4 4 1.4 1.3-.6 1.3-1.4-.6-1.4-1.3-1.4m-1.2-4.8c.6-.4.8-1.2.4-1.7-.4-.6-1-.7-1.7-.4-.6.3-3.2 2.4-2.8 3s3.5-.5 4-.8m-4.8-6c.4-.6.2-1.4-.4-1.8s-1.6-.2-2 .4l-.1.1c-.4.6-1.6 3.7-1 4s3-2 3.4-2.7" fill="#ffc100"/></g><path d="M187.7 153.3V113" stroke="#0c9b70" stroke-width="2.3" stroke-linecap="round" class="D"/><g class="B"><path d="M186.2 117c-2.4-2.4-2-6.6 1.2-9.8s13-4.3 13-4.3-1 9.6-4.3 13-7.5 3.6-9.8 1.3m1 19.3c1.5-1.4 1.3-3.8-.8-5.7s-8.2-2.5-8.2-2.5.7 5.6 2.7 7.5 4.7 2 6.2.7" fill="#23d5a0"/><g transform="matrix(-1 0 0 1 207.02 147.94)"><path d="M56 21c0-3-1.2-6-3.3-8s-5-3.4-8-3.4c-3 0-6 1.2-8 3.4S33 18 33 21c0 6.3 22.8 6.3 22.8 0z" fill="#4d626e"/><path d="M38 19.2C38 8.8 29.6.4 19 .4A19 19 0 0 0 0 19.2c0 10.4 38 10.4 38 0z" fill="#3f525e"/></g></g><g transform="matrix(-1 0 0 1 106.12 31.24)"><g transform="translate(0 5.7)"><g class="B"><path d="M47.3 130c1.6 2.5 2 4.5 1.2 5.8s-6.8 2-18 1.7c-1.4-2.5-.8-4.2 1.8-5a78 78 0 0 1 11.6-2.7l3.6.3z" fill="#2a3942"/><g class="C"><path d="M31.3 68.7c-2 6.2 4.4 57.8 4.4 62.6L43 130V97.4L35.6 67l-4.3 1.6z"/><path d="M45 131.6H51c.6-2.4 6-53.4 3.4-63.6s-18.6 1.6-18.6 1.6c.5 4.2 8.4 58.8 9.4 62"/></g><path d="M53 131c1.6 2.5 2 4.5 1.2 5.8s-6.8 2-18 1.7c-1.4-2.5-.8-4.2 1.8-5a78 78 0 0 1 11.6-2.7l3.5.3z" fill="#2a3942"/><path d="M44.2 111.6c15.5-16.7 10-45.2 10.3-47 .5-3.5-23.3-2.2-23.3-2.2-.2 1.2-5.6 25.4-8.2 47 0 0 11.8 6.8 19.6 3.2 0 0 1-.3 1.5-1" fill="#dad5b2"/><path d="M38.5 114.2c-19.3-6.7.5-42.8.5-50.2 2.6-1.3 18.5-2 19.4 1.3a413 413 0 0 1 5.9 44.5s-10.2 10-26 4.5" fill="#fefbe2"/><g class="C"><path d="M62.6 36.6a62 62 0 0 1 8.6 14.1 524 524 0 0 1 3.2 22.7l-5 .6c-1.3-8.4-5-18-5.6-20.3-2.8-2.4-7.2-8.2-8-9l6.8-8"/><path d="M72 71.6c2 0 3.4 2 3.4 4.5S74 80.7 72 80.7s-3.4-2-3.4-4.5 1.5-4.6 3.4-4.6"/></g></g><g transform="translate(0 21.6)"><mask id="D" fill="#fff"><use xlink:href="#B"/></mask><path d="M28 17.8c-.7.7-2.6 3-3 4L1 .5c-.5 0-1 .4-1 1C0 4 2 4.2 4.4 6.7 9.5 16 21.7 32.5 25 32.5a28 28 0 0 0 9.5-8.5c0-1-6.5-6.2-6.5-6.2" mask="url(#D)" class="B C"/></g><g class="B"><path d="M38.6 28.4c-5-3-13.2 8.2-13 10s7.6 7.4 10.8 6.8c2-.4 7.6-13.7 2.3-17" fill="#d75647"/><path d="M45.7 24.7c15 0 14 42.8 11.4 45-3.3 2.7-25 .2-26.2-1.3s-2-43.7 14.7-43.7" fill="#ee6c5d"/><g class="C"><path d="M50 27.2c0 1.3-7 1.5-7 0v-8.6h7v8.6z"/><path d="M39.6 12.6c1.7-4.3 5.7-6.8 9-5.5s4.5 5.8 2.7 10-5.7 6.8-9 5.5-4.4-5.8-2.7-10"/><path d="M49.2 17.3c.6-1 1.7-1.3 2.3-.8s.6 1.6 0 2.4-1.7 1.3-2.3.8-.6-1.6 0-2.4"/></g><path d="M57 14c0-1.2-1-2.5-1.3-4-.1-.7.1-3.8-.7-5C53 3 52 3.4 50.6 2.8 48.2 2 47.3.5 45.3.5 43 .5 42 1.7 40.5 1.7c-2 0-3.4-.8-6-.8-1.4 0-3.2 1.8-3.2 3.4 0 3.8 3.5 3.2 3.5 4 0 .6-.2 1-.2 2 0 1 1.5 1.8 2.3 1.8 2.6 0 3-.3 3-.3.5-1 1.2-2 2-2.8.1-.1 1.8 1 4.5 1.2 2.3.1 3.8.5 3.8 1.6 0 .7-.3 3-.2 3.6s.2 1 .4 1 .2-.2 1-.2c1 0 1 1 1.2 1 1 0 4.3-.7 4.3-3.4" fill="#000"/><path d="M52.6 29c5-3 13.2 8.2 13 10S58 46.5 55 46c-2-.4-7.6-13.7-2.3-17" fill="#d75647"/><path d="M5 28c-2 1.4-2.7 4.2-1.3 6.3s4.2 2.7 6.3 1.3c.6-.4 1.2-1 1.5-1.6L5 28z" class="C"/></g></g><g transform="translate(38.6 .4)"><mask id="E" fill="#fff"><use xlink:href="#C"/></mask><path fill="#000" mask="url(#E)" d="M15-8.3L-8-3l5.3 22.8L20 14.5z" class="B"/></g></g></g></svg>