<svg id="svg" version="1.1" xmlns="http://www.w3.org/2000/svg" xmlns:xlink="http://www.w3.org/1999/xlink" width="400" height="400" viewBox="0, 0, 400,400"><g id="svgg"><path id="path0" d="M130.469 56.910 C 124.005 57.991,117.601 62.778,114.818 68.608 C 113.712 70.927,113.512 71.138,112.637 70.919 C 111.303 70.584,107.202 71.383,105.295 72.349 C 94.438 77.848,94.730 93.190,105.791 98.375 L 108.008 99.414 131.250 99.414 C 157.457 99.414,156.089 99.564,159.704 96.298 C 165.944 90.661,164.060 78.872,156.481 76.131 C 155.357 75.725,155.195 75.456,154.790 73.325 C 152.785 62.776,141.389 55.084,130.469 56.910 M139.332 61.133 C 145.026 62.824,150.510 68.955,151.378 74.599 C 152.009 78.701,151.896 78.470,153.471 78.894 C 162.251 81.259,161.866 93.848,152.956 95.698 C 148.674 96.587,109.500 96.046,107.387 95.069 C 95.017 89.348,103.084 69.986,115.676 75.176 C 116.189 75.387,116.462 74.952,117.074 72.944 C 119.953 63.514,129.783 58.297,139.332 61.133 M107.617 150.729 C 95.084 154.331,89.035 168.733,94.973 180.835 C 100.985 193.089,119.533 195.591,130.166 185.582 C 131.514 184.313,132.524 183.215,132.410 183.141 C 132.296 183.068,130.681 181.528,128.820 179.719 L 125.437 176.430 123.865 177.850 C 116.072 184.891,104.684 181.479,103.999 171.898 C 103.238 161.265,114.900 156.259,123.428 163.559 L 125.070 164.964 128.563 161.470 L 132.057 157.977 129.993 155.912 C 124.936 150.854,115.107 148.577,107.617 150.729 M153.267 151.434 C 152.391 153.531,149.439 160.116,148.610 161.825 L 147.894 163.298 144.532 163.044 C 140.530 162.742,137.754 163.397,135.199 165.248 C 129.803 169.157,131.642 178.021,138.253 179.969 L 140.497 180.631 138.274 185.335 C 137.052 187.922,135.926 190.435,135.773 190.918 L 135.494 191.797 141.328 191.797 L 147.161 191.797 148.325 189.160 C 148.965 187.710,150.161 184.810,150.982 182.715 L 152.476 178.906 154.265 178.914 C 159.341 178.938,169.404 185.428,172.086 190.408 C 172.497 191.172,173.000 191.797,173.203 191.797 C 173.405 191.797,173.893 192.088,174.286 192.443 C 174.950 193.045,175.000 193.045,175.000 192.443 C 175.000 191.890,175.503 191.797,178.493 191.797 C 182.865 191.797,182.837 191.863,180.527 187.028 C 178.983 183.796,169.732 163.175,164.923 152.246 L 163.935 150.000 158.900 150.000 L 153.866 150.000 153.267 151.434 M185.547 170.313 L 185.547 190.625 188.320 190.625 C 194.782 190.625,195.450 189.499,195.703 178.190 L 195.898 169.466 204.688 180.024 L 213.477 190.583 217.480 190.604 L 221.484 190.625 221.484 170.313 L 221.484 150.000 219.043 150.001 C 216.103 150.001,214.396 150.775,212.723 152.867 L 211.523 154.367 211.328 162.779 L 211.133 171.190 202.202 160.595 L 193.272 150.000 189.409 150.000 L 185.547 150.000 185.547 170.313 M241.450 150.617 C 220.675 156.205,221.236 186.249,242.208 191.192 C 258.402 195.009,272.284 181.549,268.539 165.661 C 265.877 154.368,253.357 147.415,241.450 150.617 M272.266 170.898 L 272.266 190.625 287.891 190.625 L 303.516 190.625 303.516 185.938 L 303.516 181.250 293.555 181.250 L 283.594 181.250 283.594 178.320 L 283.594 175.391 292.969 175.391 L 302.344 175.391 302.344 170.703 L 302.344 166.016 292.969 166.016 L 283.594 166.016 283.594 163.281 L 283.594 160.547 293.750 160.547 L 303.906 160.547 303.906 155.859 L 303.906 151.172 288.086 151.172 L 272.266 151.172 272.266 170.898 M252.353 161.528 C 264.368 167.617,255.371 186.027,243.164 180.331 C 235.498 176.754,235.059 167.215,242.307 161.730 C 244.570 160.018,249.189 159.925,252.353 161.528 M160.706 166.317 L 162.128 169.158 159.872 167.909 C 158.632 167.222,157.561 166.620,157.492 166.571 C 157.424 166.522,157.743 165.745,158.203 164.844 C 158.663 163.943,159.094 163.267,159.161 163.341 C 159.228 163.416,159.923 164.755,160.706 166.317 M150.195 166.605 C 157.412 168.536,164.508 173.614,167.871 179.256 C 170.109 183.012,169.978 183.199,166.895 180.653 C 160.802 175.622,156.550 174.484,148.757 175.800 C 138.033 177.611,134.377 176.268,134.705 170.635 C 134.955 166.330,142.159 164.456,150.195 166.605 M95.350 193.652 C 92.705 196.298,88.360 210.382,87.129 220.302 C 85.741 231.491,88.109 241.586,93.911 249.215 L 95.659 251.513 93.234 252.320 C 78.532 257.213,62.894 253.592,54.403 243.330 C 51.798 240.182,50.374 239.617,48.060 240.814 C 41.565 244.172,54.812 256.735,68.945 260.619 C 76.647 262.736,89.601 261.677,98.275 258.221 C 102.742 256.442,111.685 250.853,112.704 249.204 C 112.820 249.017,114.350 250.023,116.105 251.439 C 132.995 265.075,150.001 265.253,165.812 251.960 L 169.392 248.950 172.294 251.078 C 188.178 262.727,200.475 264.540,216.602 257.611 C 216.816 257.518,217.486 258.256,218.089 259.250 L 219.185 261.057 218.382 262.925 C 216.510 267.275,217.166 268.779,224.932 277.946 C 232.654 287.061,232.015 286.804,237.429 282.975 C 242.736 279.221,242.754 280.176,237.198 270.313 C 230.937 259.197,229.578 257.852,225.053 258.286 C 223.178 258.466,223.160 258.457,222.061 256.721 L 220.956 254.974 222.099 254.147 C 222.728 253.692,224.209 252.547,225.391 251.601 C 226.572 250.656,227.761 249.710,228.032 249.499 C 228.388 249.222,229.097 249.653,230.571 251.044 C 245.527 265.144,272.674 265.358,288.033 251.496 C 291.077 248.748,290.250 248.697,294.513 251.898 C 313.240 265.961,333.391 264.928,349.925 249.059 C 354.349 244.813,354.946 242.368,351.940 240.814 C 349.580 239.593,348.599 240.021,344.336 244.124 C 334.011 254.062,322.402 256.828,310.059 252.293 C 307.387 251.311,307.415 251.465,309.365 248.545 C 318.964 234.171,319.180 217.209,310.013 197.856 C 306.811 191.097,306.231 191.079,296.564 197.453 C 273.419 212.712,243.517 219.938,207.617 218.949 C 202.246 218.801,197.642 218.562,197.386 218.419 C 197.130 218.276,194.261 214.132,191.010 209.211 L 185.101 200.263 186.691 198.809 C 190.246 195.560,187.183 192.084,183.265 194.922 C 182.375 195.566,181.333 196.094,180.950 196.094 C 180.043 196.094,178.516 197.169,178.516 197.807 C 178.516 198.081,177.725 198.873,176.758 199.567 C 174.907 200.897,174.308 203.058,175.469 204.219 C 176.192 204.942,178.469 204.774,179.684 203.909 L 180.777 203.130 185.506 210.369 C 188.107 214.350,190.234 217.711,190.234 217.838 C 190.234 218.106,186.877 217.852,175.977 216.760 C 144.645 213.622,123.439 207.370,103.308 195.338 C 98.113 192.233,97.004 191.998,95.350 193.652 M304.245 201.774 C 306.545 203.710,309.583 213.580,310.071 220.703 C 310.665 229.387,309.460 235.109,305.237 243.657 L 302.677 248.838 301.511 248.150 C 300.300 247.434,297.275 245.144,293.765 242.285 C 290.694 239.783,289.664 239.920,286.380 243.265 C 271.480 258.444,248.507 258.868,233.685 244.238 C 228.779 239.397,228.397 239.377,223.653 243.709 C 218.922 248.031,217.299 249.117,216.635 248.405 C 216.351 248.101,212.512 242.377,208.104 235.686 L 200.089 223.521 216.158 223.330 C 251.073 222.917,274.512 217.161,297.461 203.366 C 302.294 200.460,302.599 200.389,304.245 201.774 M102.502 202.478 C 104.022 203.629,112.850 207.168,120.602 209.732 C 140.414 216.287,162.029 220.419,187.087 222.441 C 192.021 222.839,194.380 223.180,194.575 223.523 C 194.732 223.798,198.918 230.171,203.878 237.684 L 212.896 251.345 211.624 252.029 C 201.239 257.617,187.235 254.298,173.364 242.961 C 169.182 239.542,168.600 239.612,163.899 244.091 C 148.874 258.404,134.667 258.316,118.034 243.806 C 113.273 239.653,112.937 239.636,108.668 243.319 C 104.756 246.694,100.796 249.403,100.415 248.966 C 100.255 248.783,99.540 247.190,98.826 245.427 C 98.112 243.664,97.394 242.303,97.231 242.404 C 96.555 242.822,93.427 233.355,93.048 229.743 C 92.703 226.459,92.728 218.767,93.090 217.060 C 93.392 215.632,93.444 215.590,94.262 216.123 C 100.585 220.239,102.514 220.828,103.708 219.005 C 104.775 217.376,104.074 216.543,99.170 213.611 C 96.619 212.085,94.531 210.678,94.531 210.484 C 94.531 209.535,97.056 203.751,97.917 202.727 C 99.138 201.277,100.798 201.187,102.502 202.478 M106.641 219.922 C 104.946 221.617,105.739 222.856,109.884 224.992 C 113.458 226.833,114.127 226.905,115.184 225.561 C 116.552 223.822,115.772 222.741,111.652 220.669 C 108.167 218.917,107.713 218.850,106.641 219.922 M120.703 226.172 C 117.601 229.274,124.505 231.994,140.037 233.788 C 146.568 234.543,147.111 234.530,148.047 233.594 C 150.346 231.295,148.566 229.972,142.345 229.354 C 136.158 228.741,130.083 227.652,125.781 226.385 C 121.752 225.198,121.680 225.195,120.703 226.172 M93.414 230.078 C 93.414 230.400,93.565 231.016,93.750 231.445 C 93.962 231.938,94.086 232.010,94.086 231.641 C 94.086 231.318,93.935 230.703,93.750 230.273 C 93.538 229.781,93.414 229.709,93.414 230.078 M94.196 232.813 C 94.196 233.135,94.347 233.750,94.531 234.180 C 94.743 234.672,94.867 234.744,94.867 234.375 C 94.867 234.053,94.716 233.438,94.531 233.008 C 94.320 232.515,94.196 232.443,94.196 232.813 M227.594 263.583 C 228.445 264.270,235.938 277.235,235.938 278.021 C 235.938 278.397,233.631 280.078,233.117 280.078 C 232.938 280.078,229.497 276.140,224.494 270.210 C 221.780 266.992,221.541 265.523,223.467 263.902 C 224.854 262.735,226.396 262.616,227.594 263.583 " stroke="none" fill="#04343c" fill-rule="evenodd"></path><path id="path1" d="M128.906 61.257 C 123.045 63.216,118.934 67.339,117.155 73.043 C 116.530 75.046,116.407 75.187,115.371 75.080 C 110.762 74.605,108.792 74.808,106.664 75.979 C 99.012 80.190,99.457 91.290,107.422 94.891 C 109.822 95.976,152.056 96.160,154.602 95.096 C 161.844 92.072,161.343 81.812,153.830 79.272 L 151.758 78.571 151.467 76.297 C 150.054 65.228,139.025 57.875,128.906 61.257 M297.070 203.747 C 273.934 217.532,248.728 223.575,214.197 223.616 C 205.166 223.627,200.538 223.767,200.678 224.023 C 200.796 224.238,204.507 229.896,208.925 236.596 L 216.958 248.777 218.053 248.130 C 218.655 247.775,220.565 246.248,222.297 244.738 C 228.776 239.087,228.653 239.094,233.771 244.079 C 248.621 258.542,270.589 258.383,285.791 243.703 C 290.414 239.238,290.551 239.235,295.434 243.437 C 302.385 249.420,302.317 249.419,305.216 243.555 C 311.505 230.837,311.740 217.398,305.898 204.514 C 304.001 200.330,302.956 200.239,297.070 203.747 M98.728 201.986 C 97.887 202.475,96.646 204.834,95.468 208.181 L 94.582 210.697 98.756 213.182 C 104.402 216.544,105.302 217.745,103.516 219.531 C 102.321 220.726,101.323 220.499,97.351 218.128 C 93.105 215.595,93.484 215.522,92.985 218.969 C 92.289 223.791,92.471 225.534,94.336 231.857 C 96.289 238.479,96.498 239.636,95.110 236.133 C 94.599 234.844,94.172 234.000,94.161 234.257 C 94.124 235.106,96.552 241.410,96.846 241.229 C 97.004 241.131,97.896 242.881,98.828 245.117 C 99.850 247.568,100.691 249.088,100.945 248.945 C 102.514 248.061,106.785 244.813,108.898 242.899 C 112.825 239.340,113.509 239.380,117.873 243.426 C 133.662 258.067,148.772 258.254,163.916 243.999 C 168.834 239.370,169.053 239.352,173.828 243.180 C 187.200 253.900,199.227 256.991,210.130 252.510 C 212.985 251.336,213.487 252.467,203.170 236.846 L 194.117 223.138 190.320 222.871 C 172.473 221.614,154.211 218.874,139.088 215.185 C 124.438 211.611,105.486 205.039,102.060 202.344 C 100.975 201.491,99.796 201.364,98.728 201.986 M112.131 220.714 C 116.351 222.836,117.375 225.620,114.226 226.410 C 112.130 226.936,105.859 223.319,105.859 221.584 C 105.859 218.820,107.823 218.548,112.131 220.714 M124.840 225.983 C 129.596 227.452,136.949 228.733,145.019 229.499 C 148.512 229.831,149.943 231.714,148.182 233.661 C 146.432 235.594,123.556 232.074,120.623 229.420 C 118.040 227.082,120.886 224.762,124.840 225.983 M224.219 263.387 C 221.058 265.016,221.639 266.727,227.787 273.899 C 233.755 280.862,233.083 280.367,234.706 279.007 L 235.993 277.930 232.224 271.289 C 227.474 262.918,226.669 262.124,224.219 263.387 " stroke="none" fill="#fbfbfb" fill-rule="evenodd"></path><path id="path2" d="M350.195 248.970 C 333.496 265.700,311.471 266.187,292.002 250.259 L 290.839 249.308 288.486 251.364 C 271.917 265.841,245.975 265.572,229.901 250.757 L 228.240 249.225 227.514 250.027 C 227.115 250.468,225.595 251.714,224.136 252.795 C 221.147 255.011,221.161 254.980,222.363 256.837 C 223.188 258.111,223.373 258.194,225.391 258.207 C 230.042 258.236,231.172 259.312,236.540 268.826 C 238.638 272.544,240.707 276.210,241.137 276.973 C 242.427 279.259,241.943 280.072,237.431 283.194 C 231.819 287.077,232.835 287.543,223.816 276.953 C 217.216 269.204,216.244 266.646,218.337 262.543 L 219.097 261.054 218.082 259.531 C 217.524 258.693,217.021 257.949,216.964 257.877 C 216.908 257.806,215.303 258.371,213.397 259.133 C 199.887 264.539,187.171 262.107,172.367 251.286 C 168.943 248.783,169.537 248.768,166.654 251.438 C 152.276 264.759,133.552 265.309,117.687 252.877 C 116.230 251.735,114.580 250.451,114.019 250.022 L 112.999 249.243 110.430 251.290 C 92.067 265.924,64.848 265.445,50.463 250.236 L 48.437 248.094 48.437 295.308 C 48.438 337.709,48.500 342.585,49.051 343.136 C 49.993 344.077,351.570 344.077,352.511 343.136 C 353.045 342.603,353.560 245.788,353.027 246.162 C 352.974 246.200,351.699 247.464,350.195 248.970 " stroke="none" fill="#24c4dc" fill-rule="evenodd"></path><path id="path3" d="M133.105 60.432 C 133.589 60.525,134.380 60.525,134.863 60.432 C 135.347 60.339,134.951 60.263,133.984 60.263 C 133.018 60.263,132.622 60.339,133.105 60.432 M146.094 65.430 C 146.823 66.182,147.507 66.797,147.614 66.797 C 147.722 66.797,147.213 66.182,146.484 65.430 C 145.756 64.678,145.071 64.063,144.964 64.063 C 144.857 64.063,145.365 64.678,146.094 65.430 M121.264 65.723 L 120.117 66.992 121.387 65.845 C 122.570 64.775,122.836 64.453,122.534 64.453 C 122.467 64.453,121.896 65.024,121.264 65.723 M100.872 85.156 C 100.872 85.908,100.952 86.216,101.051 85.840 C 101.149 85.464,101.149 84.849,101.051 84.473 C 100.952 84.097,100.872 84.404,100.872 85.156 M120.801 95.996 C 126.548 96.057,135.952 96.057,141.699 95.996 C 147.446 95.935,142.744 95.885,131.250 95.885 C 119.756 95.885,115.054 95.935,120.801 95.996 M138.460 166.331 C 133.587 168.631,133.270 174.039,137.891 176.055 C 139.801 176.889,142.715 176.821,148.757 175.800 C 156.550 174.484,160.802 175.622,166.895 180.653 C 169.978 183.199,170.109 183.012,167.871 179.256 C 162.378 170.040,145.924 162.809,138.460 166.331 M190.723 222.926 C 191.099 223.024,191.714 223.024,192.090 222.926 C 192.466 222.827,192.158 222.747,191.406 222.747 C 190.654 222.747,190.347 222.827,190.723 222.926 M228.613 223.316 C 228.989 223.414,229.604 223.414,229.980 223.316 C 230.356 223.218,230.049 223.138,229.297 223.138 C 228.545 223.138,228.237 223.218,228.613 223.316 M210.645 223.729 C 212.954 223.798,216.733 223.798,219.043 223.729 C 221.353 223.660,219.463 223.603,214.844 223.603 C 210.225 223.603,208.335 223.660,210.645 223.729 M92.969 230.055 C 92.969 230.975,93.589 231.436,93.979 230.805 C 94.167 230.500,94.091 230.453,93.749 230.665 C 93.367 230.901,93.293 230.767,93.457 230.139 C 93.578 229.676,93.518 229.297,93.323 229.297 C 93.128 229.297,92.969 229.638,92.969 230.055 M116.406 242.383 C 117.135 243.135,117.819 243.750,117.927 243.750 C 118.034 243.750,117.526 243.135,116.797 242.383 C 116.068 241.631,115.384 241.016,115.276 241.016 C 115.169 241.016,115.677 241.631,116.406 242.383 M109.155 242.676 L 108.008 243.945 109.277 242.798 C 110.461 241.729,110.726 241.406,110.425 241.406 C 110.357 241.406,109.786 241.978,109.155 242.676 M233.789 244.531 C 234.847 245.605,235.801 246.484,235.908 246.484 C 236.016 246.484,235.238 245.605,234.180 244.531 C 233.122 243.457,232.168 242.578,232.061 242.578 C 231.953 242.578,232.731 243.457,233.789 244.531 M350.571 248.535 L 348.633 250.586 350.684 248.647 C 352.589 246.846,352.914 246.484,352.622 246.484 C 352.560 246.484,351.637 247.407,350.571 248.535 M50.977 250.781 C 52.252 252.070,53.384 253.125,53.491 253.125 C 53.599 253.125,52.643 252.070,51.367 250.781 C 50.092 249.492,48.960 248.438,48.853 248.438 C 48.745 248.438,49.701 249.492,50.977 250.781 M229.688 250.586 C 230.416 251.338,231.101 251.953,231.208 251.953 C 231.315 251.953,230.807 251.338,230.078 250.586 C 229.349 249.834,228.665 249.219,228.558 249.219 C 228.450 249.219,228.959 249.834,229.688 250.586 M289.233 250.488 L 288.086 251.758 289.355 250.611 C 290.054 249.979,290.625 249.408,290.625 249.341 C 290.625 249.039,290.303 249.305,289.233 250.488 M78.223 262.003 C 79.028 262.088,80.347 262.088,81.152 262.003 C 81.958 261.919,81.299 261.850,79.688 261.850 C 78.076 261.850,77.417 261.919,78.223 262.003 M140.534 262.002 C 141.236 262.089,142.291 262.087,142.878 261.998 C 143.465 261.909,142.891 261.838,141.602 261.840 C 140.313 261.842,139.832 261.915,140.534 262.002 M198.730 262.001 C 199.429 262.088,200.571 262.088,201.270 262.001 C 201.968 261.915,201.396 261.844,200.000 261.844 C 198.604 261.844,198.032 261.915,198.730 262.001 M257.910 262.003 C 258.716 262.088,260.034 262.088,260.840 262.003 C 261.646 261.919,260.986 261.850,259.375 261.850 C 257.764 261.850,257.104 261.919,257.910 262.003 M320.215 262.001 C 320.913 262.088,322.056 262.088,322.754 262.001 C 323.452 261.915,322.881 261.844,321.484 261.844 C 320.088 261.844,319.517 261.915,320.215 262.001 " stroke="none" fill="#42a6d1" fill-rule="evenodd"></path></g></svg>