<svg xmlns="http://www.w3.org/2000/svg" width="125" height="117" fill="none" fill-rule="evenodd" xmlns:v="https://vecta.io/nano"><path d="M22.698 91.984c-1.88-2.112-2.94-4.338-3.43-6.64-.764-3.602-.132-7.393.94-11.238.42-1.5 1.012-2.96 1.634-4.394.498-1.147 1.387-1.38 2.473-.68 9.93 6.406 20.96 8.378 32.61 9.395 12.92 1.128 25.54 1.25 37.466-3.73 1.558-.65 3.103-1.363 4.637-2.14 1.842-.935 3.574-2.103 5.298-3.25 1.5-.998 2.146-1.005 2.944.582 3.665 7.284 4.766 14.554-.52 21.627-.854.743-1.44.8-1.755.168-.07-.137-1.796-1.81-4.732-1.893-2.843-.08-6.724 4.767-11.356 4.732-4.095-.03-10.41-2.366-13.722-4.732-3.785 2.366-7.426 4.72-11.356 4.732-4.008.013-8.517-2.366-12.302-4.732-3.312 2.366-7.13 4.697-10.41 4.732-4.794.05-8.84-4.795-11.83-4.732-3.16.067-5.133 1.82-5.205 1.893-.315.315-.778.415-1.388.3z" fill="#d9e2e7"/><path d="M21.254 82c.148 2.4.852 4.548 1.95 6.68m-.507 3.313c-4.822-5.415-4.248-11.576-2.49-17.88.42-1.5 1.012-2.96 1.634-4.394.498-1.147 1.387-1.38 2.473-.68 9.93 6.406 20.96 8.378 32.61 9.395 12.92 1.128 25.54 1.25 37.466-3.73 1.558-.65 3.103-1.363 4.637-2.14 1.842-.935 3.574-2.103 5.298-3.25 1.5-.998 2.146-1.005 2.944.582 3.665 7.284 4.766 14.554-.52 21.627-.854.743-1.44.8-1.755.168s-.315-1.104 0-1.42c1.893-3.154 2.84-6.15 2.84-9s-.63-5.678-1.893-8.517c-.315-.63-.79-.946-1.42-.946-.946 0-11.356 9.463-36.433 9-16.718-.315-30.913-2.997-42.584-8.044-.946-.946-1.735-.946-2.366 0-.946 1.42-2.366 6.624-1.893 9.463.315 1.893 1.262 4.574 2.84 8.044.315.63.315 1.104 0 1.42s-.778.415-1.388.3z" fill="#003039"/><g stroke-linecap="round"><path d="M20.774 76.07l4.042 2.413m2.536 1.427l.99.523 1.125.552m3.49 1.416l1.674.52 1.48.352 1.778.32 1.516.217 3.134.306" stroke="#003039" stroke-width="1.893"/><path d="M4.214 88.846c2.84 3.785 6.782 5.678 11.83 5.678s9.463-1.893 13.248-5.678c3.785 3.785 7.57 5.678 11.356 5.678s7.413-1.893 10.883-5.678c4.416 3.785 8.517 5.678 12.302 5.678s7.57-1.893 11.356-5.678c3.154 3.785 7.255 5.678 12.302 5.678s9.148-1.893 12.302-5.678c4.1 3.785 8.2 5.678 12.302 5.678s7.886-1.893 11.356-5.678" stroke="#d9e2e7" stroke-width="1.822" stroke-linejoin="round"/></g><g stroke="#003039"><g stroke-linecap="round" stroke-width="1.893"><path d="M56.734 69.92l16.56 25.077"/><path d="M58.627 68.973l-3.312 2.366"/></g><path d="M72.98 95.066c.61-.42 1.267-.6 1.874-.513a2.15 2.15 0 0 1 1.478.879h0l3.588 6.31-2.617 1.832-4.545-5.323a2.27 2.27 0 0 1 .223-3.184z" fill="#f6f0e3" stroke-width="1.893"/></g><g fill="#d9e2e7" fill-rule="nonzero"><path d="M.157 29.41c-.53-1.267.25-3.547 2.87-3.357-.53-2.375 2.434-5.5 6.335-4.148 3.34-5.003 11.952-2.787 11.984 3.768 3.464-.602 4.588 2.692 3.402 3.737H.157z" opacity=".9"/><path d="M123.52 44.5c.774-1.856-.364-5.195-4.186-4.917.774-3.48-3.55-8.07-9.237-6.077-4.87-7.33-17.427-4.082-17.473 5.52-5.05-.88-6.69 3.943-4.96 5.474h35.856z" opacity=".65"/></g><path d="M30.9 4.904c3.87 0 7.005 3.136 7.005 7.005a7.01 7.01 0 0 1-7.005 7.005 7.01 7.01 0 0 1-7.005-7.005c0-3.87 3.136-7.005 7.005-7.005m0-1.05c.578 0 1.05-2.36 1.05-2.9S31.5 0 30.9 0s-1.05.432-1.05.963.473 2.9 1.05 2.9m-3.997 1.013c.466-.27-.335-2.56-.6-3.023-.276-.455-.852-.6-1.286-.3-.408.272-.55.827-.326 1.277.256.464 1.737 2.32 2.203 2.046m-6 2.36c.48.3 2.7 1.172 2.963.667s-1.575-2.196-2.006-2.485c-.446-.312-1.038-.167-1.322.323s-.152 1.14.294 1.45l.07.044m1.94 4.675c0-.578-2.36-1.05-2.9-1.05S19 11.33 19 11.9s.432 1.05.963 1.05 2.9-.473 2.9-1.05m-1.948 4.672c-.468.27-.65.904-.404 1.418s.823.713 1.292.444l.07-.045c.48-.3 2.273-1.98 2.005-2.485s-2.53.378-2.962.667m3.794 4.406a1 1 0 0 0 .395 1.318c.43.235.96.087 1.222-.34.257-.464 1.042-2.755.593-3.023s-1.953 1.582-2.2 2.046m6.2-1.023c-.578 0-1.05 2.36-1.05 2.9s.47.963 1.05.963 1.05-.432 1.05-.963-.473-2.9-1.05-2.9m3.995-1.023c-.466.27.335 2.558.6 3.022.276.456.852.6 1.286.3.408-.272.55-.828.326-1.277-.256-.464-1.737-2.32-2.203-2.046m6.06-2.445c-.464-.256-2.755-1.057-3.023-.6s1.582 1.947 2.046 2.203a1 1 0 0 0 1.318-.393c.235-.43.087-.958-.34-1.218m.9-5.64c-.53 0-2.9.473-2.9 1.05s2.36 1.05 2.9 1.05.963-.47.963-1.05-.432-1.05-.963-1.05m-.89-3.536c.456-.276.6-.852.3-1.286-.272-.408-.827-.55-1.277-.326-.464.256-2.32 1.737-2.046 2.203s2.558-.335 3.022-.6M37.4 2.882c.3-.45.166-1.045-.322-1.33s-1.136-.153-1.447.296l-.045.07c-.288.434-1.2 2.694-.665 2.96s2.2-1.562 2.478-1.995" fill="#fbb315" fill-rule="nonzero"/></svg>