<svg xmlns="http://www.w3.org/2000/svg" xmlns:xlink="http://www.w3.org/1999/xlink" width="30" height="30" xmlns:v="https://vecta.io/nano"><g fill-rule="nonzero"><circle cx="15" cy="15" r="15" fill="#00b0c4"/><g fill="#fff"><path d="M5.543 15.648h-1.06c-.045 0-.075.03-.075.046a.95.95 0 0 1-.82.49c-.567 0-1.044-.536-1.044-1.194 0-.673.462-1.224 1.044-1.224a.95.95 0 0 1 .82.49c0 .015.03.046.075.046h1.06c-.24-.934-.97-1.5-1.954-1.5-1.223 0-2.088.98-2.088 2.19s.88 2.173 2.088 2.173c.985-.015 1.73-.566 1.954-1.515"/><path d="M9.003 15c0 .643-.462 1.163-1.044 1.163-.567 0-1.044-.505-1.044-1.163 0-.7.462-1.194 1.044-1.194.567 0 1.044.536 1.044 1.194m1.03-.015c0-1.2-.85-2.2-2.073-2.2s-2.088.98-2.088 2.2c0 1.194.88 2.158 1.94 2.158.492 0 .925-.184 1.238-.52v.352c0 .046.045.092.1.092h.82c.045 0 .1-.03.1-.092-.015-.03-.015-2-.015-2M20.698 15c0-.643.462-1.163 1.044-1.163.567 0 1.044.505 1.044 1.133 0 .612-.462 1.07-1.06 1.07h-.582v1.026h.7c1.134 0 1.97-.934 1.97-2.097 0-1.18-.85-2.158-2.073-2.158s-2.073.98-2.073 2.2v3.827c0 .046.045.092.1.092h.865c.045 0 .1-.03.1-.092L20.698 15z"/><use xlink:href="#B"/><use xlink:href="#B" x="11.472"/><path d="M18.476 11.592c0-.046-.045-.092-.1-.092h-.88c-.045 0-.1.03-.1.092v3.72c0 1.133.627 1.867 1.82 1.73v-.964c-.507.03-.776-.184-.776-.765.015 0 .015-3.704.015-3.72m-7.885 3.734c0 1.133.612 1.867 1.85 1.73v-.964c-.537.046-.82-.184-.82-.765V13.8h.73v-1.026h-.73v-.857c0-.046-.045-.092-.1-.092h-.865c-.045 0-.1.03-.1.092v3.398h.015zm7.488 2.693h-.164v.872h.582v-.153h-.418v-.72zm-1.134.536h-.24l.12-.352.12.352zm.045.153l.06.168h.164l-.298-.872h-.2l-.298.872h.164l.06-.168h.358zm-1.268-.7h-.164v.612l-.343-.612H15v.872h.164v-.612l.343.612h.194v-.872zm-1.835.72c-.134 0-.254-.138-.254-.3 0-.168.12-.3.254-.3s.254.138.254.3-.12.3-.254.3m0-.75c-.24 0-.418.2-.418.46s.18.46.418.46.418-.2.418-.46-.18-.46-.418-.46m-1.15.03h-.164v.872h.164v-.872zm-.865.153v-.153h-.612v.153h.224v.72h.164v-.72h.224zm-1.447.383h-.24l.12-.352.12.352zm.06.153l.06.168h.164l-.298-.872h-.2l-.298.872h.164l.06-.168h.358zm-1.268-.7h-.164v.612l-.332-.6h-.194v.872h.164v-.612l.343.612h.194v-.872zm-1.954.383v-.23h.224c.134 0 .134.092.134.107 0 .107-.104.122-.12.122h-.24zm.492.26c0-.092-.03-.153-.1-.184.075-.03.12-.092.12-.2 0-.168-.12-.26-.283-.26h-.388v.872h.164v-.337h.224c.075 0 .104.03.104.107v.23h.164v-.23h-.015zm-1.387.06h-.462v-.22h.388v-.153h-.388v-.184h.462V18h-.612v.872h.627v-.168h-.015zm-1.328-.55v-.153H4.4v.153h.224v.72h.164v-.72h.224zm-1.328-.153h-.16v.612l-.343-.612h-.194v.872h.164v-.612l.343.612h.194v-.872zm-1.462 0h-.164v.872h.164v-.872z"/></g></g><defs ><path id="B" d="M15.835 15c0 .643-.462 1.163-1.044 1.163-.567 0-1.044-.505-1.044-1.163 0-.69.462-1.194 1.044-1.194s1.044.536 1.044 1.194m1.044-.015c0-1.21-.85-2.19-2.073-2.19s-2.088.98-2.088 2.19c0 1.194.88 2.158 1.94 2.158.492 0 .925-.184 1.238-.52v.352c0 .046.045.092.1.092h.82c.045 0 .1-.03.1-.092-.015-.03-.015-2-.015-2"/></defs></svg>