<svg xmlns="http://www.w3.org/2000/svg" width="66" height="30" fill-rule="evenodd" xmlns:v="https://vecta.io/nano"><path d="M65.77 9.817v-4.79c-.01-1.58-1.144-2.326-2.383-2.326-1.058 0-1.767.362-2.263 1.058h-.027v-.884H58.54v6.953h2.65v-3.67c0-1.112.603-1.34 1.058-1.34.776 0 .87.564.87 1.367v3.644h2.65zM47.344 2.115h2.65V.253h-2.65v1.862zm-3.467 7.702h2.65V.253h-2.65v9.564zm11.3-3.12c-.32.16-.683.254-1.044.335-.6.134-.897.28-.897.75 0 .322.348.643.83.643.603 0 1.07-.362 1.1-1.085v-.643zM57.7 8.264c0 .522.027 1.1.322 1.554h-2.704a1.84 1.84 0 0 1-.094-.657h-.027c-.563.643-1.38.83-2.236.83-1.34 0-2.45-.643-2.45-2.103 0-2.197 2.57-2.116 3.923-2.372.36-.066.723-.173.723-.616 0-.47-.442-.643-.87-.643-.818 0-.977.416-1 .7H50.84c.04-.978.522-1.554 1.205-1.876.67-.32 1.552-.402 2.37-.402 3.32 0 3.293 1.38 3.293 2.72v2.853zM47.344 9.817h2.65V2.864h-2.65v6.953zm-6.838-3.12c-.322.16-.683.254-1.044.335-.6.134-.897.28-.897.75 0 .322.348.643.83.643.602 0 1.07-.362 1.1-1.085v-.643zm2.543 1.567c0 .522.027 1.1.322 1.554h-2.704a1.85 1.85 0 0 1-.093-.657h-.027c-.562.643-1.378.83-2.236.83-1.338 0-2.45-.643-2.45-2.103 0-2.197 2.57-2.116 3.922-2.372.36-.066.723-.173.723-.616 0-.47-.442-.643-.87-.643-.816 0-.977.416-1 .7h-2.463c.04-.978.522-1.554 1.205-1.876.67-.32 1.552-.402 2.368-.402 3.32 0 3.293 1.38 3.293 2.72v2.853zm-12.5-5.4h2.544v1.112h.026c.43-.83 1-1.286 1.955-1.286a3.02 3.02 0 0 1 .777.107v2.345a2.68 2.68 0 0 0-1.045-.174c-1.044 0-1.606.616-1.606 2.103v2.747h-2.65V2.864zm-1.927 0h1.42V4.5h-1.42v2.425c0 .643.148.925.816.925a4.71 4.71 0 0 0 .603-.04v2l-1.7.08c-1.124 0-2.37-.175-2.37-2.076V4.5h-1.18V2.864h1.18V.748h2.65v2.116zm-6.518 2.022c-.013-.227-.134-.4-.308-.522-.16-.134-.375-.2-.6-.2-.375 0-.803.08-.803.536 0 .2.16.295.308.362.442.188 1.446.24 2.33.536.885.28 1.66.804 1.66 1.942 0 1.93-1.847 2.45-3.534 2.45-1.633 0-3.427-.655-3.467-2.45h2.53a.85.85 0 0 0 .321.616c.134.12.388.2.7.2.348 0 .897-.133.897-.535s-.228-.522-1.46-.737c-2.022-.35-2.838-.992-2.838-2.184 0-1.755 1.887-2.2 3.28-2.2 1.5 0 3.307.415 3.374 2.196h-2.4zm-4.9 4.93h-2.557v-.884h-.027C14.134 9.63 13.425 10 12.367 10c-1.245 0-2.383-.763-2.383-2.357v-4.77h2.65v3.644c0 .804.093 1.367.87 1.367.455 0 1.058-.228 1.058-1.34v-3.67h2.65v6.953zM3.615.224h2.877l3.482 9.564H6.922L6.52 8.422H3.48l-.428 1.366H.094L3.615.224zm2.316 6.15l-.857-2.947h-.027l-.924 2.947H5.93zm-2.264 6.233h2.877l3.482 9.564H6.974l-.402-1.366h-3.04l-.428 1.366H.146l3.52-9.564zm2.316 6.15L5.126 15.8H5.1l-.924 2.947h1.807zm4.244 3.415h2.945v-9.564h-2.945v9.564zm4.004-9.564h4.832c3.186 0 4.3 2.357 4.3 4.77 0 2.933-1.553 4.795-4.887 4.795H14.23V12.61zm2.944 7.113h1.152c1.833 0 2.1-1.487 2.1-2.385 0-.603-.187-2.277-2.315-2.277h-.938v4.662z" fill="#20264e"/><path d="M54.923 17.37c-.507-.576-1.852-1.65-2.165-1.766-.112-.042-.404-.077-.805-.123l-.423-.05-.275-.038-.07-.27c-.05-.193-.08-.49-.105-.755-.05-.53-.092-.68-.19-.688h-.008c-.058 0-.14.055-.233.154-.193.204-.4.58-.39.96.007.134.117.335.225.53l.008.014.105.198.093.2s-.245.992-1.293.937c-.625-.033-1.64-.602-2.872-1.568-1.922-1.505-3.73-2.882-6.112-2.882-2.2 0-4.232 1.72-6.258 3.97-.773.86-2.623 3.003-4.954 3.207s-3.002-1.057-4.152-1.99c-.34-.275-.67-.29-.515-.017.386.68.978 1.522 1.35 1.952.725.843 2.14 1.652 3.618 1.695 3.49.105 6.623-2.75 6.71-2.58.248.478.416.94.97 1.38s2.682.993 2.99 1.548c.557 1 .53 1.965.704 3.408.076.637.297 1.303.494 1.802.22.557.344.74.447.755 1.926.293 4.877 1.406 6.37 1.937l1.598.506h.012.015c.052-.001.084-.017.103-.05.03-.055.02-.12.007-.164-.11-.333-.847-.88-1.175-1.03-1.16-.52-2.425-.908-3.44-1.22-.902-.276-2.25-.7-2.535-1.04-.235-.273-.52-.74-.414-1.775.07-.7.18-1.32.972-2.58.53-.844.72-1.56.702-2.165.923.31 1.954.402 1.954.402.22.574.115 1.99-.323 2.418l-.06.057-.076.03-.148.053c-.637.216-.56.447-.515.586.033.097.172.153.382.153.292 0 .867-.13 1.176-.616.166-.263.385-.832.596-1.382.214-.56.3-.71.466-.995l.125-.218s1.022.022 2.05-.55c.53-.294.957-.698 1.327-1.027l.63-.514a1.45 1.45 0 0 1 .795-.222c.33 0 .687.087 1.1.187l.022.005.683.155c.298.06.625-.137.753-.424.082-.184.062-.36-.056-.493" fill="#d62331"/></svg>