<svg xmlns="http://www.w3.org/2000/svg" width="15" height="15" xmlns:v="https://vecta.io/nano"><path d="M13.947 14.697a.41.41 0 0 0 .13-.021c.04-.014.077-.036.11-.068a.32.32 0 0 0 .113-.243.34.34 0 0 0-.092-.25l-4.156-4.54a5.39 5.39 0 0 0 .619-.79c.18-.28.332-.574.455-.882a5.27 5.27 0 0 0 .28-.954c.064-.328.096-.663.096-1.005 0-.35-.033-.695-.1-1.032s-.165-.663-.297-.978-.294-.614-.485-.9-.4-.553-.656-.803-.513-.465-.8-.656-.588-.352-.902-.482S7.62.868 7.282.8 6.6.697 6.25.697 5.555.73 5.218.8s-.663.167-.978.297-.615.29-.902.482-.554.4-.8.656-.465.518-.656.803-.353.584-.485.9-.23.64-.297.978-.1.68-.1 1.032.033.695.1 1.032.165.663.297.978.294.615.485.902.4.554.656.8.513.472.8.663.588.352.902.482.64.228.978.294.68.1 1.032.1c.3 0 .598-.025.892-.075s.58-.123.854-.22a5.02 5.02 0 0 0 .8-.359c.257-.144.502-.31.735-.496l4.163 4.54a.3.3 0 0 0 .116.082c.046.018.09.027.137.027zM6.25 10.5a4.4 4.4 0 0 1-1.771-.359 4.63 4.63 0 0 1-1.446-.978 4.63 4.63 0 0 1-.978-1.446 4.4 4.4 0 0 1-.359-1.771c0-.624.12-1.213.36-1.767s.565-1.036.978-1.446a4.66 4.66 0 0 1 1.446-.974 4.4 4.4 0 0 1 1.771-.359 4.4 4.4 0 0 1 1.771.359 4.66 4.66 0 0 1 1.446.974c.412.4.738.892.978 1.446s.36 1.143.36 1.767a4.4 4.4 0 0 1-.359 1.771 4.63 4.63 0 0 1-.978 1.446 4.63 4.63 0 0 1-1.446.978 4.4 4.4 0 0 1-1.771.359z" fill="#596973" fill-rule="nonzero" stroke="#596973" stroke-width=".5"/></svg>