<svg xmlns="http://www.w3.org/2000/svg" width="15" height="16"  xmlns:v="https://vecta.io/nano"><path d="M1.282 15a.41.41 0 0 1-.13-.021c-.041-.014-.078-.036-.11-.068a.32.32 0 0 1-.113-.243.34.34 0 0 1 .093-.25L5.19 9.88c-.233-.246-.44-.509-.621-.79a5.2 5.2 0 0 1-.456-.882 5.26 5.26 0 0 1-.281-.954c-.064-.328-.096-.663-.096-1.005a5.34 5.34 0 0 1 .099-1.032c.066-.337.166-.663.298-.978a5.26 5.26 0 0 1 .487-.899 5.62 5.62 0 0 1 .658-.803 5.25 5.25 0 0 1 .802-.656 5.23 5.23 0 0 1 .905-.482c.315-.13.642-.229.981-.297S8.651 1 9.003 1s.697.034 1.035.103.665.167.981.297a5.23 5.23 0 0 1 .905.482 5.25 5.25 0 0 1 .802.656 5.62 5.62 0 0 1 .658.803 5.26 5.26 0 0 1 .487.899c.133.314.232.64.298.978a5.34 5.34 0 0 1 .099 1.032 5.34 5.34 0 0 1-.099 1.032c-.066.337-.166.663-.298.978a5.38 5.38 0 0 1-.487.902 5.24 5.24 0 0 1-.658.8c-.247.251-.514.472-.802.663a5.23 5.23 0 0 1-.905.482c-.315.13-.642.228-.981.294a5.39 5.39 0 0 1-1.035.099 5.33 5.33 0 0 1-.895-.075 5.37 5.37 0 0 1-.857-.219c-.277-.096-.544-.215-.802-.359s-.504-.309-.737-.496l-4.176 4.539a.3.3 0 0 1-.117.082c-.046.018-.091.027-.137.027zm7.721-4.197c.631 0 1.223-.12 1.776-.359s1.037-.565 1.45-.978.741-.894.981-1.446.36-1.142.36-1.771-.12-1.213-.36-1.767-.567-1.036-.981-1.446-.897-.735-1.45-.974-1.145-.359-1.776-.359-1.223.12-1.776.359-1.037.564-1.45.974-.741.892-.981 1.446-.36 1.143-.36 1.767.12 1.219.36 1.771.567 1.033.981 1.446.897.738 1.45.978 1.145.359 1.776.359z" fill="#1c1a37" stroke="#1c1a37" stroke-width=".5"/></svg>
