<svg xmlns="http://www.w3.org/2000/svg" xmlns:xlink="http://www.w3.org/1999/xlink" width="45" height="50"><defs><path d="M31.7 21.3c.1.1.2.2.2.3v.4c0 .2-.1.2-.2.3s-.2.1-.3.1h-5.5v.6c0 .4-.1.8-.2 1.2s-.4.7-.6 1-.6.5-1 .6-.8.2-1.2.2-.8-.1-1.2-.2-.7-.4-1-.6-.5-.6-.6-1-.2-.8-.2-1.2v-.6h-5.5c-.1 0-.2 0-.4-.1s0-.2-.1-.3v-.4c0-.2.1-.2.2-.3.3-.3.7-.5.9-.9s.5-.7.7-1 .3-.8.4-1.2.1-.8.1-1.3v-3.6a5.4 5.4 0 0 1 .4-2.2 11.4 11.4 0 0 1 1-1.9 5 5 0 0 1 1.5-1.4c.6-.4 1.2-.7 1.9-.9V6c0-.5.2-.9.5-1.3s.8-.5 1.3-.5.9.2 1.3.5.5.8.5 1.3v.9c.7.2 1.3.5 1.9.9s1.1.9 1.5 1.4.8 1.2 1 1.9a7.8 7.8 0 0 1 .4 2.2V17c0 .4 0 .8.1 1.3s.2.8.4 1.2a3.6 3.6 0 0 0 .7 1c.3.3.7.6 1.1.8zM16 21.2h13.8c-.1-.2-.3-.4-.4-.6s-.3-.4-.4-.6c-.2-.5-.4-1-.5-1.5s-.2-1-.2-1.5v-3.6c0-.7-.1-1.4-.4-2.1s-.7-1.2-1.2-1.7-1.1-.9-1.7-1.2-1.4-.4-2.1-.4-1.4.1-2.1.4-1.2.7-1.7 1.2-.9 1.1-1.2 1.7-.4 1.4-.4 2.1V17c0 .5-.1 1-.2 1.5s-.3 1-.5 1.5c-.1.2-.2.4-.4.6s-.3.4-.4.6zm8.7 1.8v-.3c0-.1 0-.2-.1-.3h-3.4c0 .1-.1.2-.1.3v.3c0 .5.2.9.5 1.3s.8.5 1.3.5.9-.2 1.3-.5.5-.8.5-1.3zM22.3 6.2v.6h1.2v-.6c0-.2-.1-.3-.2-.4s-.3-.2-.4-.2-.3.1-.4.2-.2.2-.2.4z" id="A"/><filter x="-151.4%" y="-81.4%" width="408.3%" height="354.6%" id="B"><feMorphology radius="0.25" operator="dilate" in="SourceAlpha"/><feOffset dy="10"/><feGaussianBlur stdDeviation="7.5"/><feComposite in2="SourceAlpha" operator="out"/><feColorMatrix values="0 0 0 0 0.0156862745 0 0 0 0 0.470588235 0 0 0 0 0.556862745 0 0 0 0.3 0"/></filter></defs><g fill-rule="evenodd"><use fill="#000" filter="url(#B)" xlink:href="#A"/><use stroke="#04788e" stroke-width=".5" fill="#04788e" xlink:href="#A"/></g></svg>