<?xml version="1.0" encoding="UTF-8"?>
<svg width="214px" height="132px" viewBox="0 0 214 132" version="1.1" xmlns="http://www.w3.org/2000/svg" xmlns:xlink="http://www.w3.org/1999/xlink">
    <!-- Generator: Sketch 64 (93537) - https://sketch.com -->
    <title>Illustration</title>
    <desc>Created with Sketch.</desc>
    <defs>
        <path d="M129.725516,160.794452 C126.022759,149.513628 122.992101,147.226231 111.137248,147.293664 C98.2769048,147.36997 85.59567,147.58469 73.3400395,142.016148 C46.979173,130.037925 32.7498026,99.2423583 41.1342073,70.9098691 C49.3572371,43.118618 77.1917584,25.1708041 105.68774,29.285989 C138.918569,34.0843763 160.266171,61.6058955 157.302901,95.0597404 C155.994168,109.848853 159.310335,116.560206 173.779108,120.465994 C189.123916,124.607797 197.183798,136.209815 198.199928,150.374285 C199.632796,170.274106 189.138103,181.017241 176.476375,185.852893 C172.365747,187.426921 167.68942,187.52807 163.272002,188.3 C146.888009,187.671809 135.552748,178.547065 129.725516,160.794452 Z" id="path-1"></path>
        <path d="M17.5,8.90954544 C17.5,3.98893937 13.5824916,0 8.75,0 C3.91750844,0 0,3.98893937 0,8.90954544 C0,13.8301515 17.5,13.8301515 17.5,8.90954544 Z" id="path-3"></path>
        <path d="M25.9,12.8693434 C25.9,5.76180131 20.1020875,0 12.95,0 C5.79791249,0 0,5.76180131 0,12.8693434 C0,19.9768855 25.9,19.9768855 25.9,12.8693434 Z" id="path-5"></path>
        <path d="M0.576996167,3.2518514 C0.066483158,5.46229508 1.44515945,7.66788598 3.65608841,8.17839899 L3.65608841,8.17839899 C5.86556154,8.68842672 8.07163771,7.31023571 8.58215072,5.09979202 L8.58215072,5.09979202 C9.09266373,2.88934834 7.71398744,0.683757442 5.50305848,0.173244434 L5.50305848,0.173244434 C5.19248022,0.10190849 4.88190197,0.0674535776 4.57617649,0.0674535776 L4.57617649,0.0674535776 C2.70639834,0.0669684365 1.01617323,1.35198597 0.576996167,3.2518514 L0.576996167,3.2518514 Z" id="path-7"></path>
        <polygon id="path-9" points="0.144210933 0.0871258585 18.0402292 0.0871258585 18.0402292 20.1887028 0.144210933 20.1887028"></polygon>
        <polygon id="path-11" points="0.0923790555 0.414913139 14.3543681 0.414913139 14.3543681 6.30862083 0.0923790555 6.30862083"></polygon>
    </defs>
    <g id="Canoe-" stroke="none" stroke-width="1" fill="none" fill-rule="evenodd">
        <g id="Notfications-hub" transform="translate(-78.000000, -109.000000)">
            <g id="Illustration" transform="translate(78.000000, 79.000000)">
                <mask id="mask-2" fill="white">
                    <use xlink:href="#path-1"></use>
                </mask>
                <use id="Fill-1" fill="#FFD36E" transform="translate(118.531224, 108.500000) rotate(119.000000) translate(-118.531224, -108.500000) " xlink:href="#path-1"></use>
                <g id="Plants" transform="translate(104.100000, 123.000000) scale(-1, 1) translate(-104.100000, -123.000000) translate(97.600000, 108.500000)">
                    <line x1="7.45143547" y1="27.6857802" x2="7.35" y2="4.55" id="Line" stroke="#0C9B70" stroke-width="1.26874279" stroke-linejoin="round"></line>
                    <path d="M8.28621181,7.77311846 C9.58715881,6.47594672 9.3954513,4.17844244 7.60452707,2.38619086 C5.81386403,0.593939287 0.51866236,-1.0658141e-14 0.51866236,-1.0658141e-14 C0.51866236,-1.0658141e-14 1.1037098,5.28911151 2.89489521,7.08136309 C4.68529707,8.87361467 6.98604835,9.06924684 8.28621181,7.77311846" id="Fill-3" fill="#23D5A0"></path>
                    <path d="M12.130695,18.3657727 C12.9523457,17.6147785 12.8312673,16.2846445 11.7001572,15.2470251 C10.5692122,14.2094058 7.22487426,13.8655462 7.22487426,13.8655462 C7.22487426,13.8655462 7.5943779,16.9276634 8.7256529,17.9652827 C9.85643302,19.0029021 11.3095391,19.1161628 12.130695,18.3657727" id="Fill-3-Copy" fill="#23D5A0" transform="translate(9.943609, 16.357720) scale(-1, 1) translate(-9.943609, -16.357720) "></path>
                </g>
                <g id="Horizon" opacity="0.35" style="mix-blend-mode: multiply;" transform="translate(16.800000, 135.800000)" stroke="#C44801" stroke-linecap="round" stroke-linejoin="round" stroke-width="1.4">
                    <line x1="54.3145886" y1="0.20102064" x2="142.670576" y2="0.281708879" id="Stroke-19"></line>
                    <line x1="18.1098747" y1="0.4423854" x2="37.9703973" y2="0.281708879" id="Stroke-19-Copy"></line>
                    <line x1="4.94452414" y1="0.4423854" x2="13.4869666" y2="0.281708879" id="Stroke-19-Copy-2"></line>
                    <line x1="0.382596606" y1="0.4423854" x2="2.75029905" y2="0.4423854" id="Stroke-19-Copy-3"></line>
                    <line x1="148.88569" y1="0.222962891" x2="196.280952" y2="0.4423854" id="Stroke-23"></line>
                </g>
                <g id="Rocks" transform="translate(49.100000, 130.511547) scale(-1, 1) translate(-49.100000, -130.511547) translate(29.600000, 121.011547)">
                    <g id="Item" transform="translate(21.000000, 4.392201)">
                        <mask id="mask-4" fill="white">
                            <use xlink:href="#path-3"></use>
                        </mask>
                        <use id="Mask" fill="#4D626E" xlink:href="#path-3"></use>
                    </g>
                    <g id="Item">
                        <mask id="mask-6" fill="white">
                            <use xlink:href="#path-5"></use>
                        </mask>
                        <use id="Oval-Copy-4" fill="#3F525E" xlink:href="#path-5"></use>
                    </g>
                </g>
                <g id="Person" transform="translate(170.000000, 91.500000) scale(-1, 1) translate(-170.000000, -91.500000) translate(144.000000, 31.500000)">
                    <g id="Group-7" transform="translate(18.440584, 3.798275)">
                        <path d="M9.26629639,4.88743414 C6.12217682,4.88743414 3.57397928,8.10143381 3.57397928,12.0656741 C3.57397928,16.0299144 6.12217682,19.243914 9.26629639,19.243914 C12.410416,19.243914 14.9586135,16.0299144 14.9586135,12.0656741 C14.9586135,8.10143381 12.410416,4.88743414 9.26629639,4.88743414" id="Fill-1" fill="#744D4D"></path>
                        <path d="M0.211872604,9.62763478 C0.211872604,8.17228448 1.60219558,7.12262703 1.60219558,6.31560884 C1.60219558,5.50907593 1.12613735,4.0634312 2.19132371,3.02881739 C3.48556154,1.77243129 5.54896583,2.29653209 7.39642117,2.29653209 C9.13226246,2.29653209 10.0902023,0.279229264 12.459332,0.279229264 C14.0389136,0.279229264 13.8380083,2.32904575 14.4290776,2.83761765 C14.8667988,3.22001713 18.2802479,3.95424354 18.2802479,5.514414 C18.2802479,7.25850502 18.2346318,9.59900334 14.6129981,9.59900334 C14.3718147,8.76141261 13.4657997,6.92172172 12.433127,6.10354213 C11.9012617,6.33307887 8.99104641,7.53414322 8.26992252,7.74620993 C7.54879863,7.95827665 6.49525895,11.0446481 5.37863306,11.417342 C4.26200718,11.7905212 4.19115651,13.8456757 3.37491803,13.7578403 C2.55819427,13.6700049 0.211872604,13.3259424 0.211872604,9.62763478" id="Fill-3" fill="#000000"></path>
                        <path d="M4.36512886,11.1268543 C3.53384675,11.1268543 2.86028016,11.8009061 2.86028016,12.631703 C2.86028016,13.4629851 3.53384675,14.1365517 4.36512886,14.1365517 C5.19641098,14.1365517 5.87046285,13.4629851 5.87046285,12.631703 C5.87046285,11.8009061 5.19641098,11.1268543 4.36512886,11.1268543" id="Fill-5" fill="#744D4D"></path>
                    </g>
                    <g id="Group-10" transform="translate(14.073077, 0.401325)">
                        <mask id="mask-8" fill="white">
                            <use xlink:href="#path-7"></use>
                        </mask>
                        <g id="Clip-9"></g>
                        <polygon id="Fill-8" fill="#000000" mask="url(#mask-8)" points="-1.91927657 -6.22471617 14.9795775 -2.32307683 11.0784235 14.5762625 -5.82091591 10.6746232"></polygon>
                    </g>
                    <g id="Group-43" transform="translate(0.000000, 7.680503)">
                        <path d="M34.0401533,17.1781319 L19.5186787,17.1781319 C18.515608,17.1781319 17.7022812,17.9914587 17.7022812,18.9945294 L17.7022812,49.1152822 C17.7022812,50.1183529 18.515608,50.9316797 19.5186787,50.9316797 L34.0401533,50.9316797 C35.043224,50.9316797 35.8565509,50.1183529 35.8565509,49.1152822 L35.8565509,18.9945294 C35.8565509,17.9914587 35.043224,17.1781319 34.0401533,17.1781319" id="Fill-11" fill="#EE9A5D"></path>
                        <g id="Group-15" transform="translate(32.513661, 0.000000)">
                            <mask id="mask-10" fill="white">
                                <use xlink:href="#path-9"></use>
                            </mask>
                            <g id="Clip-14"></g>
                            <path d="M0.353088655,0.592185385 C0.943672621,-0.21920031 2.61011908,-0.0357650273 4.07566022,1.01874521 C4.6298483,1.41036498 5.10105375,1.90777547 5.46161569,2.48283052 C5.50965827,2.46147826 5.56109779,2.44983158 5.61350787,2.44789047 C6.32492619,2.44789047 18.1516491,8.77398132 18.0395498,11.6924464 C17.9279357,14.6109114 13.9602985,19.2914228 12.5753136,20.1887028 C12.5753136,20.1887028 6.32492619,17.270723 6.66073893,16.3336502 C6.99655167,15.3965774 10.5963478,12.3980414 11.2276951,11.8040604 C10.4861895,11.4168082 4.54880679,5.53474717 3.87863714,4.86845975 C3.174498,4.71802341 2.51112226,4.41812128 1.93364081,3.98913506 C0.471011337,2.93219843 -0.238951146,1.41230609 0.353088655,0.592185385" id="Fill-13" fill="#744D4D" mask="url(#mask-10)"></path>
                        </g>
                        <path d="M36.2636995,25.3098956 C34.9010374,24.2141367 37.156612,15.023932 39.5742696,14.7987627 C41.9919272,14.5731082 46.2070565,19.1279325 46.0381796,20.4207145 C45.8683321,21.7134965 39.7057801,28.0653071 36.2636995,25.3098956" id="Fill-16" fill="#D75647"></path>
                        <path d="M41.6723713,47.3118416 C41.6723713,48.8259106 40.9153368,101.201051 39.55316,105.742288 C38.3419048,106.34743 36.8137627,106.499322 35.7543997,106.044616 C34.6945514,105.590881 30.0640237,48.0533472 30.0640237,45.53184 C30.0640237,43.0098475 41.6723713,47.3118416 41.6723713,47.3118416" id="Fill-18" fill="#744D4D"></path>
                        <path d="M14.524726,104.106026 C15.9703707,101.834922 34.7938394,57.7434858 36.2700567,46.871791 C34.7239593,45.6741236 23.2228582,43.7655232 22.292094,45.9390857 C21.3608445,48.1126482 10.1819684,101.854819 10.5648532,102.553134 C10.9477379,103.25048 13.4381873,104.338959 14.524726,104.106026" id="Fill-20" fill="#744D4D"></path>
                        <path d="M27.2362572,87.6032559 C17.7311068,71.3100294 24.9292431,47.5119705 24.9292431,45.8746407 C24.9292431,42.8266063 42.2784357,47.0485295 42.2784357,47.0485295 C42.2784357,48.0889666 43.5649091,69.572247 43.0364407,88.4369644 C43.0364407,88.4369644 33.5827298,92.6914012 28.2665035,88.6233113 C28.2665035,88.6233113 27.5827461,88.1972368 27.2362572,87.6032559" id="Fill-22" fill="#DAD5B2"></path>
                        <path d="M31.1644898,90.5168196 C46.0751578,87.2984524 35.5465549,53.7627946 36.3671609,47.3872054 C34.5968649,45.9405901 23.0205456,43.3021307 21.9539034,45.9289434 C21.3982595,47.29937 16.0543724,65.9583293 12.6564522,83.2987868 C12.6564522,83.2987868 19.050482,93.1319856 31.1644898,90.5168196" id="Fill-24" fill="#FEFBE2"></path>
                        <path d="M29.5214338,18.0970553 C19.7581152,18.0970553 20.3632575,45.1173636 22.4824688,46.7823542 C24.6016801,48.4473448 41.1773387,48.5230483 42.2367017,47.3117931 C43.29655,46.1010232 45.8001019,18.0970553 29.5214338,18.0970553" id="Fill-26" fill="#EE6C5D"></path>
                        <path d="M24.8615468,20.1519187 C25.1022449,20.9836861 30.160303,19.9738215 30.062762,19.0333517 L29.198481,10.6773408 L23.1043532,11.9885633 C23.1043532,11.9885633 24.6164811,19.3240335 24.8615468,20.1519187" id="Fill-28" fill="#744D4D"></path>
                        <path d="M10.260535,101.727045 C8.68095343,103.267319 8.05737052,104.601349 8.38930104,105.729137 C8.72074627,106.857409 12.9727567,108.320039 21.1448471,110.117025 C22.5817568,108.542296 22.4521874,107.200986 20.7566243,106.093581 C19.0615464,104.98569 16.4381307,103.654571 12.8883182,102.099253 L10.260535,101.727045 Z" id="Fill-30" fill="#2A3942"></path>
                        <line x1="0.0611450942" y1="23.7644776" x2="16.9925128" y2="107.69631" id="Stroke-32" stroke="#333333" stroke-width="2.06340429" stroke-linecap="round"></line>
                        <path d="M2.77661814,46.9246864 C3.22792717,46.4685246 3.80977612,46.164255 4.44209404,46.0540967 C6.46133798,42.7949662 13.3226911,32.750186 16.3488879,29.1004062 C18.5302149,30.6668852 21.1929382,33.4072531 21.1929382,33.4072531 C20.0801945,34.6544189 11.7469917,44.5128521 7.31348707,48.3790661 C7.31833986,49.197731 6.99077685,49.9829117 6.40553095,50.5540845 C5.283567,51.6775043 3.56082824,51.77456 2.55872808,50.7744009 C1.55662793,49.7732713 1.65465419,48.0476209 2.77661814,46.9246864" id="Fill-34" fill="#744D4D"></path>
                        <path d="M25.6870541,22.5247366 C21.7713417,19.6135507 15.3151962,26.6525157 15.4209869,28.5038533 C15.5267776,30.3551908 20.4887505,34.4606472 22.1857695,34.4650154 C24.2583941,34.4679264 29.0204323,25.0025687 25.6870541,22.5247366" id="Fill-36" fill="#D75647"></path>
                        <g id="Group-40" transform="translate(32.513661, 104.334883)">
                            <mask id="mask-12" fill="white">
                                <use xlink:href="#path-11"></use>
                            </mask>
                            <g id="Clip-39"></g>
                            <path d="M1.26628578,0.669199087 C0.0923790555,2.53703613 -0.201196477,3.97976919 0.385990539,4.99885409 C0.973177555,6.01745372 5.44938667,6.44207242 13.8151032,6.27222494 C14.8424378,4.4043879 14.4018049,3.13101705 12.494175,2.45211239 C10.5860599,1.77272245 7.7243724,1.0938178 3.90814208,0.414913139 L1.26628578,0.669199087 Z" id="Fill-38" fill="#2A3942" mask="url(#mask-12)"></path>
                        </g>
                        <path d="M20.1092142,39.7677502 L19.4332212,37.8179011 C19.506013,37.7926666 26.8608943,35.1474133 27.7242048,28.7155318 C28.5394727,22.6442121 22.8636551,21.5207923 22.6215011,21.4761467 L22.9869158,19.4452561 C23.065531,19.4593292 30.8503691,20.9418551 29.7696538,28.9901994 C28.73504,36.6930254 20.4610411,39.6459453 20.1092142,39.7677502" id="Fill-41" fill="#EE9A5D"></path>
                    </g>
                </g>
                <g id="Sun" transform="translate(65.100000, 48.300000)" fill="#FFC100">
                    <path d="M11.3716102,4.68242775 C15.0659502,4.68242775 18.0607928,7.67727032 18.0607928,11.3716102 C18.0607928,15.0654724 15.0659502,18.0607928 11.3716102,18.0607928 C7.67727032,18.0607928 4.68242775,15.0654724 4.68242775,11.3716102 C4.68242775,7.67727032 7.67727032,4.68242775 11.3716102,4.68242775" id="Fill-1"></path>
                    <path d="M11.3716103,3.67905038 C11.9234678,3.67905038 12.3749876,1.42563202 12.3749876,0.919762594 C12.3749876,0.412053642 11.9254746,0 11.3716103,0 C10.8177459,0 10.3682329,0.412053642 10.3682329,0.919762594 C10.3682329,1.42563202 10.8197527,3.67905038 11.3716103,3.67905038" id="Fill-3"></path>
                    <path d="M7.55625781,4.65630504 C8.00095419,4.39985793 7.23607642,2.21306348 6.99149341,1.77010938 C6.72778846,1.33554809 6.17814374,1.20732454 5.76368672,1.48335488 C5.37368799,1.74353213 5.23850029,2.27321198 5.45284395,2.70264433 C5.69742696,3.14559843 7.11156143,4.91741482 7.55625781,4.65630504" id="Fill-5"></path>
                    <path d="M1.82853619,6.90960743 C2.28562397,7.18554824 4.40651129,8.02842196 4.65790957,7.54677983 C4.90930785,7.0651377 3.15409076,5.44962974 2.74271176,5.17368893 C2.31670594,4.87617458 1.75174544,5.01464669 1.48069239,5.48224092 C1.20963933,5.94983515 1.33579556,6.56994939 1.76180137,6.86746375 C1.7832845,6.88251506 1.8056818,6.89656296 1.82853619,6.90960743" id="Fill-7"></path>
                    <path d="M3.67905038,11.3716103 C3.67905038,10.8197527 1.42563202,10.3682329 0.919762594,10.3682329 C0.412053642,10.3682329 0,10.8177459 0,11.3716103 C0,11.9254746 0.412053642,12.3749876 0.919762594,12.3749876 C1.42563202,12.3749876 3.67905038,11.9234678 3.67905038,11.3716103" id="Fill-9"></path>
                    <path d="M1.82824785,15.8333612 C1.38093149,16.0907214 1.20821894,16.6967471 1.44215763,17.187387 C1.67609632,17.6790303 2.22804542,17.8686642 2.67536179,17.6118056 C2.69820737,17.598762 2.72059603,17.5842134 2.74207087,17.5691631 C3.19898238,17.2932408 4.91240054,15.6778414 4.65653009,15.1962316 C4.40065965,14.7151235 2.23946821,15.5574389 1.82824785,15.8333612" id="Fill-11"></path>
                    <path d="M5.45318504,20.0400451 C5.2248124,20.4966754 5.39341564,21.0605834 5.8300891,21.2989266 C6.24089223,21.5237436 6.74759402,21.3819503 6.99648452,20.9728955 C7.24180669,20.5297915 7.99115441,18.3422575 7.56295571,18.0861901 C7.13475701,17.8291898 5.69850721,19.5969412 5.45318504,20.0400451" id="Fill-13"></path>
                    <path d="M11.3716102,19.0642161 C10.8197527,19.0642161 10.3682329,21.3171746 10.3682329,21.8235039 C10.3682329,22.3312128 10.8177459,22.7432665 11.3716102,22.7432665 C11.9254746,22.7432665 12.3749876,22.3312128 12.3749876,21.8235039 C12.3749876,21.3171746 11.9234678,19.0642161 11.3716102,19.0642161" id="Fill-15"></path>
                    <path d="M15.1869627,18.0870055 C14.7422663,18.3434632 15.5071441,20.5298821 15.7517271,20.9728546 C16.0149873,21.4079002 16.5650768,21.5356628 16.9795338,21.2600872 C17.3695325,20.9998992 17.5047202,20.4697311 17.2903766,20.0402809 C17.0457935,19.5973085 15.6316591,17.8254186 15.1869627,18.0870055" id="Fill-18"></path>
                    <path d="M20.9728955,15.751658 C20.5297915,15.5070991 18.3422575,14.7422967 18.0861901,15.1869493 C17.8291898,15.6316019 19.5969412,17.0455971 20.0400451,17.290156 C20.4966754,17.5182628 21.060117,17.3497394 21.2989266,16.9144246 C21.5237436,16.5048995 21.3819503,15.9997742 20.9728955,15.751658" id="Fill-20"></path>
                    <path d="M21.8234579,10.3682329 C21.3175885,10.3682329 19.0641701,10.8197527 19.0641701,11.3716103 C19.0641701,11.9234678 21.3175885,12.3749876 21.8234579,12.3749876 C22.3311669,12.3749876 22.7432205,11.9254746 22.7432205,11.3716103 C22.7432205,10.8177459 22.3311669,10.3682329 21.8234579,10.3682329" id="Fill-22"></path>
                    <path d="M20.9727828,6.99149341 C21.4078177,6.72778846 21.5360434,6.17814374 21.2595421,5.76368672 C20.9998267,5.37368799 20.4696717,5.23850029 20.0402321,5.45284395 C19.5972706,5.69742696 17.8254244,7.11156143 18.0870048,7.55625781 C18.3476527,8.00095419 20.5298212,7.23607642 20.9727828,6.99149341" id="Fill-24"></path>
                    <path d="M17.5703266,2.7522535 C17.8664856,2.3233543 17.7284115,1.75455666 17.2626615,1.48166265 C16.795911,1.20876863 16.1780795,1.3357817 15.8814202,1.76468089 C15.8664122,1.78630993 15.8519044,1.80885935 15.8388974,1.83186896 C15.5637498,2.246042 14.7037882,4.40434374 15.2040567,4.65744948 C15.7043252,4.91055523 17.2946787,3.16642654 17.5703266,2.7522535" id="Fill-26"></path>
                </g>
                <path d="M110.065286,78.203075 C110.780457,76.4956268 109.728734,73.42222 106.194945,73.6783372 C106.910116,70.4768718 102.913569,66.2509374 97.6549532,68.0864442 C93.1535784,61.3420237 81.5425557,64.3300581 81.5004868,73.1661027 C76.8308363,72.3550648 75.3163551,76.7944302 76.9149741,78.203075 L110.065286,78.203075 Z" id="Fill-1-Copy-4" fill-opacity="0.25" fill="#FFFFFF" transform="translate(93.288400, 71.301537) scale(-1, 1) translate(-93.288400, -71.301537) "></path>
                <path d="M33.7652855,43.903075 C34.4804572,42.1956268 33.4287341,39.12222 29.8949446,39.3783372 C30.6101163,36.1768718 26.6135686,31.9509374 21.3549532,33.7864442 C16.8535784,27.0420237 5.24255568,30.0300581 5.20048676,38.8661027 C0.530836297,38.0550648 -0.983644932,42.4944302 0.614974143,43.903075 L33.7652855,43.903075 Z" id="Fill-1-Copy-5" fill-opacity="0.25" fill="#FFFFFF" transform="translate(16.988400, 37.001537) scale(-1, 1) translate(-16.988400, -37.001537) "></path>
            </g>
        </g>
    </g>
</svg>