<svg xmlns="http://www.w3.org/2000/svg" xmlns:xlink="http://www.w3.org/1999/xlink" width="85" height="140"><defs><path id="A" d="M0 .373h10.588V6.23H0z"/><path id="B" d="M.373.005H7.77v7.396H.373z"/><path id="C" d="M43.4 113.272c1.326 2.11 1.663 3.85 1 5s-4.797 1.345-14.244 1.153c-1.16-2.11-.508-2.314 1.244-3.153s3-1 7-3h5z"/></defs><g fill="none" fill-rule="evenodd"><path d="M.21 29.88c-.707-1.69.333-4.73 3.828-4.475-.707-3.167 3.246-7.346 8.447-5.53 4.452-6.67 15.937-3.715 15.978 5.024 4.62-.802 6.117 3.59 4.535 4.982H.21z" fill-opacity=".35" fill="#e6e6e6"/><path d="M41.648 4.63a6.62 6.62 0 0 1 6.616 6.616 6.62 6.62 0 0 1-6.616 6.616 6.62 6.62 0 0 1-6.616-6.616 6.62 6.62 0 0 1 6.616-6.616m0-1c.546 0 .992-2.23.992-2.73s-.445-.9-.992-.9-.992.408-.992.9.447 2.73.992 2.73m-3.774.966c.44-.254-.317-2.417-.56-2.855-.26-.43-.804-.557-1.214-.284a.95.95 0 0 0-.307 1.206c.242.438 1.64 2.2 2.08 1.932M32.2 6.834c.452.273 2.55 1.107 2.8.63s-1.5-2.064-1.897-2.347c-.42-.294-.98-.157-1.248.305s-.143 1.076.278 1.37l.066.042m1.83 4.414c0-.546-2.23-.992-2.73-.992s-.9.445-.9.992.408.992.9.992 2.73-.447 2.73-.992m-1.832 4.412c-.442.255-.613.854-.382 1.34s.777.674 1.22.42l.066-.042c.452-.273 2.147-1.87 1.894-2.347s-2.4.357-2.797.63m3.585 4.16c-.226.452-.06 1 .373 1.245a.86.86 0 0 0 1.154-.322c.243-.438.984-2.602.56-2.855s-1.844 1.494-2.087 1.933m5.854-.965c-.546 0-.992 2.228-.992 2.73s.445.9.992.9.992-.408.992-.9-.447-2.73-.992-2.73m3.772-.956c-.44.254.317 2.416.56 2.854.26.43.804.557 1.214.284a.95.95 0 0 0 .307-1.206c-.242-.438-1.64-2.2-2.08-1.932m5.723-2.32c-.438-.242-2.602-.998-2.855-.56s1.494 1.838 1.933 2.08c.452.226 1 .06 1.245-.372.222-.405.082-.905-.322-1.15m.84-5.323c-.5 0-2.73.447-2.73.992s2.23.992 2.73.992.9-.445.9-.992-.408-.992-.9-.992m-.84-3.34c.43-.26.557-.804.284-1.214-.257-.386-.78-.52-1.206-.307-.438.242-2.2 1.64-1.932 2.08s2.416-.317 2.854-.56M47.78 2.722c.293-.424.156-.987-.304-1.257s-1.073-.144-1.366.28l-.042.066c-.272.4-1.123 2.544-.628 2.795s2.068-1.475 2.34-1.884" fill="#ffc100"/><path fill="#f1efef" d="M5 64h25v53H5z"/><path d="M5 108.5H0" stroke="#f1efef"/><path d="M10 69h6v6.154h-6zm0 16.923h6v6.154h-6zm0 8.462h6v6.154h-6zm0 8.46h6V109h-6zM19 69h6v6.154h-6zm0 8.462h6v6.154h-6zm0 8.46h6v6.154h-6zm0 16.923h6V109h-6z" fill="#d8d8d8"/><g fill="#0bb064"><path d="M15.75 51h4.5v12h-4.5z"/><path d="M23.625 54.6v4.8h-11.25v-4.8z"/></g><path d="M48 108.5h30" stroke="#f1efef"/><path fill="#f1efef" d="M25 89h25v28H25z"/><path d="M30 94h6v6h-6zm0 9h6v6h-6zm9-9h6v6h-6z" fill="#d8d8d8"/><path fill="#f1efef" d="M39 103h6v6h-6z"/><g transform="translate(29.6 19.2)"><path d="M21.4 29.602l-4.602 7.516" stroke="#494949" stroke-width=".747" stroke-linecap="square"/><g transform="translate(0 .528)"><path d="M26.305 61.473c-1.305 5.23 2.942 48.428 2.942 52.488l4.783-1.15 1.37-24.54-4-28-5.095 1.2z" fill="#fff"/><path d="M35.745 3.565c.146 1.59.8 2.604 1.965 3.038s2.33.723 3.494.868l-.437 1.736c.873.145 1.3.65 1.3 1.52s-.582 1.374-1.747 1.52c0 1.013.146 1.736.437 2.17s-2.164 1.053-7.367 1.856l-2 13 10 1 3 15c5.584.262 8.885-.982 9.904-3.73 1.528-4.123-1.3-8.68-.655-11.284s1.06-5.38-.25-7.985c-.873-1.736-2.54-3.736-5-6-.285-2.974-.428-5.328-.428-7.064 0-2.604-1.528-6.076-4.15-7.378S39.457-.124 37.055.527 29.653 4.97 31.4 6.272c1.165.868 2.613-.034 4.345-2.707z" fill="#000"/><path d="M38.557 113.674h4.18c.394-1.978 4.37-44.797 2.487-53.365S31.785 61.63 31.785 61.63c.35 3.5 6.076 49.275 6.772 52.043" fill="#fff"/><g fill="#cecece"><use xlink:href="#C"/><use xlink:href="#C" x="-9.173"/></g><path d="M39.014 23.4c-4.375 0-7.59 3.86-9.716 9.288-.324.828-.624.692-.898 1.585-.2.647-4 2-4 5s3.073 1.198 3 2c-1 11-2.336 21.628-2 22 .602.667 13.41 4.487 21 1 1-15 1.594-40.872-7.386-40.872L27.4 57.272" fill="#9ddcc4"/><path d="M25.715 49.224c-.9-.18-13.122-5.87-15.89-8.3s.54-4.29 1.582-3.668 11.9 5.392 14.13 6.09.18 5.87.18 5.87" fill="#744d4d"/><path d="M9.655 29.037l-8.34 3.9a1.15 1.15 0 0 0-.556 1.529L7.564 49.05a1.15 1.15 0 0 0 1.529.557l8.34-3.9a1.15 1.15 0 0 0 .556-1.529l-6.806-14.596a1.15 1.15 0 0 0-1.529-.557" fill="#fff"/><g transform="translate(0 27.2)"><mask id="D" fill="#fff"><use xlink:href="#A"/></mask><path d="M5.02 3.554a.82.82 0 1 1 0-1.643.82.82 0 0 1 0 1.643M10.507.87C10.306.44 9.792.253 9.36.454l-3.004 1.4c.01-.143-.01-.29-.074-.43C6.08 1 5.568.804 5.136 1.005l-1.564.73c-.432.2-.62.715-.418 1.146.066.14.166.25.283.335L.5 4.586C.067 4.788-.12 5.3.08 5.733s.715.62 1.147.417L10.1 2.017c.432-.202.62-.715.417-1.147" fill="#8c6629" mask="url(#D)"/></g><path d="M19.673 30.82c.815.06 1.78 3.032 2.354 3.628 1.756.84 13.086 7.55 13.983 8.23-.073-.676.36-2.124.937-3.492l7.193 3.188c-.38 2-3.816 7.64-5.457 7.903-4.308.7-14.854-9.65-17.555-12.444-1.144-.554-3.203-1.696-3.43-3.158-.9-.98.8-3.945 1.976-3.857" fill="#744d4d"/><path d="M44.68 43.275c-2.432.44-7.892-2.67-8.078-4.022s3.11-12.43 7.908-10.497c6.83 2.638 2.167 13.006.17 14.52" fill="#6ebb9e"/><g fill="#744d4d"><path d="M38.056 5.304c-3.51-.163-6.61 3.447-6.924 8.063s2.277 8.49 5.788 8.652 6.61-3.447 6.925-8.063-2.278-8.49-5.788-8.652"/><path d="M44.166 12.857c-1.238.286-2.06 1.305-1.836 2.276s1.4 1.526 2.647 1.24 2.06-1.305 1.836-2.276-1.4-1.527-2.647-1.24m-3.363 13.04l.622-6.465-5.12-.4-1.078 7.07c-.025 2.415 4.865 3.566 5.575-.206"/></g><g fill="#000"><path d="M44.087 7.475c-1.547.357-2.513 1.9-2.155 3.45s1.9 2.513 3.45 2.155 2.513-1.9 2.155-3.45-1.902-2.513-3.45-2.155"/><path d="M40.8 4.188c-1.548.357-2.513 1.9-2.155 3.45s1.9 2.513 3.45 2.155 2.513-1.9 2.155-3.45-1.902-2.513-3.45-2.155"/><path d="M41.11 6.815c.357 1.548 1.9 2.513 3.45 2.155s2.513-1.9 2.155-3.45-1.902-2.513-3.45-2.155-2.513 1.9-2.155 3.45z"/></g><g transform="translate(35.733)"><mask id="E" fill="#fff"><use xlink:href="#B"/></mask><path d="M3.24.1A3.7 3.7 0 0 0 .468 4.535a3.7 3.7 0 0 0 4.435 2.771 3.7 3.7 0 0 0 2.771-4.434A3.7 3.7 0 0 0 3.24.101" fill="#000" mask="url(#E)"/></g><g fill="#000"><path d="M34.228.9c-1.548.357-2.513 1.9-2.155 3.45s1.9 2.513 3.45 2.155 2.513-1.9 2.155-3.45S35.775.544 34.228.9"/><path d="M32.2 3.367c-1.614.306-3.2 2.44-2.826 3.767s.423 3.444 2.037 3.138 4.18-2.92 3.808-4.247-1.194-3.06-2.808-2.753m14.52 8.268a1.233 1.233 0 0 0 .555 2.402 1.23 1.23 0 0 0 .923-1.478c-.153-.663-.815-1.077-1.478-.924"/><path d="M42.687 11.934a1.233 1.233 0 1 0 .554 2.402 1.23 1.23 0 0 0 .924-1.478c-.153-.663-.815-1.076-1.478-.923M31.3 8.254a1.233 1.233 0 0 0 .555 2.402 1.233 1.233 0 0 0-.555-2.402"/></g><path d="M2.388 35.996c1.917-.575 2.876-.192 2.876 1.15s-.48 2.493-1.438 3.45c-.19.767-.67.287-1.438-1.438s-.766-2.78 0-3.163" fill="#744d4d"/><path d="M33.4 39.272l1 1c1.333-1.333 2-2.667 2-4 0-2 1-6-1-5s-4 4-4 5v2" stroke="#979797"/><path d="M41.4 23.272c1.333 0 1.667.667 1 2s-2.667 3.333-6 6v2-2l-2 1m1-8l-4 7" stroke="#575757"/><path d="M31.4 31.272l-1-1-2 3h2l1-2z" stroke="#979797"/></g></g></g></svg>