<?xml version="1.0" encoding="UTF-8"?>
<svg width="85px" height="140px" viewBox="0 0 85 140" version="1.1" xmlns="http://www.w3.org/2000/svg" xmlns:xlink="http://www.w3.org/1999/xlink">
    <!-- Generator: Sketch 55.2 (78181) - https://sketchapp.com -->
    <title>Illustration</title>
    <desc>Created with Sketch.</desc>
    <defs>
        <polygon id="path-1" points="0 0.372783583 10.5878207 0.372783583 10.5878207 6.23096735 0 6.23096735"></polygon>
        <polygon id="path-3" points="0.372624502 0.00533333333 7.76937754 0.00533333333 7.76937754 7.40172365 0.372624502 7.40172365"></polygon>
    </defs>
    <g id="Symbols" stroke="none" stroke-width="1" fill="none" fill-rule="evenodd">
        <g id="Notification-Card-/-Featured" transform="translate(-204.000000, -26.000000)">
            <g id="Porgress-Card" transform="translate(24.000000, 26.000000)">
                <g id="Illustration" transform="translate(180.000000, 0.000000)">
                    <path d="M33.3969369,29.881048 C34.1043068,28.1922265 33.064057,25.1523477 29.5688179,25.405671 C30.2761877,22.2391306 26.3232387,18.0592973 21.1219901,19.8747805 C16.6697212,13.2039355 5.18536416,16.1593731 5.14375417,24.8990245 C0.525045356,24.0968343 -0.972914261,28.4877702 0.608265334,29.881048 L33.3969369,29.881048 Z" id="Fill-1-Copy-4" fill-opacity="0.35" fill="#E6E6E6" transform="translate(16.803072, 23.054800) scale(-1, 1) translate(-16.803072, -23.054800) "></path>
                    <g id="Sun" transform="translate(30.400000, 0.000000)" fill="#FFC100">
                        <path d="M11.2475563,4.63134672 C14.9015944,4.63134672 17.8637659,7.59351828 17.8637659,11.2475563 C17.8637659,14.9011218 14.9015944,17.8637659 11.2475563,17.8637659 C7.59351828,17.8637659 4.63134672,14.9011218 4.63134672,11.2475563 C4.63134672,7.59351828 7.59351828,4.63134672 11.2475563,4.63134672" id="Fill-1"></path>
                        <path d="M11.2475563,3.63891528 C11.7933936,3.63891528 12.2399878,1.41007967 12.2399878,0.90972882 C12.2399878,0.407558511 11.7953785,0 11.2475563,0 C10.6997342,0 10.2551249,0.407558511 10.2551249,0.90972882 C10.2551249,1.41007967 10.701719,3.63891528 11.2475563,3.63891528" id="Fill-3"></path>
                        <path d="M7.47382591,4.60550898 C7.91367105,4.35185948 7.1571374,2.18892097 6.91522257,1.75079909 C6.6543944,1.32097848 6.11074581,1.19415373 5.70081013,1.46717283 C5.31506594,1.72451178 5.18135302,2.24841331 5.39335838,2.67316093 C5.63527321,3.11128281 7.03398076,4.8637703 7.47382591,4.60550898" id="Fill-5"></path>
                        <path d="M1.80858852,6.8342299 C2.26068989,7.10716044 4.35844026,7.94083918 4.60709601,7.46445133 C4.85575177,6.98806348 3.1196825,5.39017923 2.71279127,5.11724869 C2.29143279,4.82297995 1.73263549,4.95994145 1.46453938,5.42243466 C1.19644326,5.88492786 1.32122324,6.49827722 1.74258172,6.79254596 C1.76383049,6.80743308 1.78598345,6.82132773 1.80858852,6.8342299" id="Fill-7"></path>
                        <path d="M3.63891528,11.2475563 C3.63891528,10.701719 1.41007967,10.2551249 0.90972882,10.2551249 C0.407558511,10.2551249 0,10.6997342 0,11.2475563 C0,11.7953785 0.407558511,12.2399878 0.90972882,12.2399878 C1.41007967,12.2399878 3.63891528,11.7933936 3.63891528,11.2475563" id="Fill-9"></path>
                        <path d="M1.80830333,15.6606336 C1.36586678,15.9151863 1.19503837,16.5146007 1.426425,16.9998883 C1.65781164,17.4861682 2.20373947,17.6737333 2.64617603,17.4196769 C2.66877238,17.4067755 2.6909168,17.3923856 2.71215737,17.3774995 C3.16408439,17.1045873 4.85881071,15.5068104 4.60573158,15.0304545 C4.35265245,14.5545949 2.21503765,15.3877214 1.80830333,15.6606336" id="Fill-11"></path>
                        <path d="M5.39369575,19.8214264 C5.16781445,20.2730753 5.33457838,20.8308316 5.76648813,21.0665747 C6.17280977,21.2889391 6.67398391,21.1486927 6.92015923,20.7441002 C7.16280516,20.3058302 7.90397818,18.1421601 7.48045074,17.8888862 C7.0569233,17.6346895 5.63634168,19.3831564 5.39369575,19.8214264" id="Fill-13"></path>
                        <path d="M11.2475563,18.8562428 C10.701719,18.8562428 10.2551249,21.0846236 10.2551249,21.5854293 C10.2551249,22.0875996 10.6997342,22.4951581 11.2475563,22.4951581 C11.7953785,22.4951581 12.2399878,22.0875996 12.2399878,21.5854293 C12.2399878,21.0846236 11.7933936,18.8562428 11.2475563,18.8562428" id="Fill-15"></path>
                        <path d="M15.0212867,17.8896927 C14.5814416,18.1433527 15.3379752,20.3059197 15.5798901,20.7440598 C15.8402784,21.1743594 16.3843668,21.3007283 16.7943025,21.028159 C17.1800467,20.7708094 17.3137596,20.2464249 17.1017543,19.8216597 C16.8598394,19.3835196 15.4611319,17.6309595 15.0212867,17.8896927" id="Fill-18"></path>
                        <path d="M20.7441002,15.5798218 C20.3058302,15.3379308 18.1421601,14.5814716 17.8888862,15.0212735 C17.6346895,15.4610753 19.3831564,16.8596451 19.8214264,17.1015361 C20.2730753,17.3271544 20.8303702,17.1604695 21.0665747,16.7299036 C21.2889391,16.3248461 21.1486927,15.8252312 20.7441002,15.5798218" id="Fill-20"></path>
                        <path d="M21.5853838,10.2551249 C21.085033,10.2551249 18.8561974,10.701719 18.8561974,11.2475563 C18.8561974,11.7933936 21.085033,12.2399878 21.5853838,12.2399878 C22.0875541,12.2399878 22.4951126,11.7953785 22.4951126,11.2475563 C22.4951126,10.6997342 22.0875541,10.2551249 21.5853838,10.2551249" id="Fill-22"></path>
                        <path d="M20.7439888,6.91522257 C21.1742778,6.6543944 21.3011047,6.11074581 21.0276198,5.70081013 C20.7707377,5.31506594 20.2463662,5.18135302 19.8216114,5.39335838 C19.3834822,5.63527321 17.6309652,7.03398076 17.889692,7.47382591 C18.1474965,7.91367105 20.3058595,7.1571374 20.7439888,6.91522257" id="Fill-24"></path>
                        <path d="M17.3786504,2.72222891 C17.6715785,2.29800862 17.5350106,1.73541604 17.0743416,1.46549905 C16.6126829,1.19558206 16.0015913,1.32120953 15.7081684,1.74542983 C15.6933241,1.76682291 15.6789745,1.78912634 15.6661094,1.81188494 C15.3939634,2.22153973 14.5433833,4.35629635 15.0381943,4.60664094 C15.5330053,4.85698554 17.1060095,3.1318837 17.3786504,2.72222891" id="Fill-26"></path>
                    </g>
                    <g id="Hospital" transform="translate(0.000000, 51.000000)">
                        <rect id="Rectangle" fill="#F1EFEF" x="5" y="13" width="25" height="53"></rect>
                        <path d="M5,57.5 L0,57.5" id="Path-13" stroke="#F1EFEF"></path>
                        <g id="Windows" transform="translate(10.000000, 18.000000)" fill="#D8D8D8">
                            <rect id="Rectangle" x="0" y="0" width="6" height="6.15384615"></rect>
                            <rect id="Rectangle-Copy-7" x="0" y="16.9230769" width="6" height="6.15384615"></rect>
                            <rect id="Rectangle-Copy-9" x="0" y="25.3846154" width="6" height="6.15384615"></rect>
                            <rect id="Rectangle-Copy-11" x="0" y="33.8461538" width="6" height="6.15384615"></rect>
                            <rect id="Rectangle-Copy-4" x="9" y="0" width="6" height="6.15384615"></rect>
                            <rect id="Rectangle-Copy-6" x="9" y="8.46153846" width="6" height="6.15384615"></rect>
                            <rect id="Rectangle-Copy-8" x="9" y="16.9230769" width="6" height="6.15384615"></rect>
                            <rect id="Rectangle-Copy-12" x="9" y="33.8461538" width="6" height="6.15384615"></rect>
                        </g>
                        <g id="Cruz" transform="translate(12.000000, 0.000000)" fill="#0BB064">
                            <rect id="Rectangle" x="3.75" y="0" width="4.5" height="12"></rect>
                            <polygon id="Rectangle" transform="translate(6.000000, 6.000000) rotate(-270.000000) translate(-6.000000, -6.000000) " points="3.6 0.375 8.4 0.375 8.4 11.625 3.6 11.625"></polygon>
                        </g>
                        <path d="M48,57.5 L78,57.5" id="Path-16" stroke="#F1EFEF"></path>
                        <rect id="Rectangle-Copy" fill="#F1EFEF" x="25" y="38" width="25" height="28"></rect>
                        <g id="Windows" transform="translate(30.000000, 43.000000)">
                            <rect id="Rectangle-Copy-11" fill="#D8D8D8" x="0" y="0" width="6" height="6"></rect>
                            <rect id="Rectangle-Copy-13" fill="#D8D8D8" x="0" y="9" width="6" height="6"></rect>
                            <rect id="Rectangle-Copy-12" fill="#D8D8D8" x="9" y="0" width="6" height="6"></rect>
                            <rect id="Rectangle-Copy-14" fill="#F1EFEF" x="9" y="9" width="6" height="6"></rect>
                        </g>
                    </g>
                    <g id="Group-56" transform="translate(29.600000, 19.200000)">
                        <path d="M21.3989333,29.6023467 L16.7973333,37.11808" id="Stroke-1" stroke="#494949" stroke-width="0.746666667" stroke-linecap="square"></path>
                        <g id="Group-55" transform="translate(0.000000, 0.528000)">
                            <path d="M26.30464,61.4733333 C24.9995733,66.7032 29.24704,109.9016 29.24704,113.961333 L34.0299733,112.810933 L35.4,88.272 L31.4,60.272 L26.30464,61.4733333 Z" id="Fill-2" fill="#FFFFFF"></path>
                            <path d="M35.744918,3.56548386 C35.8904816,5.15686232 36.5455177,6.16955771 37.7100264,6.60357002 C38.8745351,7.03758233 40.0390437,7.32692387 41.2035524,7.47159464 L40.7668617,9.20764387 C41.6402432,9.35231464 42.0769339,9.85866233 42.0769339,10.726687 C42.0769339,11.5947116 41.4946796,12.1010593 40.3301709,12.24573 C40.3301709,13.2584254 40.4757345,13.9817793 40.7668617,14.4157916 C41.0579888,14.8498039 38.6023683,15.46854 33.4,16.272 L31.4,29.272 L41.4,30.272 L44.4,45.272 C49.9839049,45.5337852 53.2853299,44.2903055 54.304275,41.5415609 C55.8326926,37.4184439 52.9942027,32.8613147 53.6492389,30.2572408 C54.304275,27.653167 54.7100723,24.8760739 53.4,22.272 C52.5266185,20.5359508 50.8599518,18.5359508 48.4,16.272 C48.1148394,13.2984785 47.9722591,10.9436931 47.9722591,9.20764387 C47.9722591,6.60357002 46.4438414,3.13147155 43.8236969,1.82943462 C41.2035524,0.527397698 39.4567894,-0.123620766 37.0549903,0.527397698 C34.6531911,1.17841616 29.653237,4.96996307 31.4,6.272 C32.5645087,7.14002462 34.0128147,6.23785257 35.744918,3.56548386 Z" id="Path-12" fill="#000000"></path>
                            <path d="M38.5572267,113.673867 L42.7358933,113.673867 C43.1300267,111.696267 47.1060267,68.8765333 45.22336,60.3090667 C43.3412267,51.7426667 31.7854933,61.6306667 31.7854933,61.6306667 C32.1358933,65.1202667 37.8612267,110.905867 38.5572267,113.673867" id="Fill-6" fill="#FFFFFF"></path>
                            <path d="M43.4,113.272 C44.7258667,115.3808 45.0629333,117.122133 44.4,118.272 C43.7370667,119.4224 39.6033067,119.617227 30.1563733,119.425227 C28.9963733,117.316427 29.6481067,117.111627 31.4,116.272 C33.1518933,115.432373 34.4,115.272 38.4,113.272 L43.4,113.272 Z" id="Fill-8" fill="#CECECE"></path>
                            <path d="M34.2265357,113.272 C35.5524024,115.3808 35.8894691,117.122133 35.2265357,118.272 C34.5636024,119.4224 30.4298424,119.617227 20.9829091,119.425227 C19.8229091,117.316427 20.4746424,117.111627 22.2265357,116.272 C23.9784291,115.432373 25.2265357,115.272 29.2265357,113.272 L34.2265357,113.272 Z" id="Fill-8-Copy" fill="#CECECE"></path>
                            <path d="M39.0140267,23.3998933 C34.6390422,23.3998933 31.4252995,27.2599393 29.2978482,32.6874703 C28.9733872,33.5152317 28.6741931,33.3794525 28.4,34.272 C28.2012081,34.9191032 24.4,36.272 24.4,39.272 C24.4,42.272 27.4729421,40.4696368 27.4,41.272 C26.4,52.272 25.0637819,62.8997479 25.4,63.272 C26.0016,63.9386667 38.8085333,67.7589333 46.4,64.272 C47.4,49.272 47.9942933,23.3998933 39.0140267,23.3998933 L27.4,57.272" id="Fill-15" fill="#9DDCC4"></path>
                            <path d="M25.71504,49.2243733 C24.8163733,49.0441067 12.5929067,43.3555733 9.82437333,40.93424 C7.05637333,38.51344 10.3641067,36.6435733 11.4067733,37.2665067 C12.44944,37.8899733 23.3059733,42.6585067 25.53584,43.3555733 C27.7657067,44.0521067 25.71504,49.2243733 25.71504,49.2243733" id="Fill-17" fill="#744D4D"></path>
                            <path d="M9.65514667,29.0373867 L1.31434667,32.9269867 C0.738346667,33.1952533 0.48928,33.87952 0.75808,34.45552 L7.56448,49.0512533 C7.83274667,49.6272533 8.51701333,49.87632 9.09301333,49.6080533 L17.4338133,45.7184533 C18.00928,45.4501867 18.2583467,44.76592 17.99008,44.18992 L11.18368,29.5941867 C10.91488,29.0181867 10.2306133,28.76912 9.65514667,29.0373867" id="Fill-19" fill="#FFFFFF"></path>
                            <g id="Group-23" transform="translate(0.000000, 27.200000)">
                                <mask id="mask-2" fill="white">
                                    <use xlink:href="#path-1"></use>
                                </mask>
                                <g id="Clip-22"></g>
                                <path d="M5.02128,3.55402667 C4.56688,3.55402667 4.19941333,3.18656 4.19941333,2.73269333 C4.19941333,2.27829333 4.56688,1.91082667 5.02128,1.91082667 C5.47514667,1.91082667 5.84261333,2.27829333 5.84261333,2.73269333 C5.84261333,3.18656 5.47514667,3.55402667 5.02128,3.55402667 M10.5066133,0.870826667 C10.3055467,0.438826667 9.79194667,0.252693333 9.36048,0.45376 L6.35674667,1.85376 C6.36794667,1.71029333 6.34768,1.56256 6.28261333,1.42229333 C6.08101333,0.990293333 5.56794667,0.803626667 5.13594667,1.00522667 L3.57221333,1.73429333 C3.14021333,1.93536 2.95354667,2.44896 3.15461333,2.88042667 C3.22021333,3.02069333 3.32048,3.13162667 3.43781333,3.21536 L0.498613333,4.58602667 C0.0666133333,4.78762667 -0.120586667,5.30069333 0.0810133333,5.73269333 C0.28208,6.16469333 0.79568,6.35136 1.22768,6.14976 L10.0895467,2.01749333 C10.5215467,1.81589333 10.7082133,1.30282667 10.5066133,0.870826667" id="Fill-21" fill="#8C6629" mask="url(#mask-2)"></path>
                            </g>
                            <path d="M19.6733867,30.8191467 C20.4888533,30.8783467 21.4541867,33.8511467 22.02752,34.4474133 C23.7837867,35.2879467 35.1133867,41.99728 36.0104533,42.67888 C35.9373867,42.0026133 36.3704533,40.5551467 36.94752,39.1871467 L44.1405867,42.3754133 C43.7592533,44.3658133 40.3245867,50.0154133 38.68352,50.2783467 C34.3752533,50.96848 23.82912,40.6287467 21.1288533,37.83408 C19.9848533,37.2799467 17.9256533,36.13808 17.6973867,34.6762133 C16.79712,33.69488 18.4872533,30.7311467 19.6733867,30.8191467" id="Fill-24" fill="#744D4D"></path>
                            <path d="M44.6806933,43.2754133 C42.2486933,43.71648 36.7884267,40.60448 36.6022933,39.2530133 C36.4150933,37.90208 39.7116267,26.8226133 44.51056,28.7559467 C51.3420267,31.3943467 46.6780267,41.7623467 44.6806933,43.2754133" id="Fill-26" fill="#6EBB9E"></path>
                            <path d="M38.0562133,5.30405333 C34.54528,5.14138667 31.4450133,8.75098667 31.1319467,13.3669867 C30.8178133,17.9824533 33.40928,21.8560533 36.91968,22.01872 C40.4306133,22.1813867 43.53088,18.5712533 43.84448,13.9557867 C44.1575467,9.34032 41.5666133,5.46672 38.0562133,5.30405333" id="Fill-28" fill="#744D4D"></path>
                            <path d="M44.1656,12.85744 C42.9277333,13.1433067 42.1058667,14.1625067 42.3298667,15.1337067 C42.5544,16.1043733 43.7394667,16.6601067 44.9773333,16.37424 C46.2157333,16.0883733 47.0376,15.0691733 46.8130667,14.0985067 C46.5890667,13.1273067 45.4034667,12.5715733 44.1656,12.85744" id="Fill-30" fill="#744D4D"></path>
                            <path d="M40.80256,25.8967467 L41.42496,19.43168 L36.3060267,19.0311467 C36.3060267,19.0311467 35.36256,25.4594133 35.2276267,26.1026133 C35.2030933,28.51808 40.09216,29.66848 40.80256,25.8967467" id="Fill-32" fill="#744D4D"></path>
                            <path d="M44.0874667,7.47461333 C42.5402667,7.83194667 41.5749333,9.37594667 41.9322667,10.92368 C42.2896,12.4714133 43.8336,13.4362133 45.3818667,13.07888 C46.9290667,12.7215467 47.8944,11.1775467 47.5370667,9.62981333 C47.1797333,8.08261333 45.6352,7.11728 44.0874667,7.47461333" id="Fill-34" fill="#000000"></path>
                            <path d="M40.8010133,4.18789333 C39.25328,4.54522667 38.28848,6.08922667 38.6458133,7.63696 C39.0031467,9.18469333 40.5471467,10.1494933 42.09488,9.79216 C43.64208,9.43482667 44.6074133,7.89082667 44.25008,6.34309333 C43.8927467,4.79589333 42.3482133,3.83056 40.8010133,4.18789333" id="Fill-36" fill="#000000"></path>
                            <path d="M41.11088,6.81536 C41.4682133,8.36309333 43.0122133,9.32789333 44.5599467,8.97056 C46.1071467,8.61322667 47.07248,7.06922667 46.7151467,5.52149333 C46.3578133,3.97376 44.81328,3.00896 43.26608,3.36629333 C41.7183467,3.72362667 40.7535467,5.26762667 41.11088,6.81536 Z" id="Fill-38" fill="#000000"></path>
                            <g id="Group-42" transform="translate(35.733333, 0.000000)">
                                <mask id="mask-4" fill="white">
                                    <use xlink:href="#path-3"></use>
                                </mask>
                                <g id="Clip-41"></g>
                                <path d="M3.23952,0.100693333 C1.24965333,0.559893333 0.00858666667,2.54549333 0.46832,4.53536 C0.92752,6.52469333 2.91312,7.76576 4.90298667,7.30602667 C6.89285333,6.84682667 8.13338667,4.86122667 7.67365333,2.87189333 C7.21445333,0.882026667 5.22885333,-0.358506667 3.23952,0.100693333" id="Fill-40" fill="#000000" mask="url(#mask-4)"></path>
                            </g>
                            <path d="M34.2275733,0.901173333 C32.67984,1.25850667 31.71504,2.80250667 32.0723733,4.35024 C32.4297067,5.89797333 33.9737067,6.86277333 35.52144,6.50544 C37.06864,6.14810667 38.0339733,4.60410667 37.67664,3.05637333 C37.3193067,1.50917333 35.7747733,0.54384 34.2275733,0.901173333" id="Fill-43" fill="#000000"></path>
                            <path d="M32.1890327,3.36650667 C30.5751094,3.67264 28.9905319,5.80736 29.3630257,7.13376 C29.7355195,8.46016 29.7860766,10.5781333 31.4,10.272 C33.0132744,9.96586667 35.5805568,7.35136 35.2080631,6.02496 C34.8355693,4.69856 34.0139234,2.96586667 32.4,3.272" id="Fill-45" fill="#000000"></path>
                            <path d="M46.9223467,11.5410133 C46.2594133,11.69408 45.8455467,12.3559467 45.9991467,13.01888 C46.1522133,13.6823467 46.8135467,14.0962133 47.4770133,13.9426133 C48.1399467,13.7895467 48.5538133,13.1282133 48.4002133,12.4647467 C48.2471467,11.80128 47.58528,11.3879467 46.9223467,11.5410133" id="Fill-47" fill="#000000"></path>
                            <path d="M42.6874667,11.9340267 C42.024,12.0870933 41.6101333,12.74896 41.7637333,13.4118933 C41.9168,14.07536 42.5786667,14.4892267 43.2416,14.3356267 C43.9050667,14.18256 44.3189333,13.5206933 44.1653333,12.8572267 C44.0122667,12.1942933 43.3504,11.78096 42.6874667,11.9340267" id="Fill-49" fill="#000000"></path>
                            <path d="M31.3103467,8.25429333 C30.6474133,8.40736 30.2335467,9.06922667 30.3871467,9.73216 C30.5402133,10.3956267 31.2015467,10.8094933 31.8650133,10.6558933 C32.5279467,10.5028267 32.9418133,9.84149333 32.7882133,9.17802667 C32.6351467,8.51456 31.9738133,8.10122667 31.3103467,8.25429333" id="Fill-51" fill="#000000"></path>
                            <path d="M2.38848,35.9957333 C4.30581333,35.4202667 5.26474667,35.8037333 5.26474667,37.1456 C5.26474667,38.488 4.78474667,39.6384 3.82634667,40.5968 C3.63488,41.3637333 3.15488,40.8842667 2.38848,39.1589333 C1.62208,37.4330667 1.62208,36.3792 2.38848,35.9957333" id="Fill-53" fill="#744D4D"></path>
                            <path d="M33.4,39.272 L34.4,40.272 C35.7333333,38.9386667 36.4,37.6053333 36.4,36.272 C36.4,34.272 37.4,30.272 35.4,31.272 C33.4,32.272 31.4,35.272 31.4,36.272 C31.4,36.9386667 31.4,37.6053333 31.4,38.272" id="Path-3" stroke="#979797"></path>
                            <path d="M41.4,23.272 C42.7333333,23.272 43.0666667,23.9386667 42.4,25.272 C41.7333333,26.6053333 39.7333333,28.6053333 36.4,31.272 L36.4,33.272 L36.4,31.272 L34.4,32.272" id="Path-4" stroke="#575757"></path>
                            <path d="" id="Path-5" stroke="#979797"></path>
                            <path d="M35.4,24.272 C33.4,27.6053333 32.0666667,29.9386667 31.4,31.272" id="Path-6" stroke="#575757"></path>
                            <path d="M31.4,31.272 L30.4,30.272 C29.0666667,32.272 28.4,33.272 28.4,33.272 C28.4,33.272 28.7333333,33.272 29.4,33.272 L30.4,33.272 L31.4,31.272 Z" id="Path-7" stroke="#979797"></path>
                        </g>
                    </g>
                </g>
            </g>
        </g>
    </g>
</svg>