<svg xmlns="http://www.w3.org/2000/svg" width="25" height="24"><path d="M23.2 18.6c.6.7 1 1.3 1.1 1.9l.2.9c0 .5-.2.9-.5 1.3s-.8.5-1.3.5H7.1c-.5 0-.9-.2-1.3-.5s-.5-.8-.5-1.3v-.2c0-.1 0-.2.1-.4h-.7c-.5 0-.9-.2-1.3-.5s-.5-.8-.5-1.3v-.2c0-.1 0-.2.1-.4h-.7c-.5 0-.9-.2-1.3-.5s-.5-.8-.5-1.3c0 0 .1-.3.2-.9s.5-1.2 1.1-1.9c.4-.4.8-.7 1.3-1l1.6-.8 1-.3c.3-.1.7-.2 1.1-.2s.8-.1 1.2-.2.9-.1 1.3-.1l-.4-.4c-.1-.1-.3-.3-.4-.5-.1-.1-.2-.2-.2-.4s-.1-.3-.2-.4c-.4-.2-.8-.4-1.1-.7s-.6-.6-.9-1-.5-.8-.6-1.3-.2-.9-.2-1.4c0-.7.1-1.3.4-1.9s.6-1.1 1-1.5.9-.8 1.5-1S9.4.3 10.1.3c.5 0 1 .1 1.4.2s.9.4 1.3.6.7.5 1 .9.5.7.7 1.1c.1.1.3.1.4.2s.2.1.4.2c.4.2.7.5 1 .9s.5.7.7 1.1c.4.2.8.4 1.1.7l.9 1c.3.4.4.8.6 1.2s.2.9.2 1.4c0 .4-.1.9-.2 1.3s-.3.8-.5 1.2-.5.7-.8 1-.6.5-1 .8c.4.1.7.2 1 .3s.6.3.9.4c.7.4 1.2.8 1.6 1.2s.7.8.8 1.2l.8.6.8.8zM2.3 17.2h1.1c.1-.2.2-.3.3-.5s.3-.3.4-.5c.4-.4.8-.7 1.3-1l1.6-.8 1-.3c.3-.1.7-.2 1.1-.2s.8-.1 1.2-.2.9-.1 1.3-.1c-.2-.2-.4-.4-.5-.6s-.3-.4-.4-.6l-3.5.2c-.9.1-1.5.3-2.1.5s-1.1.4-1.5.7-.7.5-.9.8c-.5.5-.8 1-.9 1.4s-.1.6-.2.7c0 .2.1.3.2.4s.3.1.5.1zm2.4 2.4h1.1c.1-.2.2-.3.3-.5s.3-.3.4-.5c.4-.4.8-.7 1.3-1l1.6-.8 2.5-.5c.5 0 .9-.1 1.4-.1H16c.4 0 .8.1 1.2.1s.7.1 1.1.2.7.1 1 .2c-.3-.2-.6-.4-1-.7s-.9-.4-1.5-.5-1.2-.3-1.9-.4-1.5-.1-2.4-.1l-2.9.2c-.9.1-1.5.3-2.1.5s-1.1.4-1.5.7-.7.5-.9.8c-.5.5-.8 1-.9 1.4l-.1.4c0 .2.1.3.2.4s.2.2.4.2zM6.5 5.2a4 4 0 0 0 .3 1.5c.2.5.5.9.9 1.2v-.2c0-.7.1-1.3.4-1.9s.6-1.1 1-1.5.9-.8 1.5-1 1.2-.4 1.9-.4h.3c-.3-.4-.7-.7-1.2-.9a4 4 0 0 0-1.5-.3c-.5 0-1 .1-1.4.3s-.8.4-1.1.8-.6.7-.8 1.1-.3.8-.3 1.3zM22.7 22c.2 0 .3-.1.4-.2s.2-.3.2-.4c0 0-.1-.3-.2-.7s-.4-.9-.9-1.4c-.2-.2-.6-.5-.9-.7s-.9-.5-1.5-.7-1.3-.4-2.1-.5-1.8-.2-2.9-.2l-2.9.2c-.9.1-1.5.3-2.1.5s-1.1.4-1.5.7l-.9.7c-.5.5-.8 1-.9 1.4s-.1.6-.1.7c0 .2.1.3.2.4s.3.2.4.2h15.7zM8.9 7.6a4 4 0 0 0 .3 1.5c.2.5.5.9.9 1.2v-.2c0-.7.1-1.3.4-1.9s.6-1.1 1-1.5.9-.8 1.5-1 1.2-.4 1.9-.4h.2c-.3-.4-.7-.7-1.2-.9S13 4 12.5 4s-1 .1-1.4.3-.8.4-1.1.8-.6.7-.8 1.1-.3.9-.3 1.4zm9.6 2.4c0-.5-.1-1-.3-1.4s-.4-.8-.8-1.1-.7-.6-1.1-.8-.9-.3-1.4-.3-1 .1-1.4.3-.8.4-1.1.8-.6.7-.8 1.1-.3.9-.3 1.4.1 1 .3 1.4.4.8.8 1.1.7.6 1.1.8.9.3 1.4.3 1-.1 1.4-.3.8-.4 1.1-.8l.8-1.1c.2-.4.3-.9.3-1.4z" fill="#a0afb8" stroke="#a0afb8" stroke-width=".5" fill-rule="evenodd"/></svg>