<svg xmlns="http://www.w3.org/2000/svg" xmlns:xlink="http://www.w3.org/1999/xlink" width="36" height="41"><defs><path d="M14.564 7.32c0-4.043-3.26-7.32-7.282-7.32S0 3.278 0 7.32s14.564 4.043 14.564 0z" id="A"/><path d="M24.403 12.027C24.403 5.385 18.94 0 12.202 0S0 5.385 0 12.027s24.403 6.642 24.403 0z" id="B"/></defs><g transform="translate(-2)" fill="none" fill-rule="evenodd"><g transform="matrix(-1 0 0 1 23.4 0)"><path stroke="#0c9b70" stroke-width="1.479" stroke-linecap="round" stroke-linejoin="round" d="M8.686 32.274V6.39"/><path d="M9.66 9.06c1.517-1.512 1.293-4.2-.795-6.28S.605 0 .605 0s.682 6.166 2.77 8.255 4.77 2.317 6.285.806M9.042 21.4c-.958-.875-.817-2.426.502-3.636s5.217-1.6 5.217-1.6-.43 3.57-1.75 4.78-3.012 1.342-3.97.467" fill="#23d5a0"/></g><g transform="matrix(-1 0 0 1 37.8 23.2)"><use fill="#4d626e" xlink:href="#A" transform="translate(21.211 6.215)"/><use fill="#3f525e" xlink:href="#B" transform="translate(0 .226)"/></g></g></svg>