<svg xmlns="http://www.w3.org/2000/svg" xmlns:xlink="http://www.w3.org/1999/xlink" width="51" height="53"><defs><path d="M15.8 28.04c-.5 0-.9-.2-1.3-.48s-.5-.77-.5-1.25v-.38c0-.2.1-.48.2-.86s.2-.77.4-1.15.5-.86.8-1.34c.2-.3.5-.48.7-.77s.5-.48.8-.67l.9-.58c.3-.2.7-.38 1-.48.4-.2.9-.38 1.4-.48l1.6-.38c.6-.1 1.1-.2 1.7-.2s1.2-.1 1.8-.1a11.3 11.3 0 0 1 1.8.1l1.7.2c.5.1 1.1.2 1.5.38s1 .3 1.4.48l1 .48.9.58c.3.2.6.48.8.67s.5.48.7.77c.4.48.6.96.8 1.34s.3.86.4 1.15.2.67.2.86v.38c0 .48-.2.86-.5 1.25s-.8.48-1.3.48H15.8zm6.7-7.87a10.5 10.5 0 0 0-2.5.58 9.5 9.5 0 0 0-2 .96c-.6.38-1.1.86-1.5 1.34-.3.38-.6.77-.7 1.15s-.3.67-.4.96-.1.58-.1.77v.3c0 .2.1.3.2.38s.3.2.4.2h19.2c.2 0 .3-.1.4-.2s.2-.3.2-.38v-.3c0-.2-.1-.38-.1-.77s-.2-.67-.4-.96-.4-.77-.7-1.15c-.4-.48-.9-.96-1.5-1.34s-1.3-.77-2-.96-1.6-.48-2.5-.58l-2.9-.2c-1 0-2.2.1-3.1.2zm.3-2.98a6 6 0 0 1-2.1-1.34 5.7 5.7 0 0 1-1.4-2.02c-.3-.77-.5-1.63-.5-2.5s.2-1.73.5-2.5a5.7 5.7 0 0 1 1.4-2.02 6 6 0 0 1 2.1-1.34A7.8 7.8 0 0 1 25.4 5a7.8 7.8 0 0 1 2.6.48 6 6 0 0 1 2.1 1.34 5.7 5.7 0 0 1 1.4 2.02c.3.77.5 1.63.5 2.5s-.2 1.73-.5 2.5a5.7 5.7 0 0 1-1.4 2.02A6 6 0 0 1 28 17.2a7.8 7.8 0 0 1-2.6.48 7.8 7.8 0 0 1-2.6-.48zm.5-10.66c-.7.3-1.2.67-1.7 1.15a6.3 6.3 0 0 0-1.2 1.63c-.3.58-.4 1.34-.4 2.02s.1 1.34.4 2.02.7 1.15 1.2 1.63 1.1.86 1.7 1.15a5.1 5.1 0 0 0 2.1.38 5.4 5.4 0 0 0 2.1-.38c.7-.3 1.2-.67 1.7-1.15a6.3 6.3 0 0 0 1.2-1.63c.3-.58.4-1.34.4-2.02a4.3 4.3 0 0 0-.4-2.02 6.3 6.3 0 0 0-1.2-1.63c-.5-.48-1.1-.86-1.7-1.15a5.1 5.1 0 0 0-2.1-.38 5.4 5.4 0 0 0-2.1.38z" id="A"/><filter x="-123.3%" y="-77.0%" width="346.7%" height="340.9%" id="B"><feMorphology radius="0.25" operator="dilate" in="SourceAlpha"/><feOffset dy="10"/><feGaussianBlur stdDeviation="7.5"/><feComposite in2="SourceAlpha" operator="out"/><feColorMatrix values="0 0 0 0 1 0 0 0 0 1 0 0 0 0 1 0 0 0 1 0"/></filter></defs><g fill-rule="evenodd"><use filter="url(#B)" xlink:href="#A"/><use stroke="#7d919d" stroke-width=".5" fill="#7d919d" xlink:href="#A"/></g></svg>