<svg xmlns="http://www.w3.org/2000/svg" width="20" height="21" xmlns:v="https://vecta.io/nano"><path d="M10 11.456c.715 0 1.39-.138 2.02-.413s1.184-.65 1.656-1.123a5.32 5.32 0 0 0 1.119-1.661c.274-.634.412-1.3.412-2.027a5.07 5.07 0 0 0-.412-2.036 5.32 5.32 0 0 0-1.119-1.661c-.472-.473-1.024-.847-1.656-1.123S10.715 1 10 1a5.03 5.03 0 0 0-2.03.413c-.632.275-1.184.65-1.656 1.123S5.47 3.562 5.2 4.196a5.12 5.12 0 0 0-.407 2.036c0 .717.136 1.393.407 2.027s.643 1.188 1.115 1.66 1.024.847 1.656 1.123a5.03 5.03 0 0 0 2.03.413zm0-.956c-.586 0-1.138-.11-1.656-.334a4.28 4.28 0 0 1-1.355-.914c-.385-.387-.69-.84-.916-1.36s-.338-1.073-.338-1.66c0-.594.113-1.15.338-1.67s.53-.973.916-1.36a4.28 4.28 0 0 1 1.355-.914c.518-.223 1.07-.334 1.656-.334s1.138.11 1.656.334a4.28 4.28 0 0 1 1.355.914c.385.387.69.84.916 1.36s.338 1.076.338 1.67c0 .588-.113 1.14-.338 1.66s-.53.973-.916 1.36a4.28 4.28 0 0 1-1.355.914c-.518.223-1.07.334-1.656.334zm7.576 9.5a1.37 1.37 0 0 0 1.008-.417c.277-.278.416-.612.416-1.002 0-.02-.008-.12-.023-.306s-.06-.424-.134-.714-.188-.62-.342-.988-.376-.744-.666-1.127c-.166-.223-.348-.434-.546-.635a6.23 6.23 0 0 0-.638-.566 7.12 7.12 0 0 0-.726-.492c-.256-.152-.526-.29-.81-.413a9.23 9.23 0 0 0-1.101-.408 11.02 11.02 0 0 0-1.221-.292l-1.34-.176-1.452-.06-1.457.06-1.34.176a10.94 10.94 0 0 0-1.226.292 9.23 9.23 0 0 0-1.101.408c-.284.124-.553.26-.81.413s-.496.315-.72.492a6.52 6.52 0 0 0-.634.566c-.197.2-.382.413-.555.635-.284.383-.504.76-.66 1.127a6.88 6.88 0 0 0-.347.988 4.14 4.14 0 0 0-.129.714L1 18.58c0 .4.14.724.416 1.002A1.37 1.37 0 0 0 2.424 20h15.15zm0-.946H2.424c-.136 0-.25-.046-.342-.14s-.14-.204-.14-.334a15.32 15.32 0 0 1 .018-.237c.012-.152.05-.35.116-.594a5.81 5.81 0 0 1 .301-.83c.136-.31.327-.625.573-.946.327-.427.723-.804 1.19-1.132a6.92 6.92 0 0 1 1.586-.821c.592-.22 1.246-.385 1.96-.496s1.486-.167 2.312-.167 1.596.056 2.308.167 1.366.277 1.96.496 1.125.493 1.59.82.862.705 1.19 1.132c.247.322.436.637.57.946a6.13 6.13 0 0 1 .296.83c.065.244.103.442.116.594l.018.237c0 .13-.046.24-.14.334s-.203.14-.333.14h0z" fill="#0074fc" stroke="#0074fc" stroke-width=".75"/></svg>