<svg xmlns="http://www.w3.org/2000/svg" xmlns:xlink="http://www.w3.org/1999/xlink" width="51" height="53"><defs><path d="M15.8 28.04c-.5 0-.9-.192-1.3-.48s-.5-.768-.5-1.248v-.384c0-.192.1-.48.2-.864s.2-.768.4-1.152.5-.864.8-1.344c.2-.288.5-.48.7-.768s.5-.48.8-.672l.9-.576c.3-.192.7-.384 1-.48.4-.192.9-.384 1.4-.48l1.6-.384c.6-.096 1.1-.192 1.7-.192s1.2-.096 1.8-.096 1.2 0 1.8.096l1.7.192c.5.096 1.1.192 1.5.384s1 .288 1.4.48.7.288 1 .48l.9.576c.3.192.6.48.8.672s.5.48.7.768c.4.48.6.96.8 1.344s.3.864.4 1.152.2.672.2.864v.384c0 .48-.2.864-.5 1.248s-.8.48-1.3.48H15.8zm6.7-7.872c-.9.096-1.7.288-2.5.576s-1.4.576-2 .96-1.1.864-1.5 1.344c-.3.384-.6.768-.7 1.152s-.3.672-.4.96-.1.576-.1.768v.288c0 .192.1.288.2.384s.3.192.4.192h19.2c.2 0 .3-.096.4-.192s.2-.288.2-.384v-.288c0-.192-.1-.384-.1-.768s-.2-.672-.4-.96-.4-.768-.7-1.152c-.4-.48-.9-.96-1.5-1.344s-1.3-.768-2-.96-1.6-.48-2.5-.576l-2.9-.192c-1 0-2.2.096-3.1.192zm.3-2.976c-.8-.288-1.5-.768-2.1-1.344s-1.1-1.248-1.4-2.016-.5-1.632-.5-2.496.2-1.728.5-2.496.8-1.44 1.4-2.016S22 5.768 22.8 5.48 24.5 5 25.4 5s1.8.192 2.6.48 1.5.768 2.1 1.344 1.1 1.248 1.4 2.016.5 1.632.5 2.496-.2 1.728-.5 2.496-.8 1.44-1.4 2.016-1.3 1.056-2.1 1.344-1.7.48-2.6.48-1.8-.192-2.6-.48zm.5-10.656c-.7.288-1.2.672-1.7 1.152s-.9 1.056-1.2 1.632-.4 1.344-.4 2.016.1 1.344.4 2.016.7 1.152 1.2 1.632 1.1.864 1.7 1.152 1.4.384 2.1.384 1.4-.096 2.1-.384 1.2-.672 1.7-1.152.9-1.056 1.2-1.632.4-1.344.4-2.016c0-.768-.1-1.44-.4-2.016s-.7-1.152-1.2-1.632-1.1-.864-1.7-1.152-1.4-.384-2.1-.384-1.4.096-2.1.384z" id="A"/><filter x="-123.3%" y="-77.0%" width="346.7%" height="340.9%" id="B"><feMorphology radius="0.25" operator="dilate" in="SourceAlpha"/><feOffset dy="10"/><feGaussianBlur stdDeviation="7.5"/><feComposite in2="SourceAlpha" operator="out"/><feColorMatrix values="0 0 0 0 0.0156862745 0 0 0 0 0.470588235 0 0 0 0 0.556862745 0 0 0 0.3 0"/></filter></defs><g fill-rule="evenodd"><use fill="#000" filter="url(#B)" xlink:href="#A"/><use stroke="#04788e" stroke-width=".5" fill="#04788e" xlink:href="#A"/></g></svg>