<svg xmlns="http://www.w3.org/2000/svg" xmlns:xlink="http://www.w3.org/1999/xlink" width="286" height="186"><style><![CDATA[.C{fill-rule:nonzero}.D{fill:#744d4d}]]></style><defs><path id="A" d="M0 .6h46.4v33.3H0z"/></defs><g fill="none" fill-rule="evenodd"><rect fill="#04788e" y="12" width="273" height="170" rx="15" class="C"/><g transform="translate(172)"><g transform="translate(0 52.6)"><g transform="translate(0 97.9)"><mask id="B" fill="#fff"><use xlink:href="#A"/></mask><path d="M0 24C0 11 10.4.6 23.2.6S46.4 11 46.4 24 0 37 0 24" fill="#4d626e" mask="url(#B)" class="C"/></g><g class="C"><path d="M28.4 114.8c0-23.4 19-42.4 42.6-42.4s42.6 19 42.6 42.4-85.2 23.4-85.2 0" fill="#3f525e"/><path d="M68.6 43.2c-.2 1.3 0 11-.3 12.5l-3.7 20 5.3-2s2-5.4 2.6-10.3c.6-4.3.5-20.3-4-20.4" class="D"/><path fill="#fcfcfc" d="M63.2 50h-6l-3.5-12.2h6z"/><path d="M73.4 72.4c-2 .1-32.6 6.8-33 8.3-3.3 12.8 16.6 41.7 18 42.5l5.6-1-9-20.2 18.4-29.6z" class="D"/><path d="M64.5 120.6c2.3 2.3 3.2 4.4 2.7 6s-6.8 3.8-19 6.3c-2-2.4-2-4.4.6-6a84 84 0 0 1 11.7-5.8l4-.5z" fill="#494949"/><path d="M97.2 64.4c1.2 1 2.4 5.3 2.6 6.8 1.6 17-26.3 27-30 28.8A629 629 0 0 1 33 126c-2 .6-4.4-2.2-4.2-3.2s45.7-52 45.7-52l23-6.5z" class="D"/><path d="M74.8 71.5c-1 1.8-25.8 10.3-25.6 34.5 0 1 .5 1.8.5 1.8 3.4 8 17 10 17 10 13-20 23.4-27.7 24-28.8 0 0 7.6-5.2 9-10.4s2-6.6 0-11-3.2-5.2-3.2-5.2l-21.8 9z" fill="#dad5b2"/><path d="M38.5 80.7s-4.2 23 8.8 31.8c16 11 37-25.3 43.5-30 0 0 9-.8 10-7.2S98 62.7 98 62.7l-23 8.8c-2 1.5-17.6-2.8-36.5 9.2" fill="#fefbe2"/><path d="M33 126.5c-1.2 3.2-2.7 5-4.4 5.6s-6.3-3.5-13.5-12c1.3-3 3.2-4 5.8-2.8a66 66 0 0 1 10.1 6.3l2 3z" fill="#494949"/><path d="M74.8 34c-4-2-7.8 8.6-7.5 9.8s4 1.5 5 1.5S74.8 34 74.8 34" fill="#d75647"/><path d="M82.4 27.5C96.7 27.5 98 61.8 98 64.2c-1.4 4.8-18.8 10.5-24 7.4-8.5-20-4.6-44 8.6-44" fill="#ee6c5d"/><path d="M97 44.6c.8 1.4 2.6 10.2 2.4 11.4s-3 4-3.8 4c-13.6 1-28.4-4.5-31.2-6-5.8-.5-9.2-2.5-9.2-5.5 0-1.8 1-3 1.6-3 1 0 3 1.8 3 2.3-.5-1-2-2.6-.7-2.6.3 0 3 3.6 4.4 4.5s22 1.6 26 3c-.5-1-2-4.8-2-5.3s9.4-3 9.4-3" class="D"/><path d="M87.2 32c5.7-2.2 10.2 11.5 10 13.2S88 50 87 49.2 81.5 34 87.2 32" fill="#d75647"/><g class="D"><path d="M84.3 28.6c-.4.7-1.7 4.4-6 2.3L77 25l6.2-3.5a23 23 0 0 0 1.3 7.2"/><path d="M73 7.4c4.5-1.2 9.3 2.4 10.8 8s-1 11-5.4 12-9.3-2.4-10.8-8 1-11 5.4-12"/></g><g fill="#000"><path d="M83.7 17.4c-6.3 1.6-11.3.3-15-4S68 7 77.2 7c4.8 2 7 4.6 7 7.5s-.2 3.8-.7 2.8m3-9.8c1.4-1.7 1-4.5-1-6.2s-4.8-1.7-6.3.1-1 4.5 1 6.2 4.8 1.7 6.3-.1"/><path d="M87.3 16c0-1.8-1.8-3.2-1.8-4.2s.6-3-.7-4.2c-1.6-1.6-4.3-1-6.6-1C76 6.6 74.8 4 71.8 4c-2 0-1.7 2.6-2.5 3.2-.6.5-5 1.4-5 3.4 0 2.2.1 5.2 4.7 5.2.3-1 1.5-3.4 2.8-4.4l5.3 2c1 .3 2.3 4.2 3.7 4.7s1.5 3 2.5 3 4-.5 4-5.2"/></g></g></g><g class="C"><path d="M33.3 37.4c-1-2 .4-6 4.8-5.6-1-4 4-9.2 10.6-7 5.6-8.3 20-4.6 20 6.3 5.8-1 7.6 4.5 5.7 6.2h-41z" fill="#e6e6e6" fill-opacity=".4"/><path d="M26 5.8c4.6 0 8.3 3.7 8.3 8.3s-3.7 8.3-8.3 8.3-8.3-3.7-8.3-8.3 3.7-8.3 8.3-8.3m0-1.3c.7 0 1.2-2.8 1.2-3.4s-.6-1-1.2-1-1.2.5-1.2 1 .6 3.4 1.2 3.4m-4.7 1.3c.5-.3-.4-3-.7-3.6-.3-.5-1-.7-1.5-.4s-.6 1-.4 1.5c.3.5 2 2.7 2.6 2.4m-7 2.8c.6.3 3.2 1.4 3.5.8s-2-2.6-2.4-3c-.5-.4-1.2-.2-1.6.4s-.2 1.3.3 1.7h.1m2.3 5.6c0-.7-2.8-1.2-3.4-1.2s-1 .6-1 1.2.5 1.2 1 1.2 3.4-.6 3.4-1.2m-2.2 5.6c-.6.3-.8 1-.5 1.7s1 .8 1.5.5c0 0 .1 0 .1-.1.6-.3 2.7-2.3 2.4-3s-3 .4-3.5.8m4.4 5.3c-.3.6-.1 1.3.5 1.6.5.3 1 .1 1.4-.4.3-.5 1.2-3.3.7-3.6s-2.3 2-2.6 2.4m7.3-1.2c-.7 0-1.2 2.8-1.2 3.4s.6 1 1.2 1 1.2-.5 1.2-1-.6-3.4-1.2-3.4m4.8-1.2c-.5.3.4 3 .7 3.6.3.5 1 .7 1.5.4s.6-1 .4-1.5c-.3-.5-2-2.7-2.6-2.4m7.2-3c-.5-.3-3.3-1.2-3.6-.7s2 2.3 2.4 2.6c.6.3 1.3.1 1.6-.5.3-.5.1-1-.4-1.4m1-6.7c-.6 0-3.4.6-3.4 1.2s2.8 1.2 3.4 1.2 1-.6 1-1.2-.5-1.2-1-1.2m-1-4.2c.5-.3.7-1 .4-1.5s-1-.6-1.5-.4c-.5.3-2.7 2-2.4 2.6s3-.4 3.6-.7m-4.4-5.2c.4-.5.2-1.2-.4-1.6s-1.3-.2-1.7.3c0 0 0 .1-.1.1-.3.5-1.4 3.2-.8 3.5s2.6-1.8 3-2.4" fill="#ffc100"/></g></g><rect x="20" y="114" width="174" height="40" rx="20" fill="#000" class="C"/><rect x="20" y="114" width="174" height="40" rx="20" fill="#fff"/><g fill="#2a3942" class="C"><path d="M51.3 135.8c.5 0 1-.2 1.4-.5s.6-.8.8-1.4l1.5.3c-.2 1-.6 1.6-1.3 2.2s-1.5.8-2.4.8c-1 0-2-.4-2.7-1s-1-1.7-1-2.7c0-1 .4-2 1-2.7s1.7-1 2.8-1c1 0 1.7.3 2.4.8s1 1.2 1.3 2l-1.5.4c-.1-.6-.4-1-.8-1.4s-1-.5-1.4-.5c-.7 0-1.2.2-1.7.7s-.7 1-.7 1.7.2 1.3.7 1.7 1 .7 1.7.7zm7.4-4.4c.8 0 1.5.3 2 .8s1 1.2 1 2-.3 1.5-1 2-1.3.8-2 .8a3 3 0 0 1-2.1-.8c-.6-.5-1-1.2-1-2s.3-1.5 1-2a3 3 0 0 1 2.1-.8zm0 4.5c.4 0 .8-.2 1-.5s.5-.7.5-1.2-.2-1-.5-1.2-.7-.5-1-.5c-.4 0-.8.2-1 .5s-.5.7-.5 1.2.2 1 .5 1.2.7.5 1 .5zm7.2-4.6c.7 0 1.2.2 1.6.6s.6 1 .6 1.7v3.3h-1.5v-3c0-.4-.1-.7-.3-1s-.5-.4-.8-.4c-1 0-1.4.6-1.4 2v2.4h-1.5v-5.5h1.5v.5c.4-.4 1-.7 1.7-.7zm7.2 4.2l.4 1.2c-.5.3-1 .4-1.4.4-.7 0-1.2-.2-1.6-.5s-.6-1-.6-1.6v-2.3h-1.2v-1.2H70v-2h1.5v2h1.8v1.2h-1.8v2.2c0 .6.3 1 .8 1 .3 0 .6-.1 1-.3zm1.4-6.3c.2-.2.4-.3.6-.3s.5.1.6.3.3.4.3.6c0 .2-.1.4-.3.6s-.4.2-.6.2c-.3 0-.5-.1-.6-.2s-.2-.4-.2-.6c0-.2.1-.4.3-.6zm1.4 7.7h-1.5v-5.5h1.5v5.5zm4.8-5.7c.7 0 1.2.2 1.6.6s.6 1 .6 1.7v3.3h-1.5v-3c0-.4-.1-.7-.3-1s-.5-.4-.8-.4c-1 0-1.4.6-1.4 2v2.4h-1.5v-5.5H79v.5c.4-.4 1-.7 1.7-.7zm8.8.2v5.5H88v-.5c-.4.4-1 .7-1.7.7-.7 0-1.2-.2-1.6-.6s-.6-1-.6-1.7v-3.3h1.5v3c0 .4.1.7.3 1s.5.4.8.4c1 0 1.4-.6 1.4-2v-2.4h1.5zm6.7 2.6v.5H92c.1.4.2.7.5 1s.5.3 1 .3c.6 0 1-.2 1.4-.7l1.3.3c-.2.6-.6 1-1 1.3a3 3 0 0 1-1.6.4c-.8 0-1.5-.3-2-.8s-.8-1.2-.8-2 .3-1.5.8-2 1.2-.8 2-.8c.7 0 1.4.3 2 .8s.8 1.2 1 2zm-2.8-1.5c-.3 0-.6.1-.8.3s-.4.4-.5.7h2.7c-.1-.3-.2-.6-.5-.8s-.5-.3-.8-.3zm8-4v6.7c0 .2.1.3.2.4s.3.1.5.1a2 2 0 0 0 .7-.2l.3 1.2c-.4.2-.8.3-1.2.3-.6 0-1-.2-1.3-.5s-.5-.8-.5-1.3v-6.8h1.5zm7.4 5.6v.5h-4.2c.1.4.2.7.5 1s.5.3 1 .3c.6 0 1-.2 1.4-.7l1.3.3c-.2.6-.6 1-1 1.3a3 3 0 0 1-1.6.4c-.8 0-1.5-.3-2-.8s-.8-1.2-.8-2 .3-1.5.8-2 1.2-.8 2-.8c.7 0 1.4.3 2 .8s.8 1.2 1 2zm-2.8-1.5c-.3 0-.6.1-.8.3s-.4.4-.5.7h2.7c-.1-.3-.2-.6-.5-.8s-.5-.3-.8-.3zm6.2-1.3c.7 0 1.3.2 1.8.5s.6 1 .6 1.5v3.6H113v-.5c-.4.4-1 .6-1.7.6-.6 0-1-.2-1.5-.5s-.6-.8-.6-1.3.2-1 .6-1.3 1-.5 1.6-.5h1.6v-.1c0-.3-.1-.5-.3-.7s-.4-.3-.7-.3c-.7 0-1 .3-1 .8l-1.4-.3c.1-.5.4-1 .8-1.3s1-.5 1.6-.5zm-.4 4.7c.4 0 .7-.1 1-.4s.4-.5.4-1v-.1h-1.6c-.2 0-.4.1-.6.2s-.2.3-.2.5c0 .2.1.4.3.5s.4.2.7.2zm7.5-4.6c.2 0 .3 0 .4 0l-.1 1.4h-.3c-1.3 0-2 .8-2 2.4v1.8h-1.5v-5.5h1.5v1c.5-.7 1.2-1 2-1zm4.5-.1c.7 0 1.2.2 1.6.6s.6 1 .6 1.7v3.3h-1.5v-3c0-.4-.1-.7-.3-1s-.5-.4-.8-.4c-1 0-1.4.6-1.4 2v2.4h-1.5v-5.5h1.5v.5c.4-.4 1-.7 1.7-.7zm3.8-2c.2-.2.4-.3.6-.3s.5.1.6.3.3.4.3.6c0 .2-.1.4-.3.6s-.4.2-.6.2c-.3 0-.5-.1-.6-.2s-.2-.4-.2-.6c0-.2.1-.4.3-.6zm1.4 7.7h-1.5v-5.5h1.5v5.5zm4.8-5.7c.7 0 1.2.2 1.6.6s.6 1 .6 1.7v3.3h-1.5v-3c0-.4-.1-.7-.3-1s-.5-.4-.8-.4c-1 0-1.4.6-1.4 2v2.4h-1.5v-5.5h1.5v.5c.4-.4 1-.7 1.7-.7zm9 .2v5.6c0 .8-.3 1.5-1 2s-1.3.7-2.2.7c-1.3 0-2.2-.4-2.7-1.2l1.2-1c.2.3.4.5.7.6s.5.2.8.2c.5 0 1-.1 1.2-.4s.5-.6.5-1v-.4c-.5.4-1 .6-1.8.6-.7 0-1.4-.3-2-.8s-.8-1.2-.8-2 .3-1.5.8-2 1.2-.8 2-.8c.7 0 1.4.2 1.8.6v-.5h1.5zm-3 4.4c.4 0 .8-.2 1-.5s.5-.7.5-1.2-.2-1-.5-1.2-.7-.5-1-.5c-.4 0-.8.2-1 .5s-.4.7-.4 1.2.1 1 .4 1.2.7.4 1 .4z"/><path d="M172.6 134.2c.1.1.1.1.1.2s0 .2-.1.2l-4.1 4.1h-.2s-.1 0-.1-.1c-.1-.1-.1-.1-.1-.2s0-.2.1-.2l3.3-3.3H161c-.1 0-.2 0-.2-.1s-.1-.1-.1-.2 0-.2.1-.2.1-.1.2-.1h10.6l-3.3-3.3c-.1-.1-.1-.1-.1-.2s0-.2.1-.2.1-.1.2-.1.2 0 .2.1l4 4z" stroke="#2a3942"/></g></g></svg>