<svg xmlns="http://www.w3.org/2000/svg" width="12" height="10"  xmlns:v="https://vecta.io/nano"><path d="M8.188 9.563a3 3 0 0 0 1.538-.41 3.04 3.04 0 0 0 1.114-1.114 3 3 0 0 0 .41-1.538 3 3 0 0 0-.41-1.538 3.04 3.04 0 0 0-1.114-1.114 3 3 0 0 0-1.538-.41H2.254L5.002.689 4.373.061l-3.5 3.5-.301.314.301.314 3.5 3.5.629-.629-2.748-2.748h5.934a2.13 2.13 0 0 1 1.101.294c.333.196.597.46.793.793a2.13 2.13 0 0 1 .294 1.101 2.13 2.13 0 0 1-.294 1.101c-.196.333-.46.597-.793.793a2.13 2.13 0 0 1-1.101.294v.875z" fill="#81939f" stroke="#81939f" stroke-width=".3"/></svg>