<svg xmlns="http://www.w3.org/2000/svg" width="130" height="122"><style><![CDATA[.B{fill-rule:nonzero}.C{stroke:#d9e2e7}.D{stroke-width:1.3}.E{stroke-linecap:round}.F{stroke-linejoin:round}]]></style><g fill="none" fill-rule="evenodd"><g class="B"><path d="M63.99 92.818c-2.597-7.913-4.723-9.517-13.038-9.47-9.02.054-17.915.204-26.512-3.702C5.95 71.244-4.03 49.644 1.85 29.77 7.618 10.278 27.14-2.31 47.13.575 70.437 3.94 85.41 23.245 83.333 46.7c-.918 10.373 1.408 15.08 11.557 17.82 10.763 2.905 16.416 11.043 17.13 20.978 1.005 13.958-6.356 21.494-15.237 24.885-2.883 1.104-6.163 1.175-9.262 1.716-11.492-.44-19.443-6.84-23.53-19.293z" transform="matrix(-.48481 .87462 -.87462 -.48481 144.452228 62.454475)" fill="#e8eef1"/><path d="M26.94 99.213c0-1.417-2.94-20.633-2.94-22.387s11.308-25.848 11.308-25.848 17.397 44.276 16.444 44.276c-1.906 0-4.745 9.666-9.486 14.754-.14-.037-17.918-.037-17.918-.037.547-1.65 2.6-9.34 2.6-10.757zm75.944 0c0-1.417 2.94-20.633 2.94-22.387s-11.31-25.85-11.31-25.85S77.118 95.253 78.07 95.253c1.906 0 4.745 9.666 9.486 14.754.14-.037 17.918-.037 17.918-.037-.547-1.65-2.6-9.34-2.6-10.757z" fill="#744d4d"/><path d="M25.407 72.905c7.77 7.92 16.445 19.535 21.304 30.914 2.017-4.642 4.15-8.704 5.042-8.704.952 0-16.427-44.138-16.427-44.138l-9.92 21.928zm79.023 0c-7.77 7.92-16.445 19.535-21.304 30.914-2.017-4.642-4.15-8.704-5.042-8.704-.952 0 16.427-44.138 16.427-44.138l9.92 21.928z" fill="#5e3b3b"/><rect fill="#fff" x="34.807" y="15.4" width="59.262" height="80.114" rx=".866" class="C D"/><g fill="#e8eef1"><ellipse cx="46.31" cy="35.254" rx="5.229" ry="5.225"/><rect x="54.677" y="31.075" width="30.328" height="1.742" rx=".866"/><rect x="54.677" y="34.558" width="30.328" height="1.045" rx=".433"/><rect x="54.677" y="37.344" width="30.328" height="1.045" rx=".433"/></g></g><g transform="matrix(-1 0 0 1 86.916297 41.919929)"><path stroke="#e8eef1" stroke-width=".866" d="M42.878 35.877l-10.98-2.787-3.312-10.45-10.632-4.18-9.586-6.27L1.394 1.393"/><g stroke="#fff" stroke-width=".5" class="B"><g fill="#ffac51"><ellipse cx="8.366" cy="11.843" rx="1.394" ry="1.393"/><ellipse cx="18.476" cy="18.461" rx="1.394" ry="1.393"/></g><g fill="#38aabe"><ellipse cx="28.585" cy="22.989" rx="1.394" ry="1.393"/><ellipse cx="32.071" cy="33.091" rx="1.394" ry="1.393"/><ellipse cx="42.529" cy="35.877" rx="1.394" ry="1.393"/></g><ellipse fill="#ffac51" cx="1.394" cy="1.393" rx="1.394" ry="1.393"/></g></g><g class="B"><ellipse fill="#fff" cx="64.437" cy="88.2" rx="2.44" ry="2.438" class="C D"/><path d="M40.2 78.97c2.6-2.735 5.044-15.194 6.1-18.86 1.743-6.045 0-7.787-2.3-7.787-1.74 3.648-9.612 20.06-13.55 24.95-1.2 1.412-1.38 32.37 11.557 23.67C43.055 96.3 42.45 80.6 40.2 78.97zm50.568 0c-2.6-2.735-5.044-15.194-6.1-18.86-1.743-6.045 0-7.787 2.3-7.787 1.74 3.648 9.612 20.06 13.55 24.95 1.2 1.412 1.38 32.37-11.557 23.67-1.048-4.632-.442-20.33 1.798-21.973z" fill="#744d4d"/></g><g class="D E F"><path d="M59.034 21.147H70.19" class="C"/><path d="M94.765 18.796l-.174 8.186m-60.22-1.568l-.087 5.138m.087 1.872l-.087 5.138" stroke="#a0afb8"/></g><g transform="matrix(-.996195 -.087156 -.087156 .996195 107.442099 -.191764)" fill="#10b584" class="B"><path d="M16.673 27.994l1.866-5.25-5.568 1.125z"/><path d="M4.606 5.08l14.417-2.867c1.594-.317 3.143.72 3.46 2.315l2.865 14.427c.317 1.595-.72 3.146-2.313 3.462L8.618 25.284c-1.594.317-3.143-.72-3.46-2.314L2.293 8.542c-.317-1.595.72-3.146 2.313-3.463"/></g><g stroke="#fff" stroke-width=".8"><path d="M88.854 12.18l1.818 2.242 4.94-4.117" class="E F"/><circle cx="92" cy="12" r="6"/></g></g></svg>