<?xml version="1.0" encoding="UTF-8"?>
<svg width="130px" height="122px" viewBox="0 0 130 122" version="1.1" xmlns="http://www.w3.org/2000/svg" xmlns:xlink="http://www.w3.org/1999/xlink">
    <!-- Generator: Sketch 63.1 (92452) - https://sketch.com -->
    <title>Illustration_report</title>
    <desc>Created with Sketch.</desc>
    <g id="Page-1" stroke="none" stroke-width="1" fill="none" fill-rule="evenodd">
        <g id="Illustration_report" transform="translate(-10.000000, -3.000000)">
            <g id="Back" transform="translate(0.000000, 10.200000)" fill="#E8EEF1" fill-rule="nonzero">
                <g id="Fill-1" transform="translate(77.644471, 77.278745) rotate(119.000000) translate(-77.644471, -77.278745) translate(21.144471, 20.778745)">
                    <path d="M63.9892782,92.81767 C61.3920974,84.905097 59.2663398,83.300676 50.9511323,83.347975 C41.9306559,83.401497 33.0358094,83.552106 24.4394895,79.6462298 C5.949503,71.2444887 -4.0312337,49.6439235 1.8497388,29.7710053 C7.61752,10.2777213 27.1411545,-2.3111986 47.128749,0.5752662 C70.437451,3.9409415 85.411044,23.2450307 83.332553,46.71016 C82.414584,57.0835097 84.740603,61.7909741 94.889261,64.530564 C105.652386,67.4356994 111.305732,75.5735636 112.018464,85.508778 C113.023503,99.46687 105.662337,107.002299 96.781173,110.394113 C93.897904,111.498164 90.617844,111.569112 87.519387,112.110557 C76.0273602,111.669933 68.0766038,105.269673 63.9892782,92.81767 Z" id="path-2"></path>
                </g>
            </g>
            <g id="Hand-&amp;-Tablet" transform="translate(34.000000, 18.400000)">
                <path d="M2.93915881,83.81257 C2.93915881,82.3953786 0,63.1793637 0,61.4250733 C0,59.670783 11.3082426,35.577153 11.3082426,35.577153 C11.3082426,35.577153 28.7053287,79.8526895 27.7524944,79.8526895 C25.8468258,79.8526895 23.0074617,89.5191371 18.2665302,94.606398 C18.1270911,94.5698277 0.348597905,94.5698277 0.348597905,94.5698277 C0.895418148,92.9187309 2.93915881,85.2297614 2.93915881,83.81257 Z" id="Fill-1" fill="#744D4D" fill-rule="nonzero"></path>
                <path d="M56.9718341,83.81257 C56.9718341,82.3953786 54.0326753,63.1793637 54.0326753,61.4250733 C54.0326753,59.670783 65.3409179,35.577153 65.3409179,35.577153 C65.3409179,35.577153 82.7380039,79.8526895 81.7851697,79.8526895 C79.8795011,79.8526895 77.040137,89.5191371 72.2992055,94.606398 C72.1597663,94.5698277 54.3812732,94.5698277 54.3812732,94.5698277 C54.9280934,92.9187309 56.9718341,85.2297614 56.9718341,83.81257 Z" id="Fill-1-Copy-5" fill="#744D4D" fill-rule="nonzero" transform="translate(67.927802, 65.091775) scale(-1, 1) translate(-67.927802, -65.091775) "></path>
                <path d="M1.4067097,57.5053293 C9.17720857,65.4251587 17.851762,77.0401769 22.7107136,88.4192737 C24.7277658,83.7776556 26.8608975,79.7148682 27.7526612,79.7148682 C28.7045132,79.7148682 11.3253623,35.5769759 11.3253623,35.5769759 C11.3253623,35.5769759 4.41794872,50.26446 1.4067097,57.5053293 Z" id="Fill-4" fill="#5E3B3B" fill-rule="nonzero"></path>
                <path d="M54.0449934,57.5053293 C61.8154922,65.4251587 70.4900456,77.0401769 75.3489973,88.4192737 C77.3660495,83.7776556 79.4991811,79.7148682 80.3909449,79.7148682 C81.3427969,79.7148682 63.963646,35.5769759 63.963646,35.5769759 C63.963646,35.5769759 57.0562324,50.26446 54.0449934,57.5053293 Z" id="Fill-4-Copy" fill="#5E3B3B" fill-rule="nonzero" transform="translate(67.236829, 61.998125) scale(-1, 1) translate(-67.236829, -61.998125) "></path>
                <rect id="Rectangle" stroke="#D9E2E7" stroke-width="1.29962714" fill="#FFFFFF" fill-rule="nonzero" x="10.8065351" y="0" width="59.2616439" height="80.1144028" rx="0.866418094"></rect>
                <ellipse id="Oval" fill="#E8EEF1" fill-rule="nonzero" cx="22.3102659" cy="19.854439" rx="5.22896858" ry="5.22485236"></ellipse>
                <rect id="Rectangle" fill="#E8EEF1" fill-rule="nonzero" x="30.6766156" y="15.6745571" width="30.3280177" height="1.74161745" rx="0.866418094"></rect>
                <rect id="Rectangle-Copy-12" fill="#E8EEF1" fill-rule="nonzero" x="30.6766156" y="19.157792" width="30.3280177" height="1.04497047" rx="0.433209047"></rect>
                <rect id="Rectangle-Copy-13" fill="#E8EEF1" fill-rule="nonzero" x="30.6766156" y="21.9443799" width="30.3280177" height="1.04497047" rx="0.433209047"></rect>
                <g id="Graph" transform="translate(40.916297, 45.519929) scale(-1, 1) translate(-40.916297, -45.519929) translate(18.916297, 26.519929)">
                    <polyline id="Path-4" stroke="#E8EEF1" stroke-width="0.866418094" points="42.8775423 35.8773195 31.8967083 33.0907316 28.5850282 22.6410269 17.9527921 18.461145 8.36634972 12.1913222 1.39439162 1.39329396"></polyline>
                    <ellipse id="Oval" stroke="#FFFFFF" stroke-width="0.5" fill="#FFAC51" fill-rule="nonzero" cx="8.36634972" cy="11.8429987" rx="1.39439162" ry="1.39329396"></ellipse>
                    <ellipse id="Oval-Copy-16" stroke="#FFFFFF" stroke-width="0.5" fill="#FFAC51" fill-rule="nonzero" cx="18.475689" cy="18.461145" rx="1.39439162" ry="1.39329396"></ellipse>
                    <ellipse id="Oval-Copy-17" stroke="#FFFFFF" stroke-width="0.5" fill="#38AABE" fill-rule="nonzero" cx="28.5850282" cy="22.9893504" rx="1.39439162" ry="1.39329396"></ellipse>
                    <ellipse id="Oval-Copy-18" stroke="#FFFFFF" stroke-width="0.5" fill="#38AABE" fill-rule="nonzero" cx="32.0710073" cy="33.0907316" rx="1.39439162" ry="1.39329396"></ellipse>
                    <ellipse id="Oval-Copy-19" stroke="#FFFFFF" stroke-width="0.5" fill="#38AABE" fill-rule="nonzero" cx="42.5289444" cy="35.8773195" rx="1.39439162" ry="1.39329396"></ellipse>
                    <ellipse id="Oval-Copy-15" stroke="#FFFFFF" stroke-width="0.5" fill="#FFAC51" fill-rule="nonzero" cx="1.39439162" cy="1.39329396" rx="1.39439162" ry="1.39329396"></ellipse>
                </g>
                <ellipse id="Oval" stroke="#D9E2E7" stroke-width="1.29962714" fill="#FFFFFF" fill-rule="nonzero" cx="40.437357" cy="72.7996095" rx="2.44018534" ry="2.43826443"></ellipse>
                <path d="M16.2098026,63.569037 C18.8109502,60.8338739 21.253479,48.3747274 22.3102659,44.7093391 C24.0532554,38.6639074 22.3102659,36.92229 19.9999467,36.92229 C18.2604123,40.5702263 10.38766,56.9824401 6.45060428,61.8710123 C5.24108424,63.2831964 5.07120783,94.2414549 18.0076362,85.541907 C19.0554339,80.910108 18.4494532,65.2104094 16.2098026,63.569037 Z" id="Fill-7" fill="#744D4D" fill-rule="nonzero"></path>
                <path d="M70.2424779,63.569037 C72.8436255,60.8338739 75.2861543,48.3747274 76.3429412,44.7093391 C78.0859307,38.6639074 76.3429412,36.92229 74.032622,36.92229 C72.2930876,40.5702263 64.4203352,56.9824401 60.4832796,61.8710123 C59.2737595,63.2831964 59.1038831,94.2414549 72.0403115,85.541907 C73.0881092,80.910108 72.4821285,65.2104094 70.2424779,63.569037 Z" id="Fill-7-Copy" fill="#744D4D" fill-rule="nonzero" transform="translate(68.505084, 62.001581) scale(-1, 1) translate(-68.505084, -62.001581) "></path>
                <line x1="35.0340895" y1="5.74733759" x2="46.1892224" y2="5.74733759" id="Line-5" stroke="#D9E2E7" stroke-width="1.29962714" stroke-linecap="round" stroke-linejoin="round"></line>
                <line x1="70.7653747" y1="3.39615403" x2="70.5910758" y2="11.5817561" id="Line-5-Copy" stroke="#A0AFB8" stroke-width="1.29962714" stroke-linecap="round" stroke-linejoin="round"></line>
                <line x1="10.3707877" y1="10.0143004" x2="10.2836382" y2="15.1520718" id="Line-5-Copy-2" stroke="#A0AFB8" stroke-width="1.29962714" stroke-linecap="round" stroke-linejoin="round"></line>
                <line x1="10.3707877" y1="17.0243106" x2="10.2836382" y2="22.1620821" id="Line-5-Copy-3" stroke="#A0AFB8" stroke-width="1.29962714" stroke-linecap="round" stroke-linejoin="round"></line>
            </g>
            <g id="Speech-Bubble-Copy-3" transform="translate(102.231615, 16.032879) scale(-1, 1) rotate(-5.000000) translate(-102.231615, -16.032879) translate(88.231615, 1.532879)" fill="#10B584" fill-rule="nonzero">
                <polygon id="Fill-4" transform="translate(16.409396, 25.445885) rotate(-17.000000) translate(-16.409396, -25.445885) " points="15.9162109 27.9599798 19.236284 23.4836618 13.5825078 22.931791"></polygon>
                <path d="M7.54296118,2.76425578 L22.1680408,4.2375251 C23.785501,4.4004286 24.963715,5.84409992 24.800264,7.46260782 L23.3220447,22.0971612 C23.1587059,23.7153024 21.7149615,24.8950638 20.0979799,24.7319056 L5.47290021,23.2586363 C3.85569438,23.0962116 2.67722603,21.6520615 2.84056489,20.0339203 L4.31878422,5.3993669 C4.48248952,3.78133774 5.92586747,2.60146431 7.54296118,2.76425578" id="Fill-1" transform="translate(13.820426, 13.748113) rotate(-17.000000) translate(-13.820426, -13.748113) "></path>
            </g>
            <g id="Group" transform="translate(96.000000, 9.000000)" stroke="#FFFFFF" stroke-width="0.8">
                <polyline id="Line" stroke-linecap="round" stroke-linejoin="round" transform="translate(6.500000, 6.500000) rotate(-12.000000) translate(-6.500000, -6.500000) " points="3 5.42857143 4.3125 8 10 5"></polyline>
                <circle id="Oval" cx="6" cy="6" r="6"></circle>
            </g>
        </g>
    </g>
</svg>