<svg xmlns="http://www.w3.org/2000/svg" xmlns:xlink="http://www.w3.org/1999/xlink" viewBox="0 0 24 25"><use xlink:href="#A" fill="#04788e"/><use xlink:href="#A" fill="none" stroke="#04788e" stroke-width=".5"/><defs><path id="A" d="M23 6.3l.2.2c.1.1.1.2.1.3s0 .2-.1.3-.1.2-.2.2l-3.6 2.4c-.1 0-.1.1-.2.1h-5.6V11h4.2c.2 0 .3.1.4.2s.2.3.2.4v4.8c0 .2-.1.3-.2.4s-.1.2-.3.2h-4.2v6.6c0 .2-.1.3-.2.4s-.3.2-.4.2H8.3c-.2 0-.3-.1-.4-.2s-.2-.3-.2-.4V17h-2c-.1 0-.1 0-.2-.1l-3.7-2.6c-.1-.1-.1-.2-.1-.3s0-.2.1-.3.1-.2.2-.2l3.6-2.4c.1 0 .1-.1.2-.1h2V9.8H1.2c-.2 0-.3-.1-.4-.2s-.2-.3-.2-.4V4.4c0-.2.1-.3.2-.4s.3-.2.4-.2h6.6V2c0-.5.2-.9.5-1.3S9.1.2 9.6.2H12c.5 0 .9.2 1.3.5s.5.8.5 1.3v1.8h5.6c.1 0 .1 0 .2.1L23 6.3zm-4.1 2.3l2.7-1.8L18.9 5H1.7v3.6h17.2zm-1.6 7.2v-3.6H6.1L3.4 14l2.7 1.8h11.2zM8.9 2v1.8h3.6V2c0-.2-.1-.3-.2-.4s-.3-.2-.4-.2H9.5c-.2 0-.3.1-.4.2s-.2.2-.2.4zm3.6 9V9.8H8.9V11h3.6zm0 12v-6H8.9v6h3.6z"/></defs></svg>