<svg xmlns="http://www.w3.org/2000/svg" xmlns:xlink="http://www.w3.org/1999/xlink" viewBox="0 0 24 24"><use xlink:href="#A" fill="#6f6cac"/><use xlink:href="#A" fill="none" stroke="#6f6cac" stroke-width=".5"/><defs><path id="A" d="M21.5 2.8c.5 0 .9.2 1.3.5s.5.8.5 1.3V7c0 .5-.2.9-.5 1.3s-.8.5-1.3.5H11.3v12.6c0 .5-.2.9-.5 1.3s-.8.5-1.3.5H7.1c-.5 0-.9-.2-1.3-.5s-.5-.8-.5-1.3V8.8h-3c-.5 0-.9-.2-1.3-.5S.5 7.5.5 7V4.6c0-.5.2-.9.5-1.3s.8-.5 1.3-.5h3v-.6c0-.5.2-.9.5-1.3S6.6.4 7.1.4h2.4c.5 0 .9.2 1.3.5s.5.8.5 1.3v.6h10.2zm.6 4.2V4.6c0-.2-.1-.3-.2-.4s-.2-.2-.4-.2H2.3c-.2 0-.3.1-.4.2s-.2.3-.2.4V7c0 .2.1.3.2.4s.3.2.4.2h1.8V7c0-.2.1-.3.2-.4s.3-.2.4-.2c.2 0 .3.1.4.2s.2.3.2.4v.6h2.4V7c0-.2.1-.3.2-.4s.3-.2.4-.2c.2 0 .3.1.4.2s.2.3.2.4v.6h2.4V7c0-.2.1-.3.2-.4s.3-.2.4-.2.3.1.4.2.2.3.2.4v.6h2.4V7c0-.2.1-.3.2-.4s.3-.2.4-.2.3.1.4.2.2.3.2.4v.6h2.4V7c0-.2.1-.3.2-.4s.3-.2.4-.2.3.1.4.2.2.3.2.4v.6h1.8c.2 0 .3-.1.4-.2s.2-.2.2-.4zM6.5 2.2v.6h3.6v-.6c0-.2-.1-.3-.2-.4s-.3-.2-.4-.2H7.1c-.2 0-.3.1-.4.2s-.2.2-.2.4zm3.6 9V8.8H6.5v12.6c0 .2.1.3.2.4s.3.2.4.2h2.4c.2 0 .3-.1.4-.2s.2-.3.2-.4v-1.8h-.6c-.2 0-.3-.1-.4-.2s-.2-.3-.2-.4.1-.3.2-.4.3-.2.4-.2h.6V16h-.6c-.2 0-.3-.1-.4-.2s-.2-.3-.2-.4.1-.3.2-.4.3-.2.4-.2h.6v-2.4h-.6c-.2 0-.3-.1-.4-.2s-.2-.3-.2-.4c0-.2.1-.3.2-.4s.3-.2.4-.2h.6z"/></defs></svg>