<svg xmlns="http://www.w3.org/2000/svg" width="458" height="105" fill="none" fill-rule="evenodd"><g fill="#fff"><path d="M114.424 103.918l-2.51-8.676h-15.99l-2.653 8.676H78l18.857-52.986h14.555l18.283 52.986h-15.272zm-5.88-21.5L104.1 67.782 99.5 82.408h9.034zm42.518 22.442c-9.106 0-16.778-3.227-22.514-8.747L135.72 85c4.16 3.442 9.68 6.166 15.56 6.166 2.294 0 5.09-.574 5.09-2.796 0-1.506-1.577-2.438-4.015-3.298-3.083-1.076-7.6-2.08-11.544-4.015-4.804-2.366-8.89-6.38-8.89-13.98 0-9.68 8.532-16.92 20.65-16.92 6.668 0 13.766 2.08 19.646 6.453l-6.596 11.544c-3.227-2.366-8.963-4.087-12.834-4.087-3.657 0-4.947 1.362-4.947 2.58 0 1.936 2.294 2.653 4.16 3.227 2.725.86 6.668 2.008 10.18 3.37 5.88 2.294 10.755 6.238 10.755 14.268 0 9.823-8.174 17.35-21.87 17.35zm38.43-39.578H175v-14.34h43.952v14.34H204.55v38.646h-15.057V65.272zm35.348 38.646V50.932h39.65v13.766H239.9v5.88h22.73v13.695H239.9v5.88h24.45v13.766h-39.507zm76.002 0l-8.39-16.563h-4.59v16.563h-14.914V50.932h23.087c13.838 0 20.076 8.03 20.076 17.997 0 6.238-2.5 12.476-9.106 15.846l10.827 19.144h-16.993zm-12.978-39.435v9.966h7.672c3.8 0 5.234-2.5 5.234-5.02 0-2.725-1.72-4.947-4.876-4.947h-8.03zm61.303 40.295c-16.06 0-27.89-12.117-27.89-27.39S333.11 50 349.098 50s27.82 12.117 27.82 27.46c0 15.272-11.76 27.318-27.748 27.318zm-.072-14.77c7.027 0 12.404-5.45 12.332-12.62-.072-7.6-5.736-12.62-12.332-12.62-6.81 0-12.332 5.234-12.332 12.62s5.52 12.62 12.332 12.62zm35-39.076h15.057v52.986h-15.057V50.932zm24.808 52.986V50.932h22.084c17.065 0 26.816 10.253 26.816 26.53s-9.966 26.457-26.96 26.457h-21.94zm14.914-14.34h7.744c7.385 0 10.755-6.094 10.755-12.19S439 65.272 431.553 65.272h-7.744v24.306z" fill-rule="nonzero"/><path d="M38.62 67.143V54.286H25.746v12.857H12.873V80h12.873v12.857H38.62V80h12.873V67.143H38.62zm-6.973 37.5C14.17 104.643 0 90.492 0 73.036S14.17 41.43 31.647 41.43s31.647 14.15 31.647 31.607-14.17 31.607-31.647 31.607z"/></g><path d="M99.147 5.62l-35.854 35.8m-4.646-23.098L45.653 31.3m49.92 5.444L84.597 47.706M72.494 59.794l-.62.618" stroke="#fff" stroke-width="10.714" stroke-linecap="round"/></svg>