<?xml version="1.0" encoding="UTF-8"?>
<svg width="458px" height="105px" viewBox="0 0 458 105" version="1.1" xmlns="http://www.w3.org/2000/svg" xmlns:xlink="http://www.w3.org/1999/xlink">
    <!-- Generator: sketchtool 55.2 (78181) - https://sketchapp.com -->
    <title>CB228AC1-8384-4F00-AABA-BA8A75C76FBE</title>
    <desc>Created with sketchtool.</desc>
    <g id="Page-1" stroke="none" stroke-width="1" fill="none" fill-rule="evenodd">
        <g id="Asteroid-1/white-version-Copy" transform="translate(-77.000000, -31.000000)">
            <g id="Logo" transform="translate(77.000000, 36.000000)">
                <path d="M114.4236,98.9184 L111.9141,90.2427 L95.925,90.2427 L93.2721,98.9184 L78,98.9184 L96.8571,45.9321 L111.4122,45.9321 L129.6957,98.9184 L114.4236,98.9184 Z M108.5442,77.4084 L104.0988,62.7816 L99.51,77.4084 L108.5442,77.4084 Z M151.0623,99.8505 C141.9564,99.8505 134.2845,96.624 128.5485,91.1031 L135.7185,79.9896 C139.8771,83.4312 145.398,86.1558 151.2774,86.1558 C153.5718,86.1558 156.3681,85.5822 156.3681,83.3595 C156.3681,81.8538 154.7907,80.9217 152.3529,80.0613 C149.2698,78.9858 144.7527,77.982 140.8092,76.0461 C136.0053,73.68 131.9184,69.6648 131.9184,62.0646 C131.9184,52.3851 140.4507,45.1434 152.568,45.1434 C159.2361,45.1434 166.3344,47.2227 172.2138,51.5964 L165.6174,63.1401 C162.3909,60.774 156.6549,59.0532 152.7831,59.0532 C149.1264,59.0532 147.8358,60.4155 147.8358,61.6344 C147.8358,63.5703 150.1302,64.2873 151.9944,64.8609 C154.719,65.7213 158.6625,66.8685 162.1758,68.2308 C168.0552,70.5252 172.9308,74.4687 172.9308,82.4991 C172.9308,92.322 164.757,99.8505 151.0623,99.8505 Z M189.4935,60.2721 L175.0101,60.2721 L175.0101,45.9321 L218.9622,45.9321 L218.9622,60.2721 L204.5505,60.2721 L204.5505,98.9184 L189.4935,98.9184 L189.4935,60.2721 Z M224.8416,98.9184 L224.8416,45.9321 L264.4917,45.9321 L264.4917,59.6985 L239.8986,59.6985 L239.8986,65.5779 L262.6275,65.5779 L262.6275,79.2726 L239.8986,79.2726 L239.8986,85.152 L264.3483,85.152 L264.3483,98.9184 L224.8416,98.9184 Z M300.8436,98.9184 L292.4547,82.3557 L287.8659,82.3557 L287.8659,98.9184 L272.9523,98.9184 L272.9523,45.9321 L296.0397,45.9321 C309.8778,45.9321 316.1157,53.9625 316.1157,63.9288 C316.1157,70.1667 313.6062,76.4046 307.0098,79.7745 L317.8365,98.9184 L300.8436,98.9184 Z M287.8659,59.4834 L287.8659,69.4497 L295.5378,69.4497 C299.3379,69.4497 300.7719,66.9402 300.7719,64.4307 C300.7719,61.7061 299.0511,59.4834 295.8963,59.4834 L287.8659,59.4834 Z M349.1694,99.7788 C333.1086,99.7788 321.2781,87.6615 321.2781,72.3894 C321.2781,57.1173 333.1086,45 349.0977,45 C365.0868,45 376.9173,57.1173 376.9173,72.4611 C376.9173,87.7332 365.1585,99.7788 349.1694,99.7788 Z M349.0977,85.0086 C356.1243,85.0086 361.5018,79.5594 361.4301,72.3894 C361.3584,64.7892 355.6941,59.7702 349.0977,59.7702 C342.2862,59.7702 336.7653,65.0043 336.7653,72.3894 C336.7653,79.7745 342.2862,85.0086 349.0977,85.0086 Z M384.0873,45.9321 L399.1443,45.9321 L399.1443,98.9184 L384.0873,98.9184 L384.0873,45.9321 Z M408.8955,98.9184 L408.8955,45.9321 L430.9791,45.9321 C448.0437,45.9321 457.7949,56.1852 457.7949,72.4611 C457.7949,88.737 447.8286,98.9184 430.8357,98.9184 L408.8955,98.9184 Z M423.8091,84.5784 L431.5527,84.5784 C438.9378,84.5784 442.3077,78.4839 442.3077,72.3894 C442.3077,66.2949 439.0095,60.2721 431.5527,60.2721 L423.8091,60.2721 L423.8091,84.5784 Z" id="ASTEROID" fill="#FFFFFF" fill-rule="nonzero"></path>
                <g id="Simbol">
                    <path d="M38.6195827,62.1428571 L38.6195827,49.2857143 L25.7463884,49.2857143 L25.7463884,62.1428571 L12.8731942,62.1428571 L12.8731942,75 L25.7463884,75 L25.7463884,87.8571429 L38.6195827,87.8571429 L38.6195827,75 L51.4927769,75 L51.4927769,62.1428571 L38.6195827,62.1428571 Z M31.6466025,99.6428571 C14.1686665,99.6428571 0,85.4918573 0,68.0357143 C0,50.5795713 14.1686665,36.4285714 31.6466025,36.4285714 C49.1245384,36.4285714 63.2932049,50.5795713 63.2932049,68.0357143 C63.2932049,85.4918573 49.1245384,99.6428571 31.6466025,99.6428571 Z" id="Combined-Shape" fill="#FFFFFF"></path>
                    <path d="M99.1469571,0.619524696 L63.2932049,36.4285714" id="Path-11" stroke="#FFFFFF" stroke-width="10.7142857" stroke-linecap="round"></path>
                    <path d="M58.6474177,13.3323791 L45.6531164,26.310478" id="Path-11-Copy" stroke="#FFFFFF" stroke-width="10.7142857" stroke-linecap="round"></path>
                    <path d="M95.5730581,31.743803 L84.5971863,42.7059892" id="Path-11-Copy-2" stroke="#FFFFFF" stroke-width="10.7142857" stroke-linecap="round"></path>
                    <path d="M72.4940736,54.7940108 L71.8753344,55.4119784" id="Path-11-Copy-3" stroke="#FFFFFF" stroke-width="10.7142857" stroke-linecap="round"></path>
                </g>
            </g>
        </g>
    </g>
</svg>