<?xml version="1.0" encoding="UTF-8"?>
<svg width="457px" height="105px" viewBox="0 0 457 105" version="1.1" xmlns="http://www.w3.org/2000/svg" xmlns:xlink="http://www.w3.org/1999/xlink">
    <!-- Generator: sketchtool 55.2 (78181) - https://sketchapp.com -->
    <title>50C641EC-C3E8-428F-80F6-9FB649837476</title>
    <desc>Created with sketchtool.</desc>
    <g id="Page-1" stroke="none" stroke-width="1" fill="none" fill-rule="evenodd">
        <g id="Asteroid-1-Copy" transform="translate(-77.000000, -21.000000)">
            <g id="Logo" transform="translate(77.000000, 26.000000)">
                <path d="M112.7714,98.3 L110.2619,89.6243 L94.2728,89.6243 L91.6199,98.3 L76.3478,98.3 L95.2049,45.3137 L109.76,45.3137 L128.0435,98.3 L112.7714,98.3 Z M106.892,76.79 L102.4466,62.1632 L97.8578,76.79 L106.892,76.79 Z M149.4101,99.2321 C140.3042,99.2321 132.6323,96.0056 126.8963,90.4847 L134.0663,79.3712 C138.2249,82.8128 143.7458,85.5374 149.6252,85.5374 C151.9196,85.5374 154.7159,84.9638 154.7159,82.7411 C154.7159,81.2354 153.1385,80.3033 150.7007,79.4429 C147.6176,78.3674 143.1005,77.3636 139.157,75.4277 C134.3531,73.0616 130.2662,69.0464 130.2662,61.4462 C130.2662,51.7667 138.7985,44.525 150.9158,44.525 C157.5839,44.525 164.6822,46.6043 170.5616,50.978 L163.9652,62.5217 C160.7387,60.1556 155.0027,58.4348 151.1309,58.4348 C147.4742,58.4348 146.1836,59.7971 146.1836,61.016 C146.1836,62.9519 148.478,63.6689 150.3422,64.2425 C153.0668,65.1029 157.0103,66.2501 160.5236,67.6124 C166.403,69.9068 171.2786,73.8503 171.2786,81.8807 C171.2786,91.7036 163.1048,99.2321 149.4101,99.2321 Z M187.8413,59.6537 L173.3579,59.6537 L173.3579,45.3137 L217.31,45.3137 L217.31,59.6537 L202.8983,59.6537 L202.8983,98.3 L187.8413,98.3 L187.8413,59.6537 Z M223.1894,98.3 L223.1894,45.3137 L262.8395,45.3137 L262.8395,59.0801 L238.2464,59.0801 L238.2464,64.9595 L260.9753,64.9595 L260.9753,78.6542 L238.2464,78.6542 L238.2464,84.5336 L262.6961,84.5336 L262.6961,98.3 L223.1894,98.3 Z M299.1914,98.3 L290.8025,81.7373 L286.2137,81.7373 L286.2137,98.3 L271.3001,98.3 L271.3001,45.3137 L294.3875,45.3137 C308.2256,45.3137 314.4635,53.3441 314.4635,63.3104 C314.4635,69.5483 311.954,75.7862 305.3576,79.1561 L316.1843,98.3 L299.1914,98.3 Z M286.2137,58.865 L286.2137,68.8313 L293.8856,68.8313 C297.6857,68.8313 299.1197,66.3218 299.1197,63.8123 C299.1197,61.0877 297.3989,58.865 294.2441,58.865 L286.2137,58.865 Z M347.5172,99.1604 C331.4564,99.1604 319.6259,87.0431 319.6259,71.771 C319.6259,56.4989 331.4564,44.3816 347.4455,44.3816 C363.4346,44.3816 375.2651,56.4989 375.2651,71.8427 C375.2651,87.1148 363.5063,99.1604 347.5172,99.1604 Z M347.4455,84.3902 C354.4721,84.3902 359.8496,78.941 359.7779,71.771 C359.7062,64.1708 354.0419,59.1518 347.4455,59.1518 C340.634,59.1518 335.1131,64.3859 335.1131,71.771 C335.1131,79.1561 340.634,84.3902 347.4455,84.3902 Z M382.4351,45.3137 L397.4921,45.3137 L397.4921,98.3 L382.4351,98.3 L382.4351,45.3137 Z M407.2433,98.3 L407.2433,45.3137 L429.3269,45.3137 C446.3915,45.3137 456.1427,55.5668 456.1427,71.8427 C456.1427,88.1186 446.1764,98.3 429.1835,98.3 L407.2433,98.3 Z M422.1569,83.96 L429.9005,83.96 C437.2856,83.96 440.6555,77.8655 440.6555,71.771 C440.6555,65.6765 437.3573,59.6537 429.9005,59.6537 L422.1569,59.6537 L422.1569,83.96 Z" id="ASTEROID" fill="#050E2A" fill-rule="nonzero"></path>
                <g id="Simbol">
                    <path d="M38.6195827,62.1428571 L38.6195827,49.2857143 L25.7463884,49.2857143 L25.7463884,62.1428571 L12.8731942,62.1428571 L12.8731942,75 L25.7463884,75 L25.7463884,87.8571429 L38.6195827,87.8571429 L38.6195827,75 L51.4927769,75 L51.4927769,62.1428571 L38.6195827,62.1428571 Z M31.6466025,99.6428571 C14.1686665,99.6428571 0,85.4918573 0,68.0357143 C0,50.5795713 14.1686665,36.4285714 31.6466025,36.4285714 C49.1245384,36.4285714 63.2932049,50.5795713 63.2932049,68.0357143 C63.2932049,85.4918573 49.1245384,99.6428571 31.6466025,99.6428571 Z" id="Combined-Shape" fill="#13BF97"></path>
                    <path d="M99.1469571,0.619524696 L63.2932049,36.4285714" id="Path-11" stroke="#13BF97" stroke-width="10.7142857" stroke-linecap="round"></path>
                    <path d="M58.6474177,13.3323791 L45.6531164,26.310478" id="Path-11-Copy" stroke="#13BF97" stroke-width="10.7142857" stroke-linecap="round"></path>
                    <path d="M95.5730581,31.743803 L84.5971863,42.7059892" id="Path-11-Copy-2" stroke="#13BF97" stroke-width="10.7142857" stroke-linecap="round"></path>
                    <path d="M72.4940736,54.7940108 L71.8753344,55.4119784" id="Path-11-Copy-3" stroke="#13BF97" stroke-width="10.7142857" stroke-linecap="round"></path>
                </g>
            </g>
        </g>
    </g>
</svg>