<svg xmlns="http://www.w3.org/2000/svg" xmlns:xlink="http://www.w3.org/1999/xlink" viewBox="0 0 200 57.7" xmlns:v="https://vecta.io/nano"><defs><path id="A" d="M3 3.1h194v52.1H3z"/></defs><clipPath id="B"><use xlink:href="#A"/></clipPath><g fill="#00b0c4"><path d="M32.3 32.3h-7.6c-.3 0-.5.2-.6.3-1.1 1.9-3.3 3.4-6 3.4-4.1 0-7.5-3.8-7.5-8.4 0-4.7 3.4-8.6 7.5-8.6 2.6 0 4.8 1.5 5.9 3.4.1.1.3.3.5.3h7.6c-1.7-6.6-7-10.6-14.1-10.6-8.7.1-15 7-15 15.5s6.3 15.3 15.1 15.3c7.1 0 12.5-3.9 14.2-10.6m24.9-4.6c0 4.5-3.4 8.2-7.5 8.2s-7.5-3.6-7.5-8.2c0-4.8 3.4-8.4 7.5-8.4 4.1-.1 7.5 3.7 7.5 8.4m7.5-.1c0-8.5-6.2-15.4-15-15.4-8.9 0-15.1 6.9-15.1 15.4 0 8.4 6.3 15.2 14 15.2 3.5 0 6.7-1.2 8.9-3.7v2.4c0 .4.3.6.6.6H64a.65.65 0 0 0 .6-.6c.1-.1.1-13.9.1-13.9m77 .1c0-4.5 3.4-8.2 7.5-8.2s7.5 3.6 7.5 8c0 4.3-3.4 7.5-7.7 7.5h-4.2v7.3h5.1c8.2 0 14.3-6.6 14.3-14.8 0-8.3-6.1-15.2-15-15.2-8.8 0-15 6.9-15 15.5v26.9c0 .4.3.6.6.6h6.3a.65.65 0 0 0 .6-.6v-27zm-35.1 0c0 4.5-3.4 8.2-7.5 8.2s-7.5-3.6-7.5-8.2c0-4.8 3.4-8.4 7.5-8.4 4.2-.1 7.5 3.7 7.5 8.4m7.5-.1c0-8.5-6.2-15.4-15-15.4-8.9 0-15.1 6.9-15.1 15.4 0 8.4 6.3 15.2 14 15.2 3.5 0 6.7-1.2 8.9-3.7v2.4c0 .4.3.6.6.6h5.9a.65.65 0 0 0 .6-.6c.1-.1.1-13.9.1-13.9" clip-path="url(#B)"/><path d="M189.5 27.7c0 4.5-3.4 8.2-7.5 8.2s-7.5-3.6-7.5-8.2c0-4.8 3.4-8.4 7.5-8.4 4.1-.1 7.5 3.7 7.5 8.4m7.5-.1c0-8.5-6.2-15.4-15-15.4-8.9 0-15.1 6.9-15.1 15.4 0 8.4 6.3 15.2 14 15.2 3.5 0 6.7-1.2 8.9-3.7v2.4c0 .4.3.6.6.6h5.9a.65.65 0 0 0 .6-.6c.1-.1.1-13.9.1-13.9M125.7 3.7c0-.4-.3-.6-.6-.6h-6.4a.65.65 0 0 0-.6.6v26.2c0 8 4.5 13.1 13.1 12.2v-6.8c-3.7.2-5.6-1.2-5.6-5.4.1 0 .1-26 .1-26.2M68.6 30c0 8 4.5 13.2 13.4 12.2v-6.8c-3.9.3-5.9-1.3-5.9-5.4V19.4h5.3v-7.3h-5.3V6c0-.4-.3-.6-.6-.6h-6.3a.65.65 0 0 0-.6.6v24z" clip-path="url(#B)"/></g></svg>