<?xml version="1.0" encoding="UTF-8" standalone="no"?>
<!DOCTYPE svg PUBLIC "-//W3C//DTD SVG 1.1//EN" "http://www.w3.org/Graphics/SVG/1.1/DTD/svg11.dtd">
<svg width="100%" height="100%" viewBox="0 0 200 57" version="1.1" xmlns="http://www.w3.org/2000/svg" xmlns:xlink="http://www.w3.org/1999/xlink" xml:space="preserve" xmlns:serif="http://www.serif.com/" style="fill-rule:evenodd;clip-rule:evenodd;stroke-linejoin:round;stroke-miterlimit:2;">
    <g id="Capa_2">
        <g>
            <path d="M37.1,31.1L30,31.1C29.7,31.1 29.5,31.3 29.5,31.4C28.5,33.2 26.4,34.6 24,34.6C20.2,34.6 17,31.1 17,26.8C17,22.4 20.1,18.8 24,18.8C26.4,18.8 28.5,20.2 29.5,22C29.5,22.1 29.7,22.3 30,22.3L37.1,22.3C35.5,16.2 30.6,12.5 24,12.5C15.8,12.5 10,18.9 10,26.8C10,34.7 15.9,41 24,41C30.6,40.9 35.6,37.3 37.1,31.1" style="fill:white;fill-rule:nonzero;"/>
            <path d="M60.3,26.8C60.3,31 57.2,34.4 53.3,34.4C49.5,34.4 46.3,31.1 46.3,26.8C46.3,22.3 49.4,19 53.3,19C57.1,19 60.3,22.5 60.3,26.8M67.2,26.7C67.2,18.8 61.5,12.4 53.3,12.4C45.1,12.4 39.3,18.8 39.3,26.7C39.3,34.5 45.2,40.8 52.3,40.8C55.6,40.8 58.5,39.6 60.6,37.4L60.6,39.7C60.6,40 60.9,40.3 61.2,40.3L66.7,40.3C67,40.3 67.3,40.1 67.3,39.7C67.2,39.5 67.2,26.7 67.2,26.7" style="fill:white;fill-rule:nonzero;"/>
            <path d="M138.7,26.8C138.7,22.6 141.8,19.2 145.7,19.2C149.5,19.2 152.7,22.5 152.7,26.6C152.7,30.6 149.6,33.6 145.6,33.6L141.7,33.6L141.7,40.3L146.4,40.3C154,40.3 159.6,34.2 159.6,26.6C159.6,18.9 153.9,12.5 145.7,12.5C137.5,12.5 131.8,18.9 131.8,26.8L131.8,51.8C131.8,52.1 132.1,52.4 132.4,52.4L138.2,52.4C138.5,52.4 138.8,52.2 138.8,51.8L138.7,26.8Z" style="fill:white;fill-rule:nonzero;"/>
            <path d="M106.1,26.8C106.1,31 103,34.4 99.1,34.4C95.3,34.4 92.1,31.1 92.1,26.8C92.1,22.3 95.2,19 99.1,19C103,19 106.1,22.5 106.1,26.8M113.1,26.7C113.1,18.8 107.4,12.4 99.2,12.4C91,12.4 85.2,18.8 85.2,26.7C85.2,34.5 91.1,40.8 98.2,40.8C101.5,40.8 104.4,39.6 106.5,37.4L106.5,39.7C106.5,40 106.8,40.3 107.1,40.3L112.6,40.3C112.9,40.3 113.2,40.1 113.2,39.7C113.1,39.5 113.1,26.7 113.1,26.7" style="fill:white;fill-rule:nonzero;"/>
            <path d="M183,26.8C183,31 179.9,34.4 176,34.4C172.2,34.4 169,31.1 169,26.8C169,22.3 172.1,19 176,19C179.9,19 183,22.5 183,26.8M190,26.7C190,18.8 184.3,12.4 176.1,12.4C167.9,12.4 162.1,18.8 162.1,26.7C162.1,34.5 168,40.8 175.1,40.8C178.4,40.8 181.3,39.6 183.4,37.4L183.4,39.7C183.4,40 183.7,40.3 184,40.3L189.5,40.3C189.8,40.3 190.1,40.1 190.1,39.7C190,39.5 190,26.7 190,26.7" style="fill:white;fill-rule:nonzero;"/>
            <path d="M123.8,4.6C123.8,4.3 123.5,4 123.2,4L117.3,4C117,4 116.7,4.2 116.7,4.6L116.7,28.9C116.7,36.3 120.9,41.1 128.9,40.2L128.9,33.9C125.5,34.1 123.7,32.7 123.7,28.9C123.8,28.9 123.8,4.7 123.8,4.6" style="fill:white;fill-rule:nonzero;"/>
            <path d="M70.8,29C70.8,36.4 74.9,41.2 83.2,40.3L83.2,34C79.6,34.3 77.7,32.8 77.7,29L77.7,19.1L82.6,19.1L82.6,12.4L77.7,12.4L77.7,6.8C77.7,6.5 77.4,6.2 77.1,6.2L71.3,6.2C71,6.2 70.7,6.4 70.7,6.8L70.7,29L70.8,29Z" style="fill:white;fill-rule:nonzero;"/>
        </g>
    </g>
</svg>
