<svg xmlns="http://www.w3.org/2000/svg" width="457" height="105" fill="none" fill-rule="evenodd"><path d="M112.77 103.3l-2.5-8.676h-15.99L91.62 103.3H76.348l18.857-52.986h14.555l18.283 52.986H112.77zm-5.88-21.5l-4.445-14.627-4.59 14.627h9.034zm42.518 22.442c-9.106 0-16.778-3.227-22.514-8.747l7.17-11.114c4.16 3.442 9.68 6.166 15.56 6.166 2.294 0 5.09-.574 5.09-2.796 0-1.506-1.577-2.438-4.015-3.298-3.083-1.075-7.6-2.08-11.544-4.015-4.804-2.366-8.89-6.38-8.89-13.98 0-9.68 8.532-16.92 20.65-16.92 6.668 0 13.766 2.08 19.646 6.453l-6.596 11.544c-3.227-2.366-8.963-4.087-12.834-4.087-3.657 0-4.947 1.362-4.947 2.58 0 1.936 2.294 2.653 4.16 3.227 2.725.86 6.668 2.008 10.18 3.37 5.88 2.294 10.755 6.238 10.755 14.268 0 9.823-8.174 17.35-21.87 17.35zm38.43-39.578h-14.483v-14.34H217.3v14.34h-14.412V103.3H187.84V64.654zM223.19 103.3V50.314h39.65V64.08h-24.593v5.88h22.73v13.695h-22.73v5.88h24.45V103.3H223.19zm76.002 0l-8.39-16.563h-4.59V103.3H271.3V50.314h23.087c13.838 0 20.076 8.03 20.076 17.997 0 6.238-2.5 12.476-9.106 15.846l10.827 19.144H299.19zm-12.978-39.435v9.966h7.672c3.8 0 5.234-2.5 5.234-5.02 0-2.725-1.72-4.947-4.876-4.947h-8.03zm61.303 40.295c-16.06 0-27.89-12.117-27.89-27.39s11.83-27.39 27.82-27.39 27.82 12.117 27.82 27.46c0 15.272-11.76 27.318-27.748 27.318zm-.072-14.77c7.027 0 12.404-5.45 12.332-12.62-.072-7.6-5.736-12.62-12.332-12.62-6.81 0-12.332 5.234-12.332 12.62s5.52 12.62 12.332 12.62zm35-39.076h15.057V103.3h-15.057V50.314zm24.808 52.986V50.314h22.084c17.065 0 26.816 10.253 26.816 26.53s-9.966 26.457-26.96 26.457h-21.94zm14.914-14.34h7.744c7.385 0 10.755-6.094 10.755-12.19s-3.298-12.117-10.755-12.117h-7.744V88.96z" fill="#050e2a" fill-rule="nonzero"/><path d="M38.62 67.143V54.286H25.746v12.857H12.873V80h12.873v12.857H38.62V80h12.873V67.143H38.62zm-6.973 37.5C14.17 104.643 0 90.492 0 73.036S14.17 41.43 31.647 41.43s31.647 14.15 31.647 31.607-14.17 31.607-31.647 31.607z" fill="#13bf97"/><path d="M99.147 5.62l-35.854 35.8m-4.646-23.098L45.653 31.3m49.92 5.444L84.597 47.706M72.494 59.794l-.62.618" stroke="#13bf97" stroke-width="10.714" stroke-linecap="round"/></svg>