<svg xmlns="http://www.w3.org/2000/svg" width="222" height="53" fill-rule="evenodd"><path fill="#fff" d="M21.97 37.94L2.64 29.66l-1.22 2.12.7 3.66 20.73 8.87 21.3-10.04V28.1z"/><path d="M2.66 28.64l22.48-10.56a.9.9 0 0 1 .75-.01l18.12 9.06c.73.3.78 1.3.06 1.66l-21.43 9.57c-.27.13-.54.12-.82-.01L3.1 30.47c-.32.14-.5.63-.58.94-.22.86-.2 2.76.33 3.42l20.08 8.57 21.1-9.7c1.05-.57 1.9 1.03.86 1.6l-21.5 9.93a.9.9 0 0 1-.82.02L2 36.42C.57 35.84.4 32.35.78 30.95c.3-1.13.82-1.8 1.88-2.3z" fill="#10b584"/><path fill="#fff" d="M7.2 21.85l19.32 8.28 22.2-9.84v6.16L27.42 36.5 6.7 27.63 6 23.97z"/><path d="M7.23 20.82L29.7 10.26a.9.9 0 0 1 .75-.01l18.12 9.06c.73.3.78 1.3.06 1.66l-21.44 9.57a.9.9 0 0 1-.81-.01l-18.72-7.9c-.32.14-.5.63-.58.94-.23.86-.2 2.76.33 3.42l20.08 8.57 21.1-9.7c1.05-.57 1.9 1.03.86 1.6l-21.5 9.93c-.24.13-.55.15-.82.02L6.56 28.6c-1.42-.58-1.58-4.07-1.2-5.47.3-1.13.82-1.8 1.88-2.3" fill="#00b8ad"/><path fill="#fff" d="M3.04 13.55l19.32 8.28L44.57 12v6.16L23.26 28.2 2.53 19.33l-.7-3.66z"/><path d="M3.06 12.52L25.54 1.96a.9.9 0 0 1 .75-.01l18.12 9.06c.73.3.78 1.3.06 1.66l-21.43 9.57c-.27.13-.54.12-.82-.01L3.5 14.35c-.33.13-.5.63-.58.94-.22.86-.2 2.76.33 3.42l20.08 8.57 21.1-9.7c1.05-.57 1.9 1.03.86 1.6L23.8 29.1a.9.9 0 0 1-.82.02L2.4 20.3c-1.42-.58-1.58-4.07-1.2-5.47.3-1.13.82-1.8 1.88-2.3" fill="#ff694d"/><path d="M69.3 29.88a9.2 9.2 0 0 0 6.87 2.83 9.2 9.2 0 0 0 6.87-2.83c1.84-1.9 2.76-4.25 2.76-7.1a9.9 9.9 0 0 0-2.76-7.17c-1.84-1.9-4.13-2.86-6.87-2.86s-5.03.95-6.87 2.86a9.9 9.9 0 0 0-2.76 7.17c0 2.84.92 5.2 2.76 7.1M63.45 10.3a17.4 17.4 0 0 1 12.7-5.11 17.4 17.4 0 0 1 12.71 5.11c3.46 3.4 5.2 7.57 5.2 12.48a16.7 16.7 0 0 1-5.19 12.41c-3.46 3.4-7.7 5.1-12.7 5.1a17.4 17.4 0 0 1-12.7-5.1 16.7 16.7 0 0 1-5.19-12.41c0-4.9 1.73-9.07 5.2-12.48m42.9-9.36v30.02c0 .67.22 1.2.65 1.6s1.02.6 1.76.6a10 10 0 0 0 2.9-.7l1.25 6.27a13.7 13.7 0 0 1-5.92 1.55c-2.6 0-4.7-.8-6.3-2.4s-2.38-3.7-2.38-6.32V.94h8.02zm21.2 32.53a5.9 5.9 0 0 0 4.34-1.83c1.22-1.23 1.83-2.78 1.83-4.7 0-1.87-.6-3.42-1.83-4.66a5.9 5.9 0 0 0-4.34-1.86 5.7 5.7 0 0 0-4.36 1.83 6.6 6.6 0 0 0-1.7 4.69c0 1.94.57 3.5 1.7 4.7s2.6 1.8 4.36 1.8zm14.18-19.1v25.66c0 3.74-1.4 6.68-4.2 8.82s-6.33 3.2-10.58 3.2c-5.95 0-10.14-2.02-12.58-6.06l6.67-4.1c.94 1.14 1.84 1.94 2.7 2.4a6.7 6.7 0 0 0 3.21.7c1.94 0 3.55-.5 4.84-1.48s1.93-2.4 1.93-4.28v-1.7c-2.04 1.84-4.65 2.76-7.82 2.76a11.6 11.6 0 0 1-8.7-3.73c-2.4-2.5-3.58-5.7-3.58-9.6 0-3.88 1.2-7.07 3.58-9.57a11.6 11.6 0 0 1 8.7-3.76c3.17 0 5.78.92 7.82 2.76v-2h8.02zm17.5 5.76c-1.17 0-2.26.35-3.26 1.05s-1.7 1.67-2.06 2.9h10.38c-.37-1.3-1-2.3-1.9-2.96a5.2 5.2 0 0 0-3.16-1m12.98 6.82V29H153.8a6.5 6.5 0 0 0 1.95 3.56 5 5 0 0 0 3.46 1.3c2.5 0 4.3-.97 5.36-2.9l7.12 1.45a12 12 0 0 1-4.84 5.89c-2.15 1.32-4.7 1.98-7.64 1.98-3.7 0-6.85-1.25-9.42-3.73s-3.86-5.7-3.86-9.6a12.8 12.8 0 0 1 3.86-9.57c2.56-2.5 5.73-3.76 9.47-3.76 3.64 0 6.7 1.22 9.17 3.66s3.74 5.66 3.8 9.67m20.97 5.15l1.85 6.32a14.4 14.4 0 0 1-6.87 1.85c-3.17 0-5.64-.85-7.4-2.56s-2.63-4.2-2.63-7.47v-9.52h-4.56v-6.37h4.56v-8.4h8.02v8.42h7.42v6.37h-7.42v8.72c0 2.44 1.12 3.66 3.36 3.66 1.27 0 2.5-.33 3.66-1m15.3 2.15a5.6 5.6 0 0 0 3.71-1.3 4.2 4.2 0 0 0 1.55-3.36v-.55h-5.5c-1 0-1.8.24-2.38.73s-.88 1.1-.88 1.88c0 .8.32 1.44.95 1.9s1.5.7 2.56.7m1.45-20.65c3.58 0 6.4.87 8.45 2.6s3.08 4.2 3.08 7.37v15.94h-7.72v-1.85a11.2 11.2 0 0 1-7.52 2.61c-2.8 0-5.07-.75-6.8-2.26s-2.58-3.5-2.58-5.96c0-2.5.92-4.5 2.76-5.94s4.4-2.18 7.72-2.18h6.42v-.5c0-1.04-.33-1.88-.98-2.53s-1.5-.98-2.58-.98c-2.44 0-3.84 1.05-4.2 3.16l-7.57-1.55a9.4 9.4 0 0 1 3.93-5.79c2.06-1.42 4.6-2.13 7.6-2.13" fill="#2a3942"/></svg>