<svg xmlns="http://www.w3.org/2000/svg" xmlns:xlink="http://www.w3.org/1999/xlink" width="100%" height="100%" viewBox="0 0 200 57" fill-rule="evenodd" stroke-linejoin="round" stroke-miterlimit="2" xmlns:v="https://vecta.io/nano"><g fill="#fff" fill-rule="nonzero"><path d="M37.1 31.1H30c-.3 0-.5.2-.5.3-1 1.8-3.1 3.2-5.5 3.2-3.8 0-7-3.5-7-7.8 0-4.4 3.1-8 7-8 2.4 0 4.5 1.4 5.5 3.2 0 .1.2.3.5.3h7.1c-1.6-6.1-6.5-9.8-13.1-9.8-8.2 0-14 6.4-14 14.3S15.9 41 24 41c6.6-.1 11.6-3.7 13.1-9.9m23.2-4.3c0 4.2-3.1 7.6-7 7.6-3.8 0-7-3.3-7-7.6 0-4.5 3.1-7.8 7-7.8 3.8 0 7 3.5 7 7.8m6.9-.1c0-7.9-5.7-14.3-13.9-14.3s-14 6.4-14 14.3c0 7.8 5.9 14.1 13 14.1 3.3 0 6.2-1.2 8.3-3.4v2.3a.65.65 0 0 0 .6.6h5.5c.3 0 .6-.2.6-.6-.1-.2-.1-13-.1-13m71.5.1c0-4.2 3.1-7.6 7-7.6 3.8 0 7 3.3 7 7.4 0 4-3.1 7-7.1 7h-3.9v6.7h4.7c7.6 0 13.2-6.1 13.2-13.7 0-7.7-5.7-14.1-13.9-14.1s-13.9 6.4-13.9 14.3v25a.65.65 0 0 0 .6.6h5.8c.3 0 .6-.2.6-.6l-.1-25z"/><use xlink:href="#B"/><use xlink:href="#B" x="76.9"/><path d="M123.8 4.6a.65.65 0 0 0-.6-.6h-5.9c-.3 0-.6.2-.6.6v24.3c0 7.4 4.2 12.2 12.2 11.3v-6.3c-3.4.2-5.2-1.2-5.2-5 .1 0 .1-24.2.1-24.3M70.8 29c0 7.4 4.1 12.2 12.4 11.3V34c-3.6.3-5.5-1.2-5.5-5v-9.9h4.9v-6.7h-4.9V6.8a.65.65 0 0 0-.6-.6h-5.8c-.3 0-.6.2-.6.6V29h.1z"/></g><defs ><path id="B" d="M106.1 26.8c0 4.2-3.1 7.6-7 7.6-3.8 0-7-3.3-7-7.6 0-4.5 3.1-7.8 7-7.8s7 3.5 7 7.8m7-.1c0-7.9-5.7-14.3-13.9-14.3s-14 6.4-14 14.3c0 7.8 5.9 14.1 13 14.1 3.3 0 6.2-1.2 8.3-3.4v2.3a.65.65 0 0 0 .6.6h5.5c.3 0 .6-.2.6-.6-.1-.2-.1-13-.1-13"/></defs></svg>