<svg xmlns="http://www.w3.org/2000/svg" xmlns:xlink="http://www.w3.org/1999/xlink" width="128" height="30"><defs><path id="A" d="M.35.53h8.4V23.2H.35z"/><path id="B" d="M.16.84h16.2V23H.16z"/></defs><g transform="translate(0 -1)" fill="none" fill-rule="evenodd"><path d="M39.6 17.7a5.3 5.3 0 0 0 3.96 1.63 5.3 5.3 0 0 0 3.96-1.63c1.06-1.1 1.6-2.45 1.6-4.1a5.7 5.7 0 0 0-1.59-4.13c-1.06-1.1-2.38-1.65-3.96-1.65s-2.9.55-3.96 1.65A5.7 5.7 0 0 0 38 13.6c0 1.64.53 3 1.6 4.1M36.23 6.4c2-1.96 4.43-2.95 7.32-2.95s5.33.98 7.33 2.95a9.7 9.7 0 0 1 2.99 7.19c0 2.8-1 5.2-3 7.15s-4.44 2.93-7.33 2.93-5.33-.98-7.32-2.93-3-4.34-3-7.15a9.7 9.7 0 0 1 2.99-7.19" fill="#fff"/><g transform="translate(56 .47)"><mask id="C" fill="#fff"><use xlink:href="#A"/></mask><path d="M4.97.53v17.3c0 .4.13.7.38.92s.6.35 1 .35c.35 0 .9-.13 1.68-.4l.72 3.6a7.9 7.9 0 0 1-3.41.9c-1.5 0-2.7-.46-3.63-1.4S.35 19.68.35 18.18V.53h4.62z" fill="#fff" mask="url(#C)"/></g><g transform="translate(65 7.47)"><mask id="D" fill="#fff"><use xlink:href="#B"/></mask><path d="M8.2 12.28c.96 0 1.8-.35 2.5-1.05s1.05-1.6 1.05-2.7c0-1.08-.35-1.97-1.05-2.7a3.4 3.4 0 0 0-2.5-1.07c-1.02 0-1.86.35-2.5 1.06a3.8 3.8 0 0 0-.98 2.7c0 1.12.33 2.02.98 2.72a3.3 3.3 0 0 0 2.51 1.04zm8.18-11v14.8c0 2.16-.8 3.85-2.43 5.1S10.3 23 7.85 23C4.42 23 2 21.83.6 19.5l3.84-2.37c.54.66 1.06 1.12 1.56 1.4s1.12.4 1.85.4c1.12 0 2.05-.3 2.8-.85s1.1-1.4 1.1-2.47v-.98c-1.17 1.06-2.68 1.6-4.5 1.6a6.7 6.7 0 0 1-5.01-2.15C.85 12.62.16 10.78.16 8.52.16 6.3.85 4.45 2.23 3S5.28.84 7.24.84c1.83 0 3.33.53 4.5 1.6V1.27h4.62z" fill="#fff" mask="url(#D)"/></g><g fill="#fff"><path d="M91.46 12.07a3.2 3.2 0 0 0-1.88.61 3.1 3.1 0 0 0-1.2 1.68h5.98c-.2-.75-.58-1.32-1.1-1.7s-1.13-.58-1.82-.58m7.5 3.92v1.18H88.3c.2.87.57 1.55 1.13 2.05a2.9 2.9 0 0 0 2 .75c1.44 0 2.47-.56 3.1-1.68l4.1.84a6.9 6.9 0 0 1-2.79 3.4c-1.24.76-2.7 1.14-4.4 1.14A7.5 7.5 0 0 1 86 21.53c-1.48-1.43-2.23-3.28-2.23-5.53 0-2.23.74-4.07 2.23-5.52a7.5 7.5 0 0 1 5.46-2.17 7.3 7.3 0 0 1 5.3 2.1c1.44 1.4 2.16 3.27 2.2 5.58m12.06 2.98l1.07 3.64c-1.33.7-2.65 1.07-3.96 1.07-1.83 0-3.25-.5-4.26-1.47s-1.52-2.42-1.52-4.3v-5.5h-2.63V8.74h2.63V3.9h4.62v4.85h4.28v3.67h-4.28v5.03c0 1.4.65 2.1 1.94 2.1a4.2 4.2 0 0 0 2.11-.58"/><path d="M119.83 20.2c.83 0 1.54-.25 2.14-.75a2.4 2.4 0 0 0 .9-1.94v-.32h-3.18c-.58 0-1.03.14-1.37.42s-.5.64-.5 1.08c0 .46.18.83.55 1.1s.86.4 1.47.4m.84-11.9c2.06 0 3.68.5 4.87 1.5s1.78 2.42 1.78 4.25v9.2h-4.45v-1.07c-1.18 1-2.62 1.5-4.33 1.5-1.62 0-2.92-.43-3.92-1.3a4.3 4.3 0 0 1-1.5-3.44c0-1.45.53-2.6 1.6-3.42s2.54-1.26 4.45-1.26h3.7v-.3c0-.6-.2-1.08-.56-1.46s-.87-.56-1.5-.56c-1.4 0-2.2.6-2.43 1.82l-4.36-.9c.33-1.4 1.08-2.52 2.27-3.34a7.5 7.5 0 0 1 4.38-1.23M12.83 26.04L.88 20.92l-.4-2.1.7-1.22 11.14 4.77 1.82-.8L3.44 17c-.27-.1-.45-.4-.58-.77L1.18 17c-.6.3-.9.68-1.08 1.33-.2.8-.12 2.82.7 3.15l11.88 5.08c.16.07.33.06.47-.01l12.4-5.72c.58-.3.15-1.16-.42-.94v.35l-12.3 5.8z"/><path d="M12.88 25.5L1.3 20.57C1 20.2.98 19.1 1.1 18.6c.05-.18.15-.46.34-.54l10.8 4.55c.16.07.3.08.47.01l1.9-.85-.47-.2-1.82.8L1.17 17.6l-.7 1.2.4 2.1L12.82 26l12.3-5.8v-.35c-.02.01-.05.01-.07.02l-12.16 5.6zM15.5 21l3.4-1.57-3.47 1.54zm10.02-10.44l-.18-.1v.13c.06-.02.12-.04.18-.04m2.22 4.85v.35l-2.5 1.18c-.03.05-.08.1-.13.13v.7l3.06-1.4c.58-.3.15-1.16-.42-.94"/><path d="M3.1 14.3l.56-.98-.6-.25a2 2 0 0 0-.35.75 5 5 0 0 0 .12 2.4l.57-.27-.32-1.64zm21.96 2.8l-3.44 1.54-6.17 2.9-.17-.07-.7.3.7.3c.15.07.33.06.47-.01l9.34-4.3v-.7c-.02.01-.03.04-.05.05m-21.6-.13l10.7 4.58.7-.3-11.3-4.84-.1-.47-.57.27c.13.36.3.66.57.77m21.67.05c.05-.04.1-.08.13-.12l-.13.06v.06z"/><path d="M27.66 11.63l-1.75-.88c.2.23.2.6-.14.8l-12.3 5.68 1.48.63 12.8-5.67v.35c.34-.23.3-.75-.1-.9m-6.03 7l3.44-1.54c.02-.01.03-.03.05-.05v-.06l-3.5 1.64zm-7.5 2.93l.47.2.7-.3-.47-.2zM3.74 14.1c.05-.18.15-.46.34-.54l2.35 1 .04-.02-2.8-1.2-.56.98.32 1.64.37-.17c-.17-.5-.16-1.28-.05-1.7"/><path d="M22.12 14.68l.42.2 5.16-2.3c.02-.01.03-.03.05-.05v-.35l-5.62 2.5zm3.2 1.82c.04.15.02.3-.07.43l2.5-1.18v-.35c-.02.01-.05.01-.07.02l-2.35 1.08z"/><path d="M15.46 21.53l6.17-2.9-6.34 2.83zm-2-4.3l-.1.04c-.13.07-.28.07-.42.02l1.92.8c.16.07.3.08.47 0l7.2-3.2-.42-.2-7.18 3.18-1.48-.64zm-7-2.7l-.04.02 4.87 2.05zm-2.53 1.54c-.06-.07-.1-.17-.14-.3l-.37.17.1.47 11.3 4.84.63-.28-11.5-4.92zm21.4.44l-6.4 2.95 6.2-2.75v.3l.13-.06c.1-.13.1-.28.07-.43"/><path d="M25.1 16.7l-10.3 4.56.47.2 6.34-2.83L25.1 17zm.42-6.14l.38.2c-.1-.12-.22-.2-.38-.2"/><path d="M12.95 17.3l-1.66-.7 1.6.7c.02.01.03 0 .05.01m12.4-6.7v.35l-5.5 2.6.76.38 5.16-2.38c.35-.2.33-.56.14-.8l-.38-.2c-.06 0-.12.02-.18.04M3.8 13.1l2.98 1.28.34-.16-3.6-1.54c-.18.12-.33.25-.45.4l.6.25.14-.24z"/><path d="M25.25 6.84L14.8 1.62c-.13-.06-.3-.06-.43 0L1.4 7.7C.8 8 .5 8.4.33 9.04c-.2.8-.12 2.82.7 3.15l2.05.88c.12-.16.27-.3.45-.4L1.1 11.63.7 9.52l.7-1.22 11.14 4.77 12.8-5.67v.35c.34-.23.3-.75-.1-.9m-4.64 7.08l-.76-.38-6.8 3.2L7.1 14.2l-.34.16 6.67 2.86z"/><path d="M6.8 14.37l-3-1.27-.14.24 2.8 1.2zm4.5 2.23l1.66.7c.14.05.3.05.42-.02l.1-.04-6.67-2.86-.33.16 4.83 2.07zm10.8-7.76l.4.2 2.8-1.25c.02-.01.03-.03.05-.05V7.4L22.1 8.84zM3.8 12.5l.27-.13-2.55-1.1c-.3-.38-.32-1.48-.2-1.97.05-.18.15-.46.34-.54L7 11l.34-.16L1.4 8.3.7 9.52l.4 2.1 2.42 1.03.3-.17"/><path d="M10.66 12.55l.3-.15-3.64-1.56L7 11zm14.68-1.6v-.35c-.02.01-.05.01-.07.02l-5.87 2.7.44.22 5.5-2.6zm-21.26 1.4l-.27.13c-.1.05-.2.1-.3.17l3.6 1.54.6-.28-3.64-1.56zm12.27-.57l6.15-2.75-.4-.2-6.17 2.73z"/><path d="M12.54 13.08l-1.57-.67-.3.15 1.8.76c.16.07.3.08.47.01l3.4-1.52-.43-.2-3.38 1.5zm7.3.47l-.44-.22-6.3 2.9-5.38-2.3-.6.28 5.93 2.54z"/></g></g></svg>