<svg xmlns="http://www.w3.org/2000/svg" width="64" height="36" fill-rule="evenodd" xmlns:v="https://vecta.io/nano"><path d="M53.617 12.13h8.73v2.77H56.7v1.744h5.232v2.753H56.7v1.792h5.64v2.768h-8.714zm-4.283 5.874a3.1 3.1 0 0 0-3.145-3.168 3.1 3.1 0 0 0-3.128 3.168c0 1.85 1.394 3.168 3.128 3.168 1.783 0 3.145-1.35 3.145-3.168m-9.4.016c0-3.44 2.7-6.16 6.256-6.16 3.583 0 6.273 2.734 6.273 6.16 0 3.4-2.674 6.127-6.256 6.127-3.615 0-6.273-2.702-6.273-6.127m-1.38-5.914v12.076H36.3l-5.357-6.47v4.882a1.59 1.59 0 0 1-1.589 1.589h-1.328V12.106h2.136l5.45 6.553v-4.646a1.91 1.91 0 0 1 1.907-1.907h1.026zm-19.395 6.07c1.56.448 3.054 1.668 3.054 1.668-.08-.42-1.756-4.147-1.862-4.15s-1.202 2.2-1.2 2.48m-2.813-.617l2.498-5.638 2.75-.01c.167-.001 5.2 11.94 5.417 11.943.037.217.003.338-.275.33-.8-.027-1.62-.024-2.43-.033.042-.27-2.23-3.387-5.97-3.387 0 0-1.28 3.044-1.545 3.404-.686.027-2.577-.003-3.265-.008-.006-.1 1.524-3.376 1.524-3.376-.344.008-.683-.185-.948-.494-.528-.758-.43-1.985.717-2.663.4-.23 1.525-.068 1.525-.068zm-15.092.495c0-3.667 2.793-6.192 6.2-6.192 2.2 0 4.078.965 5.15 2.348l-1.933 2c-.78-.836-1.803-1.48-3.02-1.48-1.82 0-3.25 1.383-3.25 3.297 0 1.865 1.414 3.232 3.233 3.232 1.202 0 2.307-.6 3.087-1.527l2.015 1.913c-1.04 1.366-2.973 2.476-5.296 2.476-3.46 0-6.173-2.444-6.173-6.078" fill="#1c1a37"/><path d="M15.603 17.19c1.594 0 7.65.8 8.926 7.156-.956-1.27-3.507-3.967-6.057-3.496-1.7.314-2.763.47-3.188.47-1.275-.212-1.913-.847-1.913-1.907 0-1.59 1.275-2.225 2.232-2.225z" fill="#fbb315"/></svg>