<svg xmlns="http://www.w3.org/2000/svg" width="20" height="20"><path d="M9.5 20a9.44 9.44 0 0 1-6.718-2.782C.987 15.424 0 13.038 0 10.5a9.44 9.44 0 0 1 2.782-6.718C4.576 1.988 6.962 1 9.5 1s4.923.988 6.718 2.783S19 7.963 19 10.5s-.988 4.923-2.782 6.717A9.44 9.44 0 0 1 9.5 20zm0-18A8.51 8.51 0 0 0 1 10.5 8.51 8.51 0 0 0 9.5 19a8.51 8.51 0 0 0 8.5-8.5A8.51 8.51 0 0 0 9.5 2zm-3 6a1.5 1.5 0 1 1 0-3 1.5 1.5 0 1 1 0 3zm0-2a.5.5 0 1 0 0 1 .5.5 0 1 0 0-1zm6 2a1.5 1.5 0 1 1 0-3 1.5 1.5 0 1 1 0 3zm0-2a.5.5 0 1 0 0 1 .5.5 0 1 0 0-1zm-3 11A6.51 6.51 0 0 1 3 10.5a.5.5 0 1 1 1 0A5.51 5.51 0 0 0 9.5 16a5.51 5.51 0 0 0 5.5-5.5.5.5 0 1 1 1 0A6.51 6.51 0 0 1 9.5 17z"/></svg>
