<svg xmlns="http://www.w3.org/2000/svg" width="20" height="20" xmlns:v="https://vecta.io/nano"><path d="M13.653 14.88a.5.5 0 0 1-.316-.887C14.394 13.135 15 11.86 15 10.5s-.606-2.633-1.662-3.493a.5.5 0 0 1-.072-.703.5.5 0 0 1 .703-.072A5.48 5.48 0 0 1 16 10.502a5.48 5.48 0 0 1-2.031 4.269.5.5 0 0 1-.315.112zm1.892 2.33a.5.5 0 0 1-.316-.887C17 14.9 18 12.768 18 10.5s-1-4.4-2.77-5.82a.5.5 0 0 1-.072-.703.5.5 0 0 1 .703-.072A8.47 8.47 0 0 1 19 10.502a8.47 8.47 0 0 1-3.14 6.597.5.5 0 0 1-.315.112zm-3.783-4.658a.5.5 0 0 1-.316-.887c.352-.287.554-.7.554-1.164s-.202-.878-.554-1.164a.5.5 0 0 1-.072-.703.5.5 0 0 1 .703-.072 2.49 2.49 0 0 1 0 3.88.5.5 0 0 1-.315.112zM8.15 3.207c-.247 0-.494.104-.736.3L3.316 7H1.5A1.5 1.5 0 0 0 0 8.5v4A1.5 1.5 0 0 0 1.5 14h1.816l4.098 3.483c.24.205.5.3.736.3.272 0 .516-.132.67-.362.12-.18.18-.408.18-.68V4.25c0-.72-.427-1.043-.85-1.043zM1 12.5v-4a.5.5 0 0 1 .5-.5H3v5H1.5a.5.5 0 0 1-.5-.5zm7 4.17l-4-3.4V7.73l4-3.4v12.34z"/></svg>