<svg xmlns="http://www.w3.org/2000/svg" width="20" height="20" xmlns:v="https://vecta.io/nano"><path d="M15.5 19c-.082 0-.164-.02-.24-.06L10 16.07l-5.26 2.87a.5.5 0 0 1-.732-.522l.958-5.746-3.818-3.818a.5.5 0 0 1 .271-.847l5.75-.958 2.386-4.772a.5.5 0 0 1 .894 0l2.386 4.772 5.75.958a.5.5 0 0 1 .271.847l-3.818 3.818.958 5.746c.03.19-.048.38-.203.5-.086.06-.188.093-.3.093zM10 15c.082 0 .165.02.24.06l4.6 2.508-.83-4.987c-.027-.16.025-.322.14-.436l3.313-3.313-5.042-.84a.5.5 0 0 1-.365-.27L10 3.617 7.947 7.723c-.072.143-.207.243-.365.27l-5.042.84 3.313 3.313a.5.5 0 0 1 .14.436l-.83 4.987 4.6-2.508c.075-.04.157-.06.24-.06z"/></svg>