<svg xmlns="http://www.w3.org/2000/svg" xmlns:xlink="http://www.w3.org/1999/xlink" width="57" height="58" xmlns:v="https://vecta.io/nano"><defs><rect id="A" width="40" height="40" rx="20"/><filter x="-42.5%" y="-22.5%" width="185.0%" height="190.0%" id="B"><feOffset dy="10" in="SourceAlpha"/><feGaussianBlur stdDeviation="4"/><feColorMatrix values="0 0 0 0 0.165 0 0 0 0 0.224 0 0 0 0 0.259 0 0 0 0.2 0"/></filter></defs><g transform="translate(8.5)" fill-rule="evenodd"><use fill="#000" filter="url(#B)" xlink:href="#A"/><use fill="#0074fc" xlink:href="#A"/><path d="M18 26.697c.046 0 .1-.008.133-.024s.08-.042.113-.08h0L24.55 20.3a.34.34 0 0 0 .103-.25.34.34 0 0 0-.103-.25h0l-6.303-6.296c-.068-.068-.15-.103-.246-.103s-.178.034-.246.103-.103.15-.103.246.034.178.103.246h0l6.05 6.057-6.05 6.05c-.068.068-.103.15-.103.246s.034.178.103.246c.032.036.07.063.113.08s.088.024.133.024z" stroke="#fff" fill="#fff" fill-rule="nonzero"/></g></svg>