<svg xmlns="http://www.w3.org/2000/svg" width="41" height="40" fill-rule="evenodd" xmlns:v="https://vecta.io/nano"><rect fill="#81939f" x=".5" width="40" height="40" rx="20"/><path d="M24.033 26a1.08 1.08 0 0 0 .791-.33c.22-.22.33-.486.33-.798v-6a1.08 1.08 0 0 0-.33-.791 1.08 1.08 0 0 0-.791-.33h-.374v-1.128c0-.464-.09-.9-.267-1.31a3.44 3.44 0 0 0-1.798-1.798c-.4-.178-.847-.267-1.31-.267s-.9.09-1.31.267a3.44 3.44 0 0 0-1.798 1.798c-.178.4-.267.847-.267 1.31v1.128h-.374c-.312 0-.58.1-.798.33a1.08 1.08 0 0 0-.33.791v6c0 .313.1.58.33.798s.486.33.798.33h7.5zm-1.128-8.247h-5.25v-1.128c0-.36.07-.702.21-1.022a2.68 2.68 0 0 1 .564-.835 2.63 2.63 0 0 1 .835-.56 2.57 2.57 0 0 1 1.022-.205c.36 0 .7.068 1.018.205s.596.323.835.56a2.6 2.6 0 0 1 .564.835 2.57 2.57 0 0 1 .205 1.022v1.128zm1.128 7.5h-7.5a.36.36 0 0 1-.264-.11c-.073-.073-.1-.164-.1-.27v-6a.36.36 0 0 1 .374-.374h7.5a.36.36 0 0 1 .374.374v6c0 .107-.037.198-.1.27a.36.36 0 0 1-.264.11z" stroke="#fff" stroke-width=".75" fill="#fff" fill-rule="nonzero"/></svg>