<svg xmlns="http://www.w3.org/2000/svg" width="41" height="40" fill-rule="evenodd" xmlns:v="https://vecta.io/nano"><rect fill="#00d2a8" x=".5" width="40" height="40" rx="20"/><path d="M18.024 25.098c.04 0 .077-.007.114-.02s.07-.036.097-.067l8.402-8.396a.29.29 0 0 0 .088-.214.29.29 0 0 0-.088-.214c-.06-.06-.13-.088-.21-.088s-.152.03-.21.088l-8.19 8.19-2.79-2.79c-.06-.06-.13-.088-.21-.088s-.152.03-.21.088-.088.13-.088.21.03.152.088.21l3 3c.027.03.06.054.097.067s.075.02.114.02z" stroke="#fff" fill="#fff" fill-rule="nonzero"/></svg>