<svg xmlns="http://www.w3.org/2000/svg" width="45" height="45"  fill-rule="evenodd" xmlns:v="https://vecta.io/nano"><path fill="#80b9fd" d="M0 0h45v45H0z"/><path d="M16.857 37.998c-2.441-.428-1.429-3.069-2.386-3.541s-1.646 1.441-2.801.476c-1.511-1.262 1.395-4.875.237-5.665s-3.848 3.187-5.301 1.482.328-2.969.523-4.26-1.094-2.504-1.081-3.273 1.162-1.414 1.194-3.233-1.441-4.329.108-6.192 3.189-.959 4.711-1.248 1.298-3.267 3.283-2.392-.498 2.826 1.096 4.358 3.304-1.657 4.85.645-.813 3.135-.319 4.439 3.113-.541 4.44 2.422-1.053 3.061-.606 5.098 2.667 1.306 2.007 3.534-2.513-.219-5.179 2.394-2.335 5.383-4.776 4.956z" fill="#003a7e"/><path d="M30.755 22.286c.096-.351.232-.795-.175-1.03s-.736.073-.997.347c-.341.358-.681.728-.952 1.137-.998 1.509-2.269 2.276-3.863 2.888-.345.132-1.106.133-1.466-.358-.534-.727-.168-1.491.203-1.915 1.07-1.223 2.507-1.508 4.063-1.988.91-.281 1.938-.371 2.409-1.266.175-.332.241-.803.145-1.135-.321-1.11-1.513-1.551-2.933-1.064-.513.176-1.106.649-1.664 1.337-1.358 1.674-2.706 3.018-4.651 1.998-.521-.274-1.054-.979-1-1.756.077-1.094.717-1.738 1.576-2 1.248-.38 2.536-.539 3.828-.68.592-.065 1.186-.146 1.712-.419.611-.317.356-.982.01-1.196-.9-.556-1.898-.305-2.862-.226-1.085.089-2.164.205-3.262.136-.766-.048-2.255-.543-2.633-1.453s-.359-2.134.368-2.738c1.352-1.124 2.384-.896 3.867.127l3.763 2.611c.241.138.676.165.947-.107.222-.222.112-.552.005-.825-.402-1.024-.823-2.042-1.077-3.113-.265-1.116-.048-2.124.771-2.978.593-.619 1.309-.783 2.094-.458.747.31.734.945.635 1.621-.224 1.521-.794 2.956-1.116 4.453a9.34 9.34 0 0 0-.174 1.198c-.04.481.168.826.643.88.527.06.713-.373.767-.78.162-1.236.453-2.443.763-3.647.15-.581.279-1.226.989-1.425 1.014-.284 1.865.45 1.785 1.521-.13 1.742-1.015 3.106-2.273 4.272l-1.272 1.073c-.458.318-.695.641-.485 1.261s.719.742 1.263.723c.739-.026 1.395-.429 1.969-.841.557-.399 1.02-.771 1.662-1.122.63-.345 1.515-.577 2.36-.043.64.405.558 1.553.377 1.831-.488.752-1.147 1.153-2.088 1.283-.732.101-1.444.181-2.175.115-.511-.045-.934.083-1.201.546-.247.428.518 2.053 1.987 1.802 1.114-.19 2.173.14 2.59.981.485.978.059 1.819-1.324 3.144s-4.081 3.094-5.104 1.085c-.263-.517.073-1.522.423-1.978.418-.545.602-1.19.776-1.829z" fill="#3f96fc"/><path d="M22.852 35.178c.794 0 .149 1.895 1.986 1.421s2.035-1.943 2.879-1.943 3.326.711 4.27-.237.745-3.317 1.489-3.317 2.035.948 2.532-.142-.496-1.374 0-2.274 1.39-1.8.794-2.701-1.241-.332-1.589-.948-.348-2.606-1.44-2.606-1.787 1.516-2.83 1.232-1.539-1.753-2.383-1.611-.993.758-1.589.569-1.539-2.18-3.177-1.469-1.589 2.274-1.241 4.691-5.461 0-6.404 2.843 2.879 2.985 2.879 3.885-2.676 2.666-1.291 3.838c2.184 1.848 4.319-1.232 5.113-1.232z" fill="#0057bd"/><path d="M34.107 30.374c-2.249-.278-4.493-.461-6.724.146-.43.117-.848.292-1.297.326-.723.055-1.143-.365-1.08-1.127a5.68 5.68 0 0 1 .613-2.154c.563-1.085 1.677-1.371 2.662-.701.386.263.735.585 1.107.873.908.704 1.483.695 2.373-.031l.212-.173c1.006-.842 1.697-.811 2.624.12l.746.743c.657.582 1.414.556 2.053-.057.267-.256.463-.572.671-.878l.422-.607c.963-1.25 2.427-1.108 3.124.322.394.809.485 1.683.283 2.571-.185.813-.633 1.196-1.417 1.246-.325.02-.653.003-.979.003-1.816-.014-3.596-.398-5.393-.62z" fill="#80b9fd"/><path d="M28.495 24.631c-.862-1.564-1.804-1.158-2.873-.561-2.134 1.191-4.412 1.089-6.678.526-1.121-.278-1.97-1.077-2.747-1.958-.294-.333-.241-.548.044-.835 2.05-2.057 4.453-2.125 6.965-1.337s2.12 1.121 3.051 1.909c.809.685.842.699 1.704.04L29 21.604l-.505 3.026z" fill="#fff"/><path d="M27.979 38.261c-.372 1.279-1.648 2.01-6.806 1.645s-8.189-3.238-7.338-3.995 3.19 1.253 3.19.392-3.35-2.689-4.307-4.517S11.574 28 13.329 28s2.499 2.872 3.297 4.517 1.329 2.324 1.941 2.01-1.01-2.507.239-2.507 1.01 2.898 2.978 4.282 6.567.679 6.195 1.958z" fill="#231f20"/></svg>