<svg xmlns="http://www.w3.org/2000/svg" width="45" height="45"  fill-rule="evenodd" xmlns:v="https://vecta.io/nano"><path fill="#dfeefe" d="M0 0h45v45H0z"/><path d="M22.084 1.055c3.963.591 2.4 4.675 3.963 5.373s2.623-2.257 4.521-.806c2.482 1.898-2.121 7.522-.223 8.704s6.14-4.997 8.54-2.418-.447 4.567-.726 6.555S40 22.279 40 23.461s-1.842 2.203-1.842 4.997 2.456 6.609 0 9.51-5.135 1.558-7.591 2.042-2.009 5.051-5.247 3.761.726-4.352-1.898-6.663-5.302 2.633-7.87-.86 1.228-4.836.391-6.824-5.023.913-7.256-3.6 1.619-4.728.837-7.845-4.353-1.934-3.349-5.373 4.074.269 8.316-3.815 3.628-8.328 7.591-7.737z" fill-opacity=".5" fill="#80b9fd"/><path d="M3 26.429c-.019.081 1.394-.852 1.827-.852.339 0 2.557 3.854 4.438 4.356 1.409.375 2.996-.868 3.523-2.103.352-.826 1.539-2.64 1.125-3.087-.059-.063-8.276.106-8.841.106-.797-.113-1.973-.958-1.935-.836.5 1.289-.081 2.112-.137 2.417z" fill="#012b5e"/><path d="M44.246 14.04c.018.141.663.328.757.523.027.051-1.029-.326-1.298-.249-.21.06-1.649 1.568-2.946 1.94-.428.123-1.212.14-1.633-.005-.164-.057-1.248-.382-1.077-.757.024-.053 5.367-1.48 5.717-1.58.171-.153.824-.917.825-.828-.008.15-.367.789-.345.957zM40 27.283l-.466 2.421c-.796-1.251-1.665-.926-2.652-.449-1.97.953-4.072.871-6.165.421-1.035-.222-1.818-.861-2.535-1.567-.271-.267-.223-.438.041-.668 1.892-1.646 4.111-1.7 6.43-1.07 1.058.288 1.957.897 2.817 1.528.746.548.777.559 1.573.032l.959-.649" fill="#fff"/><path d="M31.036 33.524l-.561 1.755c-.395-1.003-1.003-.842-1.704-.579-1.4.525-2.779.269-4.114-.259-.66-.261-1.11-.808-1.51-1.399-.151-.223-.101-.346.097-.492 1.421-1.047 2.891-.881 4.356-.198.668.312 1.198.848 1.7 1.396.436.476.455.487 1.035.17l.701-.393" fill="#01489e"/><path d="M27.404 38.834c-.021.141.547.498.583.711.012.057-.899-.597-1.179-.597-.219 0-2.018 1.052-3.367 1.052-.445 0-1.203-.199-1.568-.455-.142-.1-1.094-.711-.827-1.024.038-.044 5.567.057 5.931.057.207-.1 1.045-.654 1.021-.569-.049.142-.57.658-.596.825z" fill="#fff"/><path d="M38.745 7.143c.016.038-.703-.297-.897-.26-.151.029-.773 2.114-1.565 2.523-.593.306-1.42-.166-1.772-.727-.236-.375-.939-1.162-.796-1.417.02-.036 3.703-.666 3.955-.715.345-.125.789-.641.784-.578-.1.676.238 1.03.292 1.174z" fill="#80b9fd"/><path d="M27.263 21.374c-.005.143.688.406.759.611.022.054-1.101-.448-1.417-.404-.248.035-2.137 1.363-3.664 1.578-.504.071-1.39-.006-1.838-.201-.175-.076-1.337-.53-1.078-.883.037-.05 6.308-.829 6.721-.887.22-.131 1.092-.814 1.076-.726-.035.149-.554.742-.559.912z" fill="#0074fc"/><path d="M27.675 12.664c.035.06-1.414-.333-1.793-.225-.296.085-1.35 3.728-2.878 4.601-1.145.654-2.818.055-3.561-.802-.498-.573-1.951-1.729-1.692-2.191.037-.065 7.256-1.989 7.75-2.13.671-.29 1.504-1.262 1.499-1.155-.141 1.158.556 1.672.675 1.901z" fill="#3f96fc"/></svg>