<svg xmlns="http://www.w3.org/2000/svg" width="45" height="45"  fill-rule="evenodd" xmlns:v="https://vecta.io/nano"><path fill="#60a8fd" d="M0 0h45v45H0z"/><path d="M20.824 36.629c1.624-.723 2.039 3.76 5.361 1.114s2.384-5.846 4.109-6.614 7.451-1.567 8.513-4.374-1.513-7.495.01-8.173 5.029.095 5.047-2.597-2.273-2.372-2.081-4.675 1.194-4.966-.848-6.274-2.841.448-4.115-.502-3.095-5.04-5.329-4.046-2.267 4.743-4.658 5.108-4.751-2.203-6.347-1.142-1.336 2.462-2.728 2.615-5.141-3.079-7.841-.127-1.167 6.121 1.755 10.772S.507 22.685 1.18 29.387s8.619 3.514 9.443 5.365-3.032 7.916.873 9.064c6.157 1.81 7.704-6.464 9.328-7.187z" fill="#dfeefe"/><path d="M29.769 9.441c-.639 3.004-1.338 5.349-1.334 6.775.002.724-.183 1.839.562 2.1.854.3 1.21-.46 1.57-1.399.232-.605 3.024-6.231 3.922-7.18 1.908-2.019 3.692-1.858 4.532-1.175.93.756 1.401 2.089.739 3.534-1.275 2.783-4.519 3.769-6.649 5.807-1.662 1.591-3.16 3.039-4.353 4.99-.361.59-.368 2.178.311 2.807.598.555 3.109.936 7.773-4.679 2.428-2.923 4.353-4.055 4.975-1.871s-.393 4.484-2.176 5.614c-3.146 1.995-4.317 1.366-7.737 2.424-1.486.459-2.213 1.631-2.213 2.879s1.608 1.513 3.885.304c2.334-1.239 4.009-1.589 6.01-1.053 1.817.487 1.451 3.214-.567 4.804-2.875 2.266-8.416-2.484-9.946-.901-2.23 2.306 8.75 7.2 2.315 9.601-2.538.947-6.179-2.127-4.278-3.707.933-.776.481-1.345.257-1.87-.414-.968-2.65-1.564-4.204-.94s-4.975-.312-4.975-3.119 4.359.783 5.428 1.157c1.475.516 2.345.714 2.967.402 1.005-.504.435-1.601-.07-2.234-1.7-2.134-6.31-.477-8.276-2.297-1.411-1.306-1.528-3.587-.78-4.365 1.042-1.084 2.336-.03 2.908.787 1.844 2.636 2.872 3.364 4.664 2.807 1.646-.511-.049-3.192-.622-4.055-1.244-1.871-2.732-2.755-3.731-4.055-1.338-1.739-1.14-5.494.975-6.053 2.91-.77 2.198 3.985 2.706 5.507.15.45.244 1.087.953 1.052.69-.035 1.117-.558 1.273-1.13.459-1.688.416-3.397.187-5.139-.277-2.104-.726-3.868-1.499-5.778-1.043-2.578-2.504-5.713 0-6.55 4.664-1.56 4.792 4.819 4.499 6.197z" fill="#fff"/><path d="M29.967 40.247c-.582 2.026-2.576 3.183-10.635 2.604S6.537 37.725 7.866 36.526s4.985 1.984 4.985.62-5.234-4.258-6.73-7.152S4.335 24 7.077 24s3.905 4.547 5.151 7.152 2.077 3.679 3.033 3.183-1.579-3.969.374-3.969 1.579 4.589 4.653 6.78 10.261 1.075 9.679 3.1z" fill="#001d3f"/></svg>