<svg xmlns="http://www.w3.org/2000/svg" xmlns:xlink="http://www.w3.org/1999/xlink" width="45" height="45" xmlns:v="https://vecta.io/nano"><g fill-rule="evenodd"><path fill="#dfeefe" d="M0 0h45v45H0z"/><path d="M43.397 12.784c-.017.13.561.434.603.628.014.052-.915-.512-1.194-.501-.218.008-1.982 1.038-3.329 1.088-.444.017-1.207-.137-1.578-.357-.145-.086-1.113-.609-.855-.904.037-.042 5.557-.158 5.921-.171.203-.099 1.024-.637 1.002-.558-.044.132-.55.622-.57.776z" fill="#3f96fc"/><path d="M11.201 3.862c3.759-1.392 4.418 3.02 6.131 2.888s1.175-3.291 3.554-2.913c3.112.495 1.877 7.76 4.123 7.898s2.891-7.449 6.269-6.304 1.875 4.304 2.617 6.218 3.503 2.521 4.09 3.579-.518 2.865.868 5.365 5.426 4.724 4.718 8.511-3.718 3.884-5.626 5.507.748 5.494-2.723 5.91-1.524-4.247-4.965-5.043-3.331 4.927-7.31 3.046-1.325-4.923-3.043-6.296-3.726 3.913-7.917.956-1.144-5.676-3.374-8.086-4.767.379-5.594-3.185 3.697-1.735 5.381-7.446-.958-9.212 2.801-10.605z" fill="#fff"/><g fill="#3f96fc"><path d="M35.289 16.741c-.015.12.655.38.711.557.018.047-1.062-.44-1.38-.42-.249.015-2.221 1.024-3.754 1.117-.506.031-1.381-.084-1.812-.274-.168-.074-1.291-.522-1.008-.803.04-.04 6.329-.337 6.743-.362l1.122-.549c-.046.123-.603.592-.621.734z"/><use xlink:href="#B"/><use xlink:href="#B" x="10" y="4"/><path d="M34.24 25.166c-.039.147.569.6.589.831.008.062-.959-.751-1.276-.788-.248-.029-2.394.852-3.923.675-.505-.058-1.344-.369-1.731-.688-.151-.125-1.168-.898-.833-1.194.047-.042 6.304.789 6.717.837.244-.079 1.251-.557 1.215-.47-.07.144-.713.623-.759.797zm-7.844-3.382c-.017.13.561.435.603.628.014.052-.915-.512-1.194-.502-.218.008-1.982 1.038-3.329 1.088-.444.017-1.207-.137-1.578-.357-.145-.086-1.113-.609-.855-.905.037-.042 5.557-.156 5.921-.17.203-.099 1.024-.637 1.002-.558-.044.132-.549.623-.57.776zm17.093 5.633c-.018.07.469.249.5.356.01.028-.771-.299-1.011-.299-.188 0-1.729.526-2.886.526-.382 0-1.031-.1-1.344-.228-.122-.05-.938-.356-.708-.512.033-.022 4.772.028 5.084.028l.875-.284c-.042.071-.489.329-.51.412z"/><use xlink:href="#C"/><use xlink:href="#C" x="8" y="8"/></g><path d="M15.495 29.631c-.862-1.564-1.804-1.158-2.873-.561-2.134 1.191-4.412 1.089-6.678.526-1.121-.278-1.97-1.077-2.747-1.958-.294-.333-.241-.548.044-.835 2.05-2.057 4.453-2.125 6.965-1.337s2.12 1.121 3.051 1.909c.809.685.842.699 1.704.04L16 26.604l-.505 3.026z" fill="#012b5e"/></g><defs ><path id="B" d="M40.224 20.176c-.022.195.721.652.776.942.018.077-1.177-.768-1.536-.753-.281.012-2.549 1.556-4.28 1.632-.571.025-1.552-.205-2.029-.536-.186-.129-1.431-.913-1.1-1.358.047-.063 7.145-.235 7.613-.256.261-.148 1.316-.956 1.288-.837-.057.198-.707.934-.733 1.164z"/><path id="C" d="M38.24 30.166c-.039.147.569.599.589.83.008.062-.959-.751-1.276-.788-.248-.029-2.393.851-3.923.675-.505-.058-1.344-.369-1.731-.688-.151-.124-1.168-.897-.833-1.194.047-.042 6.304.79 6.717.838.244-.078 1.251-.557 1.215-.469-.07.144-.713.623-.759.797z"/></defs></svg>