<svg xmlns="http://www.w3.org/2000/svg" width="270" height="270"><path d="M110.4 257.8c-7.8-1-15.6-4.5-23.4-6.7s-14.5-6.7-22.3-11.2-13.4-10-19-15.6-11.2-12.3-15.6-19-9-14.5-11.2-22.3-5.6-15.6-6.7-23.4L10 135a167 167 0 0 1 2.2-24.6c1-7.8 4.5-15.6 6.7-23.4S25.6 72.5 30 64.7s10-13.4 15.6-19S58 34.6 64.7 30 79.2 21.2 87 19l23.4-6.7L135 10a167 167 0 0 1 24.6 2.2c7.8 1 15.6 4.5 23.4 6.7s14.5 6.7 22.3 11.2 13.4 10 19 15.6 11.2 12.3 15.6 19 9 14.5 11.2 22.3 5.6 15.6 6.7 23.4 2.2 16.7 2.2 24.6a167 167 0 0 1-2.2 24.6c-1 7.8-4.5 15.6-6.7 23.4s-6.7 14.5-11.2 22.3-10 13.4-15.6 19-12.3 11.2-19 15.6-14.5 9-22.3 11.2-15.6 5.6-23.4 6.7-16.7 2.2-24.6 2.2a167 167 0 0 1-24.6-2.2zm-20-230C77 33.4 64.7 42.4 54.6 52.4S35.7 74.7 30 88a118 118 0 0 0-8.9 44.6c0 15.6 3.3 30 9 44.6a102 102 0 0 0 24.6 35.7c10 10 22.3 19 35.7 24.6a118 118 0 0 0 44.6 8.9c15.6 0 30-3.3 44.6-9a102 102 0 0 0 35.7-24.6c10-10 19-22.3 24.6-35.7a118 118 0 0 0 8.9-44.6c0-15.6-3.3-30-9-44.6a102 102 0 0 0-24.6-35.7c-10-10-22.3-19-35.7-24.6a118 118 0 0 0-44.6-8.9c-15.6 0-30 3.3-44.6 9zM106 186.3c-1 0-1-1-2.2-1L63.6 145c-1-1-2.2-3.3-2.2-4.5s1-3.3 2.2-4.5S67 134 68 134s3.3 1 4.5 2.2l35.7 35.7 89.3-89.3c1-1 3.3-2.2 4.5-2.2s3.3 1 4.5 2.2 2.2 3.3 2.2 4.5-1 3.3-2.2 4.5l-93.7 93.7c-1 1-1 1-2.2 1H106z" fill="#007b56" stroke="#007b56" stroke-width="20" fill-rule="evenodd"/></svg>