<svg xmlns="http://www.w3.org/2000/svg" width="29" height="29" fill="#ffc100" fill-rule="evenodd"><path d="M14.15 5.826c4.597 0 8.323 3.726 8.323 8.323s-3.726 8.323-8.323 8.323-8.323-3.727-8.323-8.323 3.726-8.323 8.323-8.323m0-1.248c.687 0 1.248-2.804 1.248-3.433S14.838 0 14.15 0 12.9.513 12.9 1.144s.562 3.433 1.248 3.433M9.402 5.794c.553-.32-.398-3.04-.703-3.6-.328-.54-1.012-.7-1.528-.357-.485.324-.653.983-.387 1.517.304.55 2.064 2.756 2.617 2.43M2.275 8.597c.57.343 3.208 1.392 3.52.793s-1.87-2.6-2.383-2.953c-.53-.37-1.233-.198-1.57.384s-.18 1.353.35 1.724l.083.052m2.303 5.553c0-.687-2.804-1.248-3.433-1.248S0 13.46 0 14.15s.513 1.248 1.144 1.248 3.433-.562 3.433-1.248M2.275 19.7c-.557.32-.77 1.074-.48 1.685s.978.848 1.534.528l.083-.053c.57-.343 2.7-2.353 2.382-2.952s-3.007.45-3.52.793m4.51 5.234c-.284.568-.074 1.27.47 1.566a1.08 1.08 0 0 0 1.45-.406c.305-.55 1.238-3.273.705-3.592s-2.32 1.88-2.625 2.43m7.365-1.213c-.687 0-1.248 2.803-1.248 3.433s.56 1.144 1.248 1.144 1.248-.513 1.248-1.144-.562-3.433-1.248-3.433m4.746-1.215c-.553.32.398 3.04.703 3.6.328.54 1.012.7 1.528.357.485-.324.653-.983.387-1.518-.304-.55-2.064-2.756-2.617-2.43m7.198-2.904c-.55-.304-3.273-1.256-3.592-.703s1.88 2.313 2.43 2.617c.568.284 1.27.074 1.566-.467.28-.5.103-1.138-.406-1.447m1.06-6.7c-.63 0-3.433.562-3.433 1.248s2.804 1.248 3.433 1.248 1.144-.56 1.144-1.248-.513-1.248-1.144-1.248m-1.06-4.2c.54-.328.7-1.012.357-1.528-.323-.485-.983-.653-1.517-.387-.55.304-2.756 2.064-2.43 2.617s3.04-.398 3.6-.703m-4.233-5.275c.368-.534.197-1.24-.383-1.58s-1.35-.182-1.72.352l-.053.084c-.342.515-1.412 3.2-.8 3.516s2.6-1.855 2.944-2.37"/></svg>