<svg xmlns="http://www.w3.org/2000/svg" width="20" height="20" xmlns:v="https://vecta.io/nano"><path d="M19.854 8.646a.5.5 0 0 0-.707 0l-1.149 1.149a7.94 7.94 0 0 0-2.341-5.452C14.146 2.832 12.137 2 10 2a7.99 7.99 0 0 0-7.077 4.266.5.5 0 1 0 .884.468A6.99 6.99 0 0 1 10 3a7.01 7.01 0 0 1 6.997 6.789l-1.143-1.143a.5.5 0 0 0-.707.707l2 2a.5.5 0 0 0 .708 0l2-2a.5.5 0 0 0 0-.707zm-2.985 4.412a.5.5 0 0 0-.676.208A6.99 6.99 0 0 1 10 17a7.01 7.01 0 0 1-6.997-6.789l1.143 1.143a.5.5 0 1 0 .708-.707l-2-2a.5.5 0 0 0-.707 0l-2 2a.5.5 0 0 0 0 .707.5.5 0 0 0 .707 0l1.149-1.149a7.94 7.94 0 0 0 2.341 5.452C5.855 17.168 7.864 18 10.001 18a7.99 7.99 0 0 0 7.077-4.266.5.5 0 0 0-.208-.676z"/></svg>