<?xml version="1.0" encoding="utf-8"?>
<!-- Generator: Adobe Illustrator 24.1.1, SVG Export Plug-In . SVG Version: 6.00 Build 0)  -->
<svg version="1.1" id="Layer_1" xmlns="http://www.w3.org/2000/svg" xmlns:xlink="http://www.w3.org/1999/xlink" x="0px" y="0px"
	 viewBox="0 0 512 512" style="enable-background:new 0 0 512 512;" xml:space="preserve">
<g>
	<path d="M106.7,426.7h234.7c94.3,0,170.7-76.4,170.7-170.7v-64h-42.7l0,64c0,35.4-14.3,67.3-37.5,90.5
		c-23.2,23.2-55.1,37.5-90.5,37.5H106.7V426.7L106.7,426.7z M155.6,304.9L55.2,405.3l100.4,100.4l30.2-30.2l-70.2-70.2l70.2-70.2
		L155.6,304.9L155.6,304.9z M405.3,85.3H170.7C76.4,85.3,0,161.7,0,256v64h42.7l0-64c0-35.4,14.3-67.3,37.5-90.5
		c23.2-23.2,55.1-37.5,90.5-37.5h234.7V85.3L405.3,85.3z M326.2,36.4l70.2,70.2l-70.2,70.2l30.2,30.2l100.4-100.4L356.4,6.2
		L326.2,36.4L326.2,36.4z"/>
</g>
</svg>
