<svg xmlns="http://www.w3.org/2000/svg" width="224" height="224" viewBox="0 0 168 168" preserveAspectRatio="xMidYMid meet"  xmlns:v="https://vecta.io/nano"><path d="M75 4.1c-11.1 1-16.4 2.6-27.5 7.9C26.3 22.3 12 39 4.8 62c-2 6.5-2.3 9.6-2.3 22.5s.3 16 2.3 22.5c10.3 32.6 35.7 54 69.2 58.1 21.4 2.6 42.3-3.6 59.6-17.6 13.6-11 22.7-24.8 27.5-41.8 1.9-6.6 2.3-10.7 2.3-21.2 0-14.9-1.9-23.5-8-35.8-12-24.4-36.8-42-62.2-44.2l-8.7-.9c-1.1-.1-5.4.1-9.5.5zm24 12.5c13.6 3.2 27.6 11.9 37.4 23.4 5.4 6.2 12.7 20.8 14.7 29 1.9 7.8 1.6 25-.5 32.9-6.3 23.2-23.9 41.8-46.9 49.5-12.3 4.1-30.5 3.8-43.7-.8-10.5-3.6-17.5-8.1-26.5-17.1C4.9 105.1 6.4 59.1 36.7 32.1c7-6.3 18.9-12.6 28.5-15.1 9.1-2.4 24.7-2.6 33.8-.4zM51.1 38.7c-6.7 3.4-9.3 13.2-5.2 19.9 3.7 6.1 13.4 8.1 19.6 4 7.5-4.9 7.5-18.3 0-23.2-3.7-2.4-10.4-2.8-14.4-.7zM59.5 51c0 1.6-.6 2.6-1.8 2.8-1.9.4-3.2-2-2.3-4.4.9-2.5 4.1-1.3 4.1 1.6zm41.7-12c-1.8 1.1-4.1 3.4-5.2 5.2-7.1 11.7 7.1 25.9 18.8 18.8 4.2-2.6 7.2-7.6 7.2-12 0-7.1-6.9-14-14-14-1.9 0-5 .9-6.8 2zm8.8 10.6c1.1 1.2 1 1.8-.3 3.2-1.6 1.5-1.8 1.5-3.4 0-1.3-1.4-1.4-2-.3-3.2.7-.9 1.6-1.6 2-1.6s1.3.7 2 1.6zM28.7 80.8c-3.4 3.7-1.6 16.3 4 28.2 6.5 13.7 20.1 25 35.6 29.5 7.5 2.2 21.9 2.2 29.4 0 20.1-5.8 35.5-22.5 39.8-43 2-9.4 1.9-12.1-.5-14.5-1.9-1.9-3.3-2-54.3-2-49.5 0-52.5.1-54 1.8zm97.9 12.9c-2.2 12.3-12.9 25.7-25.6 31.7-6.1 2.9-7.2 3.1-18.1 3.1-11.3 0-11.6-.1-19.2-3.8-4.8-2.4-9.6-5.8-12.7-8.9-5.6-5.7-10.9-15.4-11.7-21.7l-.6-4.1h88.5l-.6 3.7z"/></svg>