<svg xmlns="http://www.w3.org/2000/svg" width="20" height="20"><path d="M9.5 20a9.44 9.44 0 0 1-6.718-2.782C.987 15.424 0 13.038 0 10.5a9.44 9.44 0 0 1 2.782-6.718C4.576 1.988 6.962 1 9.5 1s4.923.988 6.718 2.783S19 7.963 19 10.5s-.988 4.923-2.782 6.717A9.44 9.44 0 0 1 9.5 20zm0-18A8.51 8.51 0 0 0 1 10.5 8.51 8.51 0 0 0 9.5 19a8.51 8.51 0 0 0 8.5-8.5A8.51 8.51 0 0 0 9.5 2zm-3 6a1.5 1.5 0 1 1 0-3 1.5 1.5 0 1 1 0 3zm0-2a.5.5 0 1 0 0 1 .5.5 0 1 0 0-1zm6 2a1.5 1.5 0 1 1 0-3 1.5 1.5 0 1 1 0 3zm0-2a.5.5 0 1 0 0 1 .5.5 0 1 0 0-1zm3.423 6.233a.5.5 0 0 0-.521-.224c-.187.037-.368.056-.536.056-.872 0-1.402-.503-1.962-1.036C12.37 10.523 11.82 10 11 10c-.597 0-1.133.263-1.5.68-.367-.416-.903-.68-1.5-.68-.82 0-1.37.524-1.903 1.03-.56.533-1.1 1.036-1.962 1.036a2.84 2.84 0 0 1-.536-.056.5.5 0 0 0-.498.791c1.157 1.543 2.642 1.867 3.685 1.867a4.95 4.95 0 0 0 1.355-.187c.53-.154 1.018-.542 1.36-1.028.343.486.83.873 1.36 1.028a4.95 4.95 0 0 0 1.355.187 4.46 4.46 0 0 0 3.685-1.867.5.5 0 0 0 .023-.567zM7.86 13.52c-.188.055-.58.147-1.076.147-.585 0-1.35-.13-2.07-.654.935-.18 1.556-.768 2.07-1.258C7.277 11.287 7.6 11 8 11a1 1 0 0 1 1 1c0 .6-.554 1.35-1.14 1.52zm4.355.147c-.497 0-.887-.092-1.076-.147-.586-.17-1.14-.9-1.14-1.52a1 1 0 0 1 1-1c.4 0 .722.287 1.214.755.515.5 1.135 1.08 2.07 1.257-.72.523-1.485.654-2.07.654z"/></svg>
