<svg xmlns="http://www.w3.org/2000/svg" width="41" height="44" fill="#6f6cac" fill-rule="evenodd"><path d="M24.66 11.66l.46-.46 2.42.58c.14.04.28.03.4-.02.13-.05.24-.12.34-.23L31.2 8c.08-.1.14-.2.16-.34s.02-.25-.03-.4c-.04-.1-.1-.2-.2-.3s-.2-.16-.32-.18l-6.6-1.8.28-.28 8.96.7c.12.02.23 0 .33-.04s.2-.1.27-.18a28.4 28.4 0 0 1 2.25-2.06 12.3 12.3 0 0 1 1.66-1.16c.44-.24.8-.4 1.06-.42.14-.02.33-.02.42.06.06.06.1.2.06.42-.03.26-.17.6-.42 1.05a12.9 12.9 0 0 1-1.16 1.66 26.6 26.6 0 0 1-2.06 2.25c-.08.08-.14.18-.18.28s-.05.2-.04.3l.7 8.97-.28.28-1.8-6.62c-.03-.13-.1-.24-.18-.34-.08-.08-.18-.15-.3-.2-.07-.02-.14-.03-.2-.03-.05 0-.1.01-.15.01-.13.02-.24.08-.34.16l-3.54 2.9a.7.7 0 0 0-.24.34c-.05.14-.05.3-.01.42l.58 2.42-.46.46-1.65-2.75c-.02-.04-.05-.08-.08-.1l-.1-.1c-.03-.03-.07-.06-.1-.07l-2.76-1.65zM22.22 5.9c.1.1.2.16.34.2l6.76 1.85-1.87 2.3-2.38-.57c-.12-.03-.25-.02-.37.01s-.23.1-.32.2l-1.43 1.43c-.08.08-.14.18-.18.28s-.05.22-.04.35c.01.1.05.22.1.3s.14.18.25.24l3.42 2.05 2.04 3.4c.02.04.05.08.08.1l.17-.17-.13.2c.06.06.12.1.2.15s.15.06.25.08a.9.9 0 0 0 .32-.04c.1-.04.2-.1.3-.18l1.44-1.43c.1-.1.15-.2.2-.32s.03-.25 0-.38l-.57-2.37 2.3-1.87 1.85 6.76a.7.7 0 0 0 .2.34c.1.1.2.16.34.2.06.02.13.03.2.03s.13-.01.2-.03c.13-.03.24-.1.33-.2l1.43-1.43c.08-.08.13-.17.17-.28.04-.1.05-.2.04-.3l-.7-8.97 1.13-1.2 1-1.17.77-1.06c.22-.34.4-.66.54-.95.37-.77.5-1.37.4-1.84-.1-.45-.26-.8-.5-1.03s-.58-.4-1.04-.5c-.47-.1-1.07.03-1.84.4-.3.14-.62.33-.95.54l-1.06.77-1.17 1-1.2 1.14-8.96-.7c-.12-.01-.23 0-.34.04-.1.04-.2.1-.26.17l-1.48 1.4c-.1.1-.15.2-.2.33s-.03.26 0 .38a.7.7 0 0 0 .19.34zM20.9 31.56a2.3 2.3 0 0 1-1.34 1.2l-9.2 3.27c-1.23.44-2.58-.2-3.02-1.4L2.1 20.23l3.8-1.34.8 2.2c.14.37.5.6.88.6.1 0 .2-.02.3-.05.48-.17.73-.7.56-1.17l-.8-2.2 2.82-1 .8 2.2c.17.48.7.72 1.2.55a.9.9 0 0 0 .56-1.17l-.8-2.2 3.54-1.26L21 29.77a2.3 2.3 0 0 1-.09 1.78zM5.7 12.87c-.01-.02.01-.05.03-.06l2.73-.97c.02-.01.05.01.06.03l1.33 3.66-2.8 1-1.33-3.66zm11.5 1.03c-.17-.48-.7-.72-1.2-.55l-4.4 1.55-1.33-3.66a1.9 1.9 0 0 0-2.44-1.14l-2.73.97c-.48.17-.86.5-1.08.97s-.24.97-.07 1.44l1.33 3.66L.62 18.8c-.23.08-.42.25-.53.47s-.12.47-.03.7L5.6 35.24a4.1 4.1 0 0 0 2.17 2.36 4.2 4.2 0 0 0 1.8.4 4.2 4.2 0 0 0 1.43-.25l9.2-3.27c1.06-.38 1.9-1.14 2.4-2.15a4.1 4.1 0 0 0 .15-3.19L17.2 13.9zm19.78 20.4c-1.02.57-2.27.65-3.36.22l-1.2-.48c-.92-.37-1.64-1.06-2.02-1.95-.22-.53-.3-1.08-.26-1.63l7.78 3.1a3.7 3.7 0 0 1-.93.74m-4.27-7.74l1.43-1 4.64 1.85.25 1.66c.15 1.03.03 2.07-.32 3.05l-8.07-3.23c.5-.92 1.2-1.72 2.07-2.34m8 2.28l-.26-1.74c-.06-.5-.4-.94-.9-1.14L34.7 24c-.5-.2-1.06-.12-1.47.18l-1.5 1.06a8.4 8.4 0 0 0-2.86 3.45c-.57 1.28-.58 2.7-.03 4a5.2 5.2 0 0 0 2.65 2.7l-2.46 5.36-2.5-1c-.43-.17-.93.02-1.1.43s.02.9.45 1.06l6.74 2.7a.8.8 0 0 0 .37.06c.3-.02.6-.2.74-.5a.8.8 0 0 0-.45-1.06l-2.67-1.07 2.45-5.35a5.7 5.7 0 0 0 4.8-.34 5.4 5.4 0 0 0 2.28-2.48 8 8 0 0 0 .6-4.37"/></svg>