<svg xmlns="http://www.w3.org/2000/svg" width="25" height="26"><path d="M2.3 25.2c-.5 0-.9-.2-1.3-.5s-.5-.8-.5-1.3V3c0-.5.2-.9.5-1.3s.8-.5 1.3-.5h20.4c.5 0 .9.2 1.3.5s.5.8.5 1.3v20.4c0 .5-.2.9-.5 1.3s-.8.5-1.3.5H2.3zM1.9 2.6c-.1.1-.2.3-.2.4v20.4c0 .2.1.3.2.4s.3.2.4.2h20.4c.2 0 .3-.1.4-.2s.2-.3.2-.4V3c0-.2-.1-.3-.2-.4s-.3-.2-.4-.2H2.3c-.2 0-.3.1-.4.2zm6.3 17.8s-.1 0-.1-.1c-.1-.1-.2-.1-.2-.2s-.1-.2-.1-.3V6.6c0-.1 0-.2.1-.3s.1-.2.2-.2c.1-.1.2-.1.3-.1s.2 0 .3.1l9.8 6.8c.1.1.1.2.1.3s0 .2-.1.3-.1.2-.2.2l-9.6 6.6c-.1 0-.1.1-.2.1h-.3zm.7-1.7l7.9-5.5-7.9-5.4v10.9z" fill="#a0afb8" stroke="#a0afb8" stroke-width=".5" fill-rule="evenodd"/></svg>