<svg xmlns="http://www.w3.org/2000/svg" width="122.878" height="88.858" xmlns:v="https://vecta.io/nano"><path d="M17.215 43.332l10.399 10.57c1.096-1.28 2.282-2.497 3.551-3.642 7.666-6.908 18.284-11.183 30.038-11.183v.029h.001 0v-.029c11.754 0 22.373 4.275 30.039 11.184 1.416 1.276 2.73 2.644 3.93 4.09l10.489-10.489a54.16 54.16 0 0 0-4.525-4.594c-10.243-9.233-24.363-14.944-39.932-14.944v-.029h0-.001v.029c-15.567 0-29.688 5.711-39.931 14.944-1.43 1.287-2.784 2.645-4.058 4.064h0zm44.441 5.223h0l.001.028c10.656.001 20.332 3.913 27.358 10.237l.003.002-8.575 8.575-1.977 1.848c-4.388-3.666-10.294-5.908-16.81-5.908v.029h-.001-.001v-.029c-6.846 0-13.019 2.476-17.464 6.477l-.33.302-10-10.895.438-.4C41.324 52.496 51 48.584 61.655 48.583l.001-.028h0 0zm.277 23.124c4.264 0 8.143 1.648 11.036 4.341L60.5 88.858 49.909 77.021a16.16 16.16 0 0 1 12.024-5.342h0zM10.005 34.716a65.01 65.01 0 0 1 1.929-1.813c12.421-11.195 29.61-18.121 48.619-18.121v.029h.001 0v-.029c19.01 0 36.198 6.926 48.619 18.122 1.122 1.011 2.204 2.058 3.246 3.137l10.458-10.458c-1.226-1.262-2.496-2.487-3.811-3.672C104.068 8.392 83.378.029 60.555.029V0h0-.001v.029c-22.823 0-43.513 8.363-58.512 21.882A75.31 75.31 0 0 0 0 23.818l10.005 10.898h0z"/></svg>