<svg xmlns="http://www.w3.org/2000/svg" width="322" height="480" fill="none" fill-rule="evenodd" xmlns:v="https://vecta.io/nano"><g fill-rule="nonzero"><path d="M95.845 73.93c-2.956-3.338-4.622-6.855-5.39-10.495-1.202-5.692-.208-11.683 1.48-17.758.66-2.37 1.59-4.68 2.568-6.943.783-1.813 2.18-2.18 3.887-1.074 15.6 10.123 32.944 13.24 51.257 14.847 20.31 1.782 40.145 1.974 58.89-5.893a107.57 107.57 0 0 0 7.288-3.384c2.896-1.478 5.618-3.323 8.328-5.136 2.357-1.577 3.373-1.588 4.628.92 5.762 11.51 7.492 23-.816 34.177-1.343 1.174-2.262 1.263-2.758.266-.108-.217-2.823-2.86-7.437-2.99-4.468-.125-10.57 7.533-17.85 7.477-6.436-.05-16.362-3.74-21.568-7.477-5.95 3.74-11.673 7.457-17.85 7.477-6.3.02-13.387-3.74-19.337-7.477-5.206 3.74-11.206 7.423-16.362 7.477-7.536.08-13.895-7.577-18.593-7.477-4.967.105-8.07 2.878-8.18 2.99-.496.498-1.223.656-2.182.473z" fill="#f6f0e3"/><path d="M99.79 74.568c-4.82-6.065-6.91-11.49-6.266-16.278.964-7.182 2.892-16.757 4.82-17.715s6.944 3.66 11.57 5.267c9.64 3.35 25.066 7.66 40.49 8.618s25.066 2.394 40.49-.48c10.283-1.915 22.013-6.703 35.188-14.363 3.856 5.745 5.463 11.33 4.82 16.757s-2.732 11.49-6.266 18.194l-7.23-4.788c-5.784 5.426-11.9 8.14-18.317 8.14s-13.015-2.713-19.763-8.14c-5.463 5.426-11.57 8.14-18.317 8.14s-13.015-2.713-18.8-8.14c-4.82 5.745-10.444 8.458-16.87 8.14s-12.212-3.032-17.353-8.14l-8.195 4.788z" fill="#fff"/><path d="M95.845 74.245c-7.58-8.63-6.677-18.45-3.912-28.494.66-2.39 1.59-4.72 2.568-7.002.783-1.828 2.18-2.2 3.887-1.083 15.6 10.21 32.944 13.353 51.257 14.973 20.31 1.797 40.145 2 58.89-5.943 2.448-1.036 4.878-2.172 7.288-3.413 2.896-1.49 5.618-3.35 8.328-5.18 2.357-1.59 3.373-1.6 4.628.928 5.762 11.61 7.492 23.195-.816 34.468-1.343 1.184-2.262 1.274-2.758.268s-.496-1.76 0-2.262c2.975-5.027 4.462-9.803 4.462-14.327s-.992-9.05-2.975-13.573c-.496-1.005-1.24-1.508-2.23-1.508-1.487 0-17.85 15.08-57.268 14.327-26.28-.503-48.59-4.776-66.936-12.82-1.487-1.508-2.727-1.508-3.72 0-1.487 2.262-3.72 10.557-2.975 15.08.496 3.016 1.983 7.29 4.462 12.82.496 1.005.496 1.76 0 2.262s-1.223.662-2.182.477z" fill="#1c1a37"/><path d="M254.56 68.362v142.052l-5.978.07-10.117.134c-.31-.134-.982-.506-1.687-.894l-.353-.194c-1-.55-1.95-1.056-1.898-.893.188.496 2.2 2.29 2.297 2.874.083.49-2.1 1.734-2.25 2.478-.047.198 3.47-2.08 4.548-2.08.844 0 7.783 3.667 12.988 3.667.683 0 1.556-.1 2.45-.298v-4.863l4.635-.032h.467c1.033.001 1.66.013 1.685.04 1.032 1.1-2.64 3.22-3.188 3.568-.847.537-2.246 1.003-3.6 1.288v29.26l-5.032 1.83-.73.268-8.18 3.008c-.69-.123-3.62-1.126-3.474-.866.27.426 2.247 1.618 2.472 2.15.19.45-1.135 2.215-1.048 2.964.016.202 2.067-2.904 2.877-3.187.634-.22 6.8 1.47 10.71.106.69-.24 1.59-.764 2.404-1.386v-4.89c1.862-.67 3.157-1.117 3.2-1.086 1.058.774-1.148 3.778-1.47 4.255-.383.568-1.024 1.18-1.73 1.72v230.287H67.277l-.001-250.855c-.202-.095-.35-.153-.438-.166-1.06-.156-4.862 1.322-4.786 1.157.25-.627 2.592-1.394 2.584-1.833-.01-.522-1.722-2.376-1.833-2.835-.048-.272 2.848 1.877 3.58 2.295l.892.123v1.26c1.707.803 7.217 4.23 11.798 4.902 1.69.248 4.672.065 6.19-.51.592-.224 4.523-1.55 3.67-2.648-.055-.07-4.496-.69-9.43-1.36l-3.535-.478-8.693-1.167v-8.038c1.07-.295 2.187-.742 2.834-1.206.4-.286 3.086-2.06 2.223-2.775-.044-.037-2.234.16-5.057.428v3.553c-.623.172-1.228.292-1.714.334-4 .344-9.57-1.834-10.22-1.778-.83.07-3.387 1.942-3.363 1.796.06-.544 1.667-1.582 1.572-1.93-.113-.412-1.775-1.57-1.95-1.914-.09-.208 2.52.968 3.155 1.165l12.522-1.225V68.362c4.46 8.202 10.652 8.818 18.58 8.818h.74c7.62-.044 14.31-.87 20.07-8.816 5.757 7.94 11.513 8.77 17.27 8.816h.566.565c5.74-.045 11.25-.875 16.528-8.816 6.936 8.202 13.377 8.818 19.323 8.818h.566c5.757-.045 11.513-.875 17.27-8.816 4.955 8.202 11.395 8.818 19.323 8.818s14.368-.617 19.323-8.818c6.236 7.94 12.473 8.77 18.71 8.816h.613.602c6.2-.044 11.954-.87 17.234-8.816zm-41.586 213.77c-5.495-5.376-11.935-5.553-18.67-3.494-3.072.94-5.682 2.93-8.178 5-2.167 1.8-2.257 1.827-4.566.106l-2.785-2.12 1.354 7.91c2.31-4.088 4.836-3.025 7.7-1.466 5.72 3.112 11.824 2.845 17.9 1.376 3.004-.727 5.28-2.814 7.36-5.118.787-.87.647-1.432-.118-2.18zm-8.775-37.8c.126.386 1.612 1.845 1.666 2.294.046.378-1.69 1.23-1.827 1.792-.043.15 2.753-1.436 3.584-1.388.65.037 5.868 3.14 9.883 3.37 1.325.075 3.606-.326 4.723-.944l.378-.205.225-.125c.96-.543 2.572-1.574 1.987-2.253-.054-.062-4.196-.26-8.46-.45l-.776-.034-8.418-.37c-.602-.3-3.026-1.916-2.965-1.685zm12.908-9.573c.203.472 2.266 2.135 2.382 2.695.098.472-2.05 1.756-2.166 2.48-.04.193 3.395-2.142 4.47-2.182.842-.03 7.88 3.258 13.07 3.065 1.713-.064 4.608-.844 5.982-1.76.536-.357 4.13-2.554 3.067-3.57-.007-.007-.064-.01-.164-.012h-.184c-1.332.013-6.27.245-11.187.49l-11.28.565c-.806-.306-4.094-2.055-3.99-1.77zm-68.816-.87c.188.496 2.2 2.29 2.297 2.874.083.49-2.1 1.734-2.25 2.478-.047.198 3.47-2.08 4.548-2.08.844 0 7.783 3.667 12.988 3.667 1.718 0 4.642-.694 6.05-1.586.55-.348 4.22-2.478 3.188-3.568-.146-.155-21.475.198-22.88.198-.797-.347-4.032-2.28-3.94-1.982zm-47.972 1.693l-12.41 1.13c-.82-.236-4.194-1.65-4.076-1.4.227.413 2.375 1.804 2.52 2.3.123.417-1.95 1.663-2.03 2.316-.03.175 3.273-2.07 4.344-2.155.838-.067 8.034 2.55 13.202 2.14 1.706-.136 4.552-.965 5.875-1.846.516-.344 3.985-2.472 2.87-3.33-.076-.06-5.028.373-10.295.848zm99.123-3.52l-.794.116-10.35 1.515c-.194-.048-.527-.153-.923-.284l-.354-.118c-1.342-.45-3.11-1.07-3.013-.886.26.43 2.556 1.81 2.735 2.335.15.442-1.918 1.888-1.96 2.592-.02.19 3.26-2.394 4.36-2.54.862-.116 8.443 2.314 13.755 1.602 1.753-.235 4.644-1.275 5.96-2.3l.108-.082c.765-.576 3.8-2.827 2.663-3.644-.1-.065-6.22.814-12.185 1.685zm-86.706-5.202l-1.875.23-7.454.918c-.61-.236-3.11-1.647-3.024-1.398.17.413 1.76 1.802 1.87 2.297.09.417-1.448 1.663-1.506 2.315-.022.175 2.43-2.07 3.223-2.155.622-.067 5.96 2.546 9.794 2.134 1.266-.136 3.377-.966 4.36-1.847.383-.344 2.957-2.47 2.13-3.33-.056-.058-3.655.365-7.516.836zm72.498-5.177c.04-.225-2.232 1.515-2.805 1.85l-9.496 1.205-7.995 1.1c-.676.897 2.345 2.043 2.8 2.236 1.165.494 3.47.683 4.78.5 3.974-.554 8.898-3.94 9.542-4.03.823-.115 3.74 1.156 3.685 1.018-.183-.522-1.984-1.185-1.972-1.55.007-.19.27-.584.57-1l.262-.358c.305-.414.587-.796.628-.96zm4-4.337c.254.62 2.98 2.864 3.113 3.593.112.614-2.86 2.168-3.05 3.097-.064.248 4.7-2.602 6.162-2.602 1.143 0 10.545 4.584 17.596 4.584 2.327 0 6.29-.867 8.195-1.982.743-.435 5.717-3.097 4.32-4.46-.032-.03-.798-.046-2.07-.048h-1.046l-13.54.12-14.343.175c-1.08-.434-5.463-2.85-5.336-2.478z" fill="#0074fc"/></g><path d="M93.41 49.2l6.308 3.658m3.958 2.163l1.547.794 1.755.836m5.446 2.147l2.613.787 2.312.534 2.774.483 2.366.33 4.892.464" stroke="#1c1a37" stroke-width="3.484" stroke-linecap="round"/><g fill-rule="nonzero"><path d="M206.492 10.747h19.32v5.77h-12.52v3.634h11.577v5.736h-11.577v3.733h12.482v5.768H206.49zm-8.91 12.32c-.033-4.002-3.08-6.738-6.715-6.738-3.667 0-6.68 2.84-6.68 6.738 0 3.934 2.976 6.738 6.68 6.738 3.808 0 6.715-2.873 6.715-6.738M177.5 23.1c0-7.32 5.746-13.1 13.358-13.1 7.65 0 13.395 5.815 13.395 13.1 0 7.25-5.7 13.032-13.358 13.032-7.72 0-13.395-5.747-13.395-13.032M174.538 10v25.386h-4.76l-11.352-13.603v9.87c0 2.062-1.664 3.733-3.716 3.733h-2.465V10h4.526l11.553 13.776V14.48a4.47 4.47 0 0 1 4.459-4.48h1.757zM132.33 25.305c3.347.954 8.9 4.737 7.353 1.587-.17-.897-3.77-8.83-4-8.834-.22-.004-2.58 4.664-2.558 5.284m-6.04-1.314c1.737-3.576 5.36-11.54 5.364-12.005l5.907-.023c.358-.002 11.148 25.42 11.633 25.43.08.462.007.72-.6.702-1.737-.057-3.477-.052-5.217-.07.1-.576-4.503-8.726-12.536-8.726 0 0-3.03 7.996-3.6 8.763-1.474.057-5.534-.005-7-.016-.013-.232 3.273-7.2 3.273-7.2.493-.88 2.78-6.865 2.78-6.865z" fill="#1c1a37"/><path d="M124.996 20.96c3.406 0 16.35 1.67 19.074 14.933-2.044-2.653-7.493-8.278-12.943-7.295-3.633.656-5.904.983-6.812.983-3.18-.442-4.768-1.768-4.768-3.98 0-3.316 3.406-4.642 5.45-4.642z" fill="#fbb315"/><path d="M94.28 23.187c0-7.8 5.973-13.187 13.233-13.187 4.726 0 8.72 2.056 11 5l-4.133 4.28c-1.67-1.78-3.855-3.15-6.46-3.15-3.892 0-6.95 2.945-6.95 7.02 0 3.973 3.024 6.884 6.912 6.884 2.57 0 4.933-1.3 6.6-3.252l4.308 4.075c-2.223 2.9-6.358 5.274-11.324 5.274-7.4 0-13.2-5.204-13.2-12.945" fill="#1c1a37"/></g><g stroke="#1c1a37"><g stroke-linecap="round"><path d="M67.277 68.362c4.46 5.807 10.652 8.71 18.58 8.71s14.864-2.904 20.81-8.71c5.945 5.807 11.89 8.71 17.836 8.71s11.643-2.904 17.093-8.71c6.936 5.807 13.377 8.71 19.323 8.71s11.89-2.904 17.836-8.71c4.955 5.807 11.395 8.71 19.323 8.71s14.368-2.904 19.323-8.71c6.44 5.807 12.882 8.71 19.323 8.71s12.386-2.904 17.836-8.71" stroke-width="4" stroke-linejoin="round"/><path d="M148.77 40.23l25.97 39.305m-24-41.79l-5.194 3.708" stroke-width="3.484"/></g><path d="M174.567 79.39l-.27.21a3.57 3.57 0 0 0-.397 5.033l7.128 8.343 4.103-2.872-5.407-9.548-.183-.29c-1.13-1.615-3.36-2.007-4.974-.877z" stroke-width="2.613" fill="#f6f0e3" fill-rule="nonzero"/></g><path d="M123.95 163.843c.03.167-2.853-1.936-3.777-2-.723-.05-6 7.433-10.084 8.17-3.06.55-6.267-2.207-7.215-4.79-.634-1.727-2.908-5.583-1.96-6.426.134-.12 17.636 1.45 18.842 1.533 1.716-.11 4.343-1.65 4.246-1.407-1.25 2.54-.127 4.295-.05 4.92z" fill="#0460cd"/><path d="M177.905 339.85c-.04.165 2.98-1.732 3.907-1.732.725 0 5.468 7.834 9.5 8.853 3.013.763 6.406-1.764 7.532-4.274.753-1.68 3.29-5.366 2.405-6.274-.126-.13-17.694.215-18.903.215-1.704-.23-4.218-1.948-4.137-1.7 1.07 2.62-.173 4.293-.294 4.912z" fill="#0468de"/><path d="M50.303 292.72c3.984 2.983 4.14 2.92 7.877-.183 4.305-3.572 8.808-7.02 14.107-8.65 11.616-3.57 22.725-3.263 32.204 6.056 1.32 1.298 1.562 2.27.204 3.78-3.592 3.994-7.516 7.612-12.698 8.87-10.48 2.547-21 3-30.877-2.385-4.943-2.702-9.298-4.543-13.285 2.542l-2.335-13.7 4.803 3.675zm35.86 32.964c3.38-2.532 8.298.318 8.5.415 4.435 2.218 7.497 3.105 11.828 4.435 9.858 3.03 14.785 2.218 25.668-2.495 2.136-.925 1.326-1.927.173-3.208-3.048-3.4-6.38-6.46-10.777-7.53-8.894-2.162-17.83-2.553-26.204 2.024-4.195 2.293-7.9 3.856-11.274-2.157l-1.982 11.634 4.076-3.12zm64.882 36.84c-2.77 2.065-2.88 2.02-5.48-.127-2.995-2.473-6.127-4.86-9.814-5.988-8.08-2.47-15.8-2.26-22.403 4.193-.92.9-1.087 1.572-.142 2.617 2.5 2.765 5.23 5.27 8.834 6.142 7.3 1.764 14.616 2.083 21.48-1.65 3.44-1.87 6.468-3.145 9.24 1.76l1.625-9.5-3.34 2.545zm13.383 55.69c-16.55 0-35.714-3.484-35.714-6.97s10.453-24.4 33.1-22.648 33.1 20.906 33.1 25.26-13.937 4.355-30.488 4.355z" fill="#0460cd"/><path d="M205.368 421.696c-8.71 1.742-17.13 2.613-25.26 2.613s-15.68-.87-22.648-2.613c1.16-12.776 5.226-19.164 12.195-19.164 10.453 0 6.97 11.324 11.324 11.324s6.97-9.582 14.808-6.97c5.226 1.742 8.42 6.678 9.582 14.808z" fill="#0468de"/><path d="M248.178 314.105c-4.658 9.485-8.973 16.717-10.145 21.48-.596 2.418-2.15 5.98.152 7.48 2.637 1.72 4.475-.514 6.472-3.344 1.287-1.823 15.406-18.238 19.232-20.65 8.132-5.128 14.028-3.086 16.3-.1 2.514 3.306 3 8.15-.44 12.413-6.627 8.2-18.413 8.764-27.31 13.77-6.943 3.907-13.2 7.476-18.867 12.98-1.712 1.664-3.056 6.955-1.284 9.627 1.562 2.356 9.733 5.743 30.17-9.057 10.64-7.704 18.09-9.858 18.375-2.05s-5.06 14.627-12.028 16.896c-12.297 4.003-15.73.92-28.172 1.565-5.405.28-8.837 3.576-9.875 7.74s4.178 6.404 12.88 4.288c8.92-2.168 14.876-1.923 21.194 1.55 5.737 3.155 2.234 11.946-5.913 15.55-11.606 5.136-26.386-15.38-32.878-11.4-9.456 5.813 6.555 20.71-4.072 23.46-2.842.735-6.257-2.86-7.468-5.45-.718-1.534.16-3.522-.16-5.462-.594-3.58-5.072-8.01-10.846-7.24s-16.56-5.234-14.224-14.6 14.084 6.287 17.39 8.436c4.56 2.965 7.333 4.36 9.695 3.843 3.817-.835 2.8-4.974 1.62-7.514-3.972-8.554-20.934-6.9-26.07-14.64-3.685-5.547-2.18-13.255.995-15.22 4.426-2.738 7.924 1.87 9.176 5.078 4.04 10.35 6.91 13.643 13.432 13.297 5.99-.318 2.49-10.692 1.27-14.052-2.648-7.292-6.943-11.495-9.24-16.673-3.077-6.928.715-19.29 8.332-19.373 10.48-.115 4.116 15.15 4.57 20.656.133 1.627-.08 3.833 2.348 4.312 2.36.466 4.242-.92 5.242-2.697 2.955-5.246 4.23-10.982 4.905-16.987.814-7.252.763-13.515-.26-20.54-1.38-9.48-3.714-21.17 5.448-21.852 17.065-1.272 12.193 20.118 10.057 24.468z" fill="#0460cd"/></svg>