<svg xmlns="http://www.w3.org/2000/svg" width="43" height="43"  fill-rule="evenodd" xmlns:v="https://vecta.io/nano"><circle fill="#fafaf5" fill-rule="nonzero" cx="21.5" cy="21.5" r="21.5"/><path d="M36.266 26.117H28.64a.67.67 0 0 0-.551.321c-1.054 1.9-3.334 3.429-5.974 3.429-4.146 0-7.5-3.806-7.5-8.408 0-4.718 3.354-8.581 7.5-8.581 2.597 0 4.834 1.543 5.928 3.41.052.093.26.284.528.284h7.639C34.505 9.978 29.163 6 22.115 6 13.307 6 7 12.935 7 21.4s6.307 15.287 15.115 15.287c7.104 0 12.446-3.922 14.151-10.57" fill="#22adb5"/></svg>